<svg width="27" height="26" viewBox="0 0 27 26" fill="none" xmlns="http://www.w3.org/2000/svg">
<path d="M5.07274 20.4224C4.61823 19.8606 4.16764 19.349 3.76817 18.7992C2.84261 17.5258 2.21273 16.1082 1.86831 14.5646C1.83056 14.3933 1.75664 14.3248 1.58522 14.2945C0.647082 14.1271 0.0588809 13.4514 0.0132717 12.4864C-0.00560106 12.0991 -0.0024556 11.7094 0.0109126 11.3214C0.0470854 10.2623 0.683255 9.58339 1.79753 9.42482C2.56345 6.09629 4.36266 3.48973 7.25727 1.69836C9.25542 0.462419 11.4447 -0.077859 13.7825 0.00899987C18.9993 0.203436 23.7576 4.14077 24.7704 9.42482C25.2611 9.46386 25.7038 9.62881 26.0561 9.99697C26.3919 10.3484 26.5759 10.7667 26.5845 11.2568C26.5916 11.6648 26.5924 12.0736 26.5845 12.4824C26.568 13.3972 25.9397 14.1455 25.0448 14.2857C24.8105 14.3224 24.7295 14.414 24.6753 14.6435C24.1775 16.7417 23.1827 18.5681 21.7091 20.1268C21.6352 20.2049 21.5644 20.2854 21.4401 20.4224C21.6226 20.4224 21.7437 20.4224 21.8648 20.4224C22.4443 20.4224 23.0247 20.4113 23.6042 20.4304C23.7513 20.4352 23.9707 20.4997 24.0186 20.6025C24.0666 20.7069 23.9833 20.9268 23.8889 21.0384C21.9308 23.3549 19.5025 24.9526 16.5623 25.6013C11.0837 26.8101 6.43709 25.2642 2.66804 21.0456C2.64838 21.0233 2.6185 21.0033 2.61142 20.9778C2.57682 20.8519 2.49189 20.6981 2.53436 20.6041C2.57525 20.5125 2.74668 20.4344 2.86306 20.4312C3.58887 20.416 4.31547 20.4232 5.07196 20.4232L5.07274 20.4224ZM13.2918 23.1429C19.4585 23.1286 24.4236 18.0868 24.4071 11.8553C24.3906 5.63251 19.3964 0.583543 13.2682 0.594699C7.10707 0.605855 2.14668 5.67236 2.16083 11.9389C2.1742 18.1362 7.1629 23.1573 13.2918 23.1429ZM3.4662 21.0209C8.82371 27.0548 18.2672 26.6563 23.0726 21.0201C22.4121 21.0201 21.7759 21.0296 21.1405 21.0153C20.8905 21.0097 20.6994 21.0838 20.4989 21.24C17.8535 23.2975 14.8693 24.1087 11.5705 23.6418C9.47953 23.3461 7.60405 22.4999 5.95033 21.1603C5.87091 21.0958 5.76317 21.0288 5.66802 21.0272C4.95164 21.0161 4.23527 21.0209 3.4662 21.0209ZM1.61431 13.6689V10.0695C1.10789 10.1715 0.684041 10.5357 0.638432 11.0425C0.589677 11.5939 0.588105 12.1565 0.636859 12.7079C0.683255 13.241 1.18496 13.6666 1.61431 13.6697V13.6689ZM24.9843 13.6761C25.4994 13.6275 25.9625 13.1478 25.9901 12.5661C26.0113 12.1103 26.0121 11.6513 25.9901 11.1955C25.9617 10.601 25.46 10.0942 24.9851 10.0958V13.6761H24.9843Z" fill="white"/>
<path d="M13.7838 5.25156C15.0137 5.26271 16.7657 5.38065 18.4493 5.97272C20.0102 6.52177 21.2786 7.43418 21.9926 9.00322C22.4597 10.0296 22.6225 11.1213 22.5486 12.2361C22.2946 16.0571 20.4679 18.8501 17.0433 20.4606C11.6519 22.9955 5.18173 19.51 4.16103 13.5844C3.91726 12.1692 3.91804 10.7683 4.40244 9.40086C5.03232 7.62384 6.35027 6.58313 8.05039 5.97352C9.4344 5.47707 11.1101 5.25156 13.7838 5.25156ZM13.2813 20.7037C13.6926 20.6694 14.107 20.6582 14.5135 20.5969C18.7803 19.9482 21.9014 16.344 21.9683 11.9755C21.9911 10.4894 21.671 9.10363 20.6157 7.98801C19.7861 7.11145 18.734 6.63333 17.5969 6.33291C15.7607 5.84841 13.8876 5.79422 12.0066 5.88029C10.7563 5.93686 9.5209 6.09624 8.32955 6.50981C6.76154 7.05408 5.52144 7.97605 4.94268 9.62159C4.56522 10.6942 4.51804 11.8066 4.65408 12.9254C5.1951 17.3664 8.88709 20.6829 13.2805 20.7045L13.2813 20.7037Z" fill="white"/>
<path d="M20.3144 11.9285C20.264 12.3517 20.2129 12.7756 20.1634 13.1987C20.1382 13.4147 20.0391 13.5741 19.8056 13.5294C19.5728 13.4848 19.5697 13.2975 19.5791 13.0864C19.6098 12.405 19.6719 11.7173 19.6177 11.0408C19.5398 10.0718 18.9996 9.36817 18.1251 8.98488C17.581 8.74582 16.9943 8.60477 16.4266 8.42308C16.3338 8.3936 16.204 8.41033 16.1466 8.35137C16.057 8.25893 15.9579 8.11231 15.9721 8.00313C15.9831 7.91787 16.1734 7.77842 16.2614 7.79356C17.371 7.99038 18.4515 8.27487 19.3094 9.0813C19.977 9.70923 20.2035 10.5324 20.2703 11.4169C20.2829 11.5851 20.2719 11.7548 20.2719 11.9237L20.3144 11.9277V11.9285Z" fill="white"/>
</svg>
