<svg width="52" height="52" viewBox="0 0 52 52" fill="none" xmlns="http://www.w3.org/2000/svg">
<circle cx="26" cy="26" r="24" fill="#F3F3F3"/>
<circle cx="26.0004" cy="26" r="25.2143" stroke="black"/>
<circle cx="26" cy="26" r="23.5" stroke="black"/>
<path d="M15.0238 36.2772C14.3945 35.4993 13.7706 34.791 13.2175 34.0297C11.9359 32.2665 11.0638 30.3036 10.5869 28.1664C10.5346 27.9292 10.4323 27.8343 10.1949 27.7924C8.89596 27.5607 8.08153 26.625 8.01838 25.2888C7.99224 24.7526 7.9966 24.2131 8.01511 23.6757C8.0652 22.2094 8.94605 21.2693 10.4889 21.0497C11.5494 16.441 14.0406 12.8319 18.0485 10.3516C20.8152 8.64027 23.8465 7.8922 27.0835 8.01246C34.3067 8.28168 40.8951 13.7334 42.2975 21.0497C42.9769 21.1038 43.5899 21.3322 44.0777 21.842C44.5426 22.3285 44.7974 22.9078 44.8094 23.5864C44.8192 24.1513 44.8203 24.7173 44.8094 25.2833C44.7865 26.55 43.9165 27.586 42.6775 27.7802C42.353 27.831 42.2409 27.9579 42.1657 28.2756C41.4765 31.1808 40.0992 33.7097 38.0587 35.8679C37.9564 35.976 37.8584 36.0874 37.6864 36.2772C37.939 36.2772 38.1066 36.2772 38.2743 36.2772C39.0768 36.2772 39.8803 36.2617 40.6828 36.2882C40.8864 36.2948 41.1902 36.3842 41.2566 36.5266C41.323 36.6711 41.2076 36.9756 41.0769 37.1301C38.3658 40.3376 35.0035 42.5498 30.9325 43.4479C23.3467 45.1217 16.9129 42.9812 11.6942 37.14C11.667 37.1091 11.6256 37.0815 11.6158 37.0462C11.5679 36.8719 11.4503 36.659 11.5091 36.5288C11.5657 36.4019 11.8031 36.2937 11.9642 36.2893C12.9692 36.2684 13.9753 36.2783 15.0227 36.2783L15.0238 36.2772ZM26.4041 40.0441C34.9425 40.0242 41.8173 33.0433 41.7945 24.415C41.7716 15.7989 34.8565 8.80798 26.3714 8.82343C17.8406 8.83888 10.9723 15.854 10.9919 24.5308C11.0104 33.1117 17.9179 40.0639 26.4041 40.0441ZM12.7994 37.1058C20.2174 45.4604 33.293 44.9088 39.9467 37.1047C39.0321 37.1047 38.1513 37.118 37.2715 37.0981C36.9253 37.0904 36.6607 37.193 36.3831 37.4092C32.7203 40.2581 28.5882 41.3813 24.0207 40.7348C21.1255 40.3254 18.5287 39.1537 16.2389 37.2989C16.1289 37.2095 15.9798 37.1168 15.848 37.1146C14.8561 37.0992 13.8642 37.1058 12.7994 37.1058ZM10.2352 26.9262V21.9424C9.534 22.0836 8.94713 22.5878 8.88398 23.2896C8.81648 24.0531 8.8143 24.8321 8.88181 25.5956C8.94604 26.3337 9.64071 26.9229 10.2352 26.9273V26.9262ZM42.5936 26.9362C43.3068 26.8689 43.9481 26.2046 43.9862 25.3992C44.0156 24.7681 44.0167 24.1325 43.9862 23.5014C43.947 22.6783 43.2524 21.9766 42.5947 21.9788V26.9362H42.5936Z" fill="#1F1F1F"/>
<path d="M27.0855 15.2714C28.7884 15.2868 31.2142 15.4501 33.5454 16.2699C35.7067 17.0301 37.4629 18.2935 38.4516 20.466C39.0983 21.8871 39.3237 23.3987 39.2214 24.9423C38.8697 30.2329 36.3404 34.1002 31.5986 36.3301C24.1337 39.8399 15.1749 35.0138 13.7617 26.8092C13.4241 24.8496 13.4252 22.9099 14.0959 21.0166C14.9681 18.5561 16.7929 17.1151 19.1469 16.271C21.0632 15.5836 23.3835 15.2714 27.0855 15.2714ZM26.3897 36.6666C26.9592 36.6192 27.533 36.6037 28.0959 36.5188C34.0038 35.6206 38.3253 30.6301 38.4178 24.5815C38.4494 22.5238 38.0063 20.605 36.5451 19.0603C35.3964 17.8466 33.9395 17.1846 32.3651 16.7686C29.8227 16.0978 27.2292 16.0228 24.6247 16.1419C22.8935 16.2203 21.183 16.4409 19.5335 17.0136C17.3624 17.7672 15.6453 19.0438 14.8439 21.3222C14.3213 22.8073 14.256 24.3476 14.4443 25.8967C15.1934 32.0457 20.3054 36.6379 26.3886 36.6677L26.3897 36.6666Z" fill="#1F1F1F"/>
<path d="M36.1276 24.5164C36.0579 25.1023 35.9871 25.6893 35.9185 26.2752C35.8837 26.5742 35.7465 26.7949 35.4231 26.7331C35.1008 26.6713 35.0965 26.412 35.1095 26.1196C35.152 25.1762 35.238 24.224 35.1629 23.2873C35.0551 21.9456 34.3071 20.9713 33.0963 20.4406C32.3429 20.1096 31.5306 19.9143 30.7445 19.6627C30.616 19.6219 30.4364 19.6451 30.3569 19.5634C30.2328 19.4354 30.0956 19.2324 30.1152 19.0813C30.1304 18.9632 30.3939 18.7701 30.5158 18.7911C32.0522 19.0636 33.5482 19.4575 34.7361 20.5741C35.6605 21.4436 35.9741 22.5833 36.0666 23.8081C36.084 24.0409 36.0688 24.2759 36.0688 24.5098L36.1276 24.5153V24.5164Z" fill="#1F1F1F"/>
</svg>
