<svg xmlns="http://www.w3.org/2000/svg" xmlns:xlink="http://www.w3.org/1999/xlink" viewBox="0 0 1050.03 801.14"><defs><style>.cls-1,.cls-4,.cls-8{fill:none;}.cls-2{isolation:isolate;}.cls-3{clip-path:url(#clip-path);}.cls-4,.cls-8{stroke:#fff;stroke-miterlimit:10;}.cls-5{fill:url(#무제_그라디언트_17);}.cls-6{fill:url(#무제_그라디언트_17-2);}.cls-10,.cls-7,.cls-9{fill:#fff;}.cls-8{opacity:0.8;}.cls-9{opacity:0.6;}.cls-10{opacity:0.4;}.cls-11{mix-blend-mode:overlay;}</style><clipPath id="clip-path" transform="translate(-411.53 68.55)"><rect class="cls-1" width="1440" height="600"/></clipPath><linearGradient id="무제_그라디언트_17" x1="1237.05" y1="284.78" x2="1415.31" y2="284.78" gradientUnits="userSpaceOnUse"><stop offset="0" stop-color="#ae97e3"/><stop offset="1" stop-color="#77c3e7"/></linearGradient><linearGradient id="무제_그라디언트_17-2" x1="1177.27" y1="284.78" x2="1502.12" y2="284.78" xlink:href="#무제_그라디언트_17"/></defs><g class="cls-2"><g id="레이어_1" data-name="레이어 1"><g class="cls-3"><path class="cls-4" d="M1210.19,308.68l12.71-5.5.22,14.32.23,14.31-12.87-5.09-.15-9Zm-183,2.89-4.66.07c-8.79.14-15.86,4.3-15.78,9.28s7.27,8.91,16.06,8.77l4.67-.07-.15-9Zm-24.76,2.91c-28.6-4.61-48.25-14.35-48.43-26h0c-.19-11.61,19.15-21.95,47.58-27.47,2.11,3.13,5.71,5.59,10.25,7l.31,19.53h0l.31,19.53C1007.93,308.72,1004.42,311.29,1002.41,314.48Zm-24.49-19.15a4.66,4.66,0,1,0-4.73-4.59A4.66,4.66,0,0,0,977.92,295.33Zm18.56,9.15a7.16,7.16,0,1,0-7.28-7.05A7.16,7.16,0,0,0,996.48,304.48Zm29.92-41.31-.14-9-.14-9-4.66.07c-8.79.14-15.86,4.29-15.78,9.28s7.27,8.91,16.06,8.77Zm186.88,21.26.23,14.61c3,0,5.44-3.36,5.37-7.39s-2.56-7.25-5.58-7.23c3-.07,5.42-3.37,5.35-7.39s-2.57-7.28-5.61-7.23l.24,14.62Zm-21.1,2.31.2,12.64,14.91-.24-.2-12.64,0-2-.23-14.63-14.91.23.23,14.63Zm17.1-35.48.14,9,12.88,5.09-.23-14.32-.22-14.31-12.71,5.49Zm20.2,75.16,8-.12-.14-9-.15-9-8,.13.14,9Zm-1-66.44,8-.13-.14-9-.15-9-8,.13.15,9Zm-195.71,9.31-6.22.1-4.66.07a33.88,33.88,0,0,1-3.8-.16l.15,9.43c3.7-4.54,10.31-8,18.56-9.5Zm.57,36,3.92-.07c-8.25-1.3-14.92-4.51-18.74-8.91l.15,9.43a35.73,35.73,0,0,1,3.79-.28l4.66-.08ZM1053.54,287l.2,12.56-7.34.12c-13.84.21-25.15-5.23-25.26-12.16h0c-.11-6.94,11-12.73,24.87-12.95l7.34-.12.19,12.56h0Zm-5.6-4.22-.06-4-4.58.08.06,3.94Zm-4.44,8.69.06,3.94,4.58-.07-.07-3.94ZM1048,289l-.06-3.94-4.58.07.06,3.94ZM1155,284.12l-.93-59c-12,6.76-17,39.58-75.75,40.51-7.56.12-14.24,1.93-18.78,4.65l.52,33.1c4.63,2.58,11.36,4.17,18.92,4.05,58.75-.93,64.81,31.72,77,38.1l-.93-59Zm6.49,17.44.74,46.38c3.84,1.24,7.08,2,7.08,2l13-39.27A30.1,30.1,0,0,1,1161.45,301.56Zm20-42.4-14.28-38.84s-3.22.87-7,2.23l.74,46.41A30,30,0,0,1,1181.5,259.16Zm-120.4,3.47a48.67,48.67,0,0,1,17.08-3.19c26.89-.43,41.37-7.66,50.73-15.94L1032.33,245l.29,18Zm142.11-2.25-.29-18-20.86.33,6,16.35.63,1.6Zm-19.84,44.11,2.88,0L1186,286l0-1.17-.31-19.6-2.88.05c-12.58.2-22.61,10.86-22.46,19.95h0C1160.43,294.35,1170.79,304.69,1183.37,304.49Zm0,22.66,20.87-.33-.29-18.05-14.55.24-.54,1.61ZM1061.87,311l-28.49.45.29,18,96.57-1.53c-9.61-8-24.31-14.75-51.2-14.32A48.87,48.87,0,0,1,1061.87,311Z" transform="translate(-411.53 68.55)"/><path class="cls-5" d="M1370.94,307.58H1358V296.75h56.88l.4-11.72H1358v-.5h56.88l.4-11.72H1358V262h11.84l1.07-19.43h-76.17a13.11,13.11,0,0,0-.2,2.19,13.32,13.32,0,0,0,23.61,8.44,17,17,0,0,0,16.34,2.6l.29,55.31,1.65,3.49a17.15,17.15,0,0,0-18.28,1.79,13.31,13.31,0,0,0-23.61,8.43,13.11,13.11,0,0,0,.2,2.19h75.1Z" transform="translate(-411.53 68.55)"/><path class="cls-6" d="M1414.37-37.9h-112a33,33,0,0,0-15,27.7,33.08,33.08,0,0,0,33.08,33.07,37.31,37.31,0,0,0,12.42-3.09,35.43,35.43,0,0,0,10.4-7.16,35.24,35.24,0,0,0,7.16-10.4,37.31,37.31,0,0,0,3.09-12.42c0,1.08,0,2.17,0,3.26s-.2,2.17-.3,3.27-.46,2.14-.69,3.22-.67,2.09-1,3.14a31.71,31.71,0,0,1-7.16,11.07,31.73,31.73,0,0,1-11.07,7.17c-1,.33-2.09.71-3.14,1l-1.3.29a30.82,30.82,0,0,0,23.41,38.67,35.85,35.85,0,0,1,2.4-2.68,35,35,0,0,1,12.11-7.87c1.15-.37,2.29-.78,3.45-1.11s2.34-.56,3.52-.76,2.39-.26,3.58-.35,2.39,0,3.58,0a40.41,40.41,0,0,0-13.65,3.34,38,38,0,0,0-19.31,19.31,40.41,40.41,0,0,0-3.34,13.65,36.22,36.22,0,0,0,16.64,30.49l.13-.14a35,35,0,0,1,11.45-7.39,33.83,33.83,0,0,1,13.32-2.25A34.73,34.73,0,0,0,1355,126.68a34.54,34.54,0,0,0,0,25.78,34.75,34.75,0,0,0,7.22,11A35.12,35.12,0,0,0,1386.13,174a33.83,33.83,0,0,1-13.32-2.25,35,35,0,0,1-11.45-7.39,32.83,32.83,0,0,1-4.78-5.86,42.17,42.17,0,0,0-33.51,64.07,17.27,17.27,0,0,1,18.26,4.44,17.63,17.63,0,0,1,3.66,5.87,16.54,16.54,0,0,1,.94,6.74,17.92,17.92,0,0,0-5.47-11.74,17.06,17.06,0,0,0-27,4.8,13.28,13.28,0,0,0-18.68,9.89H1252V262h53a5.41,5.41,0,1,1,0,10.82h-68v11.72h73.39v.5h-73.39v11.72h68a5.42,5.42,0,0,1,0,10.83h-53V327h42.74a13.29,13.29,0,0,0,13.11,11.12,13.16,13.16,0,0,0,5.57-1.23,17,17,0,0,0,15.27,9.47,17.14,17.14,0,0,0,11.74-4.67,17.92,17.92,0,0,0,5.47-11.73,16.52,16.52,0,0,1-.94,6.73,17.63,17.63,0,0,1-3.66,5.87,17.32,17.32,0,0,1-18.26,4.45,42.16,42.16,0,0,0,33.51,64.06,33.19,33.19,0,0,1,4.78-5.86,35,35,0,0,1,11.45-7.39,33.83,33.83,0,0,1,13.32-2.25,35.12,35.12,0,0,0-23.89,10.52,34.75,34.75,0,0,0-7.22,11,34.54,34.54,0,0,0,0,25.78,34.75,34.75,0,0,0,31.12,21.53,34,34,0,0,1-13.32-2.26,35,35,0,0,1-11.45-7.39,1.66,1.66,0,0,1-.13-.14,36.22,36.22,0,0,0-16.64,30.49,40.41,40.41,0,0,0,3.34,13.65,38.06,38.06,0,0,0,19.31,19.32,40.4,40.4,0,0,0,13.65,3.33c-1.19,0-2.38,0-3.58,0s-2.38-.23-3.58-.34-2.34-.51-3.52-.77-2.3-.74-3.45-1.11a34.85,34.85,0,0,1-12.11-7.87,35.85,35.85,0,0,1-2.4-2.68,30.82,30.82,0,0,0-23.41,38.67l1.3.29c1,.29,2.09.67,3.14,1a31.51,31.51,0,0,1,18.23,18.23c.34,1,.72,2.09,1,3.15s.5,2.14.69,3.21.22,2.19.3,3.27,0,2.18,0,3.26a37.31,37.31,0,0,0-3.09-12.42,34.89,34.89,0,0,0-17.56-17.56,37.31,37.31,0,0,0-12.42-3.09,33.06,33.06,0,0,0-18.05,60.77h159.22V-37.9Zm-79.85,293.69h0c-.46.17-.92.31-1.39.44C1333.6,256.1,1334.06,256,1334.52,255.79Zm-4.29,1c-.49,0-1,.07-1.51.07h0C1329.23,256.82,1329.74,256.79,1330.23,256.75Zm-10.33-2.4a15.76,15.76,0,0,1-1.72-1.17h0A15.76,15.76,0,0,0,1319.9,254.35Zm-25.33-9.6a10.18,10.18,0,0,1,.06-1.11,10.18,10.18,0,0,0-.06,1.11,13.31,13.31,0,0,0,13.31,13.31h0A13.31,13.31,0,0,1,1294.57,244.75Zm0,80.06a10,10,0,0,0,.06,1.11,10,10,0,0,1-.06-1.11,13.31,13.31,0,0,1,13.31-13.31h0A13.31,13.31,0,0,0,1294.57,324.81Zm23.61-8.43a15.76,15.76,0,0,1,1.72-1.17,15.76,15.76,0,0,0-1.72,1.17Zm10.54-3.63h0c.35,0,.7,0,1,0C1329.42,312.76,1329.07,312.75,1328.72,312.75Zm6.85,1.42c.3.13.6.27.89.42h0C1336.17,314.44,1335.87,314.3,1335.57,314.17Z" transform="translate(-411.53 68.55)"/><path class="cls-7" d="M1371.41,327a18.57,18.57,0,0,0-16,30.81,17.9,17.9,0,0,0,5.87,4.29,19,19,0,0,1-8.61-11,18.33,18.33,0,0,1,11.68-22.53,19,19,0,0,1,13.92.72A17.78,17.78,0,0,0,1371.41,327Z" transform="translate(-411.53 68.55)"/><path class="cls-7" d="M1402.56,563.41a26.43,26.43,0,0,0-10.11-2,26,26,0,0,0-25.88,27.16,26.33,26.33,0,0,0,2.5,10,25.07,25.07,0,0,0,6.21,8.05,26.61,26.61,0,0,1-7.28-18.08,25.65,25.65,0,0,1,24.49-25.7,26.62,26.62,0,0,1,18.41,6.4A25.09,25.09,0,0,0,1402.56,563.41Z" transform="translate(-411.53 68.55)"/><path class="cls-7" d="M1364.43-27.29a26.27,26.27,0,0,0,.16,10.3,26,26,0,0,0,11.85,16.6,26.09,26.09,0,0,0,20.17,3A26.29,26.29,0,0,0,1405.85-2a25.11,25.11,0,0,0,6.56-7.78,26.61,26.61,0,0,1-16.13,11A25.74,25.74,0,0,1,1377.41-2,25.75,25.75,0,0,1,1366-17.33a26.61,26.61,0,0,1,2.37-19.35A25.09,25.09,0,0,0,1364.43-27.29Z" transform="translate(-411.53 68.55)"/><path class="cls-7" d="M1325,264.52a18.59,18.59,0,0,0-1.44,34.68,18,18,0,0,0,7.14,1.4,19,19,0,0,1-12.44-6.29,18.34,18.34,0,0,1,1-25.36,19.1,19.1,0,0,1,12.92-5.24A18.16,18.16,0,0,0,1325,264.52Z" transform="translate(-411.53 68.55)"/><path class="cls-7" d="M1416.31,421.91a21.23,21.23,0,0,0-10.26,32.81,30.43,30.43,0,0,0-4.93,3.51,29.57,29.57,0,0,0,5.63,48.32c-.49.36-1,.73-1.42,1.13a20.58,20.58,0,0,0-1.23,29.65,20.94,20.94,0,0,0,6.7,4.64,19.93,19.93,0,0,0,7.89,1.55,21.05,21.05,0,0,1-13.76-7,20.28,20.28,0,0,1,1.16-28c.54-.51,1.11-1,1.7-1.45.41.2.8.42,1.21.6a28.59,28.59,0,0,0,11.38,2.24,30.78,30.78,0,0,1-11.6-3.54l-.94-.54a28.91,28.91,0,0,1-7.29-5.95,29.23,29.23,0,0,1,1.68-40.44,28.56,28.56,0,0,1,4.68-3.65c.27.32.54.66.84,1a21.63,21.63,0,0,0,6.92,4.8,20.74,20.74,0,0,0,8.15,1.6,21.75,21.75,0,0,1-14.21-7.19c-.23-.25-.42-.53-.63-.79l-.78-1a20.9,20.9,0,0,1,2.61-27.17,21.76,21.76,0,0,1,14.76-6A20.4,20.4,0,0,0,1416.31,421.91Z" transform="translate(-411.53 68.55)"/><path class="cls-7" d="M1425.69,27.39a22.1,22.1,0,0,0-7.25,4.63,21.7,21.7,0,0,0-1.78,29.24,32,32,0,0,0-5.36,4.13,31.65,31.65,0,0,0,.19,45.63,32,32,0,0,0,10.61,6.66,30.71,30.71,0,0,0,12.23,1.83,32.4,32.4,0,0,1-21.62-9.72,31.19,31.19,0,0,1-.17-43.17,30.09,30.09,0,0,1,5.06-4.28l1.07-.69a33,33,0,0,1,15.41-4.93,30.49,30.49,0,0,0-12.22,1.93,31.57,31.57,0,0,0-4.06,2,21.36,21.36,0,0,1,1.49-27.74,22.21,22.21,0,0,1,14.79-6.8A21,21,0,0,0,1425.69,27.39Z" transform="translate(-411.53 68.55)"/><path class="cls-7" d="M1376,269.94a15.21,15.21,0,0,1-6.33-23.76,21.92,21.92,0,0,1-3.76-2.9,22.19,22.19,0,0,1,.13-32,22.58,22.58,0,0,1,7.45-4.67,21.37,21.37,0,0,1,8.58-1.28,22.69,22.69,0,0,0-15.17,6.82,21.85,21.85,0,0,0-.12,30.27,21.34,21.34,0,0,0,3.55,3l.75.48a23.11,23.11,0,0,0,10.81,3.46,20.48,20.48,0,0,1-11.42-2.73,15,15,0,0,0,1,19.46,15.63,15.63,0,0,0,10.38,4.77A14.68,14.68,0,0,1,1376,269.94Z" transform="translate(-411.53 68.55)"/><path class="cls-8" d="M731.25,336.71l-.9-2.35c3.13-1.21,6.3-2.34,9.43-3.37l.78,2.38C737.48,334.39,734.34,335.51,731.25,336.71Zm-18.07,8-1.13-2.25c-3,1.49-5.93,3.07-8.82,4.71l1.23,2.19C707.33,347.74,710.26,346.18,713.18,344.71ZM735.4,720.28c3.09,1.1,6.3,2.15,9.54,3.13l.72-2.41c-3.19-1-6.36-2-9.42-3.09Zm58.87,9.06-.13,2.51c3.27.16,6.64.24,10,.24H805v-2.51h-.83C800.82,729.58,797.5,729.5,794.27,729.34ZM606.29,480l-2.44-.58c-.76,3.24-1.45,6.53-2.05,9.8l2.47.46C604.86,486.48,605.54,483.22,606.29,480Zm-4.62,29.27-2.51-.21c-.27,3.3-.47,6.66-.59,10l2.51.09C601.2,515.88,601.4,512.56,601.67,509.3Zm197.15-186-.07-2.52c-3.34.09-6.7.26-10,.51l.18,2.5C792.19,323.51,795.52,323.35,798.82,323.26ZM853.9,723.43l.62,2.43c3.2-.8,6.45-1.71,9.65-2.69l-.74-2.41C860.28,721.73,857.07,722.62,853.9,723.43ZM769.31,326.18l-.43-2.48c-3.26.57-6.56,1.23-9.82,1.95l.55,2.46C762.83,327.38,766.09,326.74,769.31,326.18Zm55.41,402.36.25,2.51c3.35-.35,6.69-.77,9.93-1.25l-.37-2.49C831.33,727.79,828,728.21,824.72,728.54Zm-184.8-78.41c2,2.65,4.1,5.29,6.22,7.84l1.94-1.61c-2.11-2.52-4.17-5.12-6.15-7.75Zm-41.09-111c.2,3.3.49,6.65.86,10l2.49-.27c-.36-3.28-.64-6.59-.84-9.85Zm83.68,153.09c2.68,2,5.44,3.89,8.22,5.73l1.38-2.09c-2.74-1.82-5.47-3.73-8.11-5.67Zm-56.6-268.42c-1.65,2.86-3.27,5.82-4.81,8.81l2.24,1.14c1.52-3,3.11-5.87,4.75-8.69ZM659.68,672.7c2.39,2.35,4.85,4.66,7.3,6.86l1.68-1.88c-2.43-2.17-4.85-4.45-7.21-6.77Zm169-350.56c-3.28-.4-6.63-.71-10-.95l-.18,2.5c3.29.24,6.61.55,9.85.94ZM623.63,624.94c1.59,2.91,3.28,5.82,5,8.65l2.14-1.31c-1.72-2.8-3.39-5.68-5-8.54Zm-20.78-56.11c.68,3.24,1.45,6.52,2.3,9.75l2.43-.64c-.84-3.19-1.6-6.43-2.28-9.63ZM707.92,708.17c3,1.57,6,3.08,9,4.49l1.07-2.28c-3-1.39-6-2.88-8.86-4.43ZM611.17,597.66c1.15,3.07,2.39,6.2,3.71,9.28l2.3-1c-1.29-3.05-2.52-6.13-3.65-9.17Zm4-145.93-2.34-.94c-1.21,3.06-2.38,6.22-3.47,9.42l2.38.82C612.81,457.87,614,454.73,615.17,451.73Zm149.18,276.5c3.22.63,6.54,1.2,9.87,1.69l.37-2.48c-3.29-.49-6.57-1.05-9.75-1.68ZM1001.72,469c-.94-3.2-2-6.41-3-9.54l-2.38.82c1.07,3.09,2.08,6.27,3,9.43ZM987.35,614.26l2.26,1.09c1.46-3,2.85-6.09,4.13-9.14l-2.32-1C990.15,608.24,988.78,611.28,987.35,614.26Zm-54.66,69.38,1.6,2c2.54-2.08,5.09-4.27,7.59-6.53l-1.69-1.87C937.73,679.42,935.2,681.59,932.69,683.64Zm65.53-97,2.4.75c1-3.17,1.91-6.41,2.74-9.64l-2.43-.62C1000.11,580.34,999.19,583.54,998.22,586.67Zm-89.75,114,1.29,2.16c2.81-1.69,5.66-3.49,8.45-5.36l-1.4-2.09C914.05,697.26,911.24,699,908.47,700.7Zm82.76-259.84c-1.4-3.05-2.88-6.07-4.39-9L984.61,433c1.49,2.87,2.95,5.86,4.34,8.87ZM976.77,414.6c-1.79-2.75-3.69-5.54-5.65-8.26l-2,1.47c1.94,2.69,3.82,5.44,5.58,8.16Zm-18.14-23.92c-2.24-2.54-4.53-5-6.79-7.35l-1.8,1.75c2.23,2.31,4.49,4.75,6.71,7.26ZM972.56,640l2.09,1.4c1.84-2.73,3.66-5.56,5.41-8.43l-2.15-1.31C976.19,634.47,974.39,637.27,972.56,640ZM1008,498.33c-.46-3.3-1-6.63-1.6-9.88l-2.48.46c.61,3.22,1.14,6.5,1.58,9.76ZM954.21,663.25l1.86,1.7c2.25-2.48,4.47-5,6.57-7.56l-1.93-1.6C958.63,658.29,956.44,660.81,954.21,663.25ZM858.16,327.87c-3.22-.88-6.49-1.68-9.72-2.39l-.54,2.45c3.19.7,6.42,1.5,9.61,2.37Zm151.55,190.4-2.52.09q.16,4,.16,8v1.88l2.51,0v-1.9Q1009.86,522.3,1009.71,518.27ZM882,714.07l1,2.32c3-1.25,6.09-2.62,9.13-4.07L891,710.05C888,711.48,885,712.83,882,714.07ZM1004.92,557.8l2.48.39c.51-3.27,1-6.61,1.31-9.93l-2.51-.27C1005.86,551.27,1005.42,554.57,1004.92,557.8ZM913,351.91c-2.8-1.76-5.7-3.48-8.62-5.11L903.17,349c2.89,1.61,5.75,3.31,8.52,5.05Zm-26.53-14c-3.07-1.33-6.19-2.62-9.29-3.8l-.89,2.35c3.06,1.17,6.14,2.43,9.17,3.76Zm50.75,31.78c-2.47-2.12-5.09-4.24-7.78-6.31l-1.54,2c2.66,2.05,5.25,4.14,7.69,6.23ZM662.78,468.06c1.28-3.1,2.67-6.17,4.13-9.12l-2.25-1.11c-1.48,3-2.9,6.12-4.2,9.27Zm14.14-26.44c1.83-2.74,3.79-5.48,5.82-8.13l-2-1.53c-2.06,2.7-4,5.48-5.92,8.27ZM951.2,476c-1.07-3.14-2.29-6.33-3.61-9.48l-2.31,1c1.29,3.1,2.49,6.24,3.55,9.33Zm2.86,20.11c.67,3.3,1.23,6.62,1.65,9.85l2.5-.32c-.44-3.3-1-6.67-1.68-10Zm-81.5-109.26c-3.06-1.51-6.18-2.91-9.28-4.2l-1,2.33c3,1.26,6.12,2.64,9.13,4.12Zm-88.69-12-.32-2.49c-3.32.44-6.7,1-10,1.67l.49,2.46C777.3,375.78,780.61,375.22,783.87,374.79Zm29.94-1,.16-2.51c-3.29-.2-6.59-.3-9.82-.3h-.34v2.51h.34C807.33,373.45,810.58,373.55,813.81,373.75Zm117.24,67.37c1.85,2.74,3.64,5.59,5.31,8.46l2.17-1.27c-1.7-2.91-3.52-5.81-5.4-8.6ZM703.2,411.6l-1.66-1.88c-2.53,2.22-5,4.56-7.4,6.95l1.77,1.78C698.25,416.1,700.71,413.79,703.2,411.6ZM844,376.12c-3.27-.87-6.6-1.64-9.9-2.28l-.48,2.46c3.24.64,6.52,1.39,9.73,2.24ZM651.53,516.56l-2.5-.16c-.21,3.34-.32,6.7-.32,10v.17l2.51-.17C651.22,523.14,651.32,519.84,651.53,516.56Zm103.18-134.9-.81-2.38c-3.15,1.08-6.35,2.28-9.49,3.6l1,2.32C748.47,383.91,751.61,382.72,754.71,381.66ZM891,655.27l-1.41-2.08c-2.78,1.88-5.62,3.67-8.46,5.32l1.27,2.17C885.25,659,888.14,657.18,891,655.27Zm-66.2,22.66.33,2.49c3.37-.46,6.74-1,10-1.69l-.5-2.47C831.39,676.92,828.07,677.48,824.77,677.93ZM853.91,671l.82,2.37c3.21-1.11,6.4-2.32,9.48-3.62l-1-2.32C860.21,668.72,857.07,669.92,853.91,671Zm-79.57,5.39c-3.2-.64-6.48-1.4-9.74-2.26l-.65,2.42c3.31.88,6.64,1.65,9.9,2.3Zm-38.9-10.59c3,1.5,6.16,2.91,9.27,4.2l1-2.32c-3-1.27-6.12-2.66-9.12-4.14Zm69.39,16v-2.52h-.68c-3.34,0-6.7-.1-10-.31l-.16,2.5c3.34.22,6.76.33,10.15.33Zm83.94-282.78c2.74,1.83,5.48,3.78,8.14,5.81l1.53-2c-2.7-2.07-5.49-4.06-8.28-5.91Zm52.77,194.48,2.26,1.11c1.49-3,2.9-6.17,4.18-9.28l-2.33-1C944.39,587.46,943,590.53,941.54,593.53Zm-10,17.34c-1.86,2.77-3.81,5.52-5.82,8.14l2,1.53c2-2.67,4-5.46,5.91-8.28Zm-19,23.21c-2.32,2.35-4.77,4.66-7.27,6.87l1.67,1.88c2.53-2.25,5-4.59,7.38-7ZM912,418c2.35,2.34,4.66,4.79,6.85,7.28l1.89-1.66c-2.24-2.53-4.58-5-7-7.4ZM650.05,546.82c.44,3.35,1,6.73,1.66,10l2.46-.49c-.65-3.25-1.19-6.57-1.63-9.86Zm37.32,82c2.23,2.53,4.57,5,7,7.41l1.78-1.77c-2.35-2.35-4.65-4.81-6.84-7.3Zm30.25-231.56,1.41,2.08c2.73-1.83,5.58-3.62,8.47-5.3l-1.27-2.17C723.3,393.62,720.41,395.44,717.62,397.31Zm-8,252.37c2.68,2.06,5.46,4.05,8.26,5.93l1.4-2.09c-2.75-1.84-5.49-3.81-8.13-5.83ZM662.9,585c-1.28-3.06-2.46-6.2-3.53-9.34l-2.38.81c1.08,3.19,2.29,6.39,3.59,9.49Zm-11.26-88.75,2.46.49c.64-3.23,1.4-6.5,2.26-9.74l-2.43-.65C653.05,489.64,652.28,493,651.64,496.25Zm18,107.91c1.69,2.92,3.5,5.81,5.38,8.61l2.08-1.4c-1.84-2.75-3.63-5.6-5.28-8.47Zm32.33-87.32-2.5-.23q-.45,4.86-.45,9.86l.68.07,1.83-.16C701.49,523.22,701.64,520,701.93,516.84Zm183,73,2,1.55c2-2.6,4-5.35,5.8-8.15l-2.11-1.35C888.8,584.59,886.89,587.26,884.88,589.81Zm5.44-119.26c1.78,2.75,3.44,5.58,4.92,8.43l2.23-1.15c-1.52-2.93-3.21-5.84-5-8.64Zm-19.21-22c2.46,2.12,4.84,4.38,7.09,6.72l1.81-1.74c-2.3-2.4-4.74-4.72-7.26-6.88ZM856.43,435.1c-2.91-1.67-5.9-3.2-8.9-4.56l-1,2.29c2.93,1.33,5.85,2.82,8.69,4.45ZM899.5,564.52l2.34.93c1.23-3.09,2.33-6.27,3.26-9.45l-2.41-.7C901.78,558.4,900.71,561.5,899.5,564.52Zm7.32-38.14c0,3.26-.16,6.54-.47,9.76l2.51.24c.31-3.3.47-6.66.47-10V526h-2.51Zm.55-20.31c-.64-3.25-1.44-6.52-2.4-9.72l-2.4.72c.92,3.12,1.71,6.31,2.33,9.48ZM818.86,628c-.55.08-1.14.09-1.71.16a18.28,18.28,0,0,0-36.1-1.76c-.32-.08-.66-.11-1-.19l-.59,2.45c.44.1.89.15,1.33.25,0,.38-.12.75-.12,1.15a18.3,18.3,0,0,0,36.6.61c.65-.08,1.31-.09,2-.18ZM730,597.35l-1.82,1.73c2.3,2.4,4.74,4.72,7.25,6.9l1.64-1.91C734.58,602,732.2,599.69,730,597.35ZM715.52,469.73l2.11,1.36c1.76-2.73,3.66-5.41,5.66-8l-2-1.55C719.26,464.19,717.31,466.94,715.52,469.73Zm36.17,147.83c2.9,1.67,5.89,3.21,8.89,4.58l1-2.29c-2.92-1.33-5.84-2.83-8.68-4.47ZM736.71,449c2.44-2.12,5-4.16,7.66-6.06l-1.47-2c-2.71,1.95-5.35,4-7.84,6.21Zm-31.15,48.7c.89-3.07,2-6.17,3.16-9.23l-2.33-.92c-1.24,3.12-2.33,6.3-3.25,9.46ZM863.76,610l1.46,2c2.71-1.95,5.36-4,7.85-6.2l-1.65-1.89C869,606.05,866.41,608.09,863.76,610Zm-148-26.59,2.11-1.36c-1.77-2.75-3.42-5.59-4.9-8.45l-2.23,1.16C712.25,577.68,713.94,580.59,715.76,583.4Zm-14.87-36.91c.64,3.29,1.44,6.56,2.37,9.72l2.42-.72c-.92-3.07-1.69-6.26-2.32-9.48Zm60.34-113.4c2.95-1.36,6-2.59,9.06-3.66l-.83-2.37c-3.14,1.09-6.26,2.36-9.28,3.75Zm67.38-9c-3.25-.77-6.56-1.39-9.83-1.85l-.34,2.5c3.19.44,6.42,1,9.59,1.8Zm-39.38.74c3.22-.47,6.49-.79,9.72-.95l-.12-2.51c-3.32.16-6.66.49-10,1Zm48.59,198.6.83,2.37c3.11-1.07,6.23-2.33,9.28-3.72l-1-2.29C843.91,621.12,840.86,622.35,837.82,623.4ZM657.6,413.6a29.3,29.3,0,0,0,22.53-48.06c2.5-1.93,5.06-3.83,7.62-5.62l-1.44-2.06c-2.65,1.86-5.29,3.81-7.87,5.81a29.3,29.3,0,1,0-40.77,42.06c-.3.41-.63.81-.92,1.22l2,1.46c.25-.35.53-.69.78-1A29.16,29.16,0,0,0,657.6,413.6Zm295,105A25.45,25.45,0,1,0,978.08,544,25.45,25.45,0,0,0,952.63,518.56ZM804.15,475.68a50.71,50.71,0,1,0,50.71,50.71A50.71,50.71,0,0,0,804.15,475.68Z" transform="translate(-411.53 68.55)"/><path class="cls-9" d="M820.59,506h0c.08.08.16.11.15.27Zm14.31,4.33c.12-.45.69-.74.64-1.11a1.54,1.54,0,0,1-1.55.57C834.15,510.2,834.84,509.76,834.9,510.3Zm-.36,10.57c-.24-.24-.24-.87-.44-1.11-.08,1.54,1.83,2.28,1.9,3.89.35-.18,1.41,1.92,1.65,2.37s.43,1.23.67,1.41l1.49,1.11c.15-1.1-.58-2-1.12-2.89-.23-.37-.7-.35-.9-.69s0-.72-.2-1.12c-.38-1-1.63-2-2.3-2.78C835.08,520.81,834.88,521.21,834.54,520.87Zm8.93-8.52c-.24-.59-.62-.11-1.06.07,0-.31-2.45-2.78-.43-2.53-.05-1.19-.32-1.14-1.37-.69a1.63,1.63,0,0,0-.86,1.29c0,.29.43.19.43.73s.2.64.61,1,1.09.76,1.08,1.41c-.73-.34-1,.62-.49,1s1.25,1,1.76.59a7.39,7.39,0,0,1,.25-1.08c-.07-.22-.67-.28-.74-.51C842.28,512.4,843.49,513.29,843.47,512.35Zm-12.1-.21c.43,2,1.9.33,3.23.36.45.27,3.23,1,2.38-.09-.62-.81-1.94-.68-2.17-1.74-.66,0-.58.86-1.33.57a.77.77,0,0,1-.22-1.23c-.49-.47-1.34.21-1.17.74S831.24,511.53,831.37,512.14Zm-46.94-2.39c.18-.11.41-.28.53-.36Zm70.51,16.87a51.5,51.5,0,1,1-93.54-30.74.56.56,0,0,0,.19.31c.71.57.6-1.34.68-1.48,0,1,.06,2.06.08,3.09a8.23,8.23,0,0,0,0,.86c.06.49.47.63.52,1.06.1.7-.58,1.59.06,2.17s1.51,1.26,1,2.3a1.65,1.65,0,0,1-.46-.32c1.28,0-.57-2.63-1.43-2,.68.58.54,1.41,1.23,1.93-.54,0-2,4.25-2.28,4.89-.71,1.59-.06,3.4.17,5.1,0,.28.38.34.62.46s.18,1,.25,1.26a26.7,26.7,0,0,0,.79,2.56c.13.41-.33.2-.3.6,0,.74.49.49.77,1.07.15.31-.19.89.07,1.14l1.18,1.12a26.53,26.53,0,0,0-.72-3.88,3.79,3.79,0,0,1-.16-1.83c0-.24.28-.07.34.07a2.1,2.1,0,0,1-.07,1.08c-.15,1,1.54,3.14,2,4a2.86,2.86,0,0,1,.33,1.64c0,.85.39,1.11,1,1.77s2.31,2.56,3.2,2,1-.13,1.83.52a12.92,12.92,0,0,0,1.27.93c.36.21,1.05.34,1.31.64s.15,1.14.42,1.39a4.77,4.77,0,0,0,3,1.55c-.13-.9.72-1.15,1.16-.43a3,3,0,0,1-.06,2.16c-.43,1.06-.53,1.46-1.48,2-.48.3-.29,1.46.15,1.68-1.09,1-.48,1.64.19,2.85s1.35,3.47,2.53,4.23c1,.66,2.83,1.18,2.89,2.48l.27,6.25q.14,2.94.26,5.87c0,.66,0,.62.61,1s.24,1.65.21,2.32-1.28.57-.31,1.28c.71.53.87.71.24,1.53s2.24,2.93,2.8,3.24c-.05-.85.38-1.19.86-1.75-.94-.63-.16-1.26.23-2,.18-.36.31-.77.46-1.14s-.74-.53-.82-.8c-.22-.77.8-1.72.55-2.61-.2-.69.27-.6.9-.83.25-.09,0-.93-.09-1.18,1,.12,1.35-.32,1.79-1.07.58-1,.26-1-.49-1.93.44.13.95.48,1.3.12a12.87,12.87,0,0,0,1.43-1.43,5.94,5.94,0,0,0,1.15-3.43c0-.93,1.5-1.88,2.42-1.88,1.42,0,1.74-1.52,1.81-2.75a14.8,14.8,0,0,0,.1-1.88c-.05-.89-.57-.53.22-1.25.43-.39,1.36-1,1.61-1.47a6.67,6.67,0,0,0,.08-2.1c0-1.17-5.78-2.6-6.7-2.89L793,536a2.65,2.65,0,0,0,.31-1.79c-.06-.78-.28-.61-.89-1a2.75,2.75,0,0,0-1.56-.64c-.54-.06-.45.43-1-.06a24.27,24.27,0,0,1-2.79-2.56c-.18-.22-1.23.2-1.64.09a2.53,2.53,0,0,1-1.67-1.07c-.45.47-.9.79-.85,1.51-1-.15,0-1.29.25-1.68-.91-.35-1.92,1-2.53,1.5s-.46.5-1.07.25c-.8-.33-.53-.1-1.26,0s-1.22.26-1.66-.66a10.9,10.9,0,0,1,.53-2.23c-.35-.41-.55-.92-1.11-.9s-1.32.25-1.66-.28c.32-.54,2.42-3.55.67-3.15-1.28.29-1.5.16-1.93,1.4-.19.55-2,.17-2.11-.27a5.5,5.5,0,0,1,.56-4.8,5.18,5.18,0,0,1,1.88-1.42c.27,0,.86.4,1.11.51a4.29,4.29,0,0,0,1.3.15c-.27-1.12,1.32-.65,2-.64,1,0,.26,1.76.27,2.11,0,.78.73,1.9,1.36.92.35-.54.64-.7.34-1.26a2.86,2.86,0,0,1-.33-1.17c0-1,.84-1.54,1.52-2.13s2.11-.78,2-1.31c-.18-1.34.44-1.62,1.37-2.62.58-.63,1.51-.56,2.34-.69-.28-1-.44-1,.48-1.56a7,7,0,0,1,1.76-.85c-1.15.7,0,1.92.67.92.34-.5.65-.38,1.25-.41.33,0,.67-1,.83-1.33-.85-.25-1.72,1.36-1.81-.44,0-.48.49-.94.16-1.34s-1.28,0-1.77.14c1.22-.95,1.68-.84,3.16-.51.76.18.8-.1,1.35-.69.36-.37,1.36-.41,1.85-.54,1-.24-1.4-2.87-1.53-3-.52-.63-.43-2.56-.56-3.39-.37.25-1.4,1.25-1.82,1.23-1.09,0-.1-1.1-.17-1.58-.15-.95-2.58-2.69-3.11-1.66l-1.26,2.46c-.25.48.1,1.21-.16,1.71-.1.19-.26.72-.44.84s-1-.16-1.15.05c-.39.41.12,1.59-.31,2.15-1.3,1.71-.16-2.33-.5-2.47-1.54-.68-2.8-1.22-3.45-2.87-.26-.65-1.35-.19-.62-1.16a8.37,8.37,0,0,1,1.42-1.76,4.72,4.72,0,0,1,2-1.16c.65-.15,1.52-.66,1-1.47.41-.09,1.25-.45,1.62-.28.9.44.93.37,1.82-.12.38-.21.43-1.51.52-1.93s-.85-1-1.1-1.26a6.78,6.78,0,0,1,2,.71c.81.4.89,1.72,2,1.35-.19,1-1.39,3.92-2.72,2.23-.92,1.25-.19,2.13,1.18,1.27.17.43.36,1.54.74,1.78s1.78,1.28,1.89,1.14,1.4-1.49,1.26-1.72c-.36-.58-1.42-1.56-.56-2.08l.82,1.38c.34-.3,1.6-1.06,1.68-1.47.22-1.06-1-.6-1.38-.47-.5-1.37-.75-1.61,0-2.84.13-.22-.87-1.07-1-1.26-.46-.48-.57-.4-1.11.09-.43-.95-.35-1.55-1.42-1.41s-.93-.78-1.15-1.84l-1.35.93c-.42.3.23,1.25-.62,1.05-.09-.91.64-1.61,1.11-2.31-.86-.08-1.83-.18-2.4.61-.3.4-.63,2.73-.15,2.76a10.79,10.79,0,0,1,1.13.1c-.38.59-.89,2.15-1.74,1.71.17-.28.76-.93.44-1.13-.49-.29-.72-.26-1.09.28,0-1.44.48-3.95-1.56-2.93-1,.49,0,1.08,0,1.7,0,1-.59,1-1,1.77,0-.45.28-.8.5-1.19s0-.73-.15-1.24l-.88.54c-.3.19,0,.69-.15.94-.48.67-.94.34-1.59,0a15.51,15.51,0,0,1-1.4-1.26c-1.09.29-.93.42-1,1.54-.46-.08-.32-.36-.34-.81,0-.3-.94-.32-1.2-.38-1.11-.22-1-.22-.44-1.17a6.2,6.2,0,0,1-1.67-1.33c-.53-.63-.9-1.44-1.84-1.27.14.46-.34,1-.38.61s-.07-.55-.1-.82c.46-.37.92-.74,1.39-1.09a5.16,5.16,0,0,0,.28,1.08,3.87,3.87,0,0,0,1.19-.32c.28-.21.34-.78.68-.91a8.78,8.78,0,0,1,2.83-.6c-.5-.54-.92-1.53-1.58-1-.34.26-.35-.06-.45-.26a51.47,51.47,0,0,1,66.77,9.56l-.82-.13c-.54-.09-.19.48-.53.73a7,7,0,0,1-1.51.54c-.23.08-.25-.5-.42-.41l-1.48.82c-.23.13-.91.34-.92.64,0,.51,0,.88-.62.78.7-1.25-.55-1.84-1.58-1.26.29.56.92,1.35.9,2-.24-.16-.46-.06-.69-.29-.4.43-1.12.82-.52,1.4l-1.56-.05c.16.22.71.67.53.94s-1.07-.2-1.2-.37.09-1.06-.26-1.19-.75-.17-.86-.54c.71.14,4.37,1.13,3.34-.74-.62-1.12-2.91-1.64-4.08-1.35a1.61,1.61,0,0,1-.23-.62c.64-.34-.23-.62-.75-.66s-1.49-.07-1.51.66a.71.71,0,0,0-.74-.38c-.53,0-.43.34-.59.74l-.18-.36L824.54,494l.24.27c-.73.21-1.25,1.73-1.5,2.39-.09.26-.82.4-.19.72s-.31.46-.63,0a13.74,13.74,0,0,1-1,1.36c-.37.36-.57-.09-.75.5a2,2,0,0,0-.17,1c.08.65.06,1.64.56,2.14.64.65,1.58-.47,1.89-1,0,.89.34,1.09.85,1.87.16.24.07,1,.27,1.14.59.38.61-.5.94-.61.71-.25.67-.2.65-1s.13-.65.53-1.26c.84-1.26-1.13-1.21-.33-2.55.26-.44.51-.32.8-.73.16-.22.42-1.21.52-1.27,1.06-.75,1.54-.28.67.68-.53.57-1.51,1.87-.54,2.6.69.52.72.72,1.49.36a3.76,3.76,0,0,1,1.47-.41c0,.43,0,.31.33.62-.54.35-1.25-.11-1.76.2-1.26.77.11.84-.12,1.94h-.33c0-.84-1.06-.59-1.3.08-.15.41.71,1.66-.4,1.65.06-.13.13-.25.19-.38a3.3,3.3,0,0,0-1,.21c-.32.11-.85.7-1.1.72s-.53-.62-1-.42-.61.24-.89-.14.91-1.86,0-2.27-1.19,1.26-1,1.8c.38,1,.19.83-.51,1.18a2.4,2.4,0,0,0-.82.58l-.05,0,0,.06c-.2.23-.33.49-.7.9-.18.21-1.12,1.28-1.42,1.3s-.61-.52-.8.09c-.14.44-.86.26-1.28.28-.1,1.13,2.48,1.16,1.66,2.6-.51.89-.69.72-1.73.72-.4,0-1.64-.32-1.8,0-.27.56-.1.92-.14,1.5,0,.38-.43,1.49-.39,1.67.1.57.08.83.44,1.11a17.63,17.63,0,0,0,1.83.25,2.09,2.09,0,0,0,2.44-2c0-.49,1-.85,1.22-1.24s.24-1.58,1-.86c.61.57.93-.43,1.28-.48.8-.11,1,.39,1.48,1s.88.51,1.54,1,.56,1,.64,1.78a1.16,1.16,0,0,0,.72-1.36c1.39,0-.9-1.2-1.24-1.54s-2-2-.71-1.95c-.42,1,.53.41.66.86s1.12,1.27,1.66,1a.85.85,0,0,1,.5.76c0,.39,0,.88.43,1-.09.55.66.69,1.11.87-1.2-.07-.36,1.19.5,1.21-.13-.69.57-1,.16-1.44-.11-.13-1-1.46-.36-.91.24.2.82-.35,1.32-.34a2.19,2.19,0,0,0,1-.31c-.09.81-1.13,0-1.49.87a9.31,9.31,0,0,0,.27,1.38c.89-.41.22.42.64.76s1.84.24,1.8-.44c.89.36,1.38.64,2.22.06-.14.68-.08,2.81-1.09,2.81-.29,0-.48-.25-.77-.25s-.63.41-1.09.44a9.59,9.59,0,0,1-2.33-.41c-.46-.17-.16-.52-.77-.52a1.32,1.32,0,0,0-1.21.41c-.19.16.58,1.56-.44,1.09-.86-.39-1.37-1.09-2.2-1.33-.36-.1-.75-.19-1.1-.31-.66-.24-.34-.17-.34-.71a6.2,6.2,0,0,0-.1-1.5c-.43-.28-.56-.11-1,.08s-.62-.08-1.17-.1a15.34,15.34,0,0,0-2.89.55c-.38.07-.57.46-.92.58a5.79,5.79,0,0,1-1.61,0c-.83,0-1,.91-1.81,1.31-.68.32-.43,1.86-1.16,2.3a4,4,0,0,0-1.81,1.73,11.19,11.19,0,0,1-1.62,2.55c.05,0,.05.07,0,.11.89.48.43,2.08.37,2.87a2.06,2.06,0,0,0,.07,1.21,8.54,8.54,0,0,0,.36,1,6.94,6.94,0,0,0,1.47,2c.79.77,2,1.28,2.7,2.08.53-.37,1.17-1,1.93-.79a2.29,2.29,0,0,0,2.17-.21c.44-.21,1.56-.78,2-.3s.64.83,1.24,1c.44.1.71-.54,1.15,0-1.79-.13.88,1.62,0,0,.39.39.24,1.25,0,1.72s-.66.83-.32,1.21a16.56,16.56,0,0,1,1.33,1.45,6.8,6.8,0,0,1,1.15,3.46c0,.61-.25.74-.67,1.19s-.27.72-.31,1.21a3.36,3.36,0,0,0,.56,2.57c.65,1,.09,1.38.47,2.34s.8,2,1.16,3c.13.37.82.77.85,1,0,.47-.66.35-.39,1s.29.61.89.84.57-.46,1.11-.46a13.81,13.81,0,0,0,2.71-.29c.78-.14,1.91-1.79,2.46-2.35.19-.19.62-.46.62-.74a4.38,4.38,0,0,1,0-1.19c.22-.36.95-.38,1.19-.72a3.14,3.14,0,0,0,.2-1.41c0-1.52.31-1.57,1.51-2.55.49-.41,1.75-.71,1.68-1.59a6.7,6.7,0,0,0-.23-2.14c-.43-.84-1-1.75-.66-2.73.58-1.59,2.05-2.76,3.25-4,1.41-1.51,2.65-2.67,2.75-4.88,0-.87-4.82,2-4.09-.54.54.46,2.48-.74,3.11-1l1.55-.63c.13-.06,0-.49.07-.54.25-.12.68.1.93,0a8,8,0,0,0,2-3.09c0-1.16-2.44-.84-1.73-2.39a1.2,1.2,0,0,0-1,.54c-.44.66-.52.6-1.32.64,0-.35.25-.87-.06-1.09-.49-.36-.75.39-.69.79a8.43,8.43,0,0,1-1.26-1.75c-.13-.37-.25-1.43.57-1,.39.18.36.36.38.75s.5.47.76.62c.68.41,1.38,1,2.09.36.44-.39.72.54,1.3.61a10,10,0,0,0,2.29.15c.41,0,1.21-.37,1.58-.06.67.57,1.1,1.27,2,1a1.57,1.57,0,0,1-.58.44c.45.85,1.4,1.63,1.87.31.28-.8.09,1.55.13,1.63Zm-20.81-9.24.82-.78c-.4-.5-.84,0-1.37,0S833.58,517.45,834.13,517.38Zm-4.59-.57c.39.45.8.36,1.37.34C831.63,516.37,829.72,516.38,829.54,516.81Zm-3.89-.24c-.1-.39-.68,0-.54.48C825.65,517.26,825.79,517.09,825.65,516.57Zm-1.39-1c.12.25,1.08.57,1.36.62,0-.51.18-1-.37-1.21C824.84,515,824,514.93,824.26,515.56Zm-1.17-2.83a3.22,3.22,0,0,0-.13-.6C821.73,512.93,823.19,513.85,823.09,512.73Zm-.78,2c.7.32,1.32-.83.85-1.27C822.27,512.68,822.28,514.44,822.31,514.78Zm-1.85-.45c-1.38-1.09-.79,1.4,0,0Zm7.83-12.4c-.18-.26-.71-.47-.84,0S828.13,502.25,828.29,501.93Zm-1.95,1.27a.71.71,0,0,0,.29-1.15C826,502.3,825.94,502.7,826.34,503.2Zm-2.54,1.38c.61-1.86-2.08.54,0,0Zm14.69-13.39c.31,0,.83.93,1.17.28.43-.82-.32-.61-.54-1.34-.28-1-.3-.9-1.31-1,.14.5.16,1-.46,1C837.2,491,837.81,491.18,838.49,491.19Zm-12.69-4.9c-1,.41.22,1.28.85.62S826.3,485.48,825.8,486.29Zm-2.35.2a2.94,2.94,0,0,1,.39-.66l.16.11a1.51,1.51,0,0,0,.07,1.92,13.29,13.29,0,0,1,1.18-1.77c.35-.43.56-.44.13-.81L825,485a1,1,0,0,0,.37,0c.59.8,1.25.66,2,.07.93-.8-.25-1.67-.74-1-.34-.44-.68-.31-.81.24-.65-1.27-1.38-.1-1.14.47a.69.69,0,0,0-.18-.1c-.2,0-2,.56-2,.47C822.29,485.77,822.5,486.72,823.45,486.49Zm-36.4,8.85-1.94-1.89-.86,1.09-.06,1.29c.52-.31.9-.63,1.54-.5C786.65,495.52,786,496.17,787.05,495.34Zm-5.66,27.17a1.44,1.44,0,0,0,.41.89C782.4,523,782,522.38,781.39,522.51Zm-1-1.83c.47.23.38.45.87.61-.79.3.12,1.06.63,1.15,0-.51-.24-.66-.45-1.07s.36-.68-.24-.92A.52.52,0,0,0,780.35,520.68Zm-.3,1.41a5.73,5.73,0,0,1,.79,1.06.66.66,0,0,0,.09-1l-.38.21c.42-.41,0-.87-.47-.94A2.84,2.84,0,0,0,780.05,522.09Zm.79,3.5c-.35-.42-1.4-.58-1.35.13C779.94,526.14,780.56,526.22,780.84,525.59Zm.75-.86a2.74,2.74,0,0,0,.45-.45c-1-.47-1.93-1.08-2.88-1.63a1.77,1.77,0,0,0-1.28,0c-.08,0-1.59.76-.86.77,1.08,0,1.84-.33,2.75.49.27.25.19,1,.39,1A1.45,1.45,0,0,0,781.59,524.73Zm.32.19c.29.11.34.33.47.41-.24-.05-.52.11-.76.07a1.91,1.91,0,0,0,.1.54c.4.21,1.23-.37,1.48.36a1.12,1.12,0,0,1,1.44-.36C785.12,525,782.51,523.88,781.91,524.92Zm3.08.71c.1.13.21.25.31.37a4.51,4.51,0,0,0,.82.12C786.4,525.29,785.47,525.11,785,525.63Zm2.31.58a.59.59,0,0,0,.16.82,2.1,2.1,0,0,0,.42-.36,4,4,0,0,0-.45-.65.64.64,0,0,0-.1.13,1.65,1.65,0,0,0-.29-.3c-.46.07-.53.3-.26.68A1.93,1.93,0,0,0,787.3,526.21Zm.48,3.66c-.49.23-.23.67.25.94C788.39,530.4,788.51,529.24,787.78,529.87Zm.31-1.36.43-.24a3.2,3.2,0,0,0-.52-.52l.39-.11A1.75,1.75,0,0,0,788,527c-.42.22-.3,1.18-.08,1.46-.39.28-.29.24-.11.65-1.27,0,.61,1.08.13.08.16,0,.29-.19.45-.25C788.27,528.82,788.22,528.61,788.09,528.51ZM795,507.42c-1.77.22.14-.76-.7-1.64-.37.35-2,1.5-2.06,2,0,.86,1.93,1.17,2.49,1.38C795.56,509.43,795.42,507.37,795,507.42Zm-33.62-7.86c-.48.2-.19.9.18,1.18.57-.38-.06-1.24.57-1.89C761.77,497.53,760.69,498.92,761.41,499.56Zm11,36c0,.2-.64,1.51,0,1.27S773.08,535.9,772.38,535.55Zm12.44,24.79a2.55,2.55,0,0,0-.38-.35C783.73,560.67,784.55,562.16,784.82,560.34Zm6.2,8.07a3.42,3.42,0,0,1-1.8-.6c-.22-.3-.49-.61-.73-.91l-.92,2C789,569.06,789.76,569.25,791,568.41Zm1-1.53.86-.9a3.94,3.94,0,0,0-.76-.09,2.82,2.82,0,0,0-.62.42A1.89,1.89,0,0,0,792,566.88Zm1.74-.73a2.65,2.65,0,0,0-.74-.51,3.72,3.72,0,0,0-.2.62.59.59,0,0,0-.39.76C793,566.81,793.45,566.71,793.74,566.15ZM812.1,520.4l-.82.46a2.81,2.81,0,0,0,.38.39C811.8,521,812,520.68,812.1,520.4Zm3.62-16.59.43,0a4.36,4.36,0,0,1,0,.63c-.31-.48-.68-.06-1-.15.18,0-1,.9-1,.73,0,.07.13.84.13.85-.07.16-.69.28-.69.44a.7.7,0,0,0,1,.62c.55-.21,1.4-.26,1.49-.89.05-.3,0-1.11.33-1.25.73-.35.83.81.54.84-.5.06-.65.92-1,1.41.26,0,.54.1.8.08l-1.3.75c.69.63,1.33.08,2-.24s1.3.38,1.77-.56l-.27-.16c1.15-.54-.3-1.11-.45-1.46s-.4-.87-.62-1.29,0-.8,0-1,.2-.5-.2-.5c-.11,0-.52.07-.61-.07s.73-.76,0-.88S815.85,503.37,815.72,503.81Zm-29.25-24.2c.06.91.3.67,1.18.67.44.49-.48.37-.89.42,1.09,1.48,1.63,1.39,3.26.67l-1.46-2.2c-.07-.1-.38-.74-.51-.77-.39-.08-.73.53-.69.82C787,478.94,786.44,479.07,786.47,479.61Zm-1.28.74c.4.24.49.59.16.92a2.74,2.74,0,0,0,.25.71c.49-.28,1.17-.4,1-1.06S785.71,480.18,785.19,480.35Zm-2.12.4c.77-.3,1,0,1.58.52,1.16.14-.14-1.44-.38-1.72C783.59,478.77,783,480.2,783.07,480.75Zm-2.23-.46c.72.35.8.5,1.48.1s-.83-.62-1-.64l1.22-.08c0-.59-.53-.76-1-.58C780.79,479.35,781.17,479.66,780.84,480.29Zm.07,7.66c-.19-.6-.64-.14-.63-.94,0-1.11.33-1.89-.67-2.52l-.59.79c-1.14-1-1.65-1.77-3.2-1A1.36,1.36,0,0,0,775,486c0,.37,1.2.51,1.54.62a1.63,1.63,0,0,1-.24.54l-1.14-.72c-.7,1.32.39.56.35,1.49s.3.83,1.23,1.08c.57,0,1.4.17,1.65-.43.21.23.69,1,1,1.09a.85.85,0,0,0,1-1c.14.16.38.22.52.37A3.37,3.37,0,0,0,780.91,488Zm.71-5.92c-.15.1-.38.09-.53.19a1.19,1.19,0,0,1,.3-1.2c-1.24-.24-1,1.24-1.52,1.19A14.85,14.85,0,0,0,779,481c-.56-.45-1.06,0-1.69.3-.2.83.86.89,1.47,1.12-.38.29-.29.67,0,1,.83-.37,1.84-1,2.25.24C781.59,483.1,782,482.9,781.62,482Zm2.19,3.37c-.47-.57-1.59-.75-1.67.21-.38-.32-.71-.18-.88.28a3.15,3.15,0,0,1,.63,1.94c.34-.2,1.24-.53,1.43-.86C783.65,486.35,783,485.88,783.81,485.4Zm.83-2.36c-.75-1-1.42-.45-2.18.26l1.07.05a3.22,3.22,0,0,1-.24.61C783.66,485.22,784.88,483.34,784.64,483Zm2.12,2.93c-1.44-.48-3.28-1.14-2.76,1.1.39.11.76,0,.88-.36C785.43,487.48,786.31,486.35,786.76,486Zm4.1-.36c-.29-.22-.81-.86-1.16-.92s-.92.25-1.37.21c-1.69-.16-.61-.83-1.3-1.83-.33-.46-2.08-1.39-1.95-.28.1.81,1.22.75.65,1.61-.61-.24-1.28-.8-1.45.17.59.22,1.21.71,1.46-.15-.18,1.19,2,1.34,2.8,1.62C789.75,486.43,789.86,486.47,790.86,485.61Zm.64,2.65c-.48-.51-1.42-1.92-2.06-.78C789.68,488.34,790.78,488.17,791.5,488.26Zm5.83-7-1.08-.3c.76-.37,2,.36,2.45-.62l-4.35-1.56c-.83-.29-1.35.68-1.87.24s-1.78-1.38-1.63-.06c-.58-.73-.91-.48-1.7-.23,0,.83.86.76,1.49.89-.65,1.53,1.83.84,2.4.7.07.45-1,1.15-1.35.9a1.78,1.78,0,0,0-1.81-.48l.83,1.17c-.64.17-.5-.63-1.24-.12-.42.29.35,1.21.92,1-.06,1.19-.95-.34-1.24-.41s-.65,0-.65.29-.62.33-.93.4c.28.86,1.33,1,2.11,1.08a2.08,2.08,0,0,1,1.08.53c.28.2.85-.3,1.13-.45-.17-.12-.27-.35-.45-.45.46.1,1.27-.57,1.88-.66s-.79-1.13-.31-1.05C794.75,482.44,795.67,482,797.33,481.3Zm1.74,11.81c.35-.63.09-1.41-.63-1.1S798.49,493.22,799.07,493.11Zm4.62,21.33a4.72,4.72,0,0,0,.73.41C804.72,514.18,804.07,513.74,803.69,514.44Zm1.94,0,.41-.11c-.32-.44-.71-.64-1.1-.16.31.17.3.3.64.28a.68.68,0,0,0,.08,1C806.25,515.27,806,514.85,805.63,514.48Zm1.55,13.08c-.22-.5-.58-.49-.94-.11A.57.57,0,0,0,807.18,527.56Zm.33-12c-.43-.29-.84-.39-1,.16C806.84,516.13,807.19,515.93,807.51,515.6Zm.07,13.12a2.23,2.23,0,0,0-.39-.67,2.14,2.14,0,0,0-.51.3C806.86,528.83,807.17,529.08,807.58,528.72Zm.57-.7c-.24-.46-.58-.64-.9-.19C807.38,528.37,807.75,528.37,808.15,528Zm.31-32.94c.85,0,1-.27,1.56-.88.4-.4,1.26-.38,1.57-.78.48-.62,0-1.1-.41-1.47-.62-.55-1-.4-1.29-1.25-.26-.68,1-.41,1.3-.27.92.49.84.54,1.55-.24-.27-.11-.51-.35-.79-.44l1.46-2a.9.9,0,0,0-.89-1.35c0-.82,2.61-2.36,3.26-2.93a2.53,2.53,0,0,0-3.76.16c.15-.34.3-.68.46-1-.79-.2-1.11-.44-1.42.47-.5-.73-1.37-.38-2.1-.3.29-1,2.52-.58,3.34-.6-1-1.33-1.38-1.29-3-1.6-.59-.11-2.83-.55-2.4.58-.55-.18-1.2-.15-1-.85-.65.13-1.34.07-1.42.91l.87.3c-.57.58-.7.56-1.17,0a1.5,1.5,0,0,0-.72-.43h0l-.11,0-.6-.15c0,.55,0,.8-.57.8-.71,0-.4-.75-.89-.82-.72-.11-2.77-.59-2.62.76-.91-.12-1.85-.29-1.79.85,0,.79-1.32.61-1.73.13-.81,1.33.08,1.58,1.35,1.43,0,1-1.58-.23-2,.7a9.19,9.19,0,0,1,.51,1.21c.6.77.45.47,1.32.35a1.89,1.89,0,0,1,2.15,1.36c.58,1.56.66,1.74-.06,3.23.56-.09,1.59-.44,1.49.5l-1.22.06c.41.41.74.92,1.38.92-1.13,1.5-2,2.4-1.41,4.31.1.29-.27.55-.17.84a7.25,7.25,0,0,0,.42,1.32c.35.6.9,1.24,1.6.83-.11.87.33,1.23,1.1,1.17.38,0,.45-1.51.62-1.86.1-.18.2-.34.3-.49l.11-.15a2,2,0,0,1,.22-.27l.15-.15a2,2,0,0,1,.21-.2l.16-.14a9.66,9.66,0,0,1,2.45-1.21c.39-.47.77-.95,1.15-1.43C807.25,494.74,808,495.08,808.46,495.08Zm2.8-4.36c-.46-.14-1,.18-.49.62l1.06.53C811.89,491,812.06,491,811.26,490.72Zm-1.55,7.85c.64.05,1.2.5,1.83.42s1.61-.95,1.63-1.57-.09-.59-.55-1c-.63-.53-.3.2-.75.17s-.29-.33-.64-.3-.7.41-1,.7c1-2-2.79.33-.94.24C808.72,498.11,810,497.68,809.71,498.57Zm.75,18.86a2.87,2.87,0,0,0-.34.44c.18.43.5.46.83.14A1.71,1.71,0,0,0,810.46,517.43Zm-.53,3.76c.07-.14.13-.29.2-.44a.64.64,0,0,0,.84.48c0-.61-.31-.78-.84-.49l.12-.26a.55.55,0,0,0-.88.22A1.76,1.76,0,0,0,809.93,521.19Zm11.56,14.32c.12,1.2,1.15-.58,0,0Zm.38-.68c.2,1.45,1.26-.61,0,0Zm18.65,6.71c.09.55,1.32,1.69,1.32.4-.19.08-.42,0-.6.09.1-.15.1-.37.2-.53Zm3.07.22c-.63.07-1,1.48-1.34,2s-1.79-.14-1.74.94c0,.52,0,1,.07,1.56,0,.36-.58.59-.7.91-.19.55.08,2,.76,2.25a1.15,1.15,0,0,0,1.45-1.39c-.11-.6,1-1.91,1.3-2.43.19-.32.42-.46.16-.74-.54-.59.43-.57.44-.58C844.35,543.59,843.86,542.47,843.59,541.76Zm2.52-3.81a.7.7,0,0,0,.92.55l-.37-.94A2.73,2.73,0,0,0,846.11,538Zm-.2-9c-.37-.65-1-.22-1.57-.2C844.87,529.76,845.14,529.23,845.91,529Zm-.23,10.54a2.93,2.93,0,0,0-.65-.35C844.57,539.72,845.33,540.29,845.68,539.54Zm.75,8a.78.78,0,0,0-1-.37C845.16,547.92,846,547.85,846.43,547.49Zm.18-8.21.49.09C847.52,538.05,846,538.68,846.61,539.28Zm.92,7.6a1.78,1.78,0,0,0-.57-.45,3,3,0,0,0-.38.5,3.76,3.76,0,0,0,.09.65Z" transform="translate(-411.53 68.55)"/><path class="cls-10" d="M940.37,110.59h0a54.84,54.84,0,0,0-12.87-24l-.21-.23c-.5-.54-1-1-1.56-1.58-.37-.36-.71-.74-1.09-1.09l-.07-.07a55.81,55.81,0,0,0-9-6.84l-.52-.32c-1-.62-2.11-1.21-3.2-1.76l-.09,0A54.18,54.18,0,0,0,901,70.63l-.75-.19c-1.19-.3-2.39-.57-3.61-.78a55.27,55.27,0,1,0,43.71,40.93ZM855.29,145a7.35,7.35,0,1,1,7.35-7.35A7.36,7.36,0,0,1,855.29,145Zm3.94-25.69a11.88,11.88,0,1,1,11.87-11.88A11.87,11.87,0,0,1,859.23,119.34Zm15.43-28.95a5.94,5.94,0,1,1,5.94,5.94A5.94,5.94,0,0,1,874.66,90.39ZM885,168.28a7.5,7.5,0,1,1,7.49-7.5A7.5,7.5,0,0,1,885,168.28Zm7.49-22.8a4.6,4.6,0,1,1,4.6-4.6A4.6,4.6,0,0,1,892.47,145.48ZM895,96.33a4.6,4.6,0,1,1,4.6-4.6A4.6,4.6,0,0,1,895,96.33ZM917.1,151.6a6.2,6.2,0,1,1,6.2-6.2A6.21,6.21,0,0,1,917.1,151.6Z" transform="translate(-411.53 68.55)"/><g class="cls-11"><circle class="cls-7" cx="324.02" cy="355.53" r="2.55"/><path class="cls-7" d="M740.82,376.86a2.56,2.56,0,1,0,2.56,2.55A2.55,2.55,0,0,0,740.82,376.86Z" transform="translate(-411.53 68.55)"/><path class="cls-7" d="M724.33,440.58a2.56,2.56,0,1,0,2.55,2.55A2.56,2.56,0,0,0,724.33,440.58Z" transform="translate(-411.53 68.55)"/><path class="cls-7" d="M664.47,547.88a2.56,2.56,0,1,0,2.55,2.55A2.55,2.55,0,0,0,664.47,547.88Z" transform="translate(-411.53 68.55)"/><path class="cls-7" d="M618.32,596.11a2.56,2.56,0,1,0,2.56,2.55A2.55,2.55,0,0,0,618.32,596.11Z" transform="translate(-411.53 68.55)"/><path class="cls-7" d="M702,634.67a2.56,2.56,0,1,0,2.56,2.56A2.56,2.56,0,0,0,702,634.67Z" transform="translate(-411.53 68.55)"/><path class="cls-7" d="M839.12,622.23a2.56,2.56,0,1,0,2.56,2.56A2.56,2.56,0,0,0,839.12,622.23Z" transform="translate(-411.53 68.55)"/><circle class="cls-7" cx="495.64" cy="562.96" r="2.55"/><path class="cls-7" d="M981.61,459a2.56,2.56,0,1,0,2.56,2.56A2.56,2.56,0,0,0,981.61,459Z" transform="translate(-411.53 68.55)"/><circle class="cls-7" cx="660.07" cy="639.94" r="2.55"/><circle class="cls-7" cx="723.45" cy="668.79" r="2.55"/><circle class="cls-7" cx="819.61" cy="677.41" r="2.55"/><path class="cls-7" d="M1330.27,565.05a2.56,2.56,0,1,0,2.55,2.56A2.56,2.56,0,0,0,1330.27,565.05Z" transform="translate(-411.53 68.55)"/><path class="cls-7" d="M1437.45,612.4A2.56,2.56,0,1,0,1440,615,2.56,2.56,0,0,0,1437.45,612.4Z" transform="translate(-411.53 68.55)"/><path class="cls-7" d="M1430.18,627.31a2.56,2.56,0,1,0,2.55,2.55A2.55,2.55,0,0,0,1430.18,627.31Z" transform="translate(-411.53 68.55)"/><path class="cls-7" d="M1332.51,604a2.56,2.56,0,1,0,2.56,2.56A2.56,2.56,0,0,0,1332.51,604Z" transform="translate(-411.53 68.55)"/><path class="cls-7" d="M1162.17,535.69a2.56,2.56,0,1,0,2.56,2.55A2.55,2.55,0,0,0,1162.17,535.69Z" transform="translate(-411.53 68.55)"/><path class="cls-7" d="M1067.81,549.49a2.56,2.56,0,1,0,2.55,2.55A2.56,2.56,0,0,0,1067.81,549.49Z" transform="translate(-411.53 68.55)"/><path class="cls-7" d="M928.68,634.42a2.56,2.56,0,1,0,2.56,2.55A2.55,2.55,0,0,0,928.68,634.42Z" transform="translate(-411.53 68.55)"/><path class="cls-7" d="M824.94,662.73a2.56,2.56,0,1,0,2.55,2.56A2.56,2.56,0,0,0,824.94,662.73Z" transform="translate(-411.53 68.55)"/><path class="cls-7" d="M700.1,594a2.56,2.56,0,1,0,2.56,2.56A2.56,2.56,0,0,0,700.1,594Z" transform="translate(-411.53 68.55)"/><path class="cls-7" d="M585.85,548.16a2.56,2.56,0,1,0,2.56,2.55A2.55,2.55,0,0,0,585.85,548.16Z" transform="translate(-411.53 68.55)"/><path class="cls-7" d="M475.73,624.43a2.56,2.56,0,1,0,2.55,2.55A2.56,2.56,0,0,0,475.73,624.43Z" transform="translate(-411.53 68.55)"/><circle class="cls-7" cx="23.87" cy="735.84" r="2.55"/><circle class="cls-7" cx="23.32" cy="569.96" r="2.55"/><path class="cls-7" d="M434.16,319.42a2.56,2.56,0,1,0,2.56,2.56A2.56,2.56,0,0,0,434.16,319.42Z" transform="translate(-411.53 68.55)"/><path class="cls-7" d="M433.49,267.43A2.56,2.56,0,1,0,436,270,2.56,2.56,0,0,0,433.49,267.43Z" transform="translate(-411.53 68.55)"/><path class="cls-7" d="M469.49,123.14a2.55,2.55,0,1,0,2.56,2.55A2.55,2.55,0,0,0,469.49,123.14Z" transform="translate(-411.53 68.55)"/><path class="cls-7" d="M538.42,207.12a2.56,2.56,0,1,0,2.55,2.55A2.56,2.56,0,0,0,538.42,207.12Z" transform="translate(-411.53 68.55)"/><path class="cls-7" d="M596.25,205a2.56,2.56,0,1,0,2.55,2.56A2.56,2.56,0,0,0,596.25,205Z" transform="translate(-411.53 68.55)"/><path class="cls-7" d="M608.71,132.65a2.56,2.56,0,1,0,2.56,2.56A2.56,2.56,0,0,0,608.71,132.65Z" transform="translate(-411.53 68.55)"/><circle class="cls-7" cx="756.92" cy="75.04" r="2.55" transform="matrix(0.1, -0.99, 0.99, 0.1, 194.31, 889.07)"/><circle class="cls-7" cx="465.89" cy="219.77" r="2.55"/><circle class="cls-7" cx="641.2" cy="177.41" r="2.55"/><path class="cls-7" d="M1257.38-68.55a2.56,2.56,0,0,0-2.56,2.56,2.56,2.56,0,0,0,2.56,2.55,2.55,2.55,0,0,0,2.55-2.55A2.55,2.55,0,0,0,1257.38-68.55Z" transform="translate(-411.53 68.55)"/><circle class="cls-7" cx="996.44" cy="95.08" r="2.55"/><circle class="cls-7" cx="962.31" cy="121.24" r="2.55"/><path class="cls-7" d="M1245.23,17.48a2.56,2.56,0,1,0,2.56,2.56A2.56,2.56,0,0,0,1245.23,17.48Z" transform="translate(-411.53 68.55)"/><circle class="cls-7" cx="735.76" cy="99.39" r="2.55"/><circle class="cls-7" cx="700.21" cy="113.18" r="2.55"/><circle class="cls-7" cx="690.25" cy="158.94" r="2.55"/><circle class="cls-7" cx="738.17" cy="178.22" r="2.55"/><path class="cls-7" d="M505.61,31.45A2.56,2.56,0,1,0,508.16,34,2.56,2.56,0,0,0,505.61,31.45Z" transform="translate(-411.53 68.55)"/><circle class="cls-7" cx="183.68" cy="46.95" r="2.55"/><path class="cls-7" d="M683.06,6.84a2.56,2.56,0,1,0,2.55,2.56A2.55,2.55,0,0,0,683.06,6.84Z" transform="translate(-411.53 68.55)"/><circle class="cls-7" cx="302.39" cy="157.88" r="2.55"/><path class="cls-7" d="M1015.26-53.29a2.56,2.56,0,0,0-2.56,2.55,2.56,2.56,0,0,0,2.56,2.56,2.56,2.56,0,0,0,2.55-2.56A2.55,2.55,0,0,0,1015.26-53.29Z" transform="translate(-411.53 68.55)"/><path class="cls-7" d="M955.47-52.16a2.56,2.56,0,0,0-2.56,2.55A2.56,2.56,0,0,0,955.47-47,2.55,2.55,0,0,0,958-49.61,2.55,2.55,0,0,0,955.47-52.16Z" transform="translate(-411.53 68.55)"/><circle class="cls-7" cx="459.14" cy="30.06" r="2.55"/><path class="cls-7" d="M447-4.21a2.56,2.56,0,0,0-2.55,2.56A2.55,2.55,0,0,0,447,.9a2.56,2.56,0,0,0,2.56-2.55A2.56,2.56,0,0,0,447-4.21Z" transform="translate(-411.53 68.55)"/><path class="cls-7" d="M414.09,11a2.56,2.56,0,1,0,2.55,2.56A2.56,2.56,0,0,0,414.09,11Z" transform="translate(-411.53 68.55)"/><path class="cls-7" d="M813.62,432.1a2.55,2.55,0,1,0,2.56,2.55A2.55,2.55,0,0,0,813.62,432.1Z" transform="translate(-411.53 68.55)"/><circle class="cls-7" cx="757.44" cy="198.32" r="2.55" transform="translate(-429.77 373.5) rotate(-22.5)"/><path class="cls-7" d="M846,245.68a2.56,2.56,0,1,0,2.56,2.56A2.56,2.56,0,0,0,846,245.68Z" transform="translate(-411.53 68.55)"/></g></g></g></g></svg>