<svg xmlns="http://www.w3.org/2000/svg" xmlns:xlink="http://www.w3.org/1999/xlink" viewBox="0 0 2529.84 1650.23"><defs><style>.cls-1,.cls-5,.cls-9{fill:none;}.cls-2{isolation:isolate;}.cls-3{fill:#303032;}.cls-4{clip-path:url(#clip-path);}.cls-5,.cls-9{stroke:#fff;stroke-miterlimit:10;}.cls-6{fill:url(#무제_그라디언트_17);}.cls-7{fill:url(#무제_그라디언트_17-2);}.cls-10,.cls-11,.cls-8{fill:#fff;}.cls-9{opacity:0.8;}.cls-10{opacity:0.6;}.cls-11{opacity:0.4;}.cls-12{mix-blend-mode:overlay;}.cls-13{clip-path:url(#clip-path-2);}.cls-14{fill:url(#무제_그라디언트_17-3);}.cls-15{fill:url(#무제_그라디언트_17-4);}</style><clipPath id="clip-path" transform="translate(493.61 917.64)"><rect class="cls-1" x="574.67" y="-849.09" width="1440" height="600"/></clipPath><linearGradient id="무제_그라디언트_17" x1="1811.71" y1="-564.31" x2="1989.98" y2="-564.31" gradientUnits="userSpaceOnUse"><stop offset="0" stop-color="#ae97e3"/><stop offset="1" stop-color="#77c3e7"/></linearGradient><linearGradient id="무제_그라디언트_17-2" x1="1751.94" y1="-564.31" x2="2076.79" y2="-564.31" xlink:href="17"/><clipPath id="clip-path-2" transform="translate(493.61 917.64)"><rect class="cls-1" x="240" width="1440" height="600"/></clipPath><linearGradient id="무제_그라디언트_17-3" x1="1477.05" y1="284.78" x2="1655.31" y2="284.78" xlink:href="#무제_그라디언트_17"/><linearGradient id="무제_그라디언트_17-4" x1="1417.27" y1="284.78" x2="1742.12" y2="284.78" xlink:href="#무제_그라디언트_17"/></defs><g class="cls-2"><g id="레이어_1" data-name="레이어 1"><rect class="cls-3" x="493.61" y="917.64" width="1920" height="600"/><g class="cls-4"><path class="cls-5" d="M1784.86-540.41l12.7-5.49.23,14.31.23,14.32-12.88-5.09-.14-9Zm-183,2.89-4.67.08c-8.79.14-15.85,4.29-15.77,9.27s7.27,8.92,16.06,8.78l4.66-.08-.14-9Zm-24.77,2.92c-28.59-4.62-48.24-14.35-48.43-26h0c-.18-11.6,19.15-21.95,47.59-27.47,2.11,3.13,5.7,5.59,10.24,7l.31,19.53h0l.31,19.53C1582.6-540.37,1579.08-537.8,1577.07-534.6Zm-24.48-19.16a4.65,4.65,0,0,0,4.58-4.73,4.66,4.66,0,0,0-4.73-4.59,4.66,4.66,0,0,0-4.58,4.74A4.66,4.66,0,0,0,1552.59-553.76Zm18.56,9.16a7.18,7.18,0,0,0,7-7.28,7.17,7.17,0,0,0-7.28-7,7.16,7.16,0,0,0-7.05,7.28A7.17,7.17,0,0,0,1571.15-544.6Zm29.92-41.31-.14-9-.14-9-4.67.07c-8.79.14-15.85,4.29-15.77,9.28s7.27,8.91,16.06,8.77Zm186.87,21.25.23,14.62c3-.05,5.44-3.36,5.38-7.4s-2.56-7.25-5.58-7.22c3-.07,5.41-3.37,5.35-7.4s-2.58-7.27-5.61-7.23l.23,14.62Zm-21.09,2.31.2,12.64,14.91-.23-.2-12.65,0-2-.23-14.63-14.92.24.23,14.62Zm17.1-35.48.14,9,12.88,5.09-.23-14.31-.23-14.32-12.7,5.5Zm20.2,75.17,8-.13-.15-9-.14-9-8,.13.14,9Zm-1.05-66.45,8-.12-.15-9-.14-9-8,.13.14,9Zm-195.72,9.31-6.21.1-4.66.08a36.2,36.2,0,0,1-3.8-.16l.15,9.42c3.69-4.54,10.31-7.95,18.56-9.5Zm.57,36,3.92-.06c-8.25-1.3-14.91-4.51-18.73-8.91l.15,9.42a35.34,35.34,0,0,1,3.79-.28l4.66-.07Zm20.26-18.3.2,12.55-7.34.12c-13.84.22-25.15-5.23-25.26-12.16h0c-.11-6.93,11-12.73,24.86-13l7.34-.12.2,12.56h0Zm-5.6-4.23-.07-3.94-4.57.07.06,3.94Zm-4.45,8.69.07,3.95,4.57-.08-.06-3.94Zm4.54-2.4-.06-3.95-4.58.08.07,3.94Zm106.93-4.9-.93-59c-12,6.75-17,39.58-75.76,40.51-7.55.12-14.23,1.92-18.78,4.65l.53,33.09c4.63,2.58,11.36,4.18,18.91,4.06,58.76-.93,64.81,31.71,77,38.09l-.93-59Zm6.49,17.44.73,46.39c3.84,1.24,7.09,2,7.09,2l13-39.27A30.05,30.05,0,0,1,1736.12-547.53Zm20.05-42.4-14.28-38.84s-3.22.87-7,2.23l.73,46.41A30.08,30.08,0,0,1,1756.17-589.93Zm-120.41,3.47a48.76,48.76,0,0,1,17.08-3.19c26.9-.42,41.38-7.66,50.73-15.94L1607-604.06l.29,18Zm142.12-2.25-.29-18-20.87.33,6,16.35.63,1.6ZM1758-544.59l2.89,0-.29-18.42,0-1.17-.31-19.59-2.89,0c-12.57.2-22.6,10.87-22.46,19.95h0C1735.1-554.74,1745.46-544.39,1758-544.59Zm0,22.66,20.87-.33-.29-18-14.55.23-.54,1.62Zm-121.53-16.13-28.48.45.29,18,96.57-1.52c-9.61-8-24.31-14.76-51.21-14.33A48.94,48.94,0,0,1,1636.53-538.06Z" transform="translate(493.61 917.64)"/><path class="cls-6" d="M1945.61-541.51H1932.7v-10.82h56.87L1990-564H1932.7v-.51h56.87l.41-11.72H1932.7V-587.1h11.83l1.08-19.43h-76.17a13.21,13.21,0,0,0-.2,2.19A13.31,13.31,0,0,0,1882.55-591a13.28,13.28,0,0,0,10.29-4.87,17.12,17.12,0,0,0,10.55,3.63,17.07,17.07,0,0,0,5.79-1l.29,55.3,1.65,3.49a17.14,17.14,0,0,0-7.73-1.84,17.12,17.12,0,0,0-10.55,3.63,13.28,13.28,0,0,0-10.29-4.87,13.31,13.31,0,0,0-13.31,13.31,13.09,13.09,0,0,0,.2,2.18h75.09Z" transform="translate(493.61 917.64)"/><path class="cls-7" d="M1989-887H1877a33,33,0,0,0-15,27.7,33.08,33.08,0,0,0,33.07,33.08,37.44,37.44,0,0,0,12.42-3.1,34.92,34.92,0,0,0,10.4-7.16,35.14,35.14,0,0,0,7.17-10.4,37.19,37.19,0,0,0,3.09-12.42c0,1.08,0,2.17,0,3.26s-.2,2.18-.3,3.27-.46,2.14-.69,3.22-.67,2.09-1,3.14a31.59,31.59,0,0,1-7.17,11.07,31.55,31.55,0,0,1-11.06,7.17c-1,.34-2.09.71-3.15,1l-1.29.29a30.9,30.9,0,0,0-1.19,8.44,30.88,30.88,0,0,0,24.59,30.22,35.84,35.84,0,0,1,2.41-2.67,34.76,34.76,0,0,1,12.11-7.87c1.15-.37,2.29-.79,3.44-1.12s2.35-.55,3.53-.76,2.39-.26,3.58-.35,2.39,0,3.58,0a40.52,40.52,0,0,0-13.66,3.34,38.42,38.42,0,0,0-11.44,7.87,38.29,38.29,0,0,0-7.87,11.44,40.51,40.51,0,0,0-3.33,13.65,36.27,36.27,0,0,0,16.63,30.5l.14-.15a34.85,34.85,0,0,1,11.45-7.38,33.81,33.81,0,0,1,13.32-2.26,35.14,35.14,0,0,0-23.9,10.52,35,35,0,0,0-7.22,11,33.72,33.72,0,0,0-2.49,12.89,33.91,33.91,0,0,0,2.49,12.89,35.15,35.15,0,0,0,7.22,11,35.16,35.16,0,0,0,23.9,10.52,34,34,0,0,1-13.32-2.26,35.16,35.16,0,0,1-11.46-7.38,33.13,33.13,0,0,1-4.77-5.86,42.2,42.2,0,0,0-39.69,42.12,41.93,41.93,0,0,0,6.18,21.94,17.52,17.52,0,0,1,5.65-1,17.42,17.42,0,0,1,12.61,5.41,17.7,17.7,0,0,1,3.65,5.87,16.57,16.57,0,0,1,.95,6.74,17.88,17.88,0,0,0-5.48-11.73,17.11,17.11,0,0,0-11.73-4.67,17.11,17.11,0,0,0-11.73,4.67,17.3,17.3,0,0,0-3.55,4.79,13.23,13.23,0,0,0-5.56-1.23,13.3,13.3,0,0,0-13.11,11.12h-42.75v19.43h53a5.42,5.42,0,0,1,5.42,5.41,5.42,5.42,0,0,1-5.42,5.41h-68v23.95h68a5.42,5.42,0,0,1,5.42,5.41,5.42,5.42,0,0,1-5.42,5.41h-53v19.42h42.75A13.3,13.3,0,0,0,1882.55-511a13.23,13.23,0,0,0,5.56-1.23,17.3,17.3,0,0,0,3.55,4.79,17.11,17.11,0,0,0,11.73,4.67,17.11,17.11,0,0,0,11.73-4.67,17.88,17.88,0,0,0,5.48-11.73,16.57,16.57,0,0,1-.95,6.74,17.56,17.56,0,0,1-3.65,5.86,17.43,17.43,0,0,1-12.61,5.42,17.52,17.52,0,0,1-5.65-1,41.93,41.93,0,0,0-6.18,21.94A42.21,42.21,0,0,0,1931.25-438a33.13,33.13,0,0,1,4.77-5.86,35.16,35.16,0,0,1,11.46-7.38,33.81,33.81,0,0,1,13.32-2.26A35.16,35.16,0,0,0,1936.9-443a35.15,35.15,0,0,0-7.22,11,33.91,33.91,0,0,0-2.49,12.89,33.72,33.72,0,0,0,2.49,12.89,35.15,35.15,0,0,0,7.22,11,35.14,35.14,0,0,0,23.9,10.52,34,34,0,0,1-13.32-2.26,34.88,34.88,0,0,1-11.45-7.39l-.14-.14A36.26,36.26,0,0,0,1919.26-364a40.51,40.51,0,0,0,3.33,13.66,38.42,38.42,0,0,0,7.87,11.44A38.42,38.42,0,0,0,1941.9-331a40.76,40.76,0,0,0,13.66,3.34c-1.19,0-2.38,0-3.58,0s-2.38-.23-3.58-.35-2.35-.51-3.53-.76-2.29-.75-3.44-1.12a34.76,34.76,0,0,1-12.11-7.87,35.84,35.84,0,0,1-2.41-2.67,30.88,30.88,0,0,0-24.59,30.21,31,31,0,0,0,1.19,8.45l1.29.29c1.06.3,2.1.67,3.15,1a31.55,31.55,0,0,1,11.06,7.17,31.64,31.64,0,0,1,7.17,11.06c.34,1.06.71,2.09,1,3.15s.5,2.14.69,3.22.22,2.18.3,3.26,0,2.19,0,3.27a37.19,37.19,0,0,0-3.09-12.42,35.14,35.14,0,0,0-7.17-10.4,34.92,34.92,0,0,0-10.4-7.16,37.44,37.44,0,0,0-12.42-3.1A33.08,33.08,0,0,0,1862-269.32a33,33,0,0,0,15,27.69h159.22V-887Zm-79.86,293.7h0c-.45.16-.91.31-1.38.43C1908.27-593,1908.73-593.13,1909.18-593.29Zm-4.28.95c-.5.05-1,.07-1.51.07h0C1903.9-592.27,1904.4-592.29,1904.9-592.34Zm-10.33-2.4a16.83,16.83,0,0,1-1.73-1.16h0A16.83,16.83,0,0,0,1894.57-594.74Zm-25.33-9.6c0-.37,0-.74,0-1.1,0,.36,0,.73,0,1.1A13.31,13.31,0,0,0,1882.55-591h0A13.31,13.31,0,0,1,1869.24-604.34Zm0,80.07c0,.37,0,.74,0,1.1,0-.36,0-.73,0-1.1a13.31,13.31,0,0,1,13.31-13.31h0A13.31,13.31,0,0,0,1869.24-524.27Zm23.6-8.44a16.92,16.92,0,0,1,1.73-1.17,16.92,16.92,0,0,0-1.73,1.17Zm10.55-3.63h0c.35,0,.69,0,1,0C1904.08-536.33,1903.74-536.34,1903.39-536.34Zm6.85,1.43.88.41h0Z" transform="translate(493.61 917.64)"/><path class="cls-8" d="M1946.07-522.13a18.82,18.82,0,0,0-7.34.63,18.64,18.64,0,0,0-11.24,9.29,18.62,18.62,0,0,0-1.1,14.53,19,19,0,0,0,3.71,6.37A18.08,18.08,0,0,0,1936-487a19.06,19.06,0,0,1-8.62-11,18.43,18.43,0,0,1,1.31-13.62,18.44,18.44,0,0,1,10.37-8.92,19,19,0,0,1,13.92.72A17.89,17.89,0,0,0,1946.07-522.13Z" transform="translate(493.61 917.64)"/><path class="cls-8" d="M1977.23-285.67a26.29,26.29,0,0,0-10.11-2,26.07,26.07,0,0,0-18.73,8.07,26.1,26.1,0,0,0-7.16,19.09,26.53,26.53,0,0,0,2.51,10,25.07,25.07,0,0,0,6.21,8.06,26.63,26.63,0,0,1-7.29-18.09,25.79,25.79,0,0,1,7.08-17.77,25.74,25.74,0,0,1,17.41-7.93,26.65,26.65,0,0,1,18.42,6.41A25,25,0,0,0,1977.23-285.67Z" transform="translate(493.61 917.64)"/><path class="cls-8" d="M1939.09-876.38a26.46,26.46,0,0,0,.17,10.3,26,26,0,0,0,11.85,16.6,26,26,0,0,0,20.17,3,26.37,26.37,0,0,0,9.24-4.56,25.08,25.08,0,0,0,6.56-7.77,26.64,26.64,0,0,1-16.14,10.94,25.71,25.71,0,0,1-18.86-3.16,25.77,25.77,0,0,1-11.43-15.34,26.64,26.64,0,0,1,2.37-19.36A25.18,25.18,0,0,0,1939.09-876.38Z" transform="translate(493.61 917.64)"/><path class="cls-8" d="M1899.71-584.57a19.11,19.11,0,0,0-6.39,3.68,18.63,18.63,0,0,0-6.26,13.17,18.69,18.69,0,0,0,5.15,13.64,18.88,18.88,0,0,0,6.06,4.19,17.79,17.79,0,0,0,7.14,1.4,19,19,0,0,1-12.45-6.29,18.42,18.42,0,0,1-4.57-12.89,18.41,18.41,0,0,1,5.63-12.46,19,19,0,0,1,12.92-5.24A18,18,0,0,0,1899.71-584.57Z" transform="translate(493.61 917.64)"/><path class="cls-8" d="M1991-427.18a21.44,21.44,0,0,0-7.3,4.2,21.33,21.33,0,0,0-7.15,15.05,21.41,21.41,0,0,0,4.19,13.57,30.89,30.89,0,0,0-4.94,3.5,29.74,29.74,0,0,0-10,21,29.73,29.73,0,0,0,8.21,21.75,30.7,30.7,0,0,0,7.4,5.58c-.48.35-1,.72-1.42,1.12a20.61,20.61,0,0,0-6.92,14.57,20.6,20.6,0,0,0,5.69,15.08,20.73,20.73,0,0,0,6.7,4.64,19.84,19.84,0,0,0,7.9,1.55,21,21,0,0,1-13.76-6.95,20.37,20.37,0,0,1-5.06-14.26,20.34,20.34,0,0,1,6.22-13.79,19.43,19.43,0,0,1,1.7-1.45c.4.2.8.42,1.21.6a28.58,28.58,0,0,0,11.38,2.23,30.67,30.67,0,0,1-11.6-3.54l-1-.53a29.34,29.34,0,0,1-7.29-6,29.35,29.35,0,0,1-7.29-20.55,29.36,29.36,0,0,1,9-19.88,29.05,29.05,0,0,1,4.68-3.66c.28.33.55.66.85,1a21.49,21.49,0,0,0,6.92,4.79,20.49,20.49,0,0,0,8.15,1.6,21.76,21.76,0,0,1-14.22-7.19c-.22-.25-.42-.52-.63-.79l-.78-1a21,21,0,0,1-3.81-12.92,21,21,0,0,1,6.43-14.24,21.7,21.7,0,0,1,14.76-6A20.55,20.55,0,0,0,1991-427.18Z" transform="translate(493.61 917.64)"/><path class="cls-8" d="M2000.35-821.69a21.89,21.89,0,0,0-7.25,4.63,21.76,21.76,0,0,0-6.6,15.69,21.83,21.83,0,0,0,4.83,13.54,32.56,32.56,0,0,0-5.37,4.14,31.67,31.67,0,0,0-9.61,22.85,31.67,31.67,0,0,0,9.8,22.77,32.07,32.07,0,0,0,10.62,6.66,30.69,30.69,0,0,0,12.23,1.83,32.36,32.36,0,0,1-21.62-9.72,31.32,31.32,0,0,1-8.77-21.55,31.37,31.37,0,0,1,8.59-21.62,30.57,30.57,0,0,1,5.07-4.28l1.06-.68a32.92,32.92,0,0,1,15.41-4.94,30.72,30.72,0,0,0-12.22,1.93,31.44,31.44,0,0,0-4,2,21.42,21.42,0,0,1-4.41-12.9,21.48,21.48,0,0,1,5.89-14.84,22.23,22.23,0,0,1,14.79-6.8A20.87,20.87,0,0,0,2000.35-821.69Z" transform="translate(493.61 917.64)"/><path class="cls-8" d="M1950.71-579.15a15.44,15.44,0,0,1-5.09-3.24,15.31,15.31,0,0,1-4.63-11,15.3,15.3,0,0,1,3.39-9.5,23.05,23.05,0,0,1-3.77-2.9,22.26,22.26,0,0,1-6.74-16,22.23,22.23,0,0,1,6.88-16,22.54,22.54,0,0,1,7.44-4.67,21.39,21.39,0,0,1,8.58-1.28,22.67,22.67,0,0,0-15.16,6.82,21.92,21.92,0,0,0-6.15,15.11,22,22,0,0,0,6,15.17,21.76,21.76,0,0,0,3.56,3l.74.48a23.15,23.15,0,0,0,10.81,3.46,21.55,21.55,0,0,1-8.57-1.35,21.87,21.87,0,0,1-2.84-1.38,15.09,15.09,0,0,0-3.1,9.05,15.09,15.09,0,0,0,4.14,10.41,15.56,15.56,0,0,0,10.37,4.77A14.66,14.66,0,0,1,1950.71-579.15Z" transform="translate(493.61 917.64)"/><path class="cls-9" d="M1305.92-512.38l-.91-2.35c3.14-1.2,6.31-2.34,9.43-3.37l.79,2.39C1312.14-514.7,1309-513.57,1305.92-512.38Zm-18.08,8-1.13-2.25c-3,1.49-5.92,3.08-8.82,4.72l1.24,2.18C1282-501.35,1284.93-502.91,1287.84-504.38Zm22.23,375.57c3.09,1.11,6.3,2.16,9.53,3.13l.73-2.4c-3.2-1-6.37-2-9.42-3.09Zm58.86,9.06-.13,2.52c3.28.15,6.64.24,10,.24h.82v-2.51h-.83C1375.49-119.51,1372.16-119.58,1368.93-119.75ZM1181-369.06l-2.45-.58c-.76,3.24-1.44,6.53-2,9.81l2.47.45C1179.53-362.61,1180.21-365.87,1181-369.06Zm-4.63,29.27-2.5-.21c-.27,3.3-.48,6.67-.59,10l2.51.09C1175.87-333.21,1176.06-336.53,1176.33-339.79Zm197.15-186-.07-2.51c-3.33.08-6.7.26-10,.5l.19,2.51C1366.86-525.58,1370.18-525.74,1373.48-525.83Zm55.09,400.17.62,2.43c3.2-.8,6.45-1.71,9.64-2.69l-.73-2.4C1434.94-127.36,1431.74-126.46,1428.57-125.66ZM1344-522.91l-.43-2.47c-3.26.56-6.56,1.22-9.82,2l.55,2.45C1337.5-521.7,1340.76-522.35,1344-522.91Zm55.4,402.37.26,2.5c3.35-.34,6.69-.76,9.93-1.25l-.38-2.48C1406-121.29,1402.69-120.88,1399.38-120.54ZM1214.59-199c2,2.66,4.1,5.29,6.22,7.84l1.93-1.61c-2.1-2.51-4.17-5.12-6.15-7.74ZM1173.5-310c.2,3.3.49,6.66.86,10l2.49-.28c-.36-3.27-.64-6.59-.84-9.85Zm83.68,153.09c2.67,2,5.43,3.9,8.22,5.74l1.38-2.09c-2.74-1.83-5.47-3.73-8.11-5.67Zm-56.61-268.41c-1.65,2.85-3.26,5.82-4.8,8.8l2.24,1.15c1.51-2.95,3.11-5.87,4.74-8.69Zm33.78,248.92c2.39,2.35,4.84,4.66,7.3,6.86l1.67-1.87c-2.42-2.18-4.85-4.45-7.2-6.78Zm169-350.56c-3.28-.39-6.63-.71-10-.95l-.18,2.51c3.29.23,6.6.55,9.85.93ZM1198.3-224.14c1.59,2.9,3.28,5.81,5,8.65l2.14-1.32c-1.71-2.8-3.38-5.68-5-8.54Zm-20.79-56.12c.68,3.24,1.46,6.52,2.3,9.75l2.44-.64c-.84-3.19-1.61-6.43-2.28-9.63Zm105.08,139.34c3,1.57,6,3.08,9,4.49l1.07-2.27c-3-1.39-5.94-2.89-8.86-4.44Zm-96.75-110.51c1.14,3.08,2.39,6.2,3.7,9.28l2.31-1c-1.29-3.05-2.53-6.13-3.65-9.17Zm4-145.93-2.33-.93c-1.22,3.05-2.38,6.22-3.47,9.42l2.37.81C1187.48-391.22,1188.64-394.35,1189.83-397.36ZM1339-120.86c3.22.64,6.54,1.21,9.87,1.69l.36-2.48c-3.29-.48-6.56-1-9.74-1.67Zm237.36-259.25c-.93-3.2-2-6.41-3-9.54l-2.38.83c1.07,3.09,2.08,6.26,3,9.42ZM1562-234.82l2.27,1.09c1.45-3,2.84-6.1,4.13-9.14l-2.32-1C1564.82-240.85,1563.45-237.81,1562-234.82Zm-54.65,69.38,1.59,1.94c2.54-2.08,5.1-4.27,7.6-6.53l-1.69-1.86C1512.39-169.66,1509.87-167.49,1507.36-165.44Zm65.53-97,2.4.75c1-3.17,1.91-6.41,2.74-9.63l-2.44-.63C1574.77-268.74,1573.86-265.54,1572.89-262.42Zm-89.76,114,1.3,2.16c2.81-1.69,5.65-3.49,8.44-5.36l-1.39-2.1C1488.72-151.83,1485.91-150,1483.13-148.38Zm82.77-259.85c-1.4-3-2.88-6.07-4.39-9l-2.23,1.16c1.48,2.88,3,5.86,4.34,8.87Zm-14.46-26.26c-1.79-2.75-3.69-5.53-5.66-8.26l-2,1.47c2,2.69,3.83,5.44,5.59,8.16ZM1533.3-458.4c-2.24-2.55-4.53-5-6.79-7.36l-1.8,1.75c2.23,2.31,4.49,4.75,6.7,7.27Zm13.93,249.28,2.08,1.4c1.85-2.72,3.67-5.56,5.42-8.43l-2.15-1.3C1550.85-214.62,1549.06-211.82,1547.23-209.12Zm35.39-141.64c-.45-3.3-1-6.62-1.6-9.88l-2.47.46c.6,3.22,1.13,6.5,1.58,9.77Zm-53.74,164.92,1.85,1.7c2.26-2.47,4.47-5,6.58-7.56l-1.94-1.6C1533.29-190.79,1531.11-188.28,1528.88-185.84Zm-96.05-335.38c-3.22-.87-6.49-1.68-9.72-2.39l-.54,2.45c3.18.71,6.41,1.5,9.6,2.37Zm151.54,190.4-2.51.1q.15,4,.15,8v1.87l2.51,0v-1.89C1584.53-325.42,1584.47-328.13,1584.37-330.82ZM1456.7-135l1,2.32c3-1.25,6.09-2.62,9.13-4.07l-1.08-2.26C1462.71-137.6,1459.67-136.25,1456.7-135Zm122.89-156.27,2.48.39c.51-3.27,1-6.61,1.3-9.93l-2.5-.26C1580.52-297.81,1580.09-294.52,1579.59-291.29Zm-91.9-205.89c-2.8-1.75-5.7-3.47-8.62-5.11l-1.23,2.19c2.89,1.62,5.75,3.32,8.51,5.05Zm-26.53-14c-3.07-1.33-6.19-2.61-9.29-3.8l-.9,2.35c3.07,1.17,6.15,2.44,9.17,3.76Zm50.75,31.78c-2.48-2.11-5.1-4.23-7.79-6.3l-1.53,2c2.66,2.05,5.24,4.14,7.69,6.22ZM1237.45-381c1.28-3.1,2.67-6.16,4.13-9.12l-2.25-1.11c-1.49,3-2.9,6.12-4.21,9.27Zm14.13-26.43c1.84-2.75,3.8-5.49,5.82-8.14l-2-1.53c-2.06,2.7-4.05,5.48-5.92,8.27Zm274.29,34.34c-1.08-3.13-2.29-6.32-3.61-9.48l-2.32,1c1.3,3.1,2.5,6.25,3.55,9.33Zm2.86,20.11c.67,3.3,1.22,6.62,1.65,9.85l2.49-.32c-.43-3.3-1-6.67-1.68-10Zm-81.51-109.26c-3-1.5-6.17-2.91-9.27-4.19l-1,2.32c3,1.26,6.12,2.65,9.12,4.13Zm-88.68-12-.33-2.5c-3.31.44-6.69,1-10,1.67l.49,2.47C1352-473.31,1355.28-473.87,1358.54-474.29Zm29.93-1,.16-2.52c-3.28-.19-6.59-.3-9.81-.3h-.34v2.52h.34C1382-475.63,1385.24-475.53,1388.47-475.33ZM1505.72-408c1.84,2.75,3.63,5.59,5.31,8.46l2.17-1.26c-1.71-2.92-3.52-5.81-5.4-8.6Zm-227.86-29.52-1.66-1.88c-2.53,2.22-5,4.56-7.4,7l1.78,1.77C1272.92-433,1275.37-435.3,1277.86-437.49ZM1418.69-473c-3.27-.87-6.6-1.64-9.91-2.28l-.48,2.47c3.25.63,6.52,1.38,9.74,2.24ZM1226.2-332.53l-2.51-.15c-.21,3.33-.31,6.69-.31,10v.16l2.51-.16C1225.89-325.94,1226-329.25,1226.2-332.53Zm103.18-134.9-.81-2.38c-3.15,1.08-6.35,2.29-9.49,3.6l1,2.32C1323.14-465.18,1326.28-466.37,1329.38-467.43Zm136.25,273.61-1.4-2.08c-2.78,1.88-5.63,3.67-8.46,5.32l1.27,2.17C1459.92-190.08,1462.81-191.91,1465.63-193.82Zm-66.19,22.66.33,2.49c3.36-.45,6.73-1,10-1.69l-.5-2.47C1406.06-172.17,1402.74-171.61,1399.44-171.16Zm29.14-6.92.82,2.38c3.21-1.11,6.4-2.33,9.47-3.62l-1-2.32C1434.87-180.37,1431.74-179.17,1428.58-178.08ZM1349-172.69c-3.21-.64-6.49-1.4-9.74-2.26l-.65,2.42c3.31.89,6.64,1.66,9.9,2.31Zm-38.9-10.59c3,1.5,6.16,2.91,9.26,4.21l1-2.32c-3-1.27-6.12-2.67-9.11-4.14Zm69.39,16v-2.51h-.68c-3.34,0-6.7-.11-10-.32l-.17,2.5c3.35.22,6.77.33,10.16.33ZM1463.44-450c2.74,1.83,5.48,3.78,8.14,5.81l1.52-2c-2.7-2.06-5.48-4-8.27-5.91Zm52.77,194.48,2.25,1.11c1.5-3.05,2.91-6.17,4.19-9.28l-2.33-1C1519.06-261.63,1517.68-258.55,1516.21-255.56Zm-10,17.34c-1.85,2.78-3.8,5.52-5.81,8.14l2,1.53c2-2.67,4-5.45,5.91-8.28Zm-19,23.22c-2.32,2.34-4.76,4.65-7.27,6.86l1.67,1.88c2.54-2.24,5-4.59,7.39-7Zm-.66-216.06c2.36,2.35,4.66,4.8,6.86,7.28l1.88-1.66c-2.23-2.53-4.57-5-7-7.4Zm-261.91,128.8c.44,3.35,1,6.72,1.66,10l2.46-.49c-.65-3.26-1.2-6.58-1.63-9.87Zm37.32,82c2.22,2.54,4.56,5,7,7.42l1.78-1.78c-2.36-2.35-4.65-4.81-6.85-7.29Zm30.25-231.56,1.41,2.09c2.73-1.84,5.58-3.63,8.46-5.31l-1.26-2.17C1298-455.46,1295.07-453.65,1292.29-451.78Zm-8,252.38c2.68,2.05,5.46,4.05,8.26,5.93l1.4-2.09c-2.76-1.85-5.49-3.81-8.13-5.84Zm-46.7-64.69c-1.27-3.05-2.46-6.2-3.53-9.34l-2.37.82c1.08,3.19,2.29,6.38,3.59,9.49Zm-11.25-88.74,2.46.48c.64-3.22,1.39-6.5,2.25-9.74l-2.42-.65C1227.72-359.45,1227-356.11,1226.31-352.83Zm18,107.9c1.7,2.92,3.51,5.82,5.39,8.61l2.08-1.4c-1.85-2.75-3.63-5.6-5.29-8.47Zm32.34-87.32-2.51-.23q-.45,4.86-.44,9.87l.67.06,1.84-.15C1276.16-325.87,1276.3-329.08,1276.6-332.25Zm183,73,2,1.56c2.06-2.61,4-5.35,5.81-8.15l-2.11-1.36C1463.46-264.5,1461.56-261.82,1459.55-259.28ZM1465-378.54c1.78,2.75,3.44,5.59,4.92,8.44l2.23-1.16c-1.52-2.93-3.21-5.83-5-8.64Zm-19.21-22c2.45,2.11,4.84,4.37,7.08,6.71l1.82-1.74c-2.3-2.39-4.75-4.71-7.27-6.88ZM1431.1-414c-2.91-1.67-5.91-3.2-8.9-4.55l-1,2.28c2.92,1.33,5.85,2.83,8.69,4.45Zm43.07,129.42,2.33.94c1.24-3.1,2.34-6.28,3.27-9.45l-2.42-.71C1476.45-290.69,1475.38-287.58,1474.17-284.57Zm7.31-38.13c0,3.26-.16,6.54-.46,9.76l2.5.23c.32-3.29.48-6.65.48-10v-.43h-2.52ZM1482-343c-.64-3.25-1.44-6.52-2.39-9.71l-2.4.71c.92,3.12,1.7,6.31,2.33,9.48Zm-88.5,121.94c-.56.08-1.14.09-1.71.16a18.27,18.27,0,0,0-18.14-16.44,18.33,18.33,0,0,0-18,14.67c-.33-.07-.66-.11-1-.19l-.59,2.45c.44.1.89.15,1.33.25,0,.39-.12.76-.12,1.15a18.33,18.33,0,0,0,18.33,18.33A18.3,18.3,0,0,0,1392-218.41c.64-.08,1.31-.1,1.94-.19Zm-88.9-30.66-1.82,1.74c2.3,2.4,4.74,4.72,7.25,6.89l1.64-1.9C1309.25-247.14,1306.87-249.4,1304.63-251.74Zm-14.44-127.62,2.11,1.36c1.75-2.72,3.65-5.4,5.66-8l-2-1.55C1293.93-384.89,1292-382.15,1290.19-379.36Zm36.16,147.83c2.91,1.67,5.9,3.21,8.9,4.58l1-2.29c-2.93-1.33-5.85-2.83-8.68-4.46Zm-15-168.58c2.43-2.13,5-4.16,7.65-6.07l-1.46-2c-2.71,2-5.35,4-7.84,6.21Zm-31.16,48.7c.89-3.08,2-6.18,3.17-9.24l-2.34-.92c-1.23,3.13-2.33,6.31-3.24,9.46Zm158.2,112.31,1.47,2c2.71-1.94,5.35-4,7.85-6.19l-1.65-1.9C1443.66-243,1441.07-241,1438.42-239.1Zm-148-26.59,2.11-1.36c-1.78-2.74-3.43-5.58-4.91-8.44l-2.23,1.15C1286.92-271.41,1288.61-268.49,1290.43-265.69Zm-14.87-36.91c.64,3.3,1.44,6.57,2.37,9.72l2.41-.71c-.91-3.08-1.69-6.27-2.31-9.49ZM1335.9-416c2.95-1.36,6-2.59,9-3.65l-.82-2.38c-3.14,1.1-6.26,2.36-9.28,3.75Zm67.37-9c-3.25-.77-6.55-1.4-9.82-1.85l-.35,2.49c3.19.44,6.42,1.05,9.59,1.8Zm-39.37.73c3.22-.47,6.49-.79,9.72-.95l-.13-2.51c-3.31.17-6.66.49-10,1Zm48.59,198.6.82,2.38c3.12-1.08,6.24-2.33,9.29-3.73l-1-2.29C1418.58-228,1415.53-226.74,1412.49-225.69Zm-180.22-209.8a29.32,29.32,0,0,0,29.31-29.32,29.18,29.18,0,0,0-6.78-18.74c2.5-1.93,5-3.83,7.62-5.62l-1.45-2.06c-2.64,1.86-5.29,3.81-7.87,5.81a29.2,29.2,0,0,0-20.83-8.7A29.32,29.32,0,0,0,1203-464.81a29.22,29.22,0,0,0,9.39,21.46c-.3.4-.63.81-.92,1.21l2,1.46c.25-.34.54-.69.79-1A29.14,29.14,0,0,0,1232.27-435.49Zm295,105a25.45,25.45,0,0,0-25.45,25.45,25.45,25.45,0,0,0,25.45,25.45,25.44,25.44,0,0,0,25.45-25.45A25.44,25.44,0,0,0,1527.29-330.53ZM1378.82-373.4a50.7,50.7,0,0,0-50.7,50.7,50.7,50.7,0,0,0,50.7,50.71,50.71,50.71,0,0,0,50.71-50.71A50.71,50.71,0,0,0,1378.82-373.4Z" transform="translate(493.61 917.64)"/><path class="cls-10" d="M1395.26-343.12h0c.09.09.16.11.16.27Zm14.31,4.34c.12-.45.68-.74.63-1.12a1.56,1.56,0,0,1-1.54.58C1408.81-338.88,1409.51-339.33,1409.57-338.78Zm-.36,10.57c-.24-.25-.24-.88-.45-1.11-.08,1.54,1.84,2.28,1.9,3.88.36-.17,1.41,1.93,1.66,2.37s.43,1.23.67,1.41l1.49,1.11c.15-1.1-.59-2-1.13-2.89-.22-.37-.69-.35-.89-.69s0-.72-.2-1.11A13.45,13.45,0,0,0,1410-328C1409.75-328.27,1409.54-327.88,1409.21-328.21Zm8.92-8.52c-.24-.59-.62-.12-1.05.06,0-.3-2.45-2.77-.43-2.53-.05-1.19-.32-1.14-1.37-.69a1.66,1.66,0,0,0-.87,1.29c0,.29.44.2.44.73s.19.64.61,1,1.08.76,1.07,1.42c-.73-.35-1,.61-.48,1s1.24,1,1.76.59a7.39,7.39,0,0,1,.25-1.08c-.08-.22-.68-.28-.74-.5C1417-336.68,1418.16-335.79,1418.13-336.73Zm-12.09-.22c.43,2,1.9.33,3.23.36.45.27,3.22,1,2.37-.09-.61-.8-1.93-.68-2.16-1.74-.67,0-.59.86-1.33.58a.78.78,0,0,1-.22-1.24c-.49-.47-1.35.21-1.17.74S1405.91-337.55,1406-336.95Zm-46.94-2.39c.17-.1.41-.27.52-.35Zm70.9,17.57a51.19,51.19,0,0,1-51.18,50.17,51.2,51.2,0,0,1-51.2-51.2,51,51,0,0,1,9.39-29.54.61.61,0,0,0,.19.32c.71.56.6-1.34.68-1.47,0,1,0,2,.08,3.07a8,8,0,0,0,0,.85c.06.48.46.62.52,1.05.09.7-.58,1.58.06,2.16s1.5,1.25,1,2.29a1.7,1.7,0,0,1-.47-.32c1.29-.05-.56-2.61-1.41-1.95.67.58.53,1.4,1.22,1.92-.54,0-2,4.23-2.27,4.86-.7,1.59-.06,3.38.17,5.07,0,.28.38.34.62.46s.18.94.25,1.25a26.41,26.41,0,0,0,.78,2.55c.13.41-.32.2-.3.59,0,.74.49.49.77,1.07.15.3-.19.88.07,1.13l1.17,1.11a27.9,27.9,0,0,0-.71-3.86,3.7,3.7,0,0,1-.16-1.81c0-.25.27-.07.33.07.14.31,0,.74-.07,1.07-.14.95,1.54,3.12,2,4a2.74,2.74,0,0,1,.34,1.63c0,.84.39,1.1.94,1.76s2.29,2.54,3.18,2,1-.13,1.82.52a11.27,11.27,0,0,0,1.26.92c.36.22,1,.35,1.31.65s.15,1.13.41,1.37a4.82,4.82,0,0,0,3,1.55c-.13-.9.71-1.15,1.14-.43a2.91,2.91,0,0,1-.06,2.15c-.43,1.05-.52,1.44-1.47,2-.47.3-.28,1.46.15,1.68-1.08,1-.47,1.62.19,2.82s1.34,3.45,2.52,4.21c1,.66,2.81,1.17,2.87,2.47l.27,6.21c.09,1.95.17,3.89.26,5.84,0,.66,0,.62.6,1s.25,1.64.22,2.31-1.28.56-.32,1.27c.71.53.87.71.24,1.52s2.23,2.91,2.79,3.22c0-.84.37-1.18.85-1.74-.93-.63-.16-1.25.23-2,.18-.36.31-.76.46-1.14s-.74-.51-.82-.78c-.22-.77.8-1.71.55-2.6-.2-.69.27-.59.89-.82.26-.1,0-.93-.08-1.18,1,.12,1.34-.32,1.77-1.06.58-1,.26-1-.48-1.92.44.13.94.47,1.29.12a13.6,13.6,0,0,0,1.42-1.42,5.9,5.9,0,0,0,1.14-3.42c0-.92,1.5-1.87,2.41-1.87,1.41,0,1.73-1.5,1.8-2.72a14.8,14.8,0,0,0,.1-1.88c-.06-.88-.57-.52.22-1.24.42-.38,1.35-.94,1.6-1.46a6.91,6.91,0,0,0,.08-2.09c0-1.16-5.74-2.58-6.66-2.87l-1.54-.15a2.64,2.64,0,0,0,.32-1.78c-.07-.78-.28-.6-.89-1a2.7,2.7,0,0,0-1.55-.64c-.54-.06-.45.43-1-.06a24,24,0,0,1-2.78-2.54c-.17-.22-1.22.19-1.63.08a2.5,2.5,0,0,1-1.66-1.05c-.45.46-.9.78-.84,1.49-1-.15,0-1.28.24-1.67-.9-.34-1.9,1-2.51,1.5s-.46.49-1.06.24c-.8-.33-.54-.1-1.25,0s-1.22.26-1.66-.65a10.8,10.8,0,0,1,.53-2.22c-.35-.41-.55-.91-1.1-.89s-1.32.25-1.65-.28c.32-.54,2.4-3.53.67-3.14-1.28.3-1.5.17-1.93,1.4-.18.54-2,.17-2.09-.27a5.49,5.49,0,0,1,.55-4.78,5.32,5.32,0,0,1,1.87-1.41c.27,0,.85.4,1.1.52a4,4,0,0,0,1.3.14c-.27-1.12,1.31-.65,2-.64,1,0,.25,1.75.26,2.11,0,.77.73,1.88,1.36.9.34-.53.63-.68.33-1.25a2.86,2.86,0,0,1-.33-1.16c0-1,.84-1.53,1.52-2.12s2.09-.77,2-1.3c-.19-1.34.44-1.61,1.36-2.61.57-.62,1.5-.55,2.32-.68-.27-1-.43-1,.48-1.55a6.88,6.88,0,0,1,1.75-.84c-1.15.69,0,1.91.67.9.34-.49.64-.37,1.24-.4.33,0,.67-1,.82-1.32-.84-.25-1.71,1.35-1.8-.44,0-.47.49-.93.16-1.33s-1.27,0-1.75.14c1.2-.94,1.66-.84,3.13-.5.76.17.8-.11,1.35-.69.35-.37,1.35-.41,1.84-.54,1-.24-1.4-2.85-1.52-3-.52-.62-.43-2.55-.56-3.37-.37.25-1.39,1.24-1.82,1.22-1.07-.05-.09-1.09-.16-1.57-.15-.94-2.56-2.68-3.09-1.65l-1.25,2.44c-.25.48.09,1.21-.16,1.7-.11.2-.26.72-.44.84s-1-.16-1.14.05c-.39.41.11,1.57-.31,2.13-1.29,1.71-.16-2.31-.49-2.45-1.54-.67-2.79-1.21-3.44-2.85-.25-.65-1.34-.19-.62-1.16a9.17,9.17,0,0,1,1.41-1.75,4.83,4.83,0,0,1,2-1.15c.65-.14,1.52-.66,1-1.46.4-.09,1.24-.45,1.61-.27.89.43.92.36,1.81-.13.37-.2.42-1.5.51-1.92s-.84-1-1.09-1.25a6.73,6.73,0,0,1,2,.71c.81.39.88,1.71,2,1.34-.18,1-1.37,3.9-2.69,2.22-.93,1.23-.19,2.11,1.17,1.26.16.42.36,1.53.74,1.77.23.16,1.76,1.28,1.87,1.13s1.39-1.48,1.25-1.71c-.35-.58-1.41-1.55-.55-2.06l.81,1.36c.34-.29,1.59-1.05,1.67-1.46.22-1-.94-.59-1.37-.46-.49-1.36-.75-1.6,0-2.83.13-.22-.86-1.06-1-1.25-.45-.48-.56-.39-1.09.09-.43-.94-.36-1.54-1.42-1.4s-.92-.78-1.14-1.83l-1.34.93c-.42.29.22,1.23-.62,1-.09-.9.64-1.6,1.1-2.3-.85-.08-1.82-.17-2.39.6-.29.41-.62,2.73-.14,2.75a10.83,10.83,0,0,1,1.12.1c-.38.59-.89,2.14-1.73,1.7.17-.28.76-.92.44-1.12-.48-.29-.72-.26-1.08.27,0-1.43.47-3.92-1.55-2.9-1,.48,0,1.06,0,1.69,0,.94-.6,1-1,1.76-.05-.45.27-.8.49-1.19s0-.73-.15-1.23l-.88.54c-.29.18,0,.68-.14.93-.48.67-.94.33-1.59,0a15.3,15.3,0,0,1-1.39-1.25c-1.08.28-.92.42-1,1.52-.46-.07-.32-.35-.34-.79s-.93-.33-1.2-.38c-1.1-.23-1-.22-.43-1.17a6.12,6.12,0,0,1-1.66-1.33c-.53-.62-.89-1.42-1.83-1.25.14.46-.34.95-.38.6s-.06-.54-.1-.81c.46-.37.92-.74,1.39-1.09a5.65,5.65,0,0,0,.27,1.08,4,4,0,0,0,1.18-.32c.28-.21.34-.78.68-.91a9,9,0,0,1,2.81-.6c-.49-.53-.91-1.51-1.57-1-.33.25-.34-.06-.44-.26a50.9,50.9,0,0,1,27.71-8.16,51,51,0,0,1,38.67,17.66l-.82-.13c-.54-.09-.19.48-.53.72a6.23,6.23,0,0,1-1.5.54c-.22.09-.25-.49-.41-.4l-1.47.81c-.23.13-.91.34-.92.64,0,.5,0,.87-.62.78.7-1.25-.54-1.84-1.57-1.26.29.56.91,1.34.9,2-.24-.16-.46-.06-.68-.3-.41.44-1.12.83-.53,1.4l-1.55-.05c.16.22.71.66.53.94s-1.06-.2-1.19-.37.08-1-.26-1.18-.74-.17-.86-.54c.71.14,4.35,1.12,3.32-.74-.61-1.11-2.89-1.63-4-1.34a1.61,1.61,0,0,1-.23-.62c.63-.33-.23-.61-.74-.65s-1.49-.07-1.51.65a.68.68,0,0,0-.73-.37c-.53,0-.43.33-.59.73l-.18-.36-1.52,1.23.24.26c-.73.22-1.24,1.73-1.49,2.38-.09.26-.82.4-.19.72s-.31.46-.62,0a16.9,16.9,0,0,1-1,1.35c-.36.36-.56-.09-.75.5a1.9,1.9,0,0,0-.17,1c.08.65.07,1.63.56,2.12.64.65,1.57-.46,1.88-1,0,.88.34,1.09.85,1.87.16.23.07,1,.27,1.13.58.37.6-.5.93-.61.71-.25.66-.2.64-.95s.14-.65.53-1.25c.83-1.26-1.12-1.21-.32-2.54.25-.44.5-.32.79-.73.15-.22.42-1.2.51-1.26,1.06-.74,1.54-.28.67.68-.52.57-1.5,1.85-.53,2.58.68.51.71.72,1.48.36a3.66,3.66,0,0,1,1.46-.41c0,.43,0,.31.33.62-.54.35-1.25-.11-1.75.19-1.26.77.11.84-.12,1.93h-.33c0-.83-1.05-.58-1.3.08-.15.41.71,1.66-.39,1.64.06-.12.12-.25.19-.37a3.56,3.56,0,0,0-1,.2c-.33.11-.85.7-1.09.72s-.54-.62-1-.42-.6.24-.88-.14.91-1.84,0-2.25-1.18,1.25-1,1.78c.38,1,.19.83-.51,1.18a2.36,2.36,0,0,0-.82.58l0-.06,0,.07c-.19.22-.32.48-.69.89-.18.21-1.11,1.28-1.42,1.3s-.6-.53-.79.09c-.14.44-.85.26-1.27.27-.1,1.12,2.46,1.16,1.65,2.58-.51.9-.68.72-1.72.72-.4,0-1.63-.31-1.79,0-.27.55-.1.92-.14,1.49,0,.38-.42,1.49-.39,1.66.11.57.08.83.44,1.1a17.3,17.3,0,0,0,1.82.26,2.07,2.07,0,0,0,2.42-2c0-.49,1-.85,1.22-1.24s.24-1.57,1-.85c.61.57.93-.43,1.28-.48.8-.1,1,.39,1.47,1s.87.5,1.53,1,.55,1,.63,1.77a1.15,1.15,0,0,0,.72-1.35c1.38,0-.9-1.2-1.23-1.53s-2-2-.71-1.94c-.42,1,.53.4.66.85s1.11,1.26,1.65,1a.83.83,0,0,1,.49.75c0,.4,0,.88.43.95-.09.54.66.68,1.1.87-1.19-.08-.35,1.17.5,1.2-.13-.69.57-1,.16-1.44-.11-.13-1-1.45-.36-.9.25.2.81-.35,1.32-.34a2.15,2.15,0,0,0,1-.31c-.09.8-1.12,0-1.48.87a9.19,9.19,0,0,0,.27,1.37c.88-.41.22.42.63.76s1.83.24,1.8-.44c.88.35,1.37.63,2.2.06-.14.68-.08,2.79-1.09,2.79-.29,0-.47-.25-.76-.25s-.63.41-1.08.44a10,10,0,0,1-2.32-.4c-.46-.18-.16-.53-.76-.53a1.33,1.33,0,0,0-1.21.42c-.18.16.58,1.54-.44,1.08-.85-.39-1.36-1.09-2.18-1.32-.36-.11-.75-.2-1.09-.32-.66-.23-.35-.16-.35-.7a6.17,6.17,0,0,0-.09-1.49c-.43-.28-.56-.11-1,.08s-.62-.08-1.17-.1a15,15,0,0,0-2.87.54c-.39.07-.57.46-.92.59a6.12,6.12,0,0,1-1.6,0c-.82,0-1,.9-1.8,1.3s-.42,1.84-1.15,2.28a4.05,4.05,0,0,0-1.8,1.72,11.44,11.44,0,0,1-1.61,2.54s0,.07,0,.1c.89.48.42,2.07.36,2.86a2.15,2.15,0,0,0,.08,1.21,7.2,7.2,0,0,0,.35,1,7,7,0,0,0,1.47,2c.78.76,2,1.26,2.68,2.06.52-.36,1.16-.94,1.92-.78a2.25,2.25,0,0,0,2.15-.22c.44-.2,1.56-.76,2-.29s.63.82,1.23,1c.44.11.7-.54,1.14,0-1.78-.12.87,1.61,0,0,.39.39.24,1.25,0,1.71s-.66.83-.32,1.2.94.93,1.32,1.45a6.69,6.69,0,0,1,1.15,3.44c0,.6-.25.74-.67,1.18s-.27.72-.31,1.21a3.33,3.33,0,0,0,.56,2.55c.64,1,.09,1.37.47,2.32s.8,2,1.15,3c.13.36.81.77.84,1,.06.47-.65.35-.38,1s.28.61.88.84.57-.46,1.11-.45a13.59,13.59,0,0,0,2.69-.3c.78-.13,1.89-1.78,2.45-2.33.19-.19.61-.45.61-.74a4.31,4.31,0,0,1,0-1.18c.22-.35.95-.38,1.18-.71a3.15,3.15,0,0,0,.21-1.41c0-1.51.31-1.56,1.49-2.54.49-.4,1.74-.7,1.67-1.57a6.65,6.65,0,0,0-.22-2.13c-.43-.83-1-1.74-.66-2.71.58-1.58,2-2.75,3.23-4,1.4-1.5,2.64-2.66,2.73-4.85,0-.86-4.79,2-4.06-.54.54.46,2.47-.73,3.09-1l1.54-.62c.13-.05,0-.49.07-.53.25-.13.68.09.93,0a7.92,7.92,0,0,0,2-3.07c0-1.15-2.43-.83-1.72-2.37a1.17,1.17,0,0,0-1,.54c-.44.65-.51.59-1.31.63,0-.35.24-.87-.06-1.09-.49-.35-.75.39-.69.79a8.42,8.42,0,0,1-1.25-1.74c-.13-.37-.25-1.42.57-1,.38.18.36.35.37.74s.5.47.76.62c.68.4,1.37,1,2.08.36.43-.39.72.53,1.29.61a11.15,11.15,0,0,0,2.28.15c.4,0,1.2-.38,1.57-.06.67.56,1.09,1.25,2,1a1.79,1.79,0,0,1-.58.44c.44.84,1.39,1.62,1.86.3.28-.79.09,1.55.13,1.62C1429.56-322.68,1429.78-322.22,1430-321.77ZM1409.31-331l.82-.78c-.4-.49-.84,0-1.36,0S1408.77-330.89,1409.31-331Zm-4.55-.56c.38.45.79.35,1.35.33C1406.83-332,1404.93-331.95,1404.76-331.52Zm-3.88-.25c-.1-.38-.67,0-.53.48C1400.89-331.08,1401-331.25,1400.88-331.77Zm-1.37-1c.11.25,1.07.57,1.35.62,0-.51.17-1-.37-1.21C1400.08-333.29,1399.21-333.4,1399.51-332.77Zm-1.17-2.81a3.06,3.06,0,0,0-.13-.6C1397-335.38,1398.44-334.47,1398.34-335.58Zm-.77,2c.69.31,1.31-.83.84-1.27C1397.52-335.64,1397.54-333.89,1397.57-333.54Zm-1.84-.45c-1.37-1.08-.79,1.39,0,0Zm7.78-12.33c-.18-.25-.7-.46-.84,0S1403.35-346,1403.51-346.32Zm-1.94,1.26a.71.71,0,0,0,.29-1.14C1401.27-346,1401.18-345.55,1401.57-345.06Zm-2.52,1.38c.61-1.86-2.07.53,0,0Zm14.6-13.32c.31,0,.83.93,1.17.28.42-.81-.33-.6-.54-1.33-.28-1-.3-.89-1.31-1,.14.49.16,1-.46,1C1412.37-357.19,1413-357,1413.65-357ZM1401-361.86c-1,.4.21,1.27.84.61S1401.53-362.67,1401-361.86Zm-2.34.19a3.64,3.64,0,0,1,.38-.66l.16.12a1.49,1.49,0,0,0,.08,1.9,13.71,13.71,0,0,1,1.16-1.76c.36-.43.56-.43.14-.8l-.35-.27a1,1,0,0,0,.36,0c.6.79,1.25.66,1.95.06.92-.78-.26-1.65-.74-1-.34-.44-.68-.31-.81.24-.64-1.27-1.36-.1-1.13.46a.69.69,0,0,0-.18-.1c-.19,0-2,.55-2,.46C1397.55-362.38,1397.76-361.44,1398.7-361.67Zm-36.19,8.8-1.93-1.88-.85,1.08-.06,1.29c.51-.31.9-.63,1.53-.5C1362.11-352.69,1361.49-352,1362.51-352.87Zm-5.62,27a1.33,1.33,0,0,0,.4.88C1357.89-325.36,1357.53-326,1356.89-325.86Zm-1-1.81c.46.22.38.44.86.59-.78.31.12,1.06.63,1.15.05-.51-.24-.66-.44-1.07s.35-.67-.25-.91C1356.31-328.12,1356.05-328,1355.85-327.67Zm-.3,1.39a5.73,5.73,0,0,1,.79,1.06.66.66,0,0,0,.09-1l-.38.2c.42-.41,0-.86-.47-.93A2.75,2.75,0,0,0,1355.55-326.28Zm.78,3.48c-.34-.42-1.38-.57-1.33.13C1355.44-322.25,1356.06-322.17,1356.33-322.8Zm.76-.85a3.13,3.13,0,0,0,.44-.45c-1-.47-1.92-1.07-2.87-1.62a1.71,1.71,0,0,0-1.26,0c-.09,0-1.59.75-.86.77,1.07,0,1.83-.33,2.73.48.27.25.19.94.39,1A1.47,1.47,0,0,0,1357.09-323.65Zm.31.19c.29.11.34.32.47.4-.24,0-.52.11-.76.07a2.35,2.35,0,0,0,.1.54c.4.2,1.22-.36,1.48.36a1.1,1.1,0,0,1,1.43-.36C1360.59-323.39,1358-324.5,1357.4-323.46Zm3.06.71.31.36a4.38,4.38,0,0,0,.82.12C1361.87-323.1,1361-323.27,1360.46-322.75Zm2.3.57a.59.59,0,0,0,.16.82,2.53,2.53,0,0,0,.42-.37,4.62,4.62,0,0,0-.45-.64l-.1.12a2,2,0,0,0-.29-.29c-.45.07-.53.3-.26.68A1.93,1.93,0,0,0,1362.76-322.18Zm.47,3.64c-.48.22-.22.67.26.93C1363.85-318,1364-319.17,1363.23-318.54Zm.31-1.36.43-.23a3.59,3.59,0,0,0-.51-.52l.38-.11a1.83,1.83,0,0,0-.37-.65c-.41.23-.29,1.17-.07,1.46-.39.28-.29.23-.12.64-1.26,0,.61,1.08.14.08.15,0,.28-.19.44-.24C1363.73-319.58,1363.68-319.79,1363.54-319.9Zm6.91-21c-1.76.22.14-.76-.7-1.64-.37.36-2,1.5-2,2-.06.86,1.91,1.17,2.46,1.38C1371-338.87,1370.83-340.91,1370.45-340.86ZM1337-348.68c-.49.2-.2.9.17,1.17.57-.37-.06-1.23.57-1.87C1337.38-350.7,1336.31-349.31,1337-348.68Zm10.9,35.79c0,.19-.64,1.5,0,1.26S1348.63-312.55,1347.93-312.89Zm12.37,24.64a2.63,2.63,0,0,0-.39-.35C1359.21-287.92,1360-286.44,1360.3-288.25Zm6.16,8a3.5,3.5,0,0,1-1.8-.59c-.21-.31-.48-.62-.72-.91l-.91,2C1364.48-279.58,1365.2-279.4,1366.46-280.23Zm1-1.52.86-.9a4.9,4.9,0,0,0-.76-.08,2.82,2.82,0,0,0-.62.42A2.31,2.31,0,0,0,1367.43-281.75Zm1.73-.73a2.63,2.63,0,0,0-.73-.5,2.8,2.8,0,0,0-.2.62.58.58,0,0,0-.39.75C1368.38-281.82,1368.87-281.92,1369.16-282.48ZM1387.41-328l-.81.46a2,2,0,0,0,.38.38Zm3.6-16.49.43,0a4.36,4.36,0,0,1,0,.63c-.3-.48-.67-.07-1-.15.17,0-1,.89-1,.72,0,.07.13.84.13.85-.06.16-.68.28-.69.44a.7.7,0,0,0,1,.61c.55-.2,1.39-.26,1.49-.88,0-.3,0-1.11.32-1.25.73-.34.83.81.54.84-.51.06-.65.91-1,1.4.26,0,.53.1.79.08l-1.28.75c.69.63,1.32.07,2-.24s1.3.37,1.76-.56l-.27-.16c1.15-.54-.3-1.1-.45-1.45s-.39-.86-.61-1.29,0-.79,0-1,.2-.51-.2-.51c-.11,0-.51.07-.6-.06s.72-.76,0-.87S1391.14-344.88,1391-344.45Zm-29.07-24.06c0,.9.3.67,1.17.67.44.49-.48.37-.88.42,1.08,1.47,1.61,1.38,3.23.66l-1.45-2.19c-.07-.1-.37-.73-.51-.76-.38-.09-.72.52-.68.81C1362.45-369.18,1361.9-369,1361.94-368.51Zm-1.28.74c.4.24.49.58.16.91a2.92,2.92,0,0,0,.25.7c.49-.27,1.17-.39,1-1S1361.18-367.95,1360.66-367.77Zm-2.11.39c.77-.3,1,0,1.57.52,1.16.14-.13-1.43-.37-1.71C1359.07-369.34,1358.44-367.93,1358.55-367.38Zm-2.21-.45c.71.34.79.49,1.47.1s-.83-.62-1-.64l1.21-.08c0-.58-.53-.76-1-.58C1356.29-368.77,1356.66-368.46,1356.34-367.83Zm.07,7.61c-.19-.59-.64-.14-.63-.94,0-1.09.33-1.87-.67-2.5-.19.27-.39.53-.58.79-1.13-1-1.64-1.76-3.18-1a1.37,1.37,0,0,0-.86,1.64c0,.36,1.19.5,1.53.61a1.34,1.34,0,0,1-.24.53l-1.13-.7c-.69,1.31.39.55.35,1.47s.3.82,1.22,1.08c.57,0,1.4.16,1.65-.43.2.23.68,1,1,1.08a.84.84,0,0,0,1-1c.14.15.38.21.52.36A3.58,3.58,0,0,0,1356.41-360.22Zm.7-5.88c-.15.1-.38.08-.53.19a1.22,1.22,0,0,1,.31-1.2c-1.24-.23-1,1.23-1.52,1.19a12.37,12.37,0,0,0-.9-1.19c-.56-.45-1.06,0-1.68.3-.2.83.85.89,1.46,1.12-.38.29-.29.66,0,1,.82-.37,1.83-1,2.23.23C1357.09-365,1357.5-365.24,1357.11-366.1Zm2.18,3.35c-.47-.57-1.58-.75-1.66.21-.38-.32-.7-.18-.87.28a3.09,3.09,0,0,1,.62,1.92c.34-.2,1.24-.53,1.42-.85C1359.13-361.8,1358.48-362.27,1359.29-362.75Zm.83-2.35c-.75-1-1.41-.45-2.18.26l1.07,0a2.67,2.67,0,0,1-.24.61C1359.14-362.93,1360.35-364.8,1360.12-365.1Zm2.1,2.92c-1.43-.48-3.26-1.14-2.74,1.08.39.12.76,0,.88-.35C1360.9-360.69,1361.78-361.81,1362.22-362.18Zm4.07-.36c-.28-.23-.8-.86-1.14-.92s-.92.25-1.36.21c-1.68-.16-.61-.82-1.3-1.82-.33-.46-2.07-1.38-1.93-.28.1.81,1.2.74.64,1.6-.61-.24-1.28-.79-1.44.18.59.21,1.2.7,1.45-.15-.18,1.18,2,1.33,2.78,1.6C1365.19-361.73,1365.31-361.69,1366.29-362.54Zm.65,2.63c-.48-.5-1.42-1.91-2-.78C1365.13-359.83,1366.22-360,1366.94-359.91Zm5.79-6.92-1.07-.3c.75-.36,1.94.37,2.43-.62l-4.32-1.54c-.82-.3-1.34.67-1.86.24s-1.77-1.38-1.62-.06c-.57-.74-.9-.48-1.69-.23,0,.82.85.75,1.48.88-.64,1.52,1.82.84,2.38.69.08.46-1,1.15-1.33.91a1.8,1.8,0,0,0-1.8-.49l.82,1.17c-.64.16-.49-.63-1.23-.12-.42.28.35,1.2.91,1-.06,1.19-.94-.34-1.23-.4s-.65,0-.65.29-.62.32-.92.39c.28.85,1.33,1,2.09,1.07a2,2,0,0,1,1.08.53c.27.19.85-.3,1.13-.45-.17-.12-.28-.34-.46-.45.47.11,1.27-.56,1.87-.65s-.78-1.12-.31-1C1370.16-365.69,1371.08-366.19,1372.73-366.83Zm1.73,11.74c.35-.62.09-1.4-.63-1.09S1373.88-355,1374.46-355.09Zm4.59,21.21a4.72,4.72,0,0,0,.73.41C1380.08-334.14,1379.43-334.58,1379.05-333.88Zm1.93,0,.41-.1c-.32-.44-.71-.64-1.09-.16.31.17.29.3.63.28a.67.67,0,0,0,.08,1C1381.6-333.06,1381.36-333.48,1381-333.85Zm1.54,13c-.21-.49-.57-.49-.94-.11A.57.57,0,0,0,1382.52-320.84Zm.33-11.89c-.43-.29-.83-.39-.95.16C1382.19-332.2,1382.54-332.4,1382.85-332.73Zm.07,13a2.26,2.26,0,0,0-.39-.67,2.4,2.4,0,0,0-.51.31C1382.2-319.58,1382.51-319.33,1382.92-319.69Zm.57-.69c-.24-.46-.58-.64-.9-.19C1382.72-320,1383.09-320,1383.49-320.38Zm.31-32.75c.84,0,1-.26,1.55-.88.39-.4,1.25-.37,1.55-.77.49-.62,0-1.1-.4-1.47-.62-.54-1-.39-1.28-1.23-.26-.68,1-.41,1.29-.27.92.49.84.53,1.54-.24a8.62,8.62,0,0,0-.78-.44l1.45-2a.88.88,0,0,0-.89-1.33c0-.82,2.6-2.36,3.24-2.92a2.51,2.51,0,0,0-3.74.16l.46-1c-.78-.2-1.1-.43-1.41.47-.49-.73-1.36-.38-2.09-.3.29-1,2.51-.57,3.33-.6-1-1.31-1.37-1.28-3-1.58-.58-.11-2.81-.55-2.38.57-.55-.18-1.2-.14-1-.85-.65.14-1.33.08-1.41.91l.86.3c-.56.57-.69.56-1.16,0a1.6,1.6,0,0,0-.72-.42h0l-.11,0-.59-.15c0,.55,0,.8-.56.8-.71,0-.41-.75-.89-.82-.72-.11-2.75-.59-2.61.76-.9-.12-1.84-.29-1.78.84,0,.79-1.3.61-1.72.14-.8,1.31.09,1.56,1.35,1.41,0,1-1.58-.22-1.94.7a9.61,9.61,0,0,1,.51,1.2c.59.77.44.47,1.31.35a1.88,1.88,0,0,1,2.13,1.35c.58,1.56.66,1.73-.06,3.22.56-.09,1.58-.44,1.48.49l-1.21.06c.41.41.74.92,1.37.91-1.12,1.49-2,2.39-1.4,4.29.1.29-.26.55-.17.84a7.15,7.15,0,0,0,.42,1.31c.35.59.89,1.23,1.59.82-.11.87.33,1.23,1.1,1.17.38,0,.44-1.51.62-1.85a4.53,4.53,0,0,1,.29-.49l.11-.15a2.88,2.88,0,0,1,.22-.27l.14-.15.21-.2.17-.13a9.27,9.27,0,0,1,2.44-1.21l1.14-1.42C1382.6-353.47,1383.36-353.13,1383.8-353.13Zm2.78-4.33c-.46-.14-1,.17-.49.61l1.06.53C1387.21-357.14,1387.37-357.23,1386.58-357.46Zm-1.54,7.8c.64.05,1.19.5,1.82.42s1.6-.95,1.61-1.56-.08-.59-.54-1c-.62-.52-.3.2-.75.17s-.28-.33-.63-.29a1.69,1.69,0,0,0-1,.69c1-2-2.78.33-.94.24C1384.05-350.12,1385.28-350.54,1385-349.66Zm.75,18.75a2.94,2.94,0,0,0-.35.44c.18.43.5.45.84.13A2.06,2.06,0,0,0,1385.79-330.91Zm-.53,3.74c.06-.15.13-.29.19-.44a.65.65,0,0,0,.84.48c0-.61-.31-.78-.83-.49l.11-.26a.55.55,0,0,0-.87.22A1.76,1.76,0,0,0,1385.26-327.17Zm11.49,14.23c.12,1.2,1.15-.57,0,0Zm.37-.67c.21,1.44,1.26-.6,0,0Zm18.55,6.67c.09.55,1.31,1.68,1.31.4-.19.07-.42,0-.6.09.1-.15.1-.38.2-.53Zm3,.21c-.62.08-1,1.48-1.33,2s-1.78-.14-1.73.94c0,.52,0,1,.07,1.55,0,.36-.58.59-.7.91-.19.54.08,2,.76,2.24a1.15,1.15,0,0,0,1.44-1.39c-.11-.6,1-1.9,1.29-2.41.19-.32.42-.46.16-.74-.53-.59.43-.57.44-.58C1419.47-304.91,1419-306,1418.72-306.73Zm2.51-3.78a.69.69,0,0,0,.91.55l-.37-.94A2.66,2.66,0,0,0,1421.23-310.51Zm-.21-8.9c-.37-.65-1-.22-1.55-.2C1420-318.65,1420.26-319.17,1421-319.41Zm-.22,10.48a4.07,4.07,0,0,0-.65-.35C1419.69-308.75,1420.45-308.18,1420.8-308.93Zm.75,7.91a.76.76,0,0,0-1-.37C1420.28-300.6,1421.09-300.67,1421.55-301Zm.17-8.17.49.09C1422.63-310.41,1421.09-309.78,1421.72-309.19Zm.92,7.55a1.75,1.75,0,0,0-.57-.44,2.74,2.74,0,0,0-.37.49,2.83,2.83,0,0,0,.09.65Z" transform="translate(493.61 917.64)"/><path class="cls-11" d="M1515-738.5h0a54.73,54.73,0,0,0-12.87-24l-.21-.24c-.5-.54-1-1-1.56-1.57s-.72-.74-1.09-1.1l-.07-.06a54.68,54.68,0,0,0-9-6.84l-.53-.32c-1-.62-2.11-1.22-3.2-1.77l-.08,0a54.93,54.93,0,0,0-10.73-4.06l-.74-.19c-1.19-.29-2.39-.56-3.61-.78a55.14,55.14,0,0,0-9.68-.9,55,55,0,0,0-55,55,54.84,54.84,0,0,0,16,38.79,54.84,54.84,0,0,0,39,16.25,55,55,0,0,0,55-55A54.82,54.82,0,0,0,1515-738.5ZM1430-704.06a7.35,7.35,0,0,1-7.35-7.35,7.35,7.35,0,0,1,7.35-7.35,7.35,7.35,0,0,1,7.35,7.35A7.35,7.35,0,0,1,1430-704.06Zm3.94-25.69A11.87,11.87,0,0,1,1422-741.62a11.88,11.88,0,0,1,11.88-11.88,11.88,11.88,0,0,1,11.87,11.88A11.87,11.87,0,0,1,1433.9-729.75Zm15.43-28.94a5.94,5.94,0,0,1,5.94-5.94,5.94,5.94,0,0,1,5.94,5.94,5.94,5.94,0,0,1-5.94,5.94A5.94,5.94,0,0,1,1449.33-758.69Zm10.31,77.88a7.49,7.49,0,0,1-7.49-7.5,7.49,7.49,0,0,1,7.49-7.5,7.5,7.5,0,0,1,7.5,7.5A7.5,7.5,0,0,1,1459.64-680.81Zm7.5-22.8a4.6,4.6,0,0,1-4.6-4.6,4.6,4.6,0,0,1,4.6-4.6,4.6,4.6,0,0,1,4.6,4.6A4.6,4.6,0,0,1,1467.14-703.61Zm2.51-49.14a4.6,4.6,0,0,1-4.6-4.6,4.6,4.6,0,0,1,4.6-4.6,4.6,4.6,0,0,1,4.6,4.6A4.6,4.6,0,0,1,1469.65-752.75Zm22.12,55.26a6.19,6.19,0,0,1-6.2-6.2,6.19,6.19,0,0,1,6.2-6.19,6.19,6.19,0,0,1,6.19,6.19A6.19,6.19,0,0,1,1491.77-697.49Z" transform="translate(493.61 917.64)"/><g class="cls-12"><circle class="cls-8" cx="1803.83" cy="355.53" r="2.55"/><path class="cls-8" d="M1315.49-472.23a2.56,2.56,0,0,0-2.56,2.56,2.56,2.56,0,0,0,2.56,2.55,2.55,2.55,0,0,0,2.55-2.55A2.56,2.56,0,0,0,1315.49-472.23Z" transform="translate(493.61 917.64)"/><path class="cls-8" d="M1299-408.51a2.55,2.55,0,0,0-2.55,2.55,2.56,2.56,0,0,0,2.55,2.56,2.56,2.56,0,0,0,2.56-2.56A2.55,2.55,0,0,0,1299-408.51Z" transform="translate(493.61 917.64)"/><path class="cls-8" d="M1239.14-301.21a2.56,2.56,0,0,0-2.56,2.55,2.56,2.56,0,0,0,2.56,2.56,2.55,2.55,0,0,0,2.55-2.56A2.55,2.55,0,0,0,1239.14-301.21Z" transform="translate(493.61 917.64)"/><path class="cls-8" d="M1193-253a2.55,2.55,0,0,0-2.55,2.56,2.55,2.55,0,0,0,2.55,2.55,2.55,2.55,0,0,0,2.55-2.55A2.55,2.55,0,0,0,1193-253Z" transform="translate(493.61 917.64)"/><path class="cls-8" d="M1276.71-214.41a2.56,2.56,0,0,0-2.56,2.55,2.56,2.56,0,0,0,2.56,2.56,2.56,2.56,0,0,0,2.55-2.56A2.55,2.55,0,0,0,1276.71-214.41Z" transform="translate(493.61 917.64)"/><path class="cls-8" d="M1413.79-226.85a2.55,2.55,0,0,0-2.55,2.55,2.56,2.56,0,0,0,2.55,2.56,2.56,2.56,0,0,0,2.55-2.56A2.55,2.55,0,0,0,1413.79-226.85Z" transform="translate(493.61 917.64)"/><circle class="cls-8" cx="1975.45" cy="562.96" r="2.55"/><path class="cls-8" d="M1556.28-390.12a2.55,2.55,0,0,0-2.55,2.55,2.56,2.56,0,0,0,2.55,2.56,2.56,2.56,0,0,0,2.55-2.56A2.55,2.55,0,0,0,1556.28-390.12Z" transform="translate(493.61 917.64)"/><circle class="cls-8" cx="2139.88" cy="639.94" r="2.55"/><circle class="cls-8" cx="2203.27" cy="668.79" r="2.55"/><circle class="cls-8" cx="2299.42" cy="677.41" r="2.55"/><path class="cls-8" d="M1904.93-284a2.55,2.55,0,0,0-2.55,2.55,2.56,2.56,0,0,0,2.55,2.56,2.56,2.56,0,0,0,2.56-2.56A2.56,2.56,0,0,0,1904.93-284Z" transform="translate(493.61 917.64)"/><path class="cls-8" d="M2012.11-236.68a2.55,2.55,0,0,0-2.55,2.55,2.55,2.55,0,0,0,2.55,2.55,2.56,2.56,0,0,0,2.56-2.55A2.56,2.56,0,0,0,2012.11-236.68Z" transform="translate(493.61 917.64)"/><path class="cls-8" d="M2004.85-221.78a2.56,2.56,0,0,0-2.56,2.56,2.56,2.56,0,0,0,2.56,2.55,2.55,2.55,0,0,0,2.55-2.55A2.56,2.56,0,0,0,2004.85-221.78Z" transform="translate(493.61 917.64)"/><path class="cls-8" d="M1907.18-245.09a2.55,2.55,0,0,0-2.55,2.55,2.55,2.55,0,0,0,2.55,2.55,2.56,2.56,0,0,0,2.56-2.55A2.56,2.56,0,0,0,1907.18-245.09Z" transform="translate(493.61 917.64)"/><path class="cls-8" d="M1736.84-313.4a2.56,2.56,0,0,0-2.55,2.56,2.55,2.55,0,0,0,2.55,2.55,2.56,2.56,0,0,0,2.56-2.55A2.56,2.56,0,0,0,1736.84-313.4Z" transform="translate(493.61 917.64)"/><path class="cls-8" d="M1642.47-299.6a2.56,2.56,0,0,0-2.55,2.56,2.55,2.55,0,0,0,2.55,2.55A2.56,2.56,0,0,0,1645-297,2.56,2.56,0,0,0,1642.47-299.6Z" transform="translate(493.61 917.64)"/><path class="cls-8" d="M1503.35-214.67a2.56,2.56,0,0,0-2.56,2.56,2.56,2.56,0,0,0,2.56,2.55,2.55,2.55,0,0,0,2.55-2.55A2.55,2.55,0,0,0,1503.35-214.67Z" transform="translate(493.61 917.64)"/><path class="cls-8" d="M1399.6-186.35a2.55,2.55,0,0,0-2.55,2.55,2.56,2.56,0,0,0,2.55,2.56,2.56,2.56,0,0,0,2.56-2.56A2.56,2.56,0,0,0,1399.6-186.35Z" transform="translate(493.61 917.64)"/><path class="cls-8" d="M1274.77-255.06a2.56,2.56,0,0,0-2.56,2.55,2.56,2.56,0,0,0,2.56,2.56,2.56,2.56,0,0,0,2.55-2.56A2.55,2.55,0,0,0,1274.77-255.06Z" transform="translate(493.61 917.64)"/><path class="cls-8" d="M1160.52-300.93a2.55,2.55,0,0,0-2.55,2.56,2.55,2.55,0,0,0,2.55,2.55,2.55,2.55,0,0,0,2.55-2.55A2.55,2.55,0,0,0,1160.52-300.93Z" transform="translate(493.61 917.64)"/><path class="cls-8" d="M1050.39-224.66a2.56,2.56,0,0,0-2.55,2.56,2.55,2.55,0,0,0,2.55,2.55,2.56,2.56,0,0,0,2.56-2.55A2.56,2.56,0,0,0,1050.39-224.66Z" transform="translate(493.61 917.64)"/><circle class="cls-8" cx="1503.69" cy="735.84" r="2.55"/><circle class="cls-8" cx="1503.13" cy="569.96" r="2.55"/><path class="cls-8" d="M1008.83-529.66a2.55,2.55,0,0,0-2.55,2.55,2.55,2.55,0,0,0,2.55,2.55,2.55,2.55,0,0,0,2.55-2.55A2.55,2.55,0,0,0,1008.83-529.66Z" transform="translate(493.61 917.64)"/><path class="cls-8" d="M1008.15-581.66a2.56,2.56,0,0,0-2.55,2.56,2.55,2.55,0,0,0,2.55,2.55,2.56,2.56,0,0,0,2.56-2.55A2.56,2.56,0,0,0,1008.15-581.66Z" transform="translate(493.61 917.64)"/><path class="cls-8" d="M1044.16-725.95a2.55,2.55,0,0,0-2.55,2.55,2.56,2.56,0,0,0,2.55,2.56,2.56,2.56,0,0,0,2.55-2.56A2.55,2.55,0,0,0,1044.16-725.95Z" transform="translate(493.61 917.64)"/><path class="cls-8" d="M1113.08-642a2.56,2.56,0,0,0-2.55,2.56,2.55,2.55,0,0,0,2.55,2.55,2.56,2.56,0,0,0,2.56-2.55A2.56,2.56,0,0,0,1113.08-642Z" transform="translate(493.61 917.64)"/><path class="cls-8" d="M1170.92-644.1a2.56,2.56,0,0,0-2.56,2.55,2.56,2.56,0,0,0,2.56,2.56,2.56,2.56,0,0,0,2.55-2.56A2.55,2.55,0,0,0,1170.92-644.1Z" transform="translate(493.61 917.64)"/><path class="cls-8" d="M1183.38-716.43a2.56,2.56,0,0,0-2.56,2.55,2.56,2.56,0,0,0,2.56,2.56,2.56,2.56,0,0,0,2.55-2.56A2.55,2.55,0,0,0,1183.38-716.43Z" transform="translate(493.61 917.64)"/><circle class="cls-8" cx="1331.59" cy="-774.05" r="2.55" transform="matrix(0.1, -0.99, 0.99, 0.1, 2460.85, 1546.52)"/><circle class="cls-8" cx="1945.7" cy="219.77" r="2.55"/><circle class="cls-8" cx="2121.01" cy="177.41" r="2.55"/><path class="cls-8" d="M1832-917.64a2.56,2.56,0,0,0-2.55,2.56,2.55,2.55,0,0,0,2.55,2.55,2.55,2.55,0,0,0,2.56-2.55A2.56,2.56,0,0,0,1832-917.64Z" transform="translate(493.61 917.64)"/><circle class="cls-8" cx="2476.25" cy="95.08" r="2.55"/><circle class="cls-8" cx="2442.12" cy="121.24" r="2.55"/><path class="cls-8" d="M1819.9-831.6a2.56,2.56,0,0,0-2.56,2.55,2.56,2.56,0,0,0,2.56,2.56,2.56,2.56,0,0,0,2.55-2.56A2.55,2.55,0,0,0,1819.9-831.6Z" transform="translate(493.61 917.64)"/><circle class="cls-8" cx="2215.57" cy="99.39" r="2.55"/><circle class="cls-8" cx="2180.02" cy="113.18" r="2.55"/><circle class="cls-8" cx="2170.07" cy="158.94" r="2.55"/><circle class="cls-8" cx="2217.98" cy="178.22" r="2.55"/><path class="cls-8" d="M1080.27-817.63a2.55,2.55,0,0,0-2.55,2.55,2.56,2.56,0,0,0,2.55,2.56,2.56,2.56,0,0,0,2.56-2.56A2.56,2.56,0,0,0,1080.27-817.63Z" transform="translate(493.61 917.64)"/><circle class="cls-8" cx="1663.49" cy="46.95" r="2.55"/><path class="cls-8" d="M1257.73-842.25a2.56,2.56,0,0,0-2.56,2.56,2.56,2.56,0,0,0,2.56,2.55,2.55,2.55,0,0,0,2.55-2.55A2.56,2.56,0,0,0,1257.73-842.25Z" transform="translate(493.61 917.64)"/><circle class="cls-8" cx="1782.2" cy="157.88" r="2.55"/><path class="cls-8" d="M1589.92-902.38a2.56,2.56,0,0,0-2.55,2.56,2.55,2.55,0,0,0,2.55,2.55,2.56,2.56,0,0,0,2.56-2.55A2.56,2.56,0,0,0,1589.92-902.38Z" transform="translate(493.61 917.64)"/><path class="cls-8" d="M1530.13-901.25a2.56,2.56,0,0,0-2.55,2.56,2.55,2.55,0,0,0,2.55,2.55,2.56,2.56,0,0,0,2.56-2.55A2.56,2.56,0,0,0,1530.13-901.25Z" transform="translate(493.61 917.64)"/><circle class="cls-8" cx="1938.95" cy="30.06" r="2.55"/><path class="cls-8" d="M1021.7-853.29a2.56,2.56,0,0,0-2.56,2.55,2.56,2.56,0,0,0,2.56,2.56,2.56,2.56,0,0,0,2.55-2.56A2.55,2.55,0,0,0,1021.7-853.29Z" transform="translate(493.61 917.64)"/><path class="cls-8" d="M988.76-838.11a2.55,2.55,0,0,0-2.56,2.55,2.56,2.56,0,0,0,2.56,2.56,2.56,2.56,0,0,0,2.55-2.56A2.55,2.55,0,0,0,988.76-838.11Z" transform="translate(493.61 917.64)"/><path class="cls-8" d="M1388.29-417a2.56,2.56,0,0,0-2.56,2.55,2.56,2.56,0,0,0,2.56,2.56,2.56,2.56,0,0,0,2.55-2.56A2.55,2.55,0,0,0,1388.29-417Z" transform="translate(493.61 917.64)"/><circle class="cls-8" cx="1332.1" cy="-650.76" r="2.55" transform="translate(844.05 1377.87) rotate(-22.5)"/><path class="cls-8" d="M1420.66-603.4a2.55,2.55,0,0,0-2.55,2.55,2.55,2.55,0,0,0,2.55,2.55,2.56,2.56,0,0,0,2.56-2.55A2.56,2.56,0,0,0,1420.66-603.4Z" transform="translate(493.61 917.64)"/></g></g><g class="cls-13"><path class="cls-5" d="M1450.19,308.68l12.71-5.5.22,14.32.23,14.31-12.87-5.09-.15-9Zm-183,2.89-4.66.07c-8.79.14-15.86,4.3-15.78,9.28s7.27,8.91,16.06,8.77l4.67-.07-.15-9Zm-24.76,2.91c-28.6-4.61-48.25-14.35-48.43-26h0c-.19-11.61,19.15-21.95,47.58-27.47,2.11,3.13,5.71,5.59,10.25,7l.31,19.53h0l.31,19.53C1247.93,308.72,1244.42,311.29,1242.41,314.48Zm-24.49-19.15a4.66,4.66,0,1,0-4.73-4.59A4.66,4.66,0,0,0,1217.92,295.33Zm18.56,9.15a7.16,7.16,0,1,0-7.28-7.05A7.16,7.16,0,0,0,1236.48,304.48Zm29.92-41.31-.14-9-.14-9-4.66.07c-8.79.14-15.86,4.29-15.78,9.28s7.27,8.91,16.06,8.77Zm186.88,21.26.23,14.61c3,0,5.44-3.36,5.37-7.39s-2.56-7.25-5.58-7.23c3-.07,5.42-3.37,5.35-7.39s-2.57-7.28-5.61-7.23l.24,14.62Zm-21.1,2.31.2,12.64,14.91-.24-.2-12.64,0-2-.23-14.63-14.91.23.23,14.63Zm17.1-35.48.14,9,12.88,5.09-.23-14.32-.22-14.31-12.71,5.49Zm20.2,75.16,8-.12-.14-9-.15-9-8,.13.14,9Zm-1-66.44,8-.13-.14-9-.15-9-8,.13.15,9Zm-195.71,9.31-6.22.1-4.66.07a33.88,33.88,0,0,1-3.8-.16l.15,9.43c3.7-4.54,10.31-8,18.56-9.5Zm.57,36,3.92-.07c-8.25-1.3-14.92-4.51-18.74-8.91l.15,9.43a35.73,35.73,0,0,1,3.79-.28l4.66-.08ZM1293.54,287l.2,12.56-7.34.12c-13.84.21-25.15-5.23-25.26-12.16h0c-.11-6.94,11-12.73,24.87-12.95l7.34-.12.19,12.56h0Zm-5.6-4.22-.06-4-4.58.08.06,3.94Zm-4.44,8.69.06,3.94,4.58-.07-.07-3.94ZM1288,289l-.06-3.94-4.58.07.06,3.94ZM1395,284.12l-.93-59c-12,6.76-17,39.58-75.75,40.51-7.56.12-14.24,1.93-18.78,4.65l.52,33.1c4.63,2.58,11.36,4.17,18.92,4.05,58.75-.93,64.81,31.72,77,38.1l-.93-59Zm6.49,17.44.74,46.38c3.84,1.24,7.08,2,7.08,2l13-39.27A30.1,30.1,0,0,1,1401.45,301.56Zm20-42.4-14.28-38.84s-3.22.87-7,2.23l.74,46.41A30,30,0,0,1,1421.5,259.16Zm-120.4,3.47a48.67,48.67,0,0,1,17.08-3.19c26.89-.43,41.37-7.66,50.73-15.94L1272.33,245l.29,18Zm142.11-2.25-.29-18-20.86.33,6,16.35.63,1.6Zm-19.84,44.11,2.88,0L1426,286l0-1.17-.31-19.6-2.88.05c-12.58.2-22.61,10.86-22.46,19.95h0C1400.43,294.35,1410.79,304.69,1423.37,304.49Zm0,22.66,20.87-.33-.29-18.05-14.55.24-.54,1.61ZM1301.87,311l-28.49.45.29,18,96.57-1.53c-9.61-8-24.31-14.75-51.2-14.32A48.87,48.87,0,0,1,1301.87,311Z" transform="translate(493.61 917.64)"/><path class="cls-14" d="M1610.94,307.58H1598V296.75h56.88l.4-11.72H1598v-.5h56.88l.4-11.72H1598V262h11.84l1.07-19.43h-76.17a13.11,13.11,0,0,0-.2,2.19,13.32,13.32,0,0,0,23.61,8.44,17,17,0,0,0,16.34,2.6l.29,55.31,1.65,3.49a17.15,17.15,0,0,0-18.28,1.79,13.31,13.31,0,0,0-23.61,8.43,13.11,13.11,0,0,0,.2,2.19h75.1Z" transform="translate(493.61 917.64)"/><path class="cls-15" d="M1654.37-37.9h-112a33,33,0,0,0-15,27.7,33.08,33.08,0,0,0,33.08,33.07,37.31,37.31,0,0,0,12.42-3.09,35.43,35.43,0,0,0,10.4-7.16,35.24,35.24,0,0,0,7.16-10.4,37.31,37.31,0,0,0,3.09-12.42c0,1.08,0,2.17,0,3.26s-.2,2.17-.3,3.27-.46,2.14-.69,3.22-.67,2.09-1,3.14a31.71,31.71,0,0,1-7.16,11.07,31.73,31.73,0,0,1-11.07,7.17c-1,.33-2.09.71-3.14,1l-1.3.29a30.82,30.82,0,0,0,23.41,38.67,35.85,35.85,0,0,1,2.4-2.68,35,35,0,0,1,12.11-7.87c1.15-.37,2.29-.78,3.45-1.11s2.34-.56,3.52-.76,2.39-.26,3.58-.35,2.39,0,3.58,0a40.41,40.41,0,0,0-13.65,3.34,38,38,0,0,0-19.31,19.31,40.41,40.41,0,0,0-3.34,13.65,36.22,36.22,0,0,0,16.64,30.49l.13-.14a35,35,0,0,1,11.45-7.39,33.83,33.83,0,0,1,13.32-2.25A34.73,34.73,0,0,0,1595,126.68a34.54,34.54,0,0,0,0,25.78,34.75,34.75,0,0,0,7.22,11A35.12,35.12,0,0,0,1626.13,174a33.83,33.83,0,0,1-13.32-2.25,35,35,0,0,1-11.45-7.39,32.83,32.83,0,0,1-4.78-5.86,42.17,42.17,0,0,0-33.51,64.07,17.27,17.27,0,0,1,18.26,4.44,17.63,17.63,0,0,1,3.66,5.87,16.54,16.54,0,0,1,.94,6.74,17.92,17.92,0,0,0-5.47-11.74,17.06,17.06,0,0,0-27,4.8,13.28,13.28,0,0,0-18.68,9.89H1492V262h53a5.41,5.41,0,1,1,0,10.82h-68v23.94h68a5.42,5.42,0,0,1,0,10.83h-53V327h42.74a13.29,13.29,0,0,0,13.11,11.12,13.16,13.16,0,0,0,5.57-1.23,17,17,0,0,0,15.27,9.47,17.14,17.14,0,0,0,11.74-4.67,17.92,17.92,0,0,0,5.47-11.73,16.52,16.52,0,0,1-.94,6.73,17.63,17.63,0,0,1-3.66,5.87,17.32,17.32,0,0,1-18.26,4.45,42.16,42.16,0,0,0,33.51,64.06,33.19,33.19,0,0,1,4.78-5.86,35,35,0,0,1,11.45-7.39,33.83,33.83,0,0,1,13.32-2.25,35.12,35.12,0,0,0-23.89,10.52,34.75,34.75,0,0,0-7.22,11,34.54,34.54,0,0,0,0,25.78,34.75,34.75,0,0,0,31.12,21.53,34,34,0,0,1-13.32-2.26,35,35,0,0,1-11.45-7.39,1.66,1.66,0,0,1-.13-.14,36.22,36.22,0,0,0-16.64,30.49,40.41,40.41,0,0,0,3.34,13.65,38.06,38.06,0,0,0,19.31,19.32,40.4,40.4,0,0,0,13.65,3.33c-1.19,0-2.38,0-3.58,0s-2.38-.23-3.58-.34-2.34-.51-3.52-.77-2.3-.74-3.45-1.11a34.85,34.85,0,0,1-12.11-7.87,35.85,35.85,0,0,1-2.4-2.68,30.82,30.82,0,0,0-23.41,38.67l1.3.29c1,.29,2.09.67,3.14,1a31.51,31.51,0,0,1,18.23,18.23c.34,1,.72,2.09,1,3.15s.5,2.14.69,3.21.22,2.19.3,3.27,0,2.18,0,3.26a37.31,37.31,0,0,0-3.09-12.42,34.89,34.89,0,0,0-17.56-17.56,37.31,37.31,0,0,0-12.42-3.09,33.06,33.06,0,0,0-18.05,60.77h159.22V-37.9Zm-79.85,293.69h0c-.46.17-.92.31-1.39.44C1573.6,256.1,1574.06,256,1574.52,255.79Zm-4.29,1c-.49,0-1,.07-1.51.07h0C1569.23,256.82,1569.74,256.79,1570.23,256.75Zm-10.33-2.4a15.76,15.76,0,0,1-1.72-1.17h0A15.76,15.76,0,0,0,1559.9,254.35Zm-25.33-9.6a10.18,10.18,0,0,1,.06-1.11,10.18,10.18,0,0,0-.06,1.11,13.31,13.31,0,0,0,13.31,13.31h0A13.31,13.31,0,0,1,1534.57,244.75Zm0,80.06a10,10,0,0,0,.06,1.11,10,10,0,0,1-.06-1.11,13.31,13.31,0,0,1,13.31-13.31h0A13.31,13.31,0,0,0,1534.57,324.81Zm23.61-8.43a15.76,15.76,0,0,1,1.72-1.17,15.76,15.76,0,0,0-1.72,1.17Zm10.54-3.63h0c.35,0,.7,0,1,0C1569.42,312.76,1569.07,312.75,1568.72,312.75Zm6.85,1.42c.3.13.6.27.89.42h0C1576.17,314.44,1575.87,314.3,1575.57,314.17Z" transform="translate(493.61 917.64)"/><path class="cls-8" d="M1611.41,327a18.57,18.57,0,0,0-16,30.81,17.9,17.9,0,0,0,5.87,4.29,19,19,0,0,1-8.61-11,18.33,18.33,0,0,1,11.68-22.53,19,19,0,0,1,13.92.72A17.78,17.78,0,0,0,1611.41,327Z" transform="translate(493.61 917.64)"/><path class="cls-8" d="M1642.56,563.41a26.43,26.43,0,0,0-10.11-2,26,26,0,0,0-25.88,27.16,26.33,26.33,0,0,0,2.5,10,25.07,25.07,0,0,0,6.21,8.05,26.61,26.61,0,0,1-7.28-18.08,25.65,25.65,0,0,1,24.49-25.7,26.62,26.62,0,0,1,18.41,6.4A25.09,25.09,0,0,0,1642.56,563.41Z" transform="translate(493.61 917.64)"/><path class="cls-8" d="M1604.43-27.29a26.27,26.27,0,0,0,.16,10.3,26,26,0,0,0,11.85,16.6,26.09,26.09,0,0,0,20.17,3A26.29,26.29,0,0,0,1645.85-2a25.11,25.11,0,0,0,6.56-7.78,26.61,26.61,0,0,1-16.13,11A25.74,25.74,0,0,1,1617.41-2,25.75,25.75,0,0,1,1606-17.33a26.61,26.61,0,0,1,2.37-19.35A25.09,25.09,0,0,0,1604.43-27.29Z" transform="translate(493.61 917.64)"/><path class="cls-8" d="M1565,264.52a18.59,18.59,0,0,0-1.44,34.68,18,18,0,0,0,7.14,1.4,19,19,0,0,1-12.44-6.29,18.34,18.34,0,0,1,1-25.36,19.1,19.1,0,0,1,12.92-5.24A18.16,18.16,0,0,0,1565,264.52Z" transform="translate(493.61 917.64)"/><path class="cls-8" d="M1656.31,421.91a21.23,21.23,0,0,0-10.26,32.81,30.43,30.43,0,0,0-4.93,3.51,29.57,29.57,0,0,0,5.63,48.32c-.49.36-1,.73-1.42,1.13a20.58,20.58,0,0,0-1.23,29.65,20.94,20.94,0,0,0,6.7,4.64,19.93,19.93,0,0,0,7.89,1.55,21.05,21.05,0,0,1-13.76-7,20.28,20.28,0,0,1,1.16-28c.54-.51,1.11-1,1.7-1.45.41.2.8.42,1.21.6a28.59,28.59,0,0,0,11.38,2.24,30.78,30.78,0,0,1-11.6-3.54l-.94-.54a28.91,28.91,0,0,1-7.29-5.95,29.23,29.23,0,0,1,1.68-40.44,28.56,28.56,0,0,1,4.68-3.65c.27.32.54.66.84,1a21.63,21.63,0,0,0,6.92,4.8,20.74,20.74,0,0,0,8.15,1.6,21.75,21.75,0,0,1-14.21-7.19c-.23-.25-.42-.53-.63-.79l-.78-1a20.9,20.9,0,0,1,2.61-27.17,21.76,21.76,0,0,1,14.76-6A20.4,20.4,0,0,0,1656.31,421.91Z" transform="translate(493.61 917.64)"/><path class="cls-8" d="M1665.69,27.39a22.1,22.1,0,0,0-7.25,4.63,21.7,21.7,0,0,0-1.78,29.24,32,32,0,0,0-5.36,4.13,31.65,31.65,0,0,0,.19,45.63,32,32,0,0,0,10.61,6.66,30.71,30.71,0,0,0,12.23,1.83,32.4,32.4,0,0,1-21.62-9.72,31.19,31.19,0,0,1-.17-43.17,30.09,30.09,0,0,1,5.06-4.28l1.07-.69a33,33,0,0,1,15.41-4.93,30.49,30.49,0,0,0-12.22,1.93,31.57,31.57,0,0,0-4.06,2,21.36,21.36,0,0,1,1.49-27.74,22.21,22.21,0,0,1,14.79-6.8A21,21,0,0,0,1665.69,27.39Z" transform="translate(493.61 917.64)"/><path class="cls-8" d="M1616,269.94a15.21,15.21,0,0,1-6.33-23.76,21.92,21.92,0,0,1-3.76-2.9,22.19,22.19,0,0,1,.13-32,22.58,22.58,0,0,1,7.45-4.67,21.37,21.37,0,0,1,8.58-1.28,22.69,22.69,0,0,0-15.17,6.82,21.85,21.85,0,0,0-.12,30.27,21.34,21.34,0,0,0,3.55,3l.75.48a23.11,23.11,0,0,0,10.81,3.46,20.48,20.48,0,0,1-11.42-2.73,15,15,0,0,0,1,19.46,15.63,15.63,0,0,0,10.38,4.77A14.68,14.68,0,0,1,1616,269.94Z" transform="translate(493.61 917.64)"/><path class="cls-9" d="M971.25,336.71l-.9-2.35c3.13-1.21,6.3-2.34,9.43-3.37l.78,2.38C977.48,334.39,974.34,335.51,971.25,336.71Zm-18.07,8-1.13-2.25c-3,1.49-5.93,3.07-8.82,4.71l1.23,2.19C947.33,347.74,950.26,346.18,953.18,344.71ZM975.4,720.28c3.09,1.1,6.3,2.15,9.54,3.13l.72-2.41c-3.19-1-6.36-2-9.42-3.09Zm58.87,9.06-.13,2.51c3.27.16,6.64.24,10,.24h.82v-2.51h-.83C1040.82,729.58,1037.5,729.5,1034.27,729.34ZM846.29,480l-2.44-.58c-.76,3.24-1.45,6.53-2.05,9.8l2.47.46C844.86,486.48,845.54,483.22,846.29,480Zm-4.62,29.27-2.51-.21c-.27,3.3-.47,6.66-.59,10l2.51.09C841.2,515.88,841.4,512.56,841.67,509.3Zm197.15-186-.07-2.52c-3.34.09-6.7.26-10,.51l.18,2.5C1032.19,323.51,1035.52,323.35,1038.82,323.26Zm55.08,400.17.62,2.43c3.2-.8,6.45-1.71,9.65-2.69l-.74-2.41C1100.28,721.73,1097.07,722.62,1093.9,723.43Zm-84.59-397.25-.43-2.48c-3.26.57-6.56,1.23-9.82,1.95l.55,2.46C1002.83,327.38,1006.09,326.74,1009.31,326.18Zm55.41,402.36.25,2.51c3.35-.35,6.69-.77,9.93-1.25l-.37-2.49C1071.33,727.79,1068,728.21,1064.72,728.54Zm-184.8-78.41c2,2.65,4.1,5.29,6.22,7.84l1.94-1.61c-2.11-2.52-4.17-5.12-6.15-7.75Zm-41.09-111c.2,3.3.49,6.65.86,10l2.49-.27c-.36-3.28-.64-6.59-.84-9.85Zm83.68,153.09c2.68,2,5.44,3.89,8.22,5.73l1.38-2.09c-2.74-1.82-5.47-3.73-8.11-5.67Zm-56.6-268.42c-1.65,2.86-3.27,5.82-4.81,8.81l2.24,1.14c1.52-3,3.11-5.87,4.75-8.69ZM899.68,672.7c2.39,2.35,4.85,4.66,7.3,6.86l1.68-1.88c-2.43-2.17-4.85-4.45-7.21-6.77Zm169-350.56c-3.28-.4-6.63-.71-10-.95l-.18,2.5c3.29.24,6.61.55,9.85.94ZM863.63,624.94c1.59,2.91,3.28,5.82,5,8.65l2.14-1.31c-1.72-2.8-3.39-5.68-5-8.54Zm-20.78-56.11c.68,3.24,1.45,6.52,2.3,9.75l2.43-.64c-.84-3.19-1.6-6.43-2.28-9.63ZM947.92,708.17c3,1.57,6,3.08,9,4.49l1.07-2.28c-3-1.39-6-2.88-8.86-4.43ZM851.17,597.66c1.15,3.07,2.39,6.2,3.71,9.28l2.3-1c-1.29-3.05-2.52-6.13-3.65-9.17Zm4-145.93-2.34-.94c-1.21,3.06-2.38,6.22-3.47,9.42l2.38.82C852.81,457.87,854,454.73,855.17,451.73Zm149.18,276.5c3.22.63,6.54,1.2,9.87,1.69l.37-2.48c-3.29-.49-6.57-1.05-9.75-1.68ZM1241.72,469c-.94-3.2-2-6.41-3-9.54l-2.38.82c1.07,3.09,2.08,6.27,3,9.43Zm-14.37,145.28,2.26,1.09c1.46-3,2.85-6.09,4.13-9.14l-2.32-1C1230.15,608.24,1228.78,611.28,1227.35,614.26Zm-54.66,69.38,1.6,2c2.54-2.08,5.09-4.27,7.59-6.53l-1.69-1.87C1177.73,679.42,1175.2,681.59,1172.69,683.64Zm65.53-97,2.4.75c1-3.17,1.91-6.41,2.74-9.64l-2.43-.62C1240.11,580.34,1239.19,583.54,1238.22,586.67Zm-89.75,114,1.29,2.16c2.81-1.69,5.66-3.49,8.45-5.36l-1.4-2.09C1154.05,697.26,1151.24,699,1148.47,700.7Zm82.76-259.84c-1.4-3.05-2.88-6.07-4.39-9l-2.23,1.16c1.49,2.87,3,5.86,4.34,8.87Zm-14.46-26.26c-1.79-2.75-3.69-5.54-5.65-8.26l-2,1.47c1.94,2.69,3.82,5.44,5.58,8.16Zm-18.14-23.92c-2.24-2.54-4.53-5-6.79-7.35l-1.8,1.75c2.23,2.31,4.49,4.75,6.71,7.26ZM1212.56,640l2.09,1.4c1.84-2.73,3.66-5.56,5.41-8.43l-2.15-1.31C1216.19,634.47,1214.39,637.27,1212.56,640ZM1248,498.33c-.46-3.3-1-6.63-1.6-9.88l-2.48.46c.61,3.22,1.14,6.5,1.58,9.76Zm-53.75,164.92,1.86,1.7c2.25-2.48,4.47-5,6.57-7.56l-1.93-1.6C1198.63,658.29,1196.44,660.81,1194.21,663.25Zm-96-335.38c-3.22-.88-6.49-1.68-9.72-2.39l-.54,2.45c3.19.7,6.42,1.5,9.61,2.37Zm151.55,190.4-2.52.09q.16,4,.16,8v1.88l2.51,0v-1.9Q1249.86,522.3,1249.71,518.27ZM1122,714.07l1,2.32c3-1.25,6.09-2.62,9.13-4.07l-1.08-2.27C1128,711.48,1125,712.83,1122,714.07ZM1244.92,557.8l2.48.39c.51-3.27.95-6.61,1.31-9.93l-2.51-.27C1245.86,551.27,1245.42,554.57,1244.92,557.8ZM1153,351.91c-2.8-1.76-5.7-3.48-8.62-5.11l-1.23,2.19c2.89,1.61,5.75,3.31,8.52,5.05Zm-26.53-14c-3.07-1.33-6.19-2.62-9.29-3.8l-.89,2.35c3.06,1.17,6.14,2.43,9.17,3.76Zm50.75,31.78c-2.47-2.12-5.09-4.24-7.78-6.31l-1.54,2c2.66,2.05,5.25,4.14,7.69,6.23ZM902.78,468.06c1.28-3.1,2.67-6.17,4.13-9.12l-2.25-1.11c-1.48,3-2.9,6.12-4.2,9.27Zm14.14-26.44c1.83-2.74,3.79-5.48,5.82-8.13l-2-1.53c-2.06,2.7-4,5.48-5.92,8.27ZM1191.2,476c-1.07-3.14-2.29-6.33-3.61-9.48l-2.31,1c1.29,3.1,2.49,6.24,3.55,9.33Zm2.86,20.11c.67,3.3,1.23,6.62,1.65,9.85l2.5-.32c-.44-3.3-1-6.67-1.68-10Zm-81.5-109.26c-3.06-1.51-6.18-2.91-9.28-4.2l-1,2.33c3,1.26,6.12,2.64,9.13,4.12Zm-88.69-12-.32-2.49c-3.32.44-6.7,1-10,1.67l.49,2.46C1017.3,375.78,1020.61,375.22,1023.87,374.79Zm29.94-1,.16-2.51c-3.29-.2-6.59-.3-9.82-.3h-.34v2.51h.34C1047.33,373.45,1050.58,373.55,1053.81,373.75Zm117.24,67.37c1.85,2.74,3.64,5.59,5.31,8.46l2.17-1.27c-1.7-2.91-3.52-5.81-5.4-8.6ZM943.2,411.6l-1.66-1.88c-2.53,2.22-5,4.56-7.4,6.95l1.77,1.78C938.25,416.1,940.71,413.79,943.2,411.6ZM1084,376.12c-3.27-.87-6.6-1.64-9.9-2.28l-.48,2.46c3.24.64,6.52,1.39,9.73,2.24ZM891.53,516.56l-2.5-.16c-.21,3.34-.32,6.7-.32,10v.17l2.51-.17C891.22,523.14,891.32,519.84,891.53,516.56Zm103.18-134.9-.81-2.38c-3.15,1.08-6.35,2.28-9.49,3.6l1,2.32C988.47,383.91,991.61,382.72,994.71,381.66ZM1131,655.27l-1.41-2.08c-2.78,1.88-5.62,3.67-8.46,5.32l1.27,2.17C1125.25,659,1128.14,657.18,1131,655.27Zm-66.2,22.66.33,2.49c3.37-.46,6.74-1,10-1.69l-.5-2.47C1071.39,676.92,1068.07,677.48,1064.77,677.93Zm29.14-6.92.82,2.37c3.21-1.11,6.4-2.32,9.48-3.62l-1-2.32C1100.21,668.72,1097.07,669.92,1093.91,671Zm-79.57,5.39c-3.2-.64-6.48-1.4-9.74-2.26l-.65,2.42c3.31.88,6.64,1.65,9.9,2.3Zm-38.9-10.59c3,1.5,6.16,2.91,9.27,4.2l1-2.32c-3-1.27-6.12-2.66-9.12-4.14Zm69.39,16v-2.52h-.68c-3.34,0-6.7-.1-10-.31l-.16,2.5c3.34.22,6.76.33,10.15.33Zm83.94-282.78c2.74,1.83,5.48,3.78,8.14,5.81l1.53-2c-2.7-2.07-5.49-4.06-8.28-5.91Zm52.77,194.48,2.26,1.11c1.49-3,2.9-6.17,4.18-9.28l-2.33-1C1184.39,587.46,1183,590.53,1181.54,593.53Zm-10,17.34c-1.86,2.77-3.81,5.52-5.82,8.14l2,1.53c2-2.67,4-5.46,5.91-8.28Zm-18.95,23.21c-2.32,2.35-4.77,4.66-7.27,6.87l1.67,1.88c2.53-2.25,5-4.59,7.38-7ZM1152,418c2.35,2.34,4.66,4.79,6.85,7.28l1.89-1.66c-2.24-2.53-4.58-5-7-7.4ZM890.05,546.82c.44,3.35,1,6.73,1.66,10l2.46-.49c-.65-3.25-1.19-6.57-1.63-9.86Zm37.32,82c2.23,2.53,4.57,5,7,7.41l1.78-1.77c-2.35-2.35-4.65-4.81-6.84-7.3Zm30.25-231.56,1.41,2.08c2.73-1.83,5.58-3.62,8.47-5.3l-1.27-2.17C963.3,393.62,960.41,395.44,957.62,397.31Zm-8,252.37c2.68,2.06,5.46,4.05,8.26,5.93l1.4-2.09c-2.75-1.84-5.49-3.81-8.13-5.83ZM902.9,585c-1.28-3.06-2.46-6.2-3.53-9.34l-2.38.81c1.08,3.19,2.29,6.39,3.59,9.49Zm-11.26-88.75,2.46.49c.64-3.23,1.4-6.5,2.26-9.74l-2.43-.65C893.05,489.64,892.28,493,891.64,496.25Zm18,107.91c1.69,2.92,3.5,5.81,5.38,8.61l2.08-1.4c-1.84-2.75-3.63-5.6-5.28-8.47Zm32.33-87.32-2.5-.23q-.45,4.86-.45,9.86l.68.07,1.83-.16C941.49,523.22,941.64,520,941.93,516.84Zm183,73,2,1.55c2.05-2.6,4-5.35,5.8-8.15l-2.11-1.35C1128.8,584.59,1126.89,587.26,1124.88,589.81Zm5.44-119.26c1.78,2.75,3.44,5.58,4.92,8.43l2.23-1.15c-1.52-2.93-3.21-5.84-5-8.64Zm-19.21-22c2.46,2.12,4.84,4.38,7.09,6.72l1.81-1.74c-2.3-2.4-4.74-4.72-7.26-6.88Zm-14.68-13.45c-2.91-1.67-5.9-3.2-8.9-4.56l-1,2.29c2.93,1.33,5.85,2.82,8.69,4.45Zm43.07,129.42,2.34.93c1.23-3.09,2.33-6.27,3.26-9.45l-2.41-.7C1141.78,558.4,1140.71,561.5,1139.5,564.52Zm7.32-38.14c0,3.26-.16,6.54-.47,9.76l2.51.24c.31-3.3.47-6.66.47-10V526h-2.51Zm.55-20.31c-.64-3.25-1.44-6.52-2.4-9.72l-2.4.72c.92,3.12,1.71,6.31,2.33,9.48ZM1058.86,628c-.55.08-1.14.09-1.71.16a18.28,18.28,0,0,0-36.1-1.76c-.32-.08-.66-.11-1-.19l-.59,2.45c.44.1.89.15,1.33.25,0,.38-.12.75-.12,1.15a18.3,18.3,0,0,0,36.6.61c.65-.08,1.31-.09,2-.18ZM970,597.35l-1.82,1.73c2.3,2.4,4.74,4.72,7.25,6.9l1.64-1.91C974.58,602,972.2,599.69,970,597.35ZM955.52,469.73l2.11,1.36c1.76-2.73,3.66-5.41,5.66-8l-2-1.55C959.26,464.19,957.31,466.94,955.52,469.73Zm36.17,147.83c2.9,1.67,5.89,3.21,8.89,4.58l1-2.29c-2.92-1.33-5.84-2.83-8.68-4.47ZM976.71,449c2.44-2.12,5-4.16,7.66-6.06l-1.47-2c-2.71,1.95-5.35,4-7.84,6.21Zm-31.15,48.7c.89-3.07,2-6.17,3.16-9.23l-2.33-.92c-1.24,3.12-2.33,6.3-3.25,9.46ZM1103.76,610l1.46,2c2.71-1.95,5.36-4,7.85-6.2l-1.65-1.89C1109,606.05,1106.41,608.09,1103.76,610Zm-148-26.59,2.11-1.36c-1.77-2.75-3.42-5.59-4.9-8.45l-2.23,1.16C952.25,577.68,953.94,580.59,955.76,583.4Zm-14.87-36.91c.64,3.29,1.44,6.56,2.37,9.72l2.42-.72c-.92-3.07-1.69-6.26-2.32-9.48Zm60.34-113.4c2.95-1.36,6-2.59,9.06-3.66l-.83-2.37c-3.14,1.09-6.26,2.36-9.28,3.75Zm67.38-9c-3.25-.77-6.56-1.39-9.83-1.85l-.34,2.5c3.19.44,6.42,1,9.59,1.8Zm-39.38.74c3.22-.47,6.49-.79,9.72-.95l-.12-2.51c-3.32.16-6.66.49-10,1Zm48.59,198.6.83,2.37c3.11-1.07,6.23-2.33,9.28-3.72l-1-2.29C1083.91,621.12,1080.86,622.35,1077.82,623.4ZM897.6,413.6a29.3,29.3,0,0,0,22.53-48.06c2.5-1.93,5.06-3.83,7.62-5.62l-1.44-2.06c-2.65,1.86-5.29,3.81-7.87,5.81a29.3,29.3,0,1,0-40.77,42.06c-.3.41-.63.81-.92,1.22l2,1.46c.25-.35.53-.69.78-1A29.16,29.16,0,0,0,897.6,413.6Zm295,105A25.45,25.45,0,1,0,1218.08,544,25.45,25.45,0,0,0,1192.63,518.56Zm-148.48-42.88a50.71,50.71,0,1,0,50.71,50.71A50.71,50.71,0,0,0,1044.15,475.68Z" transform="translate(493.61 917.64)"/><path class="cls-10" d="M1060.59,506h0c.08.08.16.11.15.27Zm14.31,4.33c.12-.45.69-.74.64-1.11a1.54,1.54,0,0,1-1.55.57C1074.15,510.2,1074.84,509.76,1074.9,510.3Zm-.36,10.57c-.24-.24-.24-.87-.44-1.11-.08,1.54,1.83,2.28,1.9,3.89.35-.18,1.41,1.92,1.65,2.37s.43,1.23.67,1.41l1.49,1.11c.15-1.1-.58-2-1.12-2.89-.23-.37-.7-.35-.9-.69s0-.72-.2-1.12c-.38-1-1.63-2-2.3-2.78C1075.08,520.81,1074.88,521.21,1074.54,520.87Zm8.93-8.52c-.24-.59-.62-.11-1.06.07,0-.31-2.45-2.78-.43-2.53,0-1.19-.32-1.14-1.37-.69a1.63,1.63,0,0,0-.86,1.29c0,.29.43.19.43.73s.2.64.61,1,1.09.76,1.08,1.41c-.73-.34-1,.62-.49,1s1.25,1,1.76.59a7.39,7.39,0,0,1,.25-1.08c-.07-.22-.67-.28-.74-.51C1082.28,512.4,1083.49,513.29,1083.47,512.35Zm-12.1-.21c.43,2,1.9.33,3.23.36.45.27,3.23,1,2.38-.09-.62-.81-1.94-.68-2.17-1.74-.66,0-.58.86-1.33.57a.77.77,0,0,1-.22-1.23c-.49-.47-1.34.21-1.17.74S1071.24,511.53,1071.37,512.14Zm-46.94-2.39c.18-.11.41-.28.53-.36Zm70.9,17.56a51.19,51.19,0,1,1-93-30.56.56.56,0,0,0,.19.31c.7.57.59-1.33.67-1.47,0,1,.06,2.05.08,3.07a8.23,8.23,0,0,0,0,.86c.06.48.46.62.52,1.05.1.7-.58,1.58.06,2.15s1.5,1.26,1,2.3a1.65,1.65,0,0,1-.46-.32c1.28-.05-.57-2.62-1.42-1.95.67.58.53,1.4,1.22,1.92-.54,0-2,4.23-2.26,4.86-.71,1.58-.06,3.38.17,5.07,0,.28.38.33.61.45s.19,1,.25,1.26a24,24,0,0,0,.79,2.55c.13.4-.33.19-.31.59,0,.74.49.49.78,1.07.14.3-.2.88.06,1.13l1.17,1.11a25.22,25.22,0,0,0-.71-3.86,3.6,3.6,0,0,1-.15-1.81c0-.25.27-.07.33.06a2,2,0,0,1-.08,1.08c-.14.95,1.54,3.12,2,4a2.81,2.81,0,0,1,.33,1.63c0,.84.39,1.1.94,1.76s2.3,2.54,3.18,2,1-.13,1.82.52a14,14,0,0,0,1.26.92c.36.21,1.05.34,1.31.64s.15,1.13.41,1.38a4.81,4.81,0,0,0,3,1.54c-.13-.89.71-1.15,1.15-.42a2.93,2.93,0,0,1-.06,2.14c-.43,1.06-.52,1.45-1.47,2-.47.29-.29,1.45.14,1.67-1.07,1-.47,1.63.19,2.83s1.35,3.45,2.53,4.21c1,.65,2.8,1.17,2.86,2.47q.13,3.11.28,6.21c.08,1.94.17,3.89.25,5.84,0,.65,0,.61.61,1s.24,1.64.21,2.31-1.28.56-.31,1.27c.71.53.87.7.23,1.52s2.24,2.9,2.79,3.22c0-.84.38-1.18.86-1.74-.94-.63-.17-1.25.22-2,.19-.36.31-.77.46-1.14s-.74-.52-.81-.79c-.22-.76.79-1.7.54-2.59-.19-.69.27-.6.89-.82.26-.1,0-.93-.08-1.18,1,.12,1.34-.32,1.77-1.07.58-1,.27-1-.48-1.91.44.12.95.47,1.3.12a13.69,13.69,0,0,0,1.42-1.43,5.86,5.86,0,0,0,1.13-3.41c0-.92,1.5-1.87,2.42-1.87,1.4,0,1.72-1.5,1.79-2.73a14.66,14.66,0,0,0,.11-1.87c-.06-.88-.57-.53.21-1.24.42-.39,1.36-.94,1.6-1.46a6.6,6.6,0,0,0,.08-2.09c0-1.16-5.74-2.58-6.66-2.87l-1.53-.15a2.69,2.69,0,0,0,.31-1.78c-.07-.78-.28-.61-.88-1a2.69,2.69,0,0,0-1.56-.64c-.53-.06-.44.42-1-.06a23.2,23.2,0,0,1-2.77-2.55c-.18-.22-1.23.2-1.64.09a2.52,2.52,0,0,1-1.66-1.06c-.44.46-.9.79-.84,1.5-1-.15,0-1.28.25-1.67-.91-.35-1.91,1-2.52,1.49s-.46.5-1.06.25c-.8-.33-.53-.1-1.25,0s-1.22.25-1.66-.65a11.49,11.49,0,0,1,.53-2.22c-.34-.41-.54-.91-1.1-.89s-1.32.24-1.65-.29c.32-.53,2.41-3.53.67-3.13-1.28.29-1.5.16-1.92,1.39-.19.55-2,.17-2.1-.26a5.46,5.46,0,0,1,.56-4.78,5.2,5.2,0,0,1,1.86-1.41c.27,0,.86.4,1.11.51a4.26,4.26,0,0,0,1.29.15c-.27-1.12,1.32-.65,2-.64,1,0,.25,1.75.26,2.1,0,.78.73,1.89,1.36.91.35-.54.64-.69.33-1.25a2.84,2.84,0,0,1-.32-1.16c0-1,.83-1.53,1.51-2.12s2.09-.78,2-1.31c-.18-1.33.44-1.61,1.36-2.6.58-.62,1.51-.55,2.32-.69-.27-1-.43-1,.49-1.54a6.69,6.69,0,0,1,1.74-.85c-1.14.7,0,1.91.67.91.34-.5.64-.38,1.24-.4.33,0,.67-1,.82-1.32-.84-.25-1.7,1.35-1.79-.44,0-.48.49-.94.16-1.33s-1.28,0-1.76.13c1.21-.93,1.67-.83,3.14-.5.76.18.8-.1,1.34-.69.35-.37,1.35-.41,1.84-.53,1-.24-1.4-2.86-1.52-3-.52-.62-.43-2.54-.55-3.36-.38.25-1.4,1.24-1.82,1.22-1.08-.05-.1-1.09-.17-1.57-.15-.95-2.56-2.68-3.09-1.65l-1.25,2.44c-.25.48.09,1.21-.16,1.7-.1.19-.25.72-.44.84s-1-.16-1.14,0c-.39.41.12,1.58-.31,2.14-1.29,1.71-.16-2.31-.49-2.45-1.53-.67-2.79-1.22-3.44-2.86-.25-.64-1.34-.18-.62-1.15a8.92,8.92,0,0,1,1.42-1.75,4.7,4.7,0,0,1,2-1.15c.64-.15,1.51-.66,1-1.46.4-.09,1.23-.45,1.6-.28.9.43.92.37,1.81-.12.38-.21.43-1.5.52-1.92s-.85-1-1.09-1.25a6.92,6.92,0,0,1,2,.7c.81.4.88,1.72,2,1.34-.19,1-1.38,3.91-2.7,2.22-.92,1.24-.19,2.12,1.17,1.26.17.43.36,1.53.74,1.78s1.76,1.27,1.88,1.13,1.39-1.48,1.25-1.71c-.36-.58-1.42-1.55-.56-2.07l.82,1.37c.33-.3,1.58-1.05,1.67-1.46.21-1.05-1-.6-1.37-.46-.5-1.36-.76-1.6,0-2.83.13-.22-.87-1.06-1-1.25-.45-.48-.57-.4-1.1.09-.43-1-.35-1.54-1.42-1.4s-.92-.78-1.14-1.83l-1.34.92c-.42.29.23,1.24-.61,1-.1-.9.63-1.6,1.1-2.29-.85-.08-1.82-.18-2.39.6-.3.4-.63,2.72-.15,2.74a10.35,10.35,0,0,1,1.12.11c-.37.59-.88,2.13-1.72,1.7.16-.28.75-.93.43-1.12-.48-.29-.71-.27-1.08.27,0-1.43.48-3.93-1.55-2.91-1,.49,0,1.07,0,1.69,0,.95-.59,1-1,1.76,0-.44.27-.79.49-1.18s0-.73-.15-1.23l-.87.53c-.3.19,0,.69-.15.94-.48.67-.93.33-1.58,0a14.12,14.12,0,0,1-1.4-1.26c-1.08.29-.92.42-1,1.53-.45-.07-.31-.35-.34-.8s-.93-.32-1.19-.38c-1.11-.22-1-.21-.44-1.16a6.32,6.32,0,0,1-1.66-1.33c-.52-.62-.89-1.43-1.82-1.25.13.45-.34.94-.39.6l-.09-.82c.45-.36.91-.73,1.38-1.08a5.31,5.31,0,0,0,.28,1.08A4.2,4.2,0,0,0,1015,486c.28-.21.33-.78.67-.91a9.05,9.05,0,0,1,2.82-.6c-.5-.54-.91-1.51-1.57-1-.34.26-.34-.06-.44-.26a51.17,51.17,0,0,1,66.37,9.5c-.28,0-.56-.07-.82-.12-.53-.1-.19.48-.52.72a6.86,6.86,0,0,1-1.5.54c-.23.08-.25-.49-.41-.41l-1.48.82c-.23.13-.9.34-.92.63,0,.51,0,.88-.62.78.7-1.24-.54-1.83-1.57-1.25.29.56.92,1.34.9,2-.24-.16-.45-.06-.68-.3-.41.44-1.12.83-.52,1.39l-1.56,0c.17.22.71.66.53.93s-1.06-.19-1.18-.36.08-1.06-.27-1.19-.74-.16-.85-.54c.7.15,4.34,1.13,3.32-.73-.62-1.11-2.89-1.63-4.06-1.34a2,2,0,0,1-.23-.62c.64-.33-.23-.61-.74-.65s-1.48-.08-1.5.65a.69.69,0,0,0-.74-.37c-.53,0-.43.33-.58.73l-.18-.36-1.52,1.22.23.27c-.72.21-1.23,1.72-1.48,2.38-.1.25-.82.4-.2.72s-.3.45-.62,0a13.74,13.74,0,0,1-1,1.36c-.36.36-.56-.1-.75.49a2.21,2.21,0,0,0-.17,1c.09.64.07,1.62.56,2.12.64.65,1.57-.46,1.89-1,0,.88.33,1.08.84,1.86.16.24.07,1,.27,1.14.59.37.61-.5.93-.62.71-.24.66-.19.65-.94s.13-.66.53-1.26c.83-1.25-1.12-1.2-.33-2.54.26-.43.5-.32.79-.72.16-.22.42-1.2.51-1.26,1.07-.74,1.54-.28.67.67-.52.57-1.5,1.86-.53,2.59.69.51.72.72,1.48.35a3.7,3.7,0,0,1,1.47-.4c0,.42,0,.3.32.61-.53.35-1.25-.11-1.75.2-1.25.77.11.84-.12,1.93H1069c0-.84-1.06-.58-1.3.08-.15.41.7,1.66-.4,1.64.07-.13.13-.25.19-.38a3.65,3.65,0,0,0-1,.21c-.33.11-.85.69-1.09.72s-.53-.62-1-.42-.61.24-.88-.14.9-1.85,0-2.26-1.18,1.26-1,1.79c.38,1,.19.83-.5,1.17a2.46,2.46,0,0,0-.83.58l0,0,0,.06c-.2.23-.33.49-.69.9-.19.2-1.12,1.27-1.42,1.3s-.6-.53-.8.08c-.14.44-.85.26-1.27.27-.09,1.13,2.47,1.16,1.65,2.59-.51.89-.68.72-1.71.72-.4,0-1.64-.32-1.8,0-.26.55-.09.92-.13,1.49,0,.38-.43,1.48-.39,1.66.1.57.07.83.44,1.1a17.42,17.42,0,0,0,1.82.25,2.07,2.07,0,0,0,2.42-2c0-.49,1-.85,1.22-1.24s.23-1.57,1-.85c.61.56.94-.43,1.28-.48.8-.11,1,.39,1.47,1s.87.51,1.53,1,.55,1,.63,1.77a1.15,1.15,0,0,0,.72-1.35c1.39,0-.89-1.2-1.23-1.53s-2-2-.7-1.94c-.42,1,.52.4.65.85s1.11,1.26,1.65,1a.85.85,0,0,1,.5.76c0,.39,0,.87.43.95-.09.54.65.68,1.1.86-1.2-.07-.36,1.18.49,1.21-.12-.69.57-1,.17-1.44-.12-.13-1-1.45-.37-.9.25.19.82-.35,1.32-.35a2,2,0,0,0,1-.3c-.09.8-1.12,0-1.48.86a10.34,10.34,0,0,0,.27,1.37c.88-.4.22.42.63.76s1.83.24,1.8-.44c.88.36,1.37.64,2.21.06-.15.68-.09,2.8-1.09,2.8-.29,0-.48-.25-.77-.25s-.63.41-1.08.44a10,10,0,0,1-2.32-.41c-.46-.17-.16-.52-.76-.52a1.33,1.33,0,0,0-1.2.41c-.19.16.57,1.55-.44,1.08-.85-.39-1.37-1.08-2.18-1.32-.37-.1-.75-.19-1.1-.31-.66-.23-.34-.17-.34-.7a6.24,6.24,0,0,0-.1-1.5c-.43-.27-.56-.11-1,.09s-.62-.09-1.16-.1a15.21,15.21,0,0,0-2.88.54c-.38.07-.57.46-.92.58a5.65,5.65,0,0,1-1.59,0c-.83,0-1,.91-1.81,1.3-.67.32-.42,1.85-1.15,2.29a4.05,4.05,0,0,0-1.8,1.72,11.31,11.31,0,0,1-1.61,2.54s0,.06,0,.1c.89.48.43,2.07.37,2.86a2,2,0,0,0,.07,1.2,8.25,8.25,0,0,0,.35,1,7.38,7.38,0,0,0,1.47,2c.79.76,2,1.26,2.68,2.06.53-.36,1.17-1,1.92-.78a2.27,2.27,0,0,0,2.16-.22c.43-.21,1.55-.77,2-.29s.63.82,1.23,1c.44.1.71-.54,1.14,0-1.78-.12.88,1.61,0,0,.39.39.24,1.25,0,1.71s-.65.83-.31,1.2a18.16,18.16,0,0,1,1.32,1.45,6.68,6.68,0,0,1,1.14,3.44c0,.6-.25.73-.66,1.18s-.27.72-.31,1.2a3.39,3.39,0,0,0,.55,2.56c.65,1,.09,1.37.47,2.32s.8,2,1.15,3c.13.37.81.77.85,1,0,.46-.66.35-.39,1s.29.61.88.84.57-.46,1.11-.46a12.82,12.82,0,0,0,2.69-.29c.78-.14,1.9-1.78,2.45-2.33.19-.19.61-.46.61-.74a4.35,4.35,0,0,1,0-1.19c.21-.35.94-.37,1.18-.71a3.08,3.08,0,0,0,.2-1.4c0-1.51.31-1.56,1.49-2.54.49-.4,1.74-.7,1.67-1.57a6.71,6.71,0,0,0-.22-2.14c-.43-.82-1-1.73-.66-2.71.58-1.58,2-2.74,3.23-4,1.41-1.51,2.64-2.66,2.74-4.85,0-.87-4.8,2-4.07-.54.54.46,2.47-.73,3.09-1l1.54-.63c.13,0,0-.48.08-.53.25-.12.67.1.92,0a8.07,8.07,0,0,0,2-3.07c0-1.16-2.43-.84-1.72-2.38a1.22,1.22,0,0,0-1,.54c-.43.66-.51.6-1.3.64,0-.36.24-.87-.07-1.09-.49-.35-.75.39-.69.79a8.7,8.7,0,0,1-1.25-1.74c-.13-.37-.25-1.42.57-1,.39.18.36.35.37.74s.51.46.76.62c.68.4,1.37,1,2.08.36.44-.39.72.53,1.29.61a10.47,10.47,0,0,0,2.28.14c.41,0,1.21-.37,1.58-.06.66.57,1.09,1.26,2,1a1.68,1.68,0,0,1-.58.44c.45.84,1.39,1.61,1.86.3.28-.79.09,1.54.13,1.62C1094.9,526.41,1095.12,526.86,1095.33,527.31Zm-20.68-9.18.82-.78c-.41-.49-.84,0-1.37,0S1074.1,518.2,1074.65,518.13Zm-4.56-.57c.38.45.79.36,1.36.34C1072.16,517.12,1070.27,517.14,1070.09,517.56Zm-3.87-.24c-.11-.39-.67,0-.54.47C1066.22,518,1066.35,517.84,1066.22,517.32Zm-1.38-1c.12.25,1.07.57,1.35.62,0-.5.17-1-.37-1.2C1065.41,515.79,1064.55,515.69,1064.84,516.31Zm-1.17-2.8a3.32,3.32,0,0,0-.13-.61C1062.32,513.71,1063.77,514.62,1063.67,513.51Zm-.77,2c.69.31,1.31-.83.84-1.27C1062.86,513.45,1062.87,515.2,1062.9,515.55Zm-1.84-.46c-1.37-1.08-.79,1.4,0,0Zm7.78-12.32c-.18-.26-.7-.47-.84,0S1068.68,503.09,1068.84,502.77ZM1066.9,504a.71.71,0,0,0,.29-1.15C1066.61,503.13,1066.51,503.53,1066.9,504Zm-2.52,1.38c.61-1.86-2.07.53,0,0ZM1079,492.09c.31,0,.82.93,1.16.28.42-.82-.33-.61-.54-1.33-.28-1-.3-.9-1.31-1,.15.5.17,1-.45,1C1077.7,491.9,1078.31,492.08,1079,492.09Zm-12.62-4.87c-1,.41.22,1.27.84.62S1066.87,486.42,1066.37,487.22Zm-2.34.19a4.24,4.24,0,0,1,.38-.65l.16.11a1.51,1.51,0,0,0,.08,1.91,13.12,13.12,0,0,1,1.17-1.76c.35-.43.55-.44.13-.81l-.35-.26a.88.88,0,0,0,.37-.05c.59.8,1.24.67,1.94.07.92-.79-.25-1.66-.74-1-.34-.44-.68-.3-.8.24-.64-1.26-1.37-.1-1.14.47a.69.69,0,0,0-.18-.1c-.19,0-2,.55-2,.46C1062.88,486.71,1063.09,487.65,1064,487.41Zm-36.18,8.81-1.93-1.89-.86,1.09-.06,1.29a2,2,0,0,1,1.54-.5C1027.45,496.39,1026.82,497,1027.85,496.22Zm-5.63,27a1.41,1.41,0,0,0,.4.88C1023.22,523.73,1022.87,523.1,1022.22,523.23Zm-1-1.82c.47.22.38.45.87.6-.78.31.12,1.06.62,1.15.06-.51-.24-.66-.44-1.07s.35-.67-.24-.91A.52.52,0,0,0,1021.18,521.41Zm-.29,1.4a6.35,6.35,0,0,1,.79,1.06.67.67,0,0,0,.08-1l-.37.21c.41-.41,0-.87-.48-.94A2.36,2.36,0,0,0,1020.89,522.81Zm.78,3.47c-.35-.41-1.39-.57-1.34.14C1020.77,526.84,1021.39,526.91,1021.67,526.28Zm.75-.85a2.62,2.62,0,0,0,.44-.44c-1-.47-1.92-1.08-2.86-1.63a1.69,1.69,0,0,0-1.27,0c-.08,0-1.59.75-.86.76,1.08,0,1.83-.32,2.74.49.27.25.18.94.38,1A1.45,1.45,0,0,0,1022.42,525.43Zm.31.19c.29.11.34.33.47.41-.24,0-.52.11-.76.07a3,3,0,0,0,.1.54c.41.2,1.23-.37,1.48.36a1.11,1.11,0,0,1,1.43-.37C1025.93,525.7,1023.33,524.58,1022.73,525.62Zm3.06.71.31.36a3.79,3.79,0,0,0,.82.13C1027.2,526,1026.28,525.81,1025.79,526.33Zm2.3.57a.59.59,0,0,0,.17.82,2,2,0,0,0,.41-.36,3.52,3.52,0,0,0-.45-.64.94.94,0,0,0-.09.12,2.65,2.65,0,0,0-.29-.29c-.46.07-.54.3-.26.67A1.66,1.66,0,0,0,1028.09,526.9Zm.48,3.64c-.48.23-.23.67.25.94C1029.18,531.07,1029.29,529.92,1028.57,530.54Zm.31-1.35.43-.23a2.84,2.84,0,0,0-.52-.52l.39-.12a2.14,2.14,0,0,0-.37-.64c-.42.22-.3,1.17-.08,1.46-.39.27-.29.23-.11.64-1.26,0,.61,1.08.13.08.16-.05.29-.2.44-.25C1029.06,529.5,1029,529.29,1028.88,529.19Zm6.9-21c-1.76.22.14-.76-.69-1.64-.38.36-2,1.49-2,2-.06.86,1.91,1.17,2.47,1.38C1036.3,510.22,1036.16,508.18,1035.78,508.23Zm-33.42-7.82c-.48.19-.19.89.18,1.17.56-.38-.07-1.23.56-1.87C1002.71,498.39,1001.64,499.78,1002.36,500.41Zm10.9,35.78c0,.2-.64,1.51,0,1.26S1014,536.54,1013.26,536.19Zm12.37,24.65a1.88,1.88,0,0,0-.39-.35C1024.54,561.17,1025.36,562.64,1025.63,560.84Zm6.16,8a3.47,3.47,0,0,1-1.79-.59c-.21-.31-.48-.62-.73-.92-.3.67-.6,1.33-.91,2C1029.81,569.5,1030.54,569.69,1031.79,568.86Zm1-1.52.85-.9a3.25,3.25,0,0,0-.75-.08,2.78,2.78,0,0,0-.62.41A2,2,0,0,0,1032.77,567.34Zm1.73-.73a2.87,2.87,0,0,0-.74-.51,2.94,2.94,0,0,0-.19.62c-.35.17-.51.42-.4.76C1033.72,567.27,1034.21,567.17,1034.5,566.61Zm18.24-45.49-.8.47a2.22,2.22,0,0,0,.37.38C1052.45,521.69,1052.6,521.41,1052.74,521.12Zm3.6-16.48.43,0a3.35,3.35,0,0,1,0,.63c-.31-.48-.68-.07-1-.15.18,0-1,.89-1,.72,0,.07.14.84.13.85-.06.16-.68.27-.68.43a.69.69,0,0,0,1,.62c.55-.21,1.4-.26,1.49-.88,0-.3,0-1.11.33-1.25.72-.34.82.8.53.84-.5.06-.65.91-1,1.4.26,0,.53.1.79.08l-1.29.74c.69.63,1.32.08,2-.24s1.3.38,1.77-.56l-.27-.15c1.15-.54-.3-1.11-.45-1.46s-.39-.86-.61-1.28,0-.8,0-1,.2-.5-.2-.5c-.11,0-.51.07-.6-.07s.73-.75,0-.87S1056.47,504.2,1056.34,504.64Zm-29.07-24.06c.06.9.3.66,1.17.66.44.49-.47.37-.88.43,1.08,1.47,1.62,1.37,3.23.66-.48-.73-1-1.46-1.45-2.19-.06-.1-.37-.74-.5-.77-.39-.08-.73.53-.69.82C1027.78,479.91,1027.24,480.05,1027.27,480.58Zm-1.27.74c.39.24.48.58.15.91a3.66,3.66,0,0,0,.25.7c.49-.27,1.17-.39,1-1.05S1026.52,481.14,1026,481.32Zm-2.11.39c.76-.3,1,0,1.56.52,1.16.13-.13-1.44-.37-1.71C1024.41,479.74,1023.78,481.16,1023.89,481.71Zm-2.22-.45c.72.34.8.49,1.47.1s-.83-.62-1-.65l1.21-.08c0-.58-.52-.75-1-.57C1021.62,480.32,1022,480.63,1021.67,481.26Zm.07,7.61c-.19-.59-.64-.14-.63-.94,0-1.1.33-1.87-.66-2.5l-.59.79c-1.13-1-1.64-1.76-3.18-1a1.35,1.35,0,0,0-.85,1.63c0,.36,1.19.51,1.53.61a1.75,1.75,0,0,1-.24.54l-1.13-.71c-.7,1.31.39.55.34,1.48s.3.82,1.22,1.08c.57,0,1.4.16,1.65-.43.2.22.68,1,1,1.08a.84.84,0,0,0,1-1c.14.15.38.21.52.36A3.31,3.31,0,0,0,1021.74,488.87Zm.7-5.89c-.15.1-.38.09-.52.19a1.18,1.18,0,0,1,.3-1.19c-1.24-.24-1,1.23-1.51,1.18,0,0-.68-1-.91-1.18-.56-.45-1,0-1.68.3-.2.83.86.88,1.46,1.12-.38.28-.28.66,0,1,.82-.37,1.84-1,2.24.23C1022.42,484.05,1022.84,483.85,1022.44,483Zm2.19,3.36c-.48-.57-1.59-.76-1.67.2-.38-.32-.7-.17-.87.29a3.09,3.09,0,0,1,.63,1.92c.33-.2,1.23-.53,1.41-.86C1024.47,487.28,1023.82,486.81,1024.63,486.34Zm.82-2.35c-.74-1-1.41-.45-2.17.26l1.06,0a2.48,2.48,0,0,1-.23.61C1024.47,486.16,1025.68,484.29,1025.45,484Zm2.11,2.91c-1.43-.48-3.27-1.13-2.74,1.09.38.11.75,0,.87-.36C1026.24,488.4,1027.11,487.28,1027.56,486.9Zm4.07-.35c-.28-.23-.8-.86-1.15-.93s-.92.25-1.36.21c-1.68-.16-.61-.82-1.3-1.81-.32-.46-2.07-1.38-1.93-.28.1.81,1.21.74.65,1.6-.61-.24-1.28-.79-1.45.17.59.22,1.2.7,1.45-.15-.17,1.18,2,1.34,2.79,1.61C1030.53,487.36,1030.64,487.4,1031.63,486.55Zm.64,2.62c-.48-.5-1.41-1.9-2-.77C1030.46,489.26,1031.56,489.09,1032.27,489.17Zm5.8-6.91L1037,482c.75-.37,2,.36,2.44-.62l-4.33-1.54c-.82-.3-1.34.66-1.85.24s-1.78-1.39-1.63-.06c-.57-.74-.9-.49-1.68-.24,0,.83.84.76,1.47.89-.64,1.52,1.82.83,2.39.69.07.45-1,1.15-1.34.9a1.79,1.79,0,0,0-1.8-.48c.28.39.55.78.83,1.16-.64.17-.5-.62-1.24-.12-.42.29.35,1.21.91,1-.06,1.19-.94-.34-1.23-.41s-.65,0-.65.29-.62.33-.92.4c.28.85,1.33,1,2.1,1.07a2,2,0,0,1,1.07.53c.28.19.85-.3,1.13-.45-.17-.12-.28-.35-.46-.45.47.1,1.28-.56,1.87-.66s-.78-1.11-.3-1C1035.5,483.39,1036.42,482.9,1038.07,482.26Zm1.72,11.74c.35-.62.1-1.4-.62-1.09S1039.22,494.11,1039.79,494Zm4.6,21.2a4.62,4.62,0,0,0,.72.41C1045.41,514.94,1044.77,514.51,1044.39,515.2Zm1.93,0,.4-.1c-.31-.44-.71-.64-1.09-.17.31.17.3.31.64.28a.67.67,0,0,0,.08,1C1046.94,516,1046.69,515.61,1046.32,515.24Zm1.53,13c-.21-.49-.57-.48-.93-.1A.55.55,0,0,0,1047.85,528.24Zm.34-11.89c-.44-.28-.84-.38-1,.16C1047.52,516.89,1047.87,516.69,1048.19,516.35Zm.06,13a2.14,2.14,0,0,0-.39-.67,2.29,2.29,0,0,0-.5.3C1047.54,529.51,1047.84,529.75,1048.25,529.4Zm.57-.69c-.24-.46-.58-.64-.89-.19C1048.06,529.06,1048.42,529.06,1048.82,528.71Zm.31-32.75c.84,0,.95-.27,1.55-.88.4-.4,1.25-.38,1.56-.77.48-.62,0-1.1-.41-1.47-.62-.55-1-.39-1.28-1.23-.26-.68,1-.41,1.29-.27.92.48.84.53,1.54-.24a8.62,8.62,0,0,0-.78-.44c.49-.66,1-1.32,1.46-2a.9.9,0,0,0-.89-1.34c0-.81,2.59-2.35,3.23-2.91a2.51,2.51,0,0,0-3.74.15c.16-.34.31-.67.46-1-.78-.2-1.1-.43-1.41.47-.49-.73-1.36-.38-2.09-.3.29-1,2.51-.57,3.33-.6-1-1.32-1.37-1.28-3-1.59-.59-.11-2.82-.54-2.39.58-.55-.18-1.2-.15-1-.85-.65.14-1.34.08-1.42.9l.87.3c-.57.58-.7.56-1.17,0a1.53,1.53,0,0,0-.71-.42h0l-.11,0-.59-.16c0,.56-.06.81-.57.81-.71,0-.4-.75-.89-.82-.72-.11-2.75-.59-2.61.76-.9-.12-1.83-.29-1.77.84,0,.79-1.31.61-1.72.13-.81,1.32.08,1.57,1.34,1.42,0,1-1.57-.22-1.94.7a8.47,8.47,0,0,1,.51,1.2c.59.77.44.47,1.31.35a1.86,1.86,0,0,1,2.13,1.35c.58,1.56.66,1.73,0,3.22.55-.1,1.57-.44,1.48.49l-1.22.05c.41.41.74.93,1.37.92-1.11,1.49-2,2.39-1.39,4.29.09.29-.27.55-.17.84a6.67,6.67,0,0,0,.42,1.31c.34.59.89,1.22,1.58.82-.11.86.33,1.23,1.1,1.17.38,0,.44-1.51.62-1.85a4.53,4.53,0,0,1,.29-.49l.12-.16.21-.26.15-.15a2,2,0,0,1,.21-.2l.16-.14a9.74,9.74,0,0,1,2.44-1.2l1.14-1.42C1047.93,495.62,1048.69,496,1049.13,496Zm2.79-4.34c-.47-.13-1,.18-.49.62l1,.53C1052.54,491.94,1052.71,491.86,1051.92,491.62Zm-1.54,7.8c.63.06,1.18.51,1.81.43s1.61-1,1.62-1.56-.09-.6-.55-1c-.62-.52-.29.21-.74.18s-.29-.33-.64-.3-.7.41-1,.7c1-2-2.78.32-.93.23C1049.39,499,1050.61,498.55,1050.38,499.42Zm.74,18.76a2.67,2.67,0,0,0-.34.43c.18.43.5.46.83.14A1.79,1.79,0,0,0,1051.12,518.18Zm-.53,3.74c.07-.15.13-.3.2-.44a.65.65,0,0,0,.83.48c0-.61-.3-.78-.83-.49l.12-.26a.55.55,0,0,0-.88.22A1.87,1.87,0,0,0,1050.59,521.92Zm11.49,14.23c.13,1.2,1.15-.58,0,0Zm.38-.67c.2,1.43,1.26-.61,0,0Zm18.54,6.67c.09.55,1.31,1.67,1.31.4-.18.07-.41,0-.6.09.11-.16.1-.38.21-.54Zm3,.21c-.62.08-1,1.48-1.33,2s-1.78-.14-1.73.94c0,.51,0,1,.08,1.54s-.59.59-.7.92c-.2.54.07,2,.75,2.23a1.16,1.16,0,0,0,1.45-1.39c-.12-.59,1-1.89,1.29-2.41.18-.31.41-.46.16-.74-.54-.58.43-.56.43-.57C1084.8,544.18,1084.32,543.07,1084.05,542.36Zm2.51-3.78a.7.7,0,0,0,.91.55l-.36-1A3.23,3.23,0,0,0,1086.56,538.58Zm-.2-8.9c-.37-.65-1-.22-1.56-.2C1085.32,530.44,1085.6,529.91,1086.36,529.68Zm-.22,10.48a3,3,0,0,0-.66-.35C1085,540.33,1085.78,540.9,1086.14,540.16Zm.74,7.9a.78.78,0,0,0-1-.37C1085.62,548.49,1086.43,548.42,1086.88,548.06Zm.18-8.16.48.09C1088,538.68,1086.43,539.31,1087.06,539.9Zm.91,7.55a1.56,1.56,0,0,0-.57-.44,2.52,2.52,0,0,0-.37.49,2.91,2.91,0,0,0,.09.65Z" transform="translate(493.61 917.64)"/><path class="cls-11" d="M1180.37,110.59h0a54.84,54.84,0,0,0-12.87-24l-.21-.23c-.5-.54-1-1-1.56-1.58-.37-.36-.71-.74-1.09-1.09l-.07-.07a55.81,55.81,0,0,0-9-6.84l-.52-.32c-1-.62-2.11-1.21-3.2-1.76l-.09,0A54.18,54.18,0,0,0,1141,70.63l-.75-.19c-1.19-.3-2.39-.57-3.61-.78a55.27,55.27,0,1,0,43.71,40.93ZM1095.29,145a7.35,7.35,0,1,1,7.35-7.35A7.36,7.36,0,0,1,1095.29,145Zm3.94-25.69a11.88,11.88,0,1,1,11.87-11.88A11.87,11.87,0,0,1,1099.23,119.34Zm15.43-28.95a5.94,5.94,0,1,1,5.94,5.94A5.94,5.94,0,0,1,1114.66,90.39ZM1125,168.28a7.5,7.5,0,1,1,7.49-7.5A7.5,7.5,0,0,1,1125,168.28Zm7.49-22.8a4.6,4.6,0,1,1,4.6-4.6A4.6,4.6,0,0,1,1132.47,145.48ZM1135,96.33a4.6,4.6,0,1,1,4.6-4.6A4.6,4.6,0,0,1,1135,96.33Zm22.11,55.27a6.2,6.2,0,1,1,6.2-6.2A6.21,6.21,0,0,1,1157.1,151.6Z" transform="translate(493.61 917.64)"/><g class="cls-12"><circle class="cls-8" cx="1469.17" cy="1204.62" r="2.55"/><path class="cls-8" d="M980.82,376.86a2.56,2.56,0,1,0,2.56,2.55A2.55,2.55,0,0,0,980.82,376.86Z" transform="translate(493.61 917.64)"/><path class="cls-8" d="M964.33,440.58a2.56,2.56,0,1,0,2.55,2.55A2.56,2.56,0,0,0,964.33,440.58Z" transform="translate(493.61 917.64)"/><path class="cls-8" d="M904.47,547.88a2.56,2.56,0,1,0,2.55,2.55A2.55,2.55,0,0,0,904.47,547.88Z" transform="translate(493.61 917.64)"/><path class="cls-8" d="M858.32,596.11a2.56,2.56,0,1,0,2.56,2.55A2.55,2.55,0,0,0,858.32,596.11Z" transform="translate(493.61 917.64)"/><path class="cls-8" d="M942,634.67a2.56,2.56,0,1,0,2.56,2.56A2.56,2.56,0,0,0,942,634.67Z" transform="translate(493.61 917.64)"/><path class="cls-8" d="M1079.12,622.23a2.56,2.56,0,1,0,2.56,2.56A2.56,2.56,0,0,0,1079.12,622.23Z" transform="translate(493.61 917.64)"/><circle class="cls-8" cx="1640.79" cy="1412.05" r="2.55"/><path class="cls-8" d="M1221.61,459a2.56,2.56,0,1,0,2.56,2.56A2.56,2.56,0,0,0,1221.61,459Z" transform="translate(493.61 917.64)"/><circle class="cls-8" cx="1805.21" cy="1489.03" r="2.55"/><circle class="cls-8" cx="1868.6" cy="1517.88" r="2.55"/><circle class="cls-8" cx="1964.76" cy="1526.5" r="2.55"/><path class="cls-8" d="M1570.27,565.05a2.56,2.56,0,1,0,2.55,2.56A2.56,2.56,0,0,0,1570.27,565.05Z" transform="translate(493.61 917.64)"/><path class="cls-8" d="M1677.45,612.4A2.56,2.56,0,1,0,1680,615,2.56,2.56,0,0,0,1677.45,612.4Z" transform="translate(493.61 917.64)"/><path class="cls-8" d="M1670.18,627.31a2.56,2.56,0,1,0,2.55,2.55A2.55,2.55,0,0,0,1670.18,627.31Z" transform="translate(493.61 917.64)"/><path class="cls-8" d="M1572.51,604a2.56,2.56,0,1,0,2.56,2.56A2.56,2.56,0,0,0,1572.51,604Z" transform="translate(493.61 917.64)"/><path class="cls-8" d="M1402.17,535.69a2.56,2.56,0,1,0,2.56,2.55A2.55,2.55,0,0,0,1402.17,535.69Z" transform="translate(493.61 917.64)"/><path class="cls-8" d="M1307.81,549.49a2.56,2.56,0,1,0,2.55,2.55A2.56,2.56,0,0,0,1307.81,549.49Z" transform="translate(493.61 917.64)"/><path class="cls-8" d="M1168.68,634.42a2.56,2.56,0,1,0,2.56,2.55A2.55,2.55,0,0,0,1168.68,634.42Z" transform="translate(493.61 917.64)"/><path class="cls-8" d="M1064.94,662.73a2.56,2.56,0,1,0,2.55,2.56A2.56,2.56,0,0,0,1064.94,662.73Z" transform="translate(493.61 917.64)"/><path class="cls-8" d="M940.1,594a2.56,2.56,0,1,0,2.56,2.56A2.56,2.56,0,0,0,940.1,594Z" transform="translate(493.61 917.64)"/><path class="cls-8" d="M825.85,548.16a2.56,2.56,0,1,0,2.56,2.55A2.55,2.55,0,0,0,825.85,548.16Z" transform="translate(493.61 917.64)"/><path class="cls-8" d="M715.73,624.43a2.56,2.56,0,1,0,2.55,2.55A2.56,2.56,0,0,0,715.73,624.43Z" transform="translate(493.61 917.64)"/><circle class="cls-8" cx="1169.02" cy="1584.93" r="2.55"/><circle class="cls-8" cx="1168.46" cy="1419.04" r="2.55"/><path class="cls-8" d="M674.16,319.42a2.56,2.56,0,1,0,2.56,2.56A2.56,2.56,0,0,0,674.16,319.42Z" transform="translate(493.61 917.64)"/><path class="cls-8" d="M673.49,267.43A2.56,2.56,0,1,0,676,270,2.56,2.56,0,0,0,673.49,267.43Z" transform="translate(493.61 917.64)"/><path class="cls-8" d="M709.49,123.14a2.55,2.55,0,1,0,2.56,2.55A2.55,2.55,0,0,0,709.49,123.14Z" transform="translate(493.61 917.64)"/><path class="cls-8" d="M778.42,207.12a2.56,2.56,0,1,0,2.55,2.55A2.56,2.56,0,0,0,778.42,207.12Z" transform="translate(493.61 917.64)"/><path class="cls-8" d="M836.25,205a2.56,2.56,0,1,0,2.55,2.56A2.56,2.56,0,0,0,836.25,205Z" transform="translate(493.61 917.64)"/><path class="cls-8" d="M848.71,132.65a2.56,2.56,0,1,0,2.56,2.56A2.56,2.56,0,0,0,848.71,132.65Z" transform="translate(493.61 917.64)"/><circle class="cls-8" cx="996.92" cy="75.04" r="2.55" transform="matrix(0.1, -0.99, 0.99, 0.1, 1315.22, 1976.93)"/><circle class="cls-8" cx="1611.03" cy="1068.86" r="2.55"/><circle class="cls-8" cx="1786.34" cy="1026.5" r="2.55"/><path class="cls-8" d="M1497.38-68.55a2.56,2.56,0,0,0-2.56,2.56,2.56,2.56,0,0,0,2.56,2.55,2.55,2.55,0,0,0,2.55-2.55A2.55,2.55,0,0,0,1497.38-68.55Z" transform="translate(493.61 917.64)"/><circle class="cls-8" cx="2141.58" cy="944.17" r="2.55"/><circle class="cls-8" cx="2107.46" cy="970.33" r="2.55"/><path class="cls-8" d="M1485.23,17.48a2.56,2.56,0,1,0,2.56,2.56A2.56,2.56,0,0,0,1485.23,17.48Z" transform="translate(493.61 917.64)"/><circle class="cls-8" cx="1880.91" cy="948.47" r="2.55"/><circle class="cls-8" cx="1845.35" cy="962.27" r="2.55"/><circle class="cls-8" cx="1835.4" cy="1008.03" r="2.55"/><circle class="cls-8" cx="1883.31" cy="1027.31" r="2.55"/><path class="cls-8" d="M745.61,31.45A2.56,2.56,0,1,0,748.16,34,2.56,2.56,0,0,0,745.61,31.45Z" transform="translate(493.61 917.64)"/><circle class="cls-8" cx="1328.83" cy="896.04" r="2.55"/><path class="cls-8" d="M923.06,6.84a2.56,2.56,0,1,0,2.55,2.56A2.55,2.55,0,0,0,923.06,6.84Z" transform="translate(493.61 917.64)"/><circle class="cls-8" cx="1447.53" cy="1006.96" r="2.55"/><path class="cls-8" d="M1255.26-53.29a2.56,2.56,0,0,0-2.56,2.55,2.56,2.56,0,0,0,2.56,2.56,2.56,2.56,0,0,0,2.55-2.56A2.55,2.55,0,0,0,1255.26-53.29Z" transform="translate(493.61 917.64)"/><path class="cls-8" d="M1195.47-52.16a2.56,2.56,0,0,0-2.56,2.55,2.56,2.56,0,0,0,2.56,2.56,2.55,2.55,0,0,0,2.55-2.56A2.55,2.55,0,0,0,1195.47-52.16Z" transform="translate(493.61 917.64)"/><circle class="cls-8" cx="1604.29" cy="879.14" r="2.55"/><path class="cls-8" d="M687-4.21a2.56,2.56,0,0,0-2.55,2.56A2.55,2.55,0,0,0,687,.9a2.56,2.56,0,0,0,2.56-2.55A2.56,2.56,0,0,0,687-4.21Z" transform="translate(493.61 917.64)"/><path class="cls-8" d="M654.09,11a2.56,2.56,0,1,0,2.55,2.56A2.56,2.56,0,0,0,654.09,11Z" transform="translate(493.61 917.64)"/><path class="cls-8" d="M1053.62,432.1a2.55,2.55,0,1,0,2.56,2.55A2.55,2.55,0,0,0,1053.62,432.1Z" transform="translate(493.61 917.64)"/><circle class="cls-8" cx="997.44" cy="198.32" r="2.55" transform="translate(493.64 1314.44) rotate(-22.5)"/><path class="cls-8" d="M1086,245.68a2.56,2.56,0,1,0,2.56,2.56A2.56,2.56,0,0,0,1086,245.68Z" transform="translate(493.61 917.64)"/></g><g class="cls-12"><circle class="cls-8" cx="704.44" cy="1231.3" r="2.55"/><path class="cls-8" d="M205.57,223.79a2.56,2.56,0,1,0-2.56-2.56A2.55,2.55,0,0,0,205.57,223.79Z" transform="translate(493.61 917.64)"/><path class="cls-8" d="M222.06,160.07a2.56,2.56,0,1,0-2.55-2.55A2.56,2.56,0,0,0,222.06,160.07Z" transform="translate(493.61 917.64)"/><path class="cls-8" d="M281.92,52.77a2.56,2.56,0,1,0-2.56-2.55A2.55,2.55,0,0,0,281.92,52.77Z" transform="translate(493.61 917.64)"/><path class="cls-8" d="M328.07,4.54A2.56,2.56,0,1,0,325.51,2,2.55,2.55,0,0,0,328.07,4.54Z" transform="translate(493.61 917.64)"/><path class="cls-8" d="M244.35-34a2.55,2.55,0,0,0,2.55-2.55,2.56,2.56,0,0,0-2.55-2.56,2.56,2.56,0,0,0-2.56,2.56A2.56,2.56,0,0,0,244.35-34Z" transform="translate(493.61 917.64)"/><path class="cls-8" d="M107.27-21.59a2.55,2.55,0,0,0,2.55-2.55,2.55,2.55,0,0,0-2.55-2.55,2.56,2.56,0,0,0-2.56,2.55A2.56,2.56,0,0,0,107.27-21.59Z" transform="translate(493.61 917.64)"/><circle class="cls-8" cx="532.82" cy="1023.87" r="2.55"/><path class="cls-8" d="M-35.22,141.68a2.55,2.55,0,0,0,2.55-2.55,2.55,2.55,0,0,0-2.55-2.55,2.56,2.56,0,0,0-2.56,2.55A2.56,2.56,0,0,0-35.22,141.68Z" transform="translate(493.61 917.64)"/><circle class="cls-8" cx="368.4" cy="946.89" r="2.55"/><circle class="cls-8" cx="305.01" cy="918.04" r="2.55"/><circle class="cls-8" cx="208.85" cy="909.42" r="2.55"/><path class="cls-8" d="M-383.88,35.59A2.56,2.56,0,0,0-381.32,33a2.56,2.56,0,0,0-2.56-2.56A2.56,2.56,0,0,0-386.43,33,2.55,2.55,0,0,0-383.88,35.59Z" transform="translate(493.61 917.64)"/><path class="cls-8" d="M-491.06-11.75a2.56,2.56,0,0,0,2.56-2.56,2.56,2.56,0,0,0-2.56-2.55,2.55,2.55,0,0,0-2.55,2.55A2.56,2.56,0,0,0-491.06-11.75Z" transform="translate(493.61 917.64)"/><path class="cls-8" d="M-483.79-26.66a2.56,2.56,0,0,0,2.55-2.56,2.55,2.55,0,0,0-2.55-2.55,2.56,2.56,0,0,0-2.56,2.55A2.56,2.56,0,0,0-483.79-26.66Z" transform="translate(493.61 917.64)"/><path class="cls-8" d="M-386.13-3.34a2.56,2.56,0,0,0,2.56-2.56,2.56,2.56,0,0,0-2.56-2.55,2.55,2.55,0,0,0-2.55,2.55A2.56,2.56,0,0,0-386.13-3.34Z" transform="translate(493.61 917.64)"/><path class="cls-8" d="M-215.79,65a2.56,2.56,0,0,0,2.56-2.56,2.56,2.56,0,0,0-2.56-2.55,2.55,2.55,0,0,0-2.55,2.55A2.56,2.56,0,0,0-215.79,65Z" transform="translate(493.61 917.64)"/><path class="cls-8" d="M-121.42,51.16a2.56,2.56,0,0,0,2.56-2.56,2.56,2.56,0,0,0-2.56-2.55A2.55,2.55,0,0,0-124,48.6,2.55,2.55,0,0,0-121.42,51.16Z" transform="translate(493.61 917.64)"/><path class="cls-8" d="M17.71-33.77a2.55,2.55,0,0,0,2.55-2.55,2.55,2.55,0,0,0-2.55-2.56,2.56,2.56,0,0,0-2.56,2.56A2.56,2.56,0,0,0,17.71-33.77Z" transform="translate(493.61 917.64)"/><path class="cls-8" d="M121.45-62.09A2.56,2.56,0,0,0,124-64.64a2.56,2.56,0,0,0-2.56-2.55,2.55,2.55,0,0,0-2.55,2.55A2.55,2.55,0,0,0,121.45-62.09Z" transform="translate(493.61 917.64)"/><path class="cls-8" d="M246.29,6.62a2.55,2.55,0,1,0-2.56-2.55A2.55,2.55,0,0,0,246.29,6.62Z" transform="translate(493.61 917.64)"/><path class="cls-8" d="M360.54,52.49A2.56,2.56,0,1,0,358,49.94,2.55,2.55,0,0,0,360.54,52.49Z" transform="translate(493.61 917.64)"/><path class="cls-8" d="M470.66-23.78a2.56,2.56,0,0,0,2.56-2.55,2.56,2.56,0,0,0-2.56-2.56,2.55,2.55,0,0,0-2.55,2.56A2.55,2.55,0,0,0,470.66-23.78Z" transform="translate(493.61 917.64)"/><circle class="cls-8" cx="1004.59" cy="850.99" r="2.55"/><circle class="cls-8" cx="1005.15" cy="1016.88" r="2.55"/><path class="cls-8" d="M512.23,281.23a2.56,2.56,0,1,0-2.56-2.56A2.56,2.56,0,0,0,512.23,281.23Z" transform="translate(493.61 917.64)"/><path class="cls-8" d="M512.9,333.22a2.56,2.56,0,1,0-2.55-2.56A2.56,2.56,0,0,0,512.9,333.22Z" transform="translate(493.61 917.64)"/><path class="cls-8" d="M476.9,477.51a2.56,2.56,0,1,0-2.56-2.55A2.55,2.55,0,0,0,476.9,477.51Z" transform="translate(493.61 917.64)"/><path class="cls-8" d="M408,393.53a2.56,2.56,0,1,0-2.55-2.55A2.56,2.56,0,0,0,408,393.53Z" transform="translate(493.61 917.64)"/><path class="cls-8" d="M350.14,395.66a2.55,2.55,0,1,0-2.56-2.55A2.55,2.55,0,0,0,350.14,395.66Z" transform="translate(493.61 917.64)"/><path class="cls-8" d="M337.68,468a2.56,2.56,0,1,0-2.56-2.55A2.55,2.55,0,0,0,337.68,468Z" transform="translate(493.61 917.64)"/><circle class="cls-8" cx="189.47" cy="525.61" r="2.55" transform="translate(141.03 1578.68) rotate(-84.21)"/><circle class="cls-8" cx="562.58" cy="1367.06" r="2.55"/><circle class="cls-8" cx="387.27" cy="1409.42" r="2.55"/><path class="cls-8" d="M-311,669.2a2.56,2.56,0,0,0,2.55-2.56,2.55,2.55,0,0,0-2.55-2.55,2.55,2.55,0,0,0-2.55,2.55A2.56,2.56,0,0,0-311,669.2Z" transform="translate(493.61 917.64)"/><circle class="cls-8" cx="32.03" cy="1491.75" r="2.55"/><circle class="cls-8" cx="66.15" cy="1465.59" r="2.55"/><path class="cls-8" d="M-298.84,583.16a2.55,2.55,0,0,0,2.55-2.55,2.56,2.56,0,0,0-2.55-2.56,2.56,2.56,0,0,0-2.56,2.56A2.56,2.56,0,0,0-298.84,583.16Z" transform="translate(493.61 917.64)"/><circle class="cls-8" cx="292.71" cy="1487.45" r="2.55"/><circle class="cls-8" cx="328.26" cy="1473.65" r="2.55"/><circle class="cls-8" cx="338.21" cy="1427.89" r="2.55"/><circle class="cls-8" cx="290.3" cy="1408.61" r="2.55"/><path class="cls-8" d="M440.78,569.2a2.56,2.56,0,1,0-2.55-2.56A2.56,2.56,0,0,0,440.78,569.2Z" transform="translate(493.61 917.64)"/><circle class="cls-8" cx="844.78" cy="1539.88" r="2.55"/><path class="cls-8" d="M263.33,593.81a2.56,2.56,0,1,0-2.56-2.56A2.56,2.56,0,0,0,263.33,593.81Z" transform="translate(493.61 917.64)"/><circle class="cls-8" cx="726.08" cy="1428.96" r="2.55"/><path class="cls-8" d="M-68.87,653.94a2.56,2.56,0,0,0,2.56-2.55,2.56,2.56,0,0,0-2.56-2.56,2.55,2.55,0,0,0-2.55,2.56A2.55,2.55,0,0,0-68.87,653.94Z" transform="translate(493.61 917.64)"/><path class="cls-8" d="M-9.08,652.81a2.56,2.56,0,0,0,2.56-2.56,2.56,2.56,0,0,0-2.56-2.55,2.55,2.55,0,0,0-2.55,2.55A2.56,2.56,0,0,0-9.08,652.81Z" transform="translate(493.61 917.64)"/><circle class="cls-8" cx="569.32" cy="1556.78" r="2.55"/><path class="cls-8" d="M499.36,604.85a2.55,2.55,0,1,0-2.56-2.55A2.55,2.55,0,0,0,499.36,604.85Z" transform="translate(493.61 917.64)"/><path class="cls-8" d="M532.3,589.67a2.56,2.56,0,1,0-2.55-2.55A2.55,2.55,0,0,0,532.3,589.67Z" transform="translate(493.61 917.64)"/><path class="cls-8" d="M132.77,168.55a2.56,2.56,0,1,0-2.56-2.55A2.55,2.55,0,0,0,132.77,168.55Z" transform="translate(493.61 917.64)"/><circle class="cls-8" cx="188.95" cy="402.33" r="2.55" transform="translate(354.03 1020.57) rotate(-22.5)"/><path class="cls-8" d="M100.39,355a2.56,2.56,0,1,0-2.55-2.56A2.56,2.56,0,0,0,100.39,355Z" transform="translate(493.61 917.64)"/></g></g></g></g></svg>