<?xml version="1.0" encoding="utf-8"?>
<!-- Generator: Adobe Illustrator 24.1.1, SVG Export Plug-In . SVG Version: 6.00 Build 0)  -->
<svg version="1.1" id="Layer_1" xmlns="http://www.w3.org/2000/svg" xmlns:xlink="http://www.w3.org/1999/xlink" x="0px" y="0px"
	 viewBox="0 0 295.9 144.26" style="enable-background:new 0 0 295.9 144.26;" xml:space="preserve">
<style type="text/css">
	.st0{fill:none;stroke:#FFFFFF;stroke-miterlimit:10;}
</style>
<path class="st0" d="M263.86,98.02l12.71-5.49l0.23,14.31l0.23,14.32l-12.87-5.09l-0.14-9.02L263.86,98.02z M80.84,100.91
	l-4.66,0.07c-8.79,0.14-15.86,4.29-15.78,9.27c0.08,4.98,7.27,8.91,16.06,8.77l4.66-0.07l-0.14-9.02L80.84,100.91z M56.08,103.83
	C27.48,99.21,7.83,89.48,7.65,77.87l0.01,0l-0.01-0.01C7.46,66.26,26.8,55.91,55.23,50.39c2.11,3.13,5.7,5.59,10.25,7.02l0.62,39.07
	C61.6,98.06,58.09,100.63,56.08,103.83z M31.59,84.67c2.57-0.04,4.62-2.16,4.58-4.73c-0.04-2.57-2.16-4.62-4.73-4.58
	c-2.57,0.04-4.62,2.16-4.58,4.73C26.9,82.66,29.02,84.71,31.59,84.67z M50.15,93.83c3.96-0.06,7.11-3.32,7.05-7.28
	c-0.06-3.96-3.32-7.11-7.28-7.05c-3.96,0.06-7.11,3.32-7.05,7.28C42.93,90.73,46.19,93.89,50.15,93.83z M80.08,52.52l-0.14-9.02
	l-0.14-9.02l-4.66,0.07c-8.79,0.14-15.86,4.29-15.78,9.27c0.08,4.98,7.27,8.91,16.06,8.77L80.08,52.52z M266.95,73.77l0.23,14.62
	c3.03-0.05,5.44-3.36,5.38-7.4c-0.06-4.03-2.56-7.25-5.58-7.22c3.02-0.07,5.41-3.37,5.35-7.4c-0.06-4.04-2.58-7.27-5.61-7.23
	L266.95,73.77L266.95,73.77z M246.05,88.72l14.91-0.24l-0.46-29.24l-14.91,0.24L246.05,88.72z M262.95,40.6l0.14,9.02l12.87,5.09
	l-0.23-14.32l-0.23-14.31l-12.71,5.49L262.95,40.6z M283.15,115.77l8.01-0.13l-0.14-9.02l-0.14-9.02l-8.01,0.13l0.14,9.02
	L283.15,115.77z M282.1,49.32l8.01-0.13l-0.14-9.02l-0.14-9.02l-8.01,0.13l0.14,9.02L282.1,49.32z M86.39,58.63l-6.21,0.1
	l-4.66,0.07c-1.3,0.02-2.56-0.05-3.8-0.16l0.15,9.43c3.69-4.54,10.31-7.95,18.56-9.5L86.39,58.63z M86.96,94.6l3.92-0.06
	c-8.25-1.3-14.92-4.51-18.74-8.91l0.15,9.43c1.23-0.15,2.49-0.26,3.79-0.28l4.66-0.07L86.96,94.6z M107.41,88.85l-7.34,0.12
	c-13.84,0.22-25.15-5.23-25.26-12.16l0.02,0l-0.02-0.01c-0.11-6.93,11.02-12.73,24.86-12.95l7.34-0.12L107.41,88.85z M101.61,72.07
	l-0.06-3.94l-4.58,0.07l0.06,3.94L101.61,72.07z M97.17,80.76l0.06,3.94l4.58-0.07l-0.06-3.94L97.17,80.76z M101.71,78.36
	l-0.06-3.94l-4.58,0.07l0.06,3.94L101.71,78.36z M207.7,14.49c-11.98,6.76-17,39.58-75.75,40.51c-7.55,0.12-14.23,1.93-18.78,4.65
	l0.52,33.1c4.63,2.58,11.36,4.17,18.92,4.05c58.76-0.93,64.81,31.72,77,38.09L207.7,14.49z M215.12,90.9l0.73,46.39
	c3.84,1.24,7.09,2.01,7.09,2.01l13.04-39.27C227.54,99.83,220.2,96.13,215.12,90.9z M235.17,48.5L220.89,9.66
	c0,0-3.22,0.87-7.02,2.23l0.73,46.4C219.52,52.91,226.73,48.96,235.17,48.5z M114.77,51.97c4.97-1.98,10.86-3.09,17.08-3.19
	c26.9-0.43,41.38-7.66,50.73-15.94L86,34.37l0.29,18.05L114.77,51.97z M256.88,49.72l-0.29-18.05L235.73,32l6.01,16.35l0.63,1.6
	L256.88,49.72z M237.04,93.84l2.89-0.05l-0.62-39.19l-2.89,0.05c-12.57,0.2-22.6,10.86-22.46,19.95l0.02,0.01l-0.02,0
	C214.1,83.69,224.46,94.04,237.04,93.84z M237.06,116.5l20.87-0.33l-0.29-18.05l-14.56,0.23l-0.54,1.62L237.06,116.5z
	 M115.54,100.37l-28.48,0.45l0.29,18.05l96.57-1.53c-9.61-7.98-24.31-14.75-51.21-14.33C126.48,103.11,120.56,102.18,115.54,100.37z
	"/>
</svg>
