<?xml version="1.0" encoding="utf-8"?>
<!-- Generator: Adobe Illustrator 24.1.1, SVG Export Plug-In . SVG Version: 6.00 Build 0)  -->
<svg version="1.1" id="Layer_1" xmlns="http://www.w3.org/2000/svg" xmlns:xlink="http://www.w3.org/1999/xlink" x="0px" y="0px"
	 viewBox="0 0 1440 602" style="enable-background:new 0 0 1440 602;" xml:space="preserve">
<style type="text/css">
	.st0{opacity:0.8;fill:none;stroke:#FFFFFF;stroke-miterlimit:10;}
	.st1{opacity:0.6;fill:#FFFFFF;}
	.st2{opacity:0.4;fill:#FFFFFF;}
	.st3{fill:#FFFFFF;}
	.st4{fill:none;}
</style>
<g>
	<path class="st0" d="M718.59,338.95l-0.93-2.42c3.23-1.24,6.49-2.41,9.71-3.47l0.81,2.46C725,336.56,721.78,337.72,718.59,338.95z
		 M699.98,347.19l-1.16-2.32c-3.04,1.53-6.1,3.16-9.09,4.85l1.27,2.26C693.95,350.32,696.98,348.7,699.98,347.19z M722.87,733.99
		c3.19,1.14,6.49,2.22,9.82,3.23l0.75-2.48c-3.29-0.99-6.56-2.06-9.7-3.18L722.87,733.99z M783.49,743.33l-0.13,2.59
		c3.37,0.16,6.84,0.25,10.32,0.25c0.01,0,0.01,0,0.01,0l0.83-0.01v-2.59l-0.86,0.01C790.25,743.58,786.82,743.49,783.49,743.33z
		 M589.9,486.56l-2.52-0.6c-0.78,3.33-1.49,6.72-2.11,10.1l2.55,0.47C588.43,493.2,589.13,489.85,589.9,486.56z M585.13,516.7
		l-2.58-0.21c-0.28,3.4-0.49,6.86-0.61,10.29l2.59,0.09C584.65,523.48,584.86,520.06,585.13,516.7z M788.18,325.1l-0.07-2.59
		c-3.44,0.09-6.9,0.27-10.3,0.52l0.19,2.58C781.36,325.36,784.78,325.19,788.18,325.1z M844.91,737.24l0.64,2.51
		c3.3-0.83,6.64-1.76,9.94-2.77l-0.76-2.48C851.48,735.49,848.18,736.41,844.91,737.24z M757.8,328.11l-0.44-2.55
		c-3.36,0.58-6.76,1.26-10.11,2.01l0.57,2.53C751.12,329.35,754.48,328.68,757.8,328.11z M814.85,742.51l0.26,2.58
		c3.45-0.35,6.89-0.79,10.23-1.29l-0.38-2.56C821.66,741.74,818.27,742.16,814.85,742.51z M624.53,661.74
		c2.06,2.74,4.22,5.45,6.41,8.07l1.99-1.66c-2.16-2.59-4.29-5.27-6.33-7.97L624.53,661.74z M582.21,547.4
		c0.21,3.4,0.51,6.86,0.89,10.27l2.57-0.28c-0.37-3.37-0.66-6.78-0.86-10.14L582.21,547.4z M668.4,705.06
		c2.75,2.03,5.6,4.01,8.46,5.91l1.43-2.15c-2.83-1.88-5.64-3.84-8.35-5.84L668.4,705.06z M610.1,428.62
		c-1.7,2.94-3.36,5.99-4.95,9.06l2.3,1.18c1.56-3.04,3.21-6.05,4.89-8.95L610.1,428.62z M644.89,684.99
		c2.46,2.42,4.99,4.8,7.51,7.07l1.73-1.93c-2.5-2.24-4.99-4.59-7.42-6.98L644.89,684.99z M818.97,323.95
		c-3.38-0.4-6.83-0.73-10.26-0.98l-0.18,2.58c3.39,0.24,6.8,0.57,10.14,0.97L818.97,323.95z M607.75,635.81
		c1.64,2.99,3.38,5.99,5.17,8.91l2.2-1.36c-1.76-2.89-3.48-5.85-5.11-8.8L607.75,635.81z M586.35,578.02
		c0.7,3.34,1.5,6.71,2.37,10.04l2.51-0.66c-0.86-3.28-1.65-6.62-2.35-9.91L586.35,578.02z M694.56,721.52
		c3.04,1.62,6.15,3.18,9.24,4.63l1.1-2.35c-3.05-1.43-6.12-2.97-9.13-4.57L694.56,721.52z M594.93,607.71
		c1.17,3.16,2.46,6.38,3.81,9.56l2.38-1.01c-1.33-3.14-2.6-6.31-3.76-9.44L594.93,607.71z M599.04,457.41l-2.41-0.96
		c-1.25,3.14-2.45,6.41-3.57,9.7l2.45,0.84C596.62,463.73,597.8,460.51,599.04,457.41z M752.68,742.18
		c3.32,0.66,6.74,1.24,10.17,1.74l0.37-2.56c-3.39-0.5-6.76-1.08-10.04-1.72L752.68,742.18z M997.15,475.18
		c-0.97-3.3-2.02-6.6-3.13-9.83l-2.45,0.85c1.1,3.19,2.14,6.45,3.09,9.71L997.15,475.18z M982.35,624.81l2.34,1.12
		c1.5-3.11,2.93-6.28,4.25-9.41l-2.39-1.01C985.24,618.6,983.83,621.73,982.35,624.81z M926.06,696.26l1.64,2
		c2.62-2.14,5.25-4.4,7.82-6.72l-1.74-1.92C931.25,691.92,928.65,694.15,926.06,696.26z M993.55,596.39l2.47,0.77
		c1.02-3.26,1.97-6.6,2.83-9.92l-2.51-0.65C995.49,589.87,994.55,593.17,993.55,596.39z M901.11,713.83l1.34,2.22
		c2.89-1.74,5.82-3.59,8.7-5.52l-1.44-2.15C906.86,710.28,903.97,712.12,901.11,713.83z M986.35,446.22
		c-1.44-3.14-2.96-6.25-4.52-9.25l-2.3,1.19c1.53,2.96,3.04,6.04,4.47,9.14L986.35,446.22z M971.46,419.17
		c-1.84-2.84-3.8-5.7-5.82-8.51l-2.1,1.52c2,2.77,3.94,5.6,5.75,8.4L971.46,419.17z M952.78,394.54c-2.31-2.62-4.67-5.17-6.99-7.57
		l-1.86,1.8c2.3,2.38,4.63,4.89,6.91,7.48L952.78,394.54z M967.12,651.28l2.14,1.45c1.9-2.81,3.78-5.73,5.58-8.68l-2.21-1.35
		C970.86,645.62,969.01,648.5,967.12,651.28z M1003.58,505.41c-0.47-3.4-1.02-6.82-1.65-10.18l-2.55,0.48
		c0.62,3.31,1.17,6.69,1.63,10.06L1003.58,505.41z M948.22,675.26l1.91,1.75c2.33-2.55,4.61-5.17,6.77-7.79l-1.99-1.65
		C952.77,670.16,950.52,672.75,948.22,675.26z M849.3,329.85c-3.32-0.9-6.69-1.73-10.01-2.47l-0.56,2.53
		c3.28,0.72,6.6,1.54,9.89,2.44L849.3,329.85z M1005.38,525.94l-2.59,0.1c0.11,2.74,0.16,5.49,0.16,8.26l-0.01,1.93l2.59,0.02
		l0.01-1.95C1005.54,531.5,1005.48,528.71,1005.38,525.94z M873.88,727.6l0.99,2.39c3.1-1.28,6.27-2.69,9.4-4.19l-1.11-2.34
		C880.07,724.94,876.95,726.33,873.88,727.6z M1000.45,566.65l2.56,0.4c0.52-3.37,0.98-6.81,1.34-10.23l-2.58-0.27
		C1001.41,559.93,1000.97,563.33,1000.45,566.65z M905.8,354.61c-2.88-1.81-5.87-3.58-8.88-5.26l-1.26,2.26
		c2.97,1.66,5.92,3.41,8.77,5.2L905.8,354.61z M878.47,340.15c-3.16-1.38-6.37-2.69-9.57-3.91l-0.92,2.42
		c3.16,1.2,6.33,2.51,9.44,3.87L878.47,340.15z M930.74,372.87c-2.55-2.17-5.25-4.36-8.02-6.49l-1.58,2.05
		c2.73,2.11,5.4,4.26,7.92,6.41L930.74,372.87z M648.08,474.23c1.32-3.19,2.75-6.35,4.25-9.39l-2.32-1.14
		c-1.53,3.09-2.99,6.3-4.33,9.55L648.08,474.23z M662.63,447.01c1.89-2.83,3.91-5.65,6-8.38l-2.05-1.58
		c-2.12,2.78-4.18,5.64-6.1,8.52L662.63,447.01z M945.12,482.38c-1.11-3.23-2.36-6.52-3.72-9.77l-2.39,1
		c1.34,3.2,2.57,6.43,3.66,9.61L945.12,482.38z M948.07,503.09c0.69,3.4,1.26,6.82,1.7,10.15l2.57-0.33
		c-0.45-3.39-1.03-6.87-1.73-10.33L948.07,503.09z M864.13,390.56c-3.15-1.55-6.36-3-9.55-4.32l-0.99,2.4
		c3.14,1.29,6.3,2.72,9.4,4.25L864.13,390.56z M772.79,378.18l-0.33-2.57c-3.41,0.45-6.89,1.03-10.33,1.72l0.5,2.54
		C766.02,379.19,769.43,378.62,772.79,378.18z M803.62,377.11l0.16-2.59c-3.38-0.2-6.78-0.31-10.11-0.31h-0.35v2.59h0.35
		C796.95,376.8,800.29,376.9,803.62,377.11z M924.37,446.48c1.9,2.83,3.75,5.76,5.47,8.72l2.23-1.3c-1.75-3-3.62-5.99-5.56-8.86
		L924.37,446.48z M689.7,416.09l-1.71-1.94c-2.61,2.29-5.17,4.7-7.62,7.16l1.83,1.83C684.61,420.72,687.14,418.34,689.7,416.09z
		 M834.74,379.54c-3.37-0.9-6.8-1.69-10.2-2.35l-0.49,2.54c3.34,0.66,6.72,1.43,10.03,2.31L834.74,379.54z M636.49,524.18
		l-2.58-0.16c-0.22,3.43-0.33,6.89-0.33,10.28v0.17l2.59-0.17C636.17,530.97,636.28,527.56,636.49,524.18z M742.76,385.25
		l-0.84-2.45c-3.24,1.11-6.54,2.35-9.77,3.71l1,2.39C736.33,387.56,739.57,386.34,742.76,385.25z M883.08,667.04l-1.45-2.14
		c-2.86,1.94-5.79,3.78-8.71,5.48l1.3,2.23C877.2,670.89,880.18,669.01,883.08,667.04z M814.91,690.38l0.34,2.57
		c3.46-0.47,6.94-1.06,10.32-1.74l-0.52-2.54C821.73,689.34,818.31,689.91,814.91,690.38z M844.92,683.25l0.85,2.45
		c3.31-1.14,6.59-2.4,9.76-3.73l-1-2.39C851.41,680.89,848.18,682.13,844.92,683.25z M762.97,688.8c-3.3-0.66-6.68-1.44-10.03-2.33
		l-0.67,2.5c3.41,0.91,6.83,1.7,10.19,2.37L762.97,688.8z M722.91,677.89c3.13,1.55,6.34,3,9.54,4.33l0.99-2.39
		c-3.14-1.31-6.3-2.75-9.39-4.27L722.91,677.89z M794.38,694.39v-2.59h-0.7c-3.44,0-6.9-0.11-10.29-0.33l-0.17,2.58
		c3.45,0.23,6.97,0.34,10.46,0.34H794.38z M880.83,403.16c2.83,1.88,5.65,3.89,8.39,5.99l1.57-2.05c-2.78-2.13-5.65-4.18-8.52-6.09
		L880.83,403.16z M935.17,603.45l2.32,1.14c1.54-3.14,2.99-6.35,4.31-9.56l-2.4-0.99C938.11,597.2,936.68,600.37,935.17,603.45z
		 M924.91,621.31c-1.91,2.86-3.92,5.69-5.99,8.39l2.05,1.58c2.1-2.75,4.15-5.62,6.09-8.53L924.91,621.31z M905.4,645.22
		c-2.39,2.41-4.91,4.79-7.49,7.07l1.72,1.94c2.61-2.32,5.18-4.73,7.61-7.19L905.4,645.22z M904.71,422.7
		c2.43,2.42,4.8,4.94,7.06,7.5l1.94-1.71c-2.3-2.6-4.71-5.17-7.17-7.62L904.71,422.7z M634.96,555.35
		c0.46,3.45,1.03,6.92,1.71,10.33l2.54-0.51c-0.67-3.35-1.23-6.77-1.68-10.16L634.96,555.35z M673.4,639.85
		c2.29,2.61,4.7,5.18,7.16,7.63l1.83-1.83c-2.42-2.42-4.79-4.95-7.05-7.51L673.4,639.85z M704.56,401.37l1.45,2.14
		c2.82-1.89,5.75-3.73,8.72-5.46l-1.3-2.23C710.41,397.57,707.43,399.44,704.56,401.37z M696.29,661.29
		c2.76,2.12,5.62,4.17,8.5,6.11l1.45-2.15c-2.84-1.9-5.66-3.92-8.37-6.01L696.29,661.29z M648.19,594.67
		c-1.31-3.15-2.53-6.39-3.63-9.62l-2.45,0.84c1.12,3.29,2.36,6.58,3.7,9.77L648.19,594.67z M636.6,503.27l2.54,0.5
		c0.66-3.32,1.44-6.69,2.32-10.03l-2.5-0.67C638.06,496.46,637.26,499.89,636.6,503.27z M655.09,614.4
		c1.75,3.01,3.61,5.99,5.55,8.87l2.14-1.45c-1.9-2.83-3.74-5.77-5.44-8.72L655.09,614.4z M688.4,524.47l-2.58-0.24
		c-0.31,3.34-0.47,6.73-0.46,10.16l0.7,0.07l1.89-0.16C687.94,531.04,688.09,527.73,688.4,524.47z M876.82,599.63l2.03,1.6
		c2.12-2.68,4.13-5.51,5.98-8.39l-2.17-1.4C880.85,594.25,878.89,597,876.82,599.63z M882.42,476.8c1.84,2.83,3.54,5.75,5.07,8.69
		l2.3-1.19c-1.56-3.01-3.31-6.01-5.19-8.9L882.42,476.8z M862.64,454.14c2.53,2.18,4.99,4.5,7.3,6.91l1.87-1.79
		c-2.37-2.47-4.89-4.85-7.48-7.08L862.64,454.14z M847.52,440.29c-3-1.72-6.08-3.3-9.17-4.69l-1.07,2.36
		c3.01,1.36,6.03,2.91,8.95,4.58L847.52,440.29z M891.88,573.58l2.41,0.96c1.27-3.19,2.4-6.46,3.36-9.73l-2.49-0.73
		C894.22,567.27,893.12,570.47,891.88,573.58z M899.41,534.3c0,3.36-0.16,6.73-0.47,10.05l2.58,0.24c0.32-3.39,0.49-6.86,0.49-10.29
		v-0.44h-2.59V534.3z M899.98,513.38c-0.66-3.35-1.48-6.71-2.46-10l-2.48,0.74c0.95,3.21,1.76,6.5,2.4,9.76L899.98,513.38z
		 M808.83,638.96c-0.58,0.08-1.18,0.09-1.76,0.17c-0.99-9.5-8.92-16.93-18.68-16.93c-9.14,0-16.75,6.49-18.5,15.11
		c-0.34-0.08-0.68-0.11-1.02-0.19l-0.61,2.52c0.45,0.11,0.91,0.16,1.36,0.26c-0.02,0.4-0.12,0.78-0.12,1.18
		c0,10.43,8.45,18.88,18.88,18.88c10.21,0,18.47-8.12,18.82-18.24c0.66-0.08,1.35-0.1,2-0.19L808.83,638.96z M717.26,607.39
		l-1.87,1.79c2.36,2.47,4.88,4.86,7.47,7.1l1.69-1.96C722.03,612.13,719.57,609.8,717.26,607.39z M702.4,475.95l2.17,1.4
		c1.81-2.81,3.76-5.57,5.82-8.2l-2.04-1.6C706.24,470.25,704.24,473.08,702.4,475.95z M739.64,628.21c2.99,1.72,6.07,3.31,9.16,4.71
		l1.07-2.36c-3.01-1.37-6.02-2.92-8.94-4.6L739.64,628.21z M724.22,454.57c2.5-2.18,5.16-4.28,7.88-6.24l-1.51-2.1
		c-2.8,2.01-5.51,4.16-8.07,6.4L724.22,454.57z M692.13,504.73c0.91-3.16,2.02-6.36,3.26-9.51l-2.41-0.95
		c-1.27,3.22-2.4,6.5-3.34,9.74L692.13,504.73z M855.06,620.4l1.51,2.1c2.8-2,5.52-4.15,8.09-6.38l-1.7-1.95
		C860.45,616.35,857.79,618.45,855.06,620.4z M702.64,593.02l2.17-1.41c-1.82-2.83-3.52-5.75-5.05-8.7l-2.3,1.19
		C699.03,587.13,700.77,590.13,702.64,593.02z M687.33,555.01c0.66,3.39,1.48,6.76,2.44,10.01l2.49-0.74
		c-0.94-3.17-1.74-6.46-2.39-9.77L687.33,555.01z M749.47,438.21c3.04-1.4,6.17-2.66,9.32-3.76l-0.85-2.45
		c-3.23,1.13-6.45,2.43-9.56,3.86L749.47,438.21z M818.86,428.92c-3.35-0.79-6.75-1.44-10.12-1.91l-0.35,2.57
		c3.29,0.46,6.61,1.08,9.88,1.86L818.86,428.92z M778.31,429.67c3.31-0.48,6.68-0.81,10.01-0.98l-0.13-2.59
		c-3.41,0.17-6.86,0.51-10.25,1.01L778.31,429.67z M828.35,634.22l0.85,2.45c3.2-1.11,6.42-2.4,9.56-3.84l-1.08-2.36
		C834.62,631.88,831.48,633.13,828.35,634.22z M642.74,418.14c16.67,0,30.19-13.52,30.19-30.19c0-7.34-2.63-14.07-6.99-19.3
		c2.57-1.99,5.2-3.94,7.84-5.78l-1.49-2.12c-2.72,1.91-5.45,3.93-8.1,5.98c-5.47-5.53-13.06-8.96-21.46-8.96
		c-16.67,0-30.19,13.52-30.19,30.19c0,8.74,3.73,16.58,9.66,22.09c-0.3,0.42-0.64,0.83-0.94,1.25l2.1,1.51
		c0.25-0.36,0.55-0.71,0.81-1.07C629.3,415.73,635.74,418.14,642.74,418.14z M946.59,526.24c-14.48,0-26.21,11.74-26.21,26.21
		c0,14.48,11.74,26.21,26.21,26.21s26.21-11.74,26.21-26.21C972.8,537.97,961.07,526.24,946.59,526.24z M793.68,482.09
		c-28.84,0-52.22,23.38-52.22,52.22c0,28.84,23.38,52.22,52.22,52.22c28.84,0,52.22-23.38,52.22-52.22
		C845.9,505.47,822.52,482.09,793.68,482.09z"/>
	<path class="st1" d="M810.6,513.28C810.61,513.27,810.61,513.27,810.6,513.28c0.1,0.08,0.17,0.11,0.17,0.26
		C810.72,513.45,810.66,513.36,810.6,513.28z M825.35,517.74c0.12-0.46,0.7-0.76,0.65-1.15c-0.46,0.5-0.91,0.7-1.59,0.59
		C824.57,517.64,825.28,517.18,825.35,517.74z M824.97,528.63c-0.25-0.25-0.24-0.9-0.46-1.14c-0.08,1.59,1.89,2.35,1.96,4.01
		c0.36-0.18,1.45,1.98,1.7,2.44c0.17,0.31,0.44,1.26,0.69,1.45c0.51,0.38,1.03,0.76,1.54,1.15c0.15-1.14-0.6-2.07-1.16-2.98
		c-0.23-0.38-0.71-0.36-0.92-0.71c-0.25-0.42-0.04-0.74-0.2-1.15c-0.4-0.99-1.68-2.03-2.37-2.86
		C825.53,528.56,825.32,528.97,824.97,528.63z M834.17,519.85c-0.25-0.61-0.64-0.12-1.09,0.07c0.04-0.31-2.53-2.86-0.44-2.61
		c-0.06-1.22-0.33-1.17-1.41-0.71c-0.49,0.21-0.83,0.81-0.89,1.33c-0.03,0.3,0.45,0.2,0.45,0.75c0,0.58,0.2,0.66,0.63,1.07
		c0.43,0.42,1.12,0.78,1.11,1.46c-0.75-0.35-1,0.63-0.5,1c0.38,0.28,1.28,1.05,1.81,0.61c-0.03,0.03,0.23-1.17,0.25-1.11
		c-0.08-0.23-0.69-0.29-0.76-0.52C832.94,519.9,834.19,520.82,834.17,519.85z M821.71,519.63c0.44,2.06,1.96,0.34,3.32,0.38
		c0.47,0.28,3.32,1.05,2.45-0.09c-0.64-0.83-1.99-0.7-2.23-1.8c-0.68,0.01-0.6,0.89-1.37,0.59c-0.49-0.19-0.62-0.96-0.23-1.27
		c-0.5-0.48-1.38,0.22-1.2,0.76C822.64,518.76,821.58,519.01,821.71,519.63z M773.37,517.17c0.18-0.11,0.42-0.29,0.54-0.37
		C773.73,516.92,773.55,517.05,773.37,517.17z M845.98,534.55c-0.57,28.8-24.08,51.98-53.02,51.98c-29.3,0-53.04-23.75-53.04-53.04
		c0-11.4,3.61-21.95,9.73-30.6c0.03,0.13,0.09,0.24,0.2,0.33c0.73,0.58,0.61-1.38,0.7-1.52c0.03,1.06,0.05,2.12,0.08,3.18
		c0.01,0.34-0.02,0.55,0.02,0.88c0.06,0.5,0.48,0.64,0.54,1.09c0.1,0.73-0.6,1.64,0.06,2.23c0.71,0.64,1.55,1.3,1.05,2.38
		c-0.15-0.07-0.36-0.21-0.48-0.33c1.33-0.05-0.59-2.71-1.47-2.02c0.69,0.6,0.55,1.45,1.26,1.99c-0.56,0.01-2.06,4.38-2.35,5.04
		c-0.73,1.64-0.06,3.5,0.18,5.26c0.04,0.29,0.4,0.35,0.64,0.47c0.31,0.16,0.19,0.98,0.26,1.3c0.17,0.84,0.54,1.78,0.82,2.64
		c0.13,0.42-0.34,0.2-0.31,0.61c0.05,0.77,0.51,0.51,0.8,1.11c0.15,0.31-0.2,0.91,0.07,1.17c0.4,0.38,0.81,0.77,1.21,1.15
		c-0.2-1.35-0.34-2.69-0.74-4c-0.23-0.74-0.25-1.1-0.16-1.88c0.03-0.25,0.28-0.07,0.34,0.07c0.14,0.33-0.02,0.77-0.07,1.11
		c-0.15,0.99,1.59,3.23,2.05,4.12c0.34,0.65,0.35,0.93,0.35,1.69c0,0.87,0.4,1.14,0.98,1.82c0.52,0.62,2.38,2.63,3.29,2.1
		c0.97-0.57,1.03-0.13,1.88,0.54c0.38,0.3,0.89,0.7,1.31,0.95c0.37,0.22,1.08,0.36,1.36,0.67c0.33,0.38,0.16,1.17,0.43,1.42
		c1.07,1,1.63,1.35,3.09,1.6c-0.13-0.93,0.74-1.19,1.19-0.44c0.33,0.55,0.17,1.66-0.06,2.23c-0.44,1.09-0.54,1.5-1.52,2.11
		c-0.49,0.3-0.3,1.51,0.15,1.73c-1.11,1.03-0.49,1.69,0.2,2.93c0.68,1.24,1.39,3.58,2.61,4.36c1.05,0.68,2.91,1.21,2.97,2.56
		c0.09,2.15,0.19,4.29,0.28,6.44c0.09,2.02,0.18,4.03,0.27,6.05c0.03,0.68-0.01,0.64,0.62,1c0.65,0.37,0.25,1.7,0.22,2.39
		c-0.02,0.55-1.33,0.58-0.33,1.32c0.74,0.54,0.9,0.73,0.25,1.57c-0.63,0.81,2.31,3.01,2.89,3.34c-0.05-0.87,0.39-1.23,0.88-1.8
		c-0.97-0.65-0.17-1.3,0.24-2.08c0.19-0.37,0.32-0.79,0.48-1.17c0.13-0.32-0.77-0.54-0.85-0.82c-0.23-0.79,0.83-1.77,0.57-2.69
		c-0.2-0.71,0.28-0.61,0.92-0.85c0.27-0.1-0.04-0.96-0.08-1.22c0.99,0.13,1.39-0.33,1.83-1.1c0.6-1.04,0.27-1.06-0.5-1.99
		c0.46,0.13,0.98,0.49,1.34,0.13c0.47-0.47,1.08-0.93,1.47-1.48c0.76-1.04,1.15-2.25,1.18-3.54c0.02-0.96,1.55-1.94,2.5-1.94
		c1.46,0,1.79-1.56,1.86-2.83c0.04-0.63,0.15-1.31,0.11-1.94c-0.06-0.91-0.59-0.54,0.22-1.28c0.44-0.4,1.4-0.97,1.66-1.51
		c0.24-0.51,0.06-1.6,0.08-2.17c0.05-1.2-5.95-2.67-6.9-2.97c-0.53-0.05-1.06-0.1-1.59-0.16c0.36-0.76,0.4-1.01,0.32-1.85
		c-0.07-0.81-0.29-0.63-0.91-1.02c-0.74-0.46-0.83-0.58-1.61-0.66c-0.56-0.06-0.47,0.44-1.02-0.06c-1.02-0.93-2.01-1.57-2.87-2.64
		c-0.18-0.23-1.27,0.2-1.7,0.09c-0.91-0.25-1.11-0.38-1.72-1.09c-0.46,0.48-0.93,0.81-0.87,1.55c-1.07-0.16-0.03-1.33,0.26-1.73
		c-0.94-0.36-1.97,1.02-2.61,1.55c-0.51,0.42-0.47,0.51-1.1,0.25c-0.83-0.34-0.55-0.1-1.3,0c-0.84,0.11-1.26,0.27-1.72-0.67
		c-0.1-0.21,0.53-2.29,0.55-2.3c-0.36-0.42-0.57-0.94-1.14-0.92c-0.63,0.02-1.37,0.26-1.71-0.29c0.33-0.55,2.49-3.66,0.69-3.25
		c-1.32,0.3-1.55,0.17-1.99,1.44c-0.19,0.56-2.03,0.18-2.17-0.28c-0.6-1.91-0.35-3.22,0.57-4.95c0.19-0.36,1.54-1.42,1.93-1.46
		c0.28-0.03,0.88,0.41,1.14,0.53c0.37,0.17,0.93,0.11,1.34,0.15c-0.28-1.16,1.36-0.67,2.08-0.66c1.02,0.02,0.26,1.81,0.27,2.18
		c0.02,0.8,0.76,1.95,1.41,0.94c0.36-0.56,0.66-0.71,0.34-1.3c-0.17-0.31-0.35-0.86-0.34-1.2c0.03-1.05,0.87-1.59,1.57-2.2
		c0.56-0.48,2.17-0.8,2.09-1.35c-0.19-1.38,0.45-1.67,1.41-2.7c0.6-0.64,1.56-0.57,2.41-0.71c-0.28-1.06-0.45-1.06,0.5-1.6
		c0.59-0.33,1.14-0.72,1.81-0.88c-1.19,0.72-0.01,1.98,0.7,0.94c0.35-0.51,0.66-0.39,1.29-0.42c0.34-0.02,0.69-1.07,0.85-1.37
		c-0.88-0.26-1.77,1.4-1.86-0.45c-0.02-0.49,0.51-0.97,0.17-1.38c-0.33-0.4-1.32,0.02-1.82,0.14c1.25-0.97,1.73-0.86,3.25-0.52
		c0.79,0.18,0.83-0.11,1.4-0.71c0.36-0.39,1.4-0.43,1.9-0.56c1-0.25-1.45-2.96-1.58-3.11c-0.54-0.65-0.44-2.64-0.57-3.49
		c-0.39,0.26-1.45,1.29-1.88,1.27c-1.12-0.05-0.1-1.13-0.18-1.63c-0.15-0.98-2.65-2.78-3.2-1.71c-0.43,0.84-0.86,1.68-1.29,2.53
		c-0.26,0.5,0.09,1.25-0.17,1.76c-0.1,0.2-0.26,0.75-0.45,0.87c-0.25,0.16-0.99-0.16-1.19,0.05c-0.4,0.43,0.12,1.64-0.32,2.22
		c-1.34,1.77-0.17-2.39-0.51-2.54c-1.59-0.69-2.88-1.26-3.56-2.96c-0.26-0.67-1.39-0.19-0.64-1.19c0.45-0.61,0.86-1.35,1.46-1.81
		c0.71-0.55,1.17-0.99,2.04-1.19c0.67-0.15,1.57-0.69,1.08-1.52c0.41-0.09,1.28-0.47,1.66-0.28c0.93,0.45,0.96,0.38,1.88-0.13
		c0.39-0.21,0.44-1.55,0.53-1.99c0.07-0.3-0.88-1.04-1.13-1.3c0.7,0.11,1.27,0.32,2.11,0.73c0.84,0.41,0.92,1.78,2.09,1.39
		c-0.19,1.01-1.42,4.04-2.79,2.3c-0.95,1.28-0.2,2.19,1.21,1.3c0.17,0.44,0.37,1.59,0.77,1.84c0.24,0.16,1.83,1.32,1.94,1.17
		c0.2-0.26,1.44-1.53,1.29-1.77c-0.37-0.6-1.47-1.61-0.57-2.14c0.28,0.47,0.56,0.94,0.84,1.42c0.35-0.31,1.65-1.09,1.73-1.52
		c0.22-1.09-0.98-0.61-1.42-0.48c-0.51-1.41-0.78-1.66-0.01-2.93c0.14-0.23-0.9-1.1-1.08-1.29c-0.47-0.5-0.58-0.41-1.13,0.09
		c-0.45-0.97-0.37-1.59-1.47-1.45c-1.21,0.16-0.95-0.81-1.18-1.9c-0.46,0.32-0.92,0.64-1.38,0.96c-0.44,0.3,0.23,1.28-0.64,1.08
		c-0.1-0.93,0.65-1.66,1.14-2.38c-0.88-0.08-1.89-0.18-2.48,0.62c-0.31,0.42-0.64,2.82-0.15,2.84c0.45,0.02,0.82,0.05,1.16,0.11
		c-0.39,0.61-0.92,2.21-1.79,1.77c0.17-0.29,0.78-0.96,0.45-1.16c-0.5-0.3-0.74-0.27-1.12,0.28c-0.04-1.48,0.49-4.07-1.61-3.01
		c-1,0.5,0.01,1.11-0.02,1.75c-0.05,0.98-0.61,1.03-1.07,1.82c-0.05-0.46,0.28-0.82,0.51-1.23c0.27-0.48,0.04-0.76-0.16-1.28
		c-0.3,0.19-0.6,0.37-0.91,0.56c-0.31,0.19,0.03,0.71-0.15,0.97c-0.49,0.69-0.97,0.35-1.64,0.03c-0.33-0.16-1.41-1.3-1.44-1.3
		c-1.12,0.3-0.95,0.43-1.07,1.58c-0.47-0.08-0.33-0.37-0.35-0.83c-0.02-0.31-0.97-0.34-1.24-0.39c-1.14-0.23-1.06-0.23-0.45-1.21
		c-0.71-0.43-1.19-0.75-1.72-1.37c-0.55-0.64-0.93-1.48-1.9-1.3c0.14,0.48-0.35,0.98-0.39,0.62c-0.03-0.28-0.07-0.56-0.1-0.84
		c0.47-0.38,0.95-0.76,1.43-1.12c0.01,0.26,0.13,0.58,0.29,1.12c0.34-0.09,0.95-0.13,1.22-0.33c0.29-0.21,0.35-0.81,0.7-0.94
		c1.05-0.39,1.8-0.55,2.91-0.62c-0.51-0.56-0.94-1.57-1.62-1.05c-0.35,0.26-0.35-0.07-0.46-0.27c8.28-5.34,18.13-8.45,28.71-8.45
		c16,0,30.33,7.09,40.06,18.29c-0.29-0.04-0.58-0.08-0.85-0.13c-0.55-0.1-0.19,0.49-0.54,0.74c-0.4,0.28-1.09,0.39-1.55,0.56
		c-0.24,0.09-0.26-0.51-0.43-0.42c-0.51,0.28-1.02,0.56-1.52,0.84c-0.24,0.13-0.94,0.35-0.96,0.66c-0.03,0.52,0.05,0.91-0.64,0.81
		c0.72-1.29-0.56-1.9-1.63-1.3c0.3,0.58,0.95,1.39,0.93,2.05c-0.25-0.17-0.47-0.06-0.71-0.31c-0.42,0.45-1.16,0.85-0.54,1.44
		c-0.54-0.02-1.07-0.03-1.61-0.05c0.17,0.22,0.73,0.69,0.55,0.97c-0.2,0.3-1.1-0.2-1.23-0.38c-0.21-0.27,0.08-1.09-0.27-1.23
		c-0.43-0.16-0.77-0.17-0.89-0.56c0.73,0.15,4.5,1.17,3.44-0.76c-0.64-1.15-2.99-1.69-4.2-1.39c-0.1-0.15-0.22-0.48-0.24-0.64
		c0.66-0.35-0.24-0.63-0.77-0.68c-0.63-0.05-1.54-0.08-1.56,0.68c-0.18-0.31-0.39-0.4-0.76-0.39c-0.55,0.03-0.45,0.34-0.61,0.76
		c-0.06-0.12-0.12-0.25-0.19-0.37c-0.52,0.42-1.05,0.84-1.57,1.27c0.08,0.09,0.16,0.18,0.25,0.28c-0.75,0.22-1.28,1.79-1.54,2.47
		c-0.1,0.26-0.85,0.41-0.2,0.74c0.51,0.26-0.32,0.47-0.64,0c-0.34,0.45-0.74,1.08-1.06,1.4c-0.37,0.37-0.58-0.09-0.78,0.52
		c-0.12,0.38-0.22,0.61-0.18,1c0.09,0.67,0.07,1.69,0.58,2.2c0.66,0.67,1.62-0.48,1.95-1.03c0.02,0.91,0.35,1.12,0.88,1.93
		c0.16,0.25,0.07,1.05,0.28,1.18c0.61,0.38,0.63-0.52,0.96-0.64c0.73-0.25,0.69-0.2,0.67-0.98c-0.02-0.83,0.14-0.68,0.55-1.3
		c0.86-1.3-1.16-1.25-0.34-2.63c0.27-0.45,0.52-0.33,0.82-0.75c0.16-0.23,0.44-1.24,0.53-1.31c1.1-0.77,1.59-0.29,0.69,0.7
		c-0.54,0.59-1.56,1.93-0.55,2.68c0.71,0.53,0.74,0.75,1.53,0.37c0.52-0.25,0.93-0.38,1.52-0.42c0.03,0.44-0.05,0.32,0.34,0.64
		c-0.55,0.36-1.29-0.11-1.81,0.2c-1.3,0.79,0.12,0.87-0.12,1.99c-0.11,0-0.22,0.01-0.34,0.01c0.02-0.86-1.09-0.6-1.35,0.09
		c-0.15,0.42,0.73,1.71-0.41,1.7c0.06-0.13,0.13-0.26,0.19-0.39c-0.36,0.01-0.67,0.1-1.02,0.21c-0.34,0.11-0.88,0.72-1.13,0.74
		c-0.32,0.03-0.55-0.64-1.04-0.43c-0.39,0.17-0.63,0.25-0.91-0.15c-0.39-0.54,0.94-1.91-0.01-2.34c-0.83-0.38-1.22,1.3-1.01,1.85
		c0.39,1.01,0.2,0.86-0.53,1.22c-0.46,0.23-0.68,0.4-0.85,0.6c-0.02-0.02-0.03-0.03-0.05-0.05c0.01,0.02,0.03,0.04,0.04,0.06
		c-0.2,0.23-0.34,0.5-0.72,0.93c-0.19,0.21-1.15,1.32-1.47,1.34c-0.36,0.02-0.62-0.54-0.82,0.09c-0.14,0.45-0.88,0.27-1.31,0.28
		c-0.1,1.17,2.55,1.2,1.71,2.68c-0.53,0.92-0.71,0.74-1.78,0.74c-0.42,0-1.7-0.33-1.86,0.02c-0.27,0.57-0.1,0.95-0.14,1.55
		c-0.03,0.39-0.44,1.53-0.41,1.72c0.11,0.59,0.08,0.86,0.46,1.14c0.08,0.06,1.69,0.25,1.89,0.26c1.4,0.09,2.48-0.72,2.51-2.09
		c0.01-0.51,0.99-0.88,1.26-1.28c0.19-0.28,0.25-1.62,1.05-0.88c0.63,0.58,0.97-0.45,1.32-0.5c0.83-0.11,1.01,0.4,1.52,1
		c0.61,0.7,0.9,0.52,1.59,1.01c0.67,0.47,0.57,1.08,0.66,1.84c0.59-0.18,0.86-0.83,0.75-1.4c1.43,0-0.93-1.24-1.28-1.58
		c-0.33-0.32-2.08-2.03-0.73-2.01c-0.43,1.01,0.55,0.42,0.68,0.89c0.17,0.61,1.15,1.3,1.71,1.03c0.29,0.18,0.51,0.38,0.51,0.78
		c0,0.41,0.03,0.91,0.45,0.98c-0.09,0.56,0.68,0.71,1.14,0.9c-1.23-0.08-0.36,1.22,0.51,1.25c-0.13-0.71,0.59-0.99,0.17-1.49
		c-0.12-0.14-1.08-1.5-0.37-0.94c0.25,0.2,0.84-0.36,1.36-0.36c0.34,0,0.73-0.12,1.07-0.31c-0.1,0.83-1.16,0.01-1.53,0.9
		c-0.03,0.07,0.22,1.32,0.28,1.42c0.91-0.42,0.23,0.44,0.66,0.79c0.48,0.39,1.9,0.25,1.86-0.46c0.91,0.37,1.42,0.66,2.29,0.06
		c-0.15,0.71-0.09,2.89-1.13,2.89c-0.3,0-0.49-0.25-0.8-0.25c-0.42,0-0.65,0.42-1.12,0.45c-0.46,0.03-1.92-0.24-2.4-0.42
		c-0.48-0.18-0.16-0.54-0.79-0.54c-0.66,0-0.75,0.01-1.25,0.43c-0.19,0.16,0.6,1.6-0.45,1.12c-0.88-0.4-1.42-1.12-2.26-1.37
		c-0.38-0.11-0.78-0.2-1.13-0.33c-0.68-0.24-0.36-0.17-0.36-0.73c0-0.25,0.02-1.47-0.1-1.55c-0.44-0.29-0.58-0.11-1.08,0.09
		c-0.56,0.23-0.64-0.09-1.21-0.1c-0.94-0.03-2.05,0.39-2.98,0.56c-0.4,0.07-0.59,0.48-0.95,0.61c-0.43,0.15-1.19,0-1.65,0
		c-0.85,0-1.01,0.94-1.87,1.35c-0.7,0.33-0.43,1.91-1.19,2.37c-0.98,0.59-1.28,0.83-1.86,1.78c-0.49,0.8-0.99,2.04-1.67,2.63
		c0.05,0.03,0.06,0.07,0.01,0.11c0.92,0.49,0.44,2.14,0.38,2.96c-0.05,0.67-0.12,0.64,0.07,1.25c0.06,0.18,0.22,0.73,0.37,1.04
		c0.38,0.76,0.88,1.45,1.52,2.06c0.82,0.79,2.05,1.31,2.78,2.14c0.55-0.38,1.21-0.98,1.99-0.81c1.17,0.25,1.17,0.28,2.23-0.22
		c0.45-0.21,1.61-0.79,2.05-0.3c0.43,0.48,0.65,0.85,1.27,0.99c0.45,0.11,0.73-0.56,1.18,0.03c-1.84-0.13,0.9,1.67,0.03,0.02
		c0.41,0.4,0.25,1.29,0,1.77c-0.22,0.43-0.68,0.86-0.33,1.24c0.45,0.49,0.97,0.96,1.37,1.5c0.6,0.82,1.21,2.42,1.19,3.57
		c-0.01,0.62-0.26,0.76-0.69,1.22c-0.34,0.37-0.28,0.74-0.32,1.25c-0.09,1.07-0.05,1.72,0.58,2.65c0.67,0.99,0.09,1.42,0.48,2.4
		c0.41,1.04,0.83,2.06,1.19,3.11c0.13,0.38,0.84,0.8,0.87,1.08c0.06,0.48-0.68,0.36-0.4,0.98c0.27,0.61,0.3,0.63,0.92,0.87
		c0.64,0.24,0.59-0.48,1.14-0.47c1.1,0.01,1.8-0.13,2.79-0.31c0.81-0.14,1.96-1.84,2.54-2.42c0.2-0.19,0.63-0.47,0.63-0.77
		c0-0.26-0.13-1.05-0.02-1.23c0.22-0.36,0.98-0.39,1.22-0.74c0.22-0.32,0.21-1.06,0.21-1.45c0-1.57,0.32-1.62,1.55-2.63
		c0.5-0.41,1.8-0.73,1.73-1.63c-0.05-0.66,0.05-1.68-0.23-2.21c-0.44-0.86-1.05-1.79-0.68-2.81c0.6-1.64,2.12-2.84,3.35-4.16
		c1.46-1.56,2.73-2.76,2.83-5.03c0.04-0.9-4.97,2.03-4.21-0.56c0.56,0.47,2.56-0.76,3.21-1.03c0.53-0.22,1.06-0.43,1.59-0.65
		c0.13-0.05-0.02-0.5,0.08-0.55c0.26-0.13,0.7,0.1,0.96-0.03c0.5-0.27,2.03-2.62,2.03-3.18c0-1.2-2.52-0.87-1.78-2.46
		c-0.48,0.06-0.78,0.18-1.04,0.56c-0.45,0.68-0.53,0.62-1.35,0.66c0.04-0.37,0.25-0.9-0.07-1.13c-0.5-0.36-0.77,0.4-0.71,0.82
		c-0.38-0.53-1.08-1.19-1.29-1.8c-0.13-0.38-0.26-1.47,0.59-1.07c0.4,0.19,0.37,0.37,0.39,0.77c0.01,0.34,0.52,0.48,0.79,0.64
		c0.7,0.42,1.42,1.03,2.15,0.38c0.45-0.41,0.75,0.55,1.34,0.63c0.87,0.12,1.55,0.21,2.36,0.15c0.42-0.03,1.25-0.39,1.63-0.06
		c0.69,0.59,1.13,1.3,2.06,1c-0.14,0.12-0.3,0.35-0.6,0.46c0.46,0.87,1.44,1.68,1.92,0.32c0.29-0.82,0.1,1.6,0.13,1.67
		C845.53,533.61,845.75,534.08,845.98,534.55z M824.55,525.03c0.28-0.27,0.57-0.54,0.85-0.8c-0.42-0.51-0.87,0-1.41,0.04
		C823.46,524.29,823.98,525.1,824.55,525.03z M819.83,524.44c0.4,0.46,0.82,0.37,1.41,0.35C821.98,523.99,820.01,524,819.83,524.44z
		 M815.81,524.19c-0.11-0.4-0.69,0-0.55,0.49C815.82,524.9,815.96,524.73,815.81,524.19z M814.39,523.15
		c0.12,0.26,1.11,0.59,1.4,0.64c-0.01-0.52,0.18-1.04-0.38-1.25C814.98,522.61,814.08,522.5,814.39,523.15z M813.18,520.24
		c0-0.2-0.09-0.43-0.13-0.63C811.78,520.45,813.28,521.39,813.18,520.24z M812.38,522.35c0.72,0.32,1.36-0.86,0.87-1.31
		C812.33,520.18,812.35,522,812.38,522.35z M810.48,521.88C809.05,520.77,809.66,523.33,810.48,521.88L810.48,521.88z
		 M818.54,509.12c-0.19-0.27-0.73-0.48-0.87,0C817.53,509.6,818.37,509.45,818.54,509.12z M816.52,510.42
		c0.51-0.27,0.63-0.71,0.3-1.19C816.22,509.49,816.12,509.91,816.52,510.42z M813.91,511.85
		C814.54,509.93,811.77,512.4,813.91,511.85L813.91,511.85z M829.04,498.05c0.32,0,0.85,0.96,1.2,0.29
		c0.44-0.84-0.34-0.63-0.55-1.37c-0.29-1.01-0.31-0.93-1.36-1.04c0.15,0.52,0.17,1.03-0.47,1.04
		C827.71,497.86,828.34,498.04,829.04,498.05z M815.97,493.01c-1,0.42,0.23,1.32,0.87,0.64
		C817.52,492.94,816.49,492.18,815.97,493.01z M813.55,493.21c0.06-0.23,0.27-0.47,0.39-0.68c0.06,0.04,0.11,0.08,0.17,0.12
		c-0.4,0.69-0.47,1.35,0.08,1.97c0.38-0.64,0.74-1.24,1.21-1.82c0.37-0.44,0.58-0.45,0.14-0.84c-0.04-0.04-0.19-0.15-0.36-0.27
		c0.1,0.01,0.23,0,0.38-0.05c0.61,0.82,1.29,0.69,2.01,0.07c0.95-0.82-0.26-1.72-0.77-1.03c-0.35-0.46-0.7-0.32-0.83,0.25
		c-0.66-1.31-1.42-0.1-1.18,0.49c-0.09-0.06-0.16-0.11-0.18-0.11c-0.2-0.02-2.1,0.57-2.07,0.48
		C812.36,492.48,812.57,493.45,813.55,493.21z M776.06,502.33c-0.67-0.65-1.33-1.3-2-1.95c-0.3,0.38-0.59,0.75-0.89,1.13
		c-0.02,0.44-0.04,0.89-0.06,1.33c0.53-0.32,0.93-0.65,1.59-0.52C775.65,502.51,775,503.19,776.06,502.33z M770.23,530.32
		c0.03,0.35,0.17,0.66,0.42,0.91C771.27,530.83,770.91,530.18,770.23,530.32z M769.16,528.43c0.48,0.23,0.39,0.46,0.9,0.62
		c-0.81,0.32,0.12,1.1,0.65,1.19c0.06-0.52-0.25-0.68-0.46-1.11c-0.18-0.36,0.37-0.69-0.25-0.94
		C769.64,527.97,769.37,528.07,769.16,528.43z M768.85,529.88c0.37,0.34,0.5,0.67,0.82,1.1c0.34-0.28,0.34-0.65,0.09-1.01
		c-0.13,0.07-0.26,0.14-0.39,0.22c0.43-0.43,0.02-0.9-0.49-0.97C768.87,529.42,768.81,529.67,768.85,529.88z M769.66,533.48
		c-0.36-0.43-1.44-0.59-1.38,0.14C768.74,534.05,769.38,534.13,769.66,533.48z M770.44,532.6c0.17-0.11,0.31-0.32,0.46-0.46
		c-1.03-0.49-1.99-1.11-2.97-1.68c-0.36-0.21-0.94-0.13-1.31-0.01c-0.09,0.03-1.65,0.78-0.89,0.8c1.11,0.02,1.9-0.34,2.83,0.5
		c0.28,0.25,0.19,0.97,0.4,1.03C769.57,532.92,769.88,532.97,770.44,532.6z M770.77,532.79c0.3,0.12,0.35,0.34,0.49,0.42
		c-0.25-0.05-0.54,0.12-0.79,0.07c0.03,0.17,0.03,0.4,0.1,0.56c0.42,0.21,1.26-0.38,1.53,0.37c0.32-0.52,0.94-0.6,1.49-0.37
		C774.07,532.87,771.39,531.72,770.77,532.79z M773.94,533.53c0.11,0.13,0.21,0.25,0.32,0.38c0.25,0.1,0.58,0.09,0.85,0.12
		C775.4,533.17,774.44,532.99,773.94,533.53z M776.32,534.12c-0.17,0.3-0.13,0.6,0.17,0.85c0.13-0.12,0.34-0.23,0.43-0.38
		c-0.11-0.23-0.32-0.45-0.47-0.67c-0.04,0.04-0.07,0.09-0.1,0.13c-0.09-0.1-0.19-0.23-0.3-0.3c-0.47,0.08-0.55,0.31-0.27,0.7
		C775.94,534.4,776.18,534.25,776.32,534.12z M776.81,537.89c-0.5,0.23-0.23,0.69,0.26,0.97
		C777.44,538.43,777.56,537.24,776.81,537.89z M777.13,536.49c0.15-0.08,0.3-0.16,0.45-0.24c-0.17-0.17-0.33-0.41-0.53-0.54
		c0.13-0.04,0.27-0.08,0.4-0.12c-0.06-0.2-0.24-0.52-0.39-0.67c-0.43,0.23-0.3,1.21-0.07,1.51c-0.41,0.29-0.3,0.24-0.12,0.67
		c-1.3-0.02,0.63,1.11,0.14,0.08c0.16-0.05,0.3-0.2,0.46-0.26C777.32,536.81,777.27,536.6,777.13,536.49z M784.28,514.77
		c-1.82,0.23,0.15-0.78-0.72-1.69c-0.39,0.37-2.09,1.55-2.12,2.03c-0.06,0.89,1.98,1.21,2.56,1.43
		C784.83,516.84,784.68,514.72,784.28,514.77z M749.66,506.67c-0.5,0.21-0.2,0.93,0.19,1.22c0.58-0.39-0.07-1.28,0.58-1.94
		C750.03,504.58,748.92,506.02,749.66,506.67z M760.95,543.74c0,0.2-0.66,1.56-0.02,1.3C761.65,544.77,761.68,544.1,760.95,543.74z
		 M773.77,569.28c-0.09-0.14-0.27-0.25-0.4-0.36C772.64,569.62,773.49,571.14,773.77,569.28z M780.15,577.59
		c-0.65-0.13-1.36-0.15-1.86-0.62c-0.22-0.32-0.5-0.64-0.75-0.95c-0.31,0.69-0.63,1.38-0.94,2.07
		C778.1,578.25,778.85,578.45,780.15,577.59z M781.16,576.01c0.29-0.31,0.59-0.62,0.88-0.93c-0.25-0.03-0.54-0.11-0.78-0.09
		c-0.23,0.07-0.44,0.3-0.64,0.43C780.71,575.6,781,575.9,781.16,576.01z M782.95,575.25c-0.17-0.18-0.53-0.43-0.77-0.52
		c-0.06,0.2-0.19,0.43-0.2,0.64c-0.36,0.17-0.52,0.43-0.41,0.78C782.15,575.94,782.65,575.83,782.95,575.25z M801.86,528.13
		c-0.28,0.16-0.56,0.32-0.84,0.48c0.12,0.12,0.24,0.3,0.39,0.39C801.56,528.72,801.71,528.43,801.86,528.13z M805.59,511.05
		c0.15-0.01,0.3-0.02,0.45-0.04c0.02,0.21-0.02,0.44-0.03,0.65c-0.32-0.5-0.7-0.07-1.07-0.16c0.18,0.04-1.03,0.93-1.02,0.75
		c0,0.07,0.14,0.87,0.13,0.88c-0.06,0.16-0.7,0.29-0.71,0.45c-0.02,0.55,0.54,0.83,1.05,0.64c0.57-0.21,1.44-0.28,1.54-0.92
		c0.05-0.31,0.04-1.15,0.34-1.29c0.75-0.35,0.85,0.83,0.55,0.87c-0.52,0.06-0.68,0.95-1.02,1.46c0.27-0.01,0.55,0.1,0.82,0.08
		c-0.44,0.26-0.89,0.51-1.33,0.77c0.71,0.65,1.37,0.08,2.1-0.25c0.69-0.31,1.34,0.39,1.83-0.58c-0.09-0.05-0.19-0.11-0.28-0.16
		c1.19-0.55-0.31-1.14-0.47-1.51c-0.2-0.45-0.4-0.89-0.63-1.33c-0.19-0.37,0.02-0.83-0.05-1.03c-0.09-0.28,0.21-0.52-0.2-0.52
		c-0.12,0-0.53,0.07-0.62-0.07c-0.08-0.13,0.75-0.78-0.04-0.9C806.05,508.71,805.72,510.6,805.59,511.05z M775.47,486.13
		c0.06,0.93,0.31,0.69,1.21,0.69c0.45,0.51-0.49,0.38-0.91,0.44c1.12,1.52,1.67,1.43,3.35,0.69c-0.5-0.76-1-1.51-1.5-2.27
		c-0.07-0.11-0.39-0.76-0.52-0.79c-0.4-0.09-0.75,0.54-0.71,0.85C776,485.44,775.43,485.58,775.47,486.13z M774.15,486.89
		c0.41,0.25,0.5,0.6,0.16,0.94c0.02,0.24,0.18,0.5,0.26,0.73c0.51-0.28,1.21-0.41,1.08-1.09
		C775.51,486.74,774.68,486.71,774.15,486.89z M771.96,487.3c0.79-0.31,1.05,0.03,1.62,0.53c1.2,0.14-0.14-1.48-0.39-1.77
		C772.5,485.27,771.85,486.73,771.96,487.3z M769.66,486.83c0.74,0.35,0.83,0.51,1.52,0.1c0.7-0.41-0.86-0.64-1.01-0.67
		c0.42-0.03,0.84-0.05,1.25-0.08c0.03-0.6-0.54-0.78-1.07-0.59C769.61,485.86,770,486.18,769.66,486.83z M769.74,494.71
		c-0.19-0.61-0.66-0.14-0.65-0.97c0.02-1.13,0.34-1.94-0.69-2.59c-0.2,0.27-0.4,0.54-0.61,0.82c-1.17-1.01-1.7-1.82-3.3-1
		c-0.84,0.44-0.97,0.86-0.89,1.7c0.04,0.37,1.23,0.53,1.59,0.63c-0.02,0.16-0.15,0.43-0.25,0.56c-0.39-0.24-0.78-0.49-1.17-0.73
		c-0.72,1.36,0.4,0.57,0.36,1.53c-0.05,1.02,0.31,0.85,1.26,1.11c0.59-0.03,1.45,0.17,1.71-0.44c0.21,0.23,0.71,1.05,0.99,1.12
		c0.6,0.13,1.07-0.46,0.99-0.99c0.14,0.16,0.39,0.22,0.54,0.38C769.66,495.53,769.83,495,769.74,494.71z M770.47,488.62
		c-0.16,0.11-0.39,0.09-0.55,0.2c-0.14-0.45-0.01-0.9,0.32-1.24c-1.29-0.24-1.02,1.27-1.57,1.23c-0.03,0-0.7-1.04-0.94-1.23
		c-0.58-0.46-1.09,0.03-1.74,0.31c-0.21,0.86,0.88,0.92,1.51,1.16c-0.39,0.3-0.29,0.68,0.01,1.06c0.85-0.38,1.9-1,2.31,0.24
		C770.44,489.73,770.88,489.52,770.47,488.62z M772.73,492.09c-0.49-0.59-1.64-0.78-1.73,0.21c-0.39-0.33-0.72-0.18-0.9,0.29
		c0.48,0.77,0.6,1.08,0.65,1.99c0.34-0.21,1.28-0.54,1.47-0.89C772.56,493.07,771.89,492.59,772.73,492.09z M773.58,489.66
		c-0.77-0.99-1.46-0.46-2.25,0.27c0.37,0.02,0.74,0.03,1.1,0.05c-0.08,0.2-0.12,0.46-0.24,0.63
		C772.57,491.91,773.82,489.97,773.58,489.66z M775.76,492.68c-1.48-0.5-3.38-1.18-2.84,1.12c0.4,0.12,0.78,0.04,0.9-0.37
		C774.39,494.23,775.3,493.07,775.76,492.68z M779.98,492.31c-0.29-0.24-0.83-0.89-1.19-0.96c-0.39-0.08-0.95,0.26-1.41,0.22
		c-1.74-0.16-0.63-0.85-1.35-1.88c-0.33-0.48-2.14-1.43-2-0.29c0.1,0.84,1.25,0.77,0.67,1.66c-0.63-0.25-1.33-0.82-1.49,0.18
		c0.61,0.22,1.24,0.73,1.5-0.15c-0.18,1.22,2.03,1.38,2.89,1.66C778.84,493.15,778.96,493.2,779.98,492.31z M780.65,495.03
		c-0.49-0.52-1.47-1.98-2.12-0.8C778.77,495.12,779.91,494.94,780.65,495.03z M786.65,487.87c-0.37-0.1-0.74-0.21-1.12-0.31
		c0.78-0.38,2.02,0.38,2.53-0.64c-1.49-0.53-2.99-1.06-4.48-1.6c-0.85-0.3-1.39,0.69-1.92,0.25c-0.45-0.37-1.84-1.43-1.68-0.06
		c-0.59-0.76-0.93-0.5-1.74-0.24c0.04,0.86,0.88,0.78,1.53,0.92c-0.67,1.57,1.88,0.86,2.47,0.72c0.08,0.47-1.05,1.19-1.38,0.93
		c-0.77-0.6-0.9-0.6-1.86-0.5c0.28,0.4,0.57,0.8,0.85,1.21c-0.66,0.17-0.51-0.65-1.28-0.13c-0.44,0.3,0.36,1.25,0.94,1.08
		c-0.06,1.23-0.97-0.35-1.27-0.42c-0.27-0.06-0.67,0.03-0.67,0.3c0,0.36-0.64,0.34-0.96,0.41c0.29,0.88,1.38,1.02,2.17,1.11
		c0.48,0.05,0.71,0.26,1.12,0.55c0.29,0.2,0.88-0.31,1.17-0.46c-0.17-0.12-0.29-0.36-0.47-0.46c0.48,0.11,1.32-0.58,1.94-0.68
		c0.64-0.11-0.81-1.16-0.32-1.07C783.99,489.05,784.94,488.53,786.65,487.87z M788.44,500.03c0.36-0.64,0.1-1.45-0.65-1.13
		C787.09,499.21,787.84,500.15,788.44,500.03z M793.2,522c0.21,0.18,0.52,0.29,0.76,0.42C794.26,521.73,793.59,521.28,793.2,522z
		 M795.2,522.04c0.14-0.04,0.28-0.07,0.42-0.11c-0.33-0.45-0.73-0.66-1.13-0.17c0.32,0.18,0.31,0.31,0.66,0.29
		c-0.27,0.37-0.28,0.77,0.08,1.05C795.84,522.85,795.59,522.42,795.2,522.04z M796.79,535.51c-0.22-0.51-0.6-0.51-0.97-0.11
		C796.09,535.78,796.45,535.83,796.79,535.51z M797.14,523.19c-0.45-0.3-0.87-0.4-0.99,0.17
		C796.45,523.74,796.81,523.54,797.14,523.19z M797.2,536.7c-0.06-0.19-0.26-0.55-0.4-0.69c-0.16,0.1-0.4,0.18-0.52,0.31
		C796.46,536.82,796.78,537.07,797.2,536.7z M797.79,535.99c-0.25-0.48-0.6-0.66-0.93-0.19C797,536.35,797.38,536.35,797.79,535.99z
		 M798.11,502.06c0.87,0,0.99-0.28,1.61-0.91c0.41-0.41,1.29-0.39,1.61-0.8c0.5-0.64,0.01-1.14-0.42-1.52
		c-0.64-0.57-0.99-0.4-1.33-1.28c-0.27-0.7,1.07-0.42,1.34-0.28c0.95,0.51,0.87,0.55,1.6-0.25c-0.28-0.12-0.52-0.36-0.81-0.46
		c0.5-0.68,1-1.36,1.51-2.04c0.42-0.57-0.17-1.57-0.92-1.38c0.04-0.85,2.69-2.44,3.35-3.02c-1.1-1.19-2.75-0.96-3.87,0.16
		c0.16-0.35,0.32-0.7,0.48-1.05c-0.81-0.2-1.14-0.45-1.46,0.49c-0.51-0.76-1.41-0.39-2.16-0.31c0.3-1.02,2.6-0.6,3.45-0.62
		c-1.02-1.36-1.42-1.33-3.11-1.64c-0.61-0.11-2.92-0.56-2.47,0.6c-0.57-0.19-1.24-0.15-1.01-0.88c-0.67,0.14-1.38,0.08-1.46,0.94
		c0.3,0.1,0.6,0.21,0.89,0.31c-0.59,0.59-0.72,0.58-1.21,0.03c-0.21-0.23-0.46-0.35-0.74-0.44v0c-0.04-0.01-0.08-0.02-0.11-0.03
		c-0.2-0.05-0.4-0.1-0.61-0.16c0.01,0.58-0.06,0.83-0.59,0.83c-0.73,0-0.42-0.77-0.92-0.85c-0.74-0.11-2.85-0.61-2.7,0.79
		c-0.93-0.12-1.9-0.3-1.84,0.87c0.04,0.82-1.35,0.63-1.78,0.14c-0.83,1.36,0.09,1.62,1.4,1.47c0.01,1.08-1.63-0.23-2.01,0.72
		c0.04-0.11,0.48,1.19,0.53,1.24c0.61,0.8,0.46,0.48,1.36,0.36c1.03-0.14,1.82,0.35,2.21,1.4c0.6,1.61,0.68,1.79-0.06,3.33
		c0.57-0.1,1.63-0.45,1.53,0.51c-0.42,0.02-0.84,0.04-1.25,0.06c0.42,0.42,0.76,0.96,1.42,0.95c-1.16,1.55-2.07,2.47-1.45,4.44
		c0.1,0.3-0.28,0.57-0.18,0.87c0.14,0.42,0.21,0.98,0.44,1.36c0.36,0.61,0.92,1.27,1.64,0.85c-0.11,0.9,0.34,1.28,1.14,1.21
		c0.39-0.03,0.46-1.56,0.64-1.92c0.1-0.19,0.2-0.35,0.31-0.51c0.04-0.06,0.08-0.11,0.12-0.16c0.07-0.09,0.14-0.19,0.22-0.27
		c0.05-0.06,0.1-0.11,0.15-0.16c0.07-0.07,0.14-0.14,0.22-0.2c0.06-0.05,0.11-0.1,0.17-0.14c0.71-0.55,1.56-0.86,2.53-1.24
		c0.39-0.49,0.79-0.98,1.18-1.47C796.87,501.71,797.66,502.06,798.11,502.06z M801,497.57c-0.48-0.14-1.06,0.18-0.51,0.64
		c0.36,0.18,0.73,0.36,1.09,0.55C801.65,497.9,801.82,497.81,801,497.57z M799.4,505.65c0.66,0.06,1.23,0.52,1.88,0.44
		c0.63-0.08,1.66-0.99,1.67-1.62c0.01-0.62-0.09-0.61-0.57-1.02c-0.64-0.54-0.3,0.21-0.77,0.18c-0.32-0.02-0.29-0.34-0.66-0.31
		c-0.41,0.04-0.72,0.42-1,0.72c1.04-2.08-2.88,0.34-0.97,0.24C798.38,505.18,799.65,504.74,799.4,505.65z M800.18,525.08
		c-0.11,0.14-0.28,0.29-0.36,0.45c0.18,0.44,0.52,0.47,0.86,0.14C800.6,525.49,800.34,525.2,800.18,525.08z M799.63,528.95
		c0.07-0.15,0.13-0.3,0.2-0.45c0.13,0.41,0.45,0.61,0.86,0.5c0.02-0.63-0.32-0.81-0.86-0.5c0.04-0.09,0.08-0.18,0.12-0.27
		c-0.36-0.25-0.7-0.15-0.91,0.23C799.16,528.62,799.45,528.87,799.63,528.95z M811.53,543.7
		C811.66,544.94,812.72,543.1,811.53,543.7L811.53,543.7z M811.92,543C812.13,544.49,813.22,542.38,811.92,543L811.92,543z
		 M831.13,549.91c0.09,0.57,1.35,1.74,1.35,0.41c-0.19,0.07-0.43,0.02-0.62,0.09c0.11-0.16,0.11-0.39,0.21-0.55
		C831.76,549.88,831.45,549.9,831.13,549.91z M834.29,550.13c-0.65,0.08-1.07,1.53-1.38,2.08c-0.27,0.47-1.84-0.15-1.79,0.97
		c0.03,0.53,0.05,1.07,0.08,1.6c0.02,0.37-0.6,0.61-0.72,0.94c-0.2,0.56,0.07,2.08,0.78,2.32c1.01,0.34,1.65-0.66,1.5-1.44
		c-0.12-0.61,1.03-1.96,1.34-2.49c0.19-0.33,0.43-0.48,0.17-0.77c-0.56-0.6,0.45-0.59,0.45-0.6
		C835.07,552.02,834.57,550.87,834.29,550.13z M836.89,546.21c0.13,0.47,0.47,0.7,0.94,0.57c-0.13-0.33-0.25-0.65-0.38-0.98
		C837.28,545.93,837.03,546.05,836.89,546.21z M836.68,537c-0.38-0.68-1-0.23-1.61-0.21C835.61,537.78,835.89,537.24,836.68,537z
		 M836.45,547.86c-0.21-0.11-0.45-0.31-0.68-0.36C835.3,548.03,836.08,548.62,836.45,547.86z M837.22,556.04
		c-0.22-0.38-0.59-0.52-1.01-0.38C835.91,556.48,836.75,556.41,837.22,556.04z M837.4,547.58c0.17,0.03,0.33,0.06,0.5,0.09
		C838.34,546.32,836.75,546.97,837.4,547.58z M838.35,555.41c-0.11-0.16-0.41-0.38-0.59-0.46c-0.12,0.16-0.31,0.33-0.39,0.51
		c-0.02,0.21,0.06,0.46,0.09,0.67C837.76,555.89,838.06,555.65,838.35,555.41z"/>
</g>
<path class="st2" d="M933.96,106.07C933.96,106.07,933.96,106.06,933.96,106.07c-2.31-9.37-6.95-17.81-13.26-24.68
	c-0.07-0.08-0.15-0.16-0.22-0.24c-0.52-0.56-1.07-1.09-1.61-1.62c-0.38-0.37-0.73-0.76-1.12-1.13c-0.03-0.02-0.05-0.05-0.08-0.07
	c-2.83-2.65-5.94-5.01-9.27-7.04c-0.18-0.11-0.36-0.22-0.54-0.33c-1.08-0.64-2.17-1.25-3.29-1.82c-0.03-0.01-0.06-0.03-0.09-0.04
	c-3.49-1.76-7.19-3.16-11.05-4.18c-0.25-0.07-0.51-0.13-0.76-0.2c-1.23-0.3-2.46-0.58-3.72-0.8c-3.24-0.58-6.56-0.93-9.97-0.93
	c-31.31,0-56.69,25.38-56.69,56.69c0,15.59,6.3,29.7,16.48,39.95c10.27,10.33,24.49,16.74,40.21,16.74
	c31.31,0,56.69-25.38,56.69-56.69C935.67,114.97,935.04,110.43,933.96,106.07z M846.35,141.54c-4.18,0-7.57-3.39-7.57-7.57
	c0-4.18,3.39-7.57,7.57-7.57s7.57,3.39,7.57,7.57C853.92,138.15,850.53,141.54,846.35,141.54z M850.4,115.08
	c-6.75,0-12.23-5.48-12.23-12.23s5.48-12.23,12.23-12.23s12.23,5.48,12.23,12.23S857.15,115.08,850.4,115.08z M866.29,85.27
	c0-3.38,2.74-6.12,6.12-6.12c3.38,0,6.12,2.74,6.12,6.12c0,3.38-2.74,6.12-6.12,6.12C869.03,91.39,866.29,88.65,866.29,85.27z
	 M876.92,165.48c-4.27,0-7.72-3.46-7.72-7.72c0-4.26,3.46-7.72,7.72-7.72c4.26,0,7.72,3.46,7.72,7.72
	C884.64,162.03,881.18,165.48,876.92,165.48z M884.64,142c-2.62,0-4.74-2.12-4.74-4.74c0-2.62,2.12-4.74,4.74-4.74
	c2.62,0,4.74,2.12,4.74,4.74C889.38,139.88,887.26,142,884.64,142z M887.23,91.39c-2.62,0-4.74-2.12-4.74-4.74s2.12-4.74,4.74-4.74
	c2.62,0,4.74,2.12,4.74,4.74S889.84,91.39,887.23,91.39z M910,148.3c-3.52,0-6.38-2.86-6.38-6.38c0-3.52,2.86-6.38,6.38-6.38
	c3.52,0,6.38,2.86,6.38,6.38C916.38,145.45,913.53,148.3,910,148.3z"/>
<g>
	<g>
		<g>
			<circle class="st3" cx="723.03" cy="287.74" r="2.63"/>
		</g>
	</g>
	<g>
		<g>
			<path class="st3" d="M728.45,380.3c-1.45,0-2.63,1.18-2.63,2.63c0,1.45,1.18,2.63,2.63,2.63c1.45,0,2.63-1.18,2.63-2.63
				C731.08,381.48,729.9,380.3,728.45,380.3z"/>
		</g>
	</g>
	<g>
		<g>
			<path class="st3" d="M711.46,445.93c-1.45,0-2.63,1.18-2.63,2.63c0,1.45,1.18,2.63,2.63,2.63c1.45,0,2.63-1.18,2.63-2.63
				C714.09,447.1,712.92,445.93,711.46,445.93z"/>
		</g>
	</g>
	<g>
		<g>
			<path class="st3" d="M649.82,556.44c-1.45,0-2.63,1.18-2.63,2.63c0,1.45,1.18,2.63,2.63,2.63c1.45,0,2.63-1.18,2.63-2.63
				C652.45,557.61,651.27,556.44,649.82,556.44z"/>
		</g>
	</g>
	<g>
		<g>
			<path class="st3" d="M602.29,606.11c-1.45,0-2.63,1.18-2.63,2.63c0,1.45,1.18,2.63,2.63,2.63c1.45,0,2.63-1.18,2.63-2.63
				C604.92,607.29,603.74,606.11,602.29,606.11z"/>
		</g>
	</g>
	<g>
		<g>
			<path class="st3" d="M688.51,645.83c-1.45,0-2.63,1.18-2.63,2.63c0,1.45,1.18,2.63,2.63,2.63c1.45,0,2.63-1.18,2.63-2.63
				C691.14,647.01,689.96,645.83,688.51,645.83z"/>
		</g>
	</g>
	<g>
		<g>
			<path class="st3" d="M829.69,633.02c-1.45,0-2.63,1.18-2.63,2.63c0,1.45,1.18,2.63,2.63,2.63c1.45,0,2.63-1.18,2.63-2.63
				C832.32,634.2,831.14,633.02,829.69,633.02z"/>
		</g>
	</g>
	<g>
		<g>
			<circle class="st3" cx="899.78" cy="501.37" r="2.63"/>
		</g>
	</g>
	<g>
		<g>
			<path class="st3" d="M976.44,464.86c-1.45,0-2.63,1.18-2.63,2.63c0,1.45,1.18,2.63,2.63,2.63c1.45,0,2.63-1.18,2.63-2.63
				C979.07,466.04,977.9,464.86,976.44,464.86z"/>
		</g>
	</g>
	<g>
		<g>
			<circle class="st3" cx="1069.12" cy="580.66" r="2.63"/>
		</g>
	</g>
	<g>
		<g>
			<circle class="st3" cx="1134.41" cy="610.37" r="2.63"/>
		</g>
	</g>
	<g>
		<g>
			<circle class="st3" cx="1233.44" cy="619.25" r="2.63"/>
		</g>
	</g>
	<g>
		<g>
			<path class="st3" d="M1335.53,574.13c-1.45,0-2.63,1.18-2.63,2.63c0,1.45,1.18,2.63,2.63,2.63c1.45,0,2.63-1.18,2.63-2.63
				C1338.16,575.31,1336.98,574.13,1335.53,574.13z"/>
		</g>
	</g>
	<g>
		<g>
			<path class="st3" d="M1445.91,622.89c-1.45,0-2.63,1.18-2.63,2.63c0,1.45,1.18,2.63,2.63,2.63c1.45,0,2.63-1.18,2.63-2.63
				C1448.54,624.07,1447.36,622.89,1445.91,622.89z"/>
		</g>
	</g>
	<g>
		<g>
			<path class="st3" d="M1438.43,638.25c-1.45,0-2.63,1.18-2.63,2.63c0,1.45,1.18,2.63,2.63,2.63c1.45,0,2.63-1.18,2.63-2.63
				C1441.06,639.42,1439.88,638.25,1438.43,638.25z"/>
		</g>
	</g>
	<g>
		<g>
			<path class="st3" d="M1337.84,614.23c-1.45,0-2.63,1.18-2.63,2.63c0,1.45,1.18,2.63,2.63,2.63c1.45,0,2.63-1.18,2.63-2.63
				C1340.47,615.41,1339.29,614.23,1337.84,614.23z"/>
		</g>
	</g>
	<g>
		<g>
			<path class="st3" d="M1162.41,543.89c-1.45,0-2.63,1.18-2.63,2.63c0,1.45,1.18,2.63,2.63,2.63c1.45,0,2.63-1.18,2.63-2.63
				C1165.04,545.06,1163.86,543.89,1162.41,543.89z"/>
		</g>
	</g>
	<g>
		<g>
			<path class="st3" d="M1065.22,558.1c-1.45,0-2.63,1.18-2.63,2.63c0,1.45,1.18,2.63,2.63,2.63c1.45,0,2.63-1.18,2.63-2.63
				C1067.85,559.27,1066.67,558.1,1065.22,558.1z"/>
		</g>
	</g>
	<g>
		<g>
			<path class="st3" d="M921.93,645.57c-1.45,0-2.63,1.18-2.63,2.63c0,1.45,1.18,2.63,2.63,2.63c1.45,0,2.63-1.18,2.63-2.63
				C924.56,646.74,923.38,645.57,921.93,645.57z"/>
		</g>
	</g>
	<g>
		<g>
			<path class="st3" d="M815.08,674.73c-1.45,0-2.63,1.18-2.63,2.63c0,1.45,1.18,2.63,2.63,2.63c1.45,0,2.63-1.18,2.63-2.63
				C817.71,675.91,816.53,674.73,815.08,674.73z"/>
		</g>
	</g>
	<g>
		<g>
			<path class="st3" d="M686.51,603.96c-1.45,0-2.63,1.18-2.63,2.63c0,1.45,1.18,2.63,2.63,2.63c1.45,0,2.63-1.18,2.63-2.63
				C689.14,605.14,687.97,603.96,686.51,603.96z"/>
		</g>
	</g>
	<g>
		<g>
			<path class="st3" d="M568.85,556.73c-1.45,0-2.63,1.18-2.63,2.63c0,1.45,1.18,2.63,2.63,2.63c1.45,0,2.63-1.18,2.63-2.63
				C571.48,557.9,570.3,556.73,568.85,556.73z"/>
		</g>
	</g>
	<g>
		<g>
			<path class="st3" d="M455.43,635.28c-1.45,0-2.63,1.18-2.63,2.63c0,1.45,1.18,2.63,2.63,2.63c1.45,0,2.63-1.18,2.63-2.63
				C458.06,636.46,456.88,635.28,455.43,635.28z"/>
		</g>
	</g>
	<g>
		<g>
			<circle class="st3" cx="413.9" cy="679.42" r="2.63"/>
		</g>
	</g>
	<g>
		<g>
			<circle class="st3" cx="413.33" cy="508.58" r="2.63"/>
		</g>
	</g>
	<g>
		<g>
			<path class="st3" d="M412.62,321.15c-1.45,0-2.63,1.18-2.63,2.63c0,1.45,1.18,2.63,2.63,2.63c1.45,0,2.63-1.18,2.63-2.63
				C415.25,322.33,414.07,321.15,412.62,321.15z"/>
		</g>
	</g>
	<g>
		<g>
			<path class="st3" d="M411.92,267.6c-1.45,0-2.63,1.18-2.63,2.63c0,1.45,1.18,2.63,2.63,2.63s2.63-1.18,2.63-2.63
				C414.56,268.78,413.38,267.6,411.92,267.6z"/>
		</g>
	</g>
	<g>
		<g>
			<path class="st3" d="M449.01,118.99c-1.45,0-2.63,1.18-2.63,2.63c0,1.45,1.18,2.63,2.63,2.63s2.63-1.18,2.63-2.63
				C451.64,120.17,450.46,118.99,449.01,118.99z"/>
		</g>
	</g>
	<g>
		<g>
			<path class="st3" d="M519.99,205.49c-1.45,0-2.63,1.18-2.63,2.63c0,1.45,1.18,2.63,2.63,2.63c1.45,0,2.63-1.18,2.63-2.63
				C522.62,206.66,521.45,205.49,519.99,205.49z"/>
		</g>
	</g>
	<g>
		<g>
			<path class="st3" d="M579.55,203.29c-1.45,0-2.63,1.18-2.63,2.63c0,1.45,1.18,2.63,2.63,2.63c1.45,0,2.63-1.18,2.63-2.63
				C582.19,204.47,581.01,203.29,579.55,203.29z"/>
		</g>
	</g>
	<g>
		<g>
			<path class="st3" d="M592.39,128.8c-1.45,0-2.63,1.18-2.63,2.63c0,1.45,1.18,2.63,2.63,2.63c1.45,0,2.63-1.18,2.63-2.63
				C595.02,129.97,593.84,128.8,592.39,128.8z"/>
		</g>
	</g>
	<g>
		<g>
			
				<ellipse transform="matrix(0.101 -0.9949 0.9949 0.101 600.7093 803.6699)" class="st3" cx="745.03" cy="69.46" rx="2.63" ry="2.63"/>
		</g>
	</g>
	<g>
		<g>
			<circle class="st3" cx="869.14" cy="147.92" r="2.63"/>
		</g>
	</g>
	<g>
		<g>
			<circle class="st3" cx="1049.69" cy="104.29" r="2.63"/>
		</g>
	</g>
	<g>
		<g>
			<path class="st3" d="M1260.46-78.43c-1.45,0-2.63,1.18-2.63,2.63c0,1.45,1.18,2.63,2.63,2.63c1.45,0,2.63-1.18,2.63-2.63
				C1263.09-77.25,1261.91-78.43,1260.46-78.43z"/>
		</g>
	</g>
	<g>
		<g>
			<circle class="st3" cx="1415.55" cy="19.5" r="2.63"/>
		</g>
	</g>
	<g>
		<g>
			<circle class="st3" cx="1380.41" cy="46.44" r="2.63"/>
		</g>
	</g>
	<g>
		<g>
			<path class="st3" d="M1247.95,10.18c-1.45,0-2.63,1.18-2.63,2.63s1.18,2.63,2.63,2.63c1.45,0,2.63-1.18,2.63-2.63
				S1249.4,10.18,1247.95,10.18z"/>
		</g>
	</g>
	<g>
		<g>
			<circle class="st3" cx="1147.08" cy="23.93" r="2.63"/>
		</g>
	</g>
	<g>
		<g>
			<circle class="st3" cx="1110.46" cy="38.14" r="2.63"/>
		</g>
	</g>
	<g>
		<g>
			<circle class="st3" cx="1100.21" cy="85.27" r="2.63"/>
		</g>
	</g>
	<g>
		<g>
			<circle class="st3" cx="1149.56" cy="105.13" r="2.63"/>
		</g>
	</g>
	<g>
		<g>
			<path class="st3" d="M486.2,24.57c-1.45,0-2.63,1.18-2.63,2.63c0,1.45,1.18,2.63,2.63,2.63c1.45,0,2.63-1.18,2.63-2.63
				C488.83,25.74,487.65,24.57,486.2,24.57z"/>
		</g>
	</g>
	<g>
		<g>
			<circle class="st3" cx="578.49" cy="-30.07" r="2.63"/>
		</g>
	</g>
	<g>
		<g>
			<path class="st3" d="M668.96-0.78c-1.45,0-2.63,1.18-2.63,2.63c0,1.45,1.18,2.63,2.63,2.63c1.45,0,2.63-1.18,2.63-2.63
				C671.59,0.4,670.41-0.78,668.96-0.78z"/>
		</g>
	</g>
	<g>
		<g>
			<circle class="st3" cx="700.75" cy="84.17" r="2.63"/>
		</g>
	</g>
	<g>
		<g>
			<path class="st3" d="M1011.09-62.71c-1.45,0-2.63,1.18-2.63,2.63c0,1.45,1.18,2.63,2.63,2.63c1.45,0,2.63-1.18,2.63-2.63
				C1013.72-61.53,1012.55-62.71,1011.09-62.71z"/>
		</g>
	</g>
	<g>
		<g>
			<path class="st3" d="M949.52-61.55c-1.45,0-2.63,1.18-2.63,2.63c0,1.45,1.18,2.63,2.63,2.63c1.45,0,2.63-1.18,2.63-2.63
				C952.15-60.37,950.97-61.55,949.52-61.55z"/>
		</g>
	</g>
	<g>
		<g>
			<circle class="st3" cx="862.19" cy="-47.47" r="2.63"/>
		</g>
	</g>
	<g>
		<g>
			<path class="st3" d="M425.87-12.16c-1.45,0-2.63,1.18-2.63,2.63c0,1.45,1.18,2.63,2.63,2.63s2.63-1.18,2.63-2.63
				C428.51-10.98,427.33-12.16,425.87-12.16z"/>
		</g>
	</g>
	<g>
		<g>
			<path class="st3" d="M391.95,3.48c-1.45,0-2.63,1.18-2.63,2.63s1.18,2.63,2.63,2.63c1.45,0,2.63-1.18,2.63-2.63
				S393.4,3.48,391.95,3.48z"/>
		</g>
	</g>
	<g>
		<g>
			<path class="st3" d="M803.43,437.19c-1.45,0-2.63,1.18-2.63,2.63c0,1.45,1.18,2.63,2.63,2.63c1.45,0,2.63-1.18,2.63-2.63
				C806.06,438.37,804.88,437.19,803.43,437.19z"/>
		</g>
	</g>
	<g>
		<g>
			
				<ellipse transform="matrix(0.9239 -0.3827 0.3827 0.9239 -18.4166 300.2673)" class="st3" cx="745.56" cy="196.43" rx="2.63" ry="2.63"/>
		</g>
	</g>
	<g>
		<g>
			<path class="st3" d="M836.77,245.2c-1.45,0-2.63,1.18-2.63,2.63c0,1.45,1.18,2.63,2.63,2.63c1.45,0,2.63-1.18,2.63-2.63
				C839.4,246.38,838.22,245.2,836.77,245.2z"/>
		</g>
	</g>
</g>
<rect x="-34.53" y="-7.83" class="st4" width="1483.07" height="617.95"/>
</svg>
