<svg width="167" height="143" viewBox="0 0 167 143" fill="none" xmlns="http://www.w3.org/2000/svg">
<path d="M72.23 25.69H89.34C89.36 23.95 90.13 22.38 91.34 21.29V4.52H70.24V21.3C71.45 22.39 72.22 23.95 72.24 25.7L72.23 25.69ZM80.79 6.18C85.72 6.18 89.71 10.18 89.71 15.1C89.71 20.02 85.71 24.02 80.79 24.02C75.87 24.02 71.87 20.02 71.87 15.1C71.87 10.18 75.87 6.18 80.79 6.18ZM79.94 83.56H62.56C62.56 78.76 66.45 74.87 71.25 74.87C76.05 74.87 79.94 78.76 79.94 83.56ZM89.34 27.69H72.24V29.36H78.55V32.59H72.24V34.86H78.55V40.36H72.24V42.03H89.34V27.69ZM82.73 33.22C82.73 33.53 82.48 33.78 82.17 33.78H81.11C80.8 33.78 80.55 33.53 80.55 33.22V31.24C80.55 30.93 80.8 30.68 81.11 30.68H82.17C82.48 30.68 82.73 30.93 82.73 31.24V33.22ZM87.16 33.22C87.16 33.53 86.91 33.78 86.6 33.78H85.54C85.23 33.78 84.98 33.53 84.98 33.22V31.24C84.98 30.93 85.23 30.68 85.54 30.68H86.6C86.91 30.68 87.16 30.93 87.16 31.24V33.22ZM80.79 22.02C84.61 22.02 87.71 18.91 87.71 15.1C87.71 11.29 84.6 8.18 80.79 8.18C76.98 8.18 73.87 11.29 73.87 15.1C73.87 18.91 76.98 22.02 80.79 22.02ZM80.98 10.06C81.47 10.06 81.87 10.46 81.87 10.95C81.87 11.44 81.47 11.84 80.98 11.84C80.49 11.84 80.09 11.44 80.09 10.95C80.09 10.46 80.49 10.06 80.98 10.06ZM78.01 12.16C79.33 12.16 80.4 13.23 80.4 14.55C80.4 15.87 79.33 16.94 78.01 16.94C76.69 16.94 75.62 15.87 75.62 14.55C75.62 13.23 76.69 12.16 78.01 12.16ZM66.45 6.32V0.95C66.45 0.43 66.03 0 65.5 0H57.95C57.42 0 57 0.42 57 0.95V6.32C57 6.84 57.42 7.27 57.95 7.27H65.51C66.03 7.27 66.46 6.85 66.46 6.32H66.45ZM60.03 5.51C58.99 5.51 58.16 4.67 58.16 3.64C58.16 2.61 59 1.77 60.03 1.77C61.06 1.77 61.91 2.61 61.91 3.64C61.91 4.67 61.07 5.51 60.03 5.51ZM64.26 5.95C63.71 5.95 63.27 5.51 63.27 4.96C63.27 4.41 63.71 3.97 64.26 3.97C64.81 3.97 65.25 4.41 65.25 4.96C65.25 5.51 64.81 5.95 64.26 5.95ZM64.26 3.3C63.71 3.3 63.27 2.86 63.27 2.31C63.27 1.76 63.71 1.32 64.26 1.32C64.81 1.32 65.25 1.76 65.25 2.31C65.25 2.86 64.81 3.3 64.26 3.3ZM99.01 83.56H81.64C81.64 78.76 85.53 74.87 90.33 74.87C95.13 74.87 99.02 78.76 99.02 83.56H99.01ZM103.63 0H96.07C95.55 0 95.12 0.42 95.12 0.95V6.32C95.12 6.84 95.54 7.27 96.07 7.27H103.63C104.15 7.27 104.58 6.85 104.58 6.32V0.95C104.58 0.43 104.16 0 103.63 0ZM97.84 6.13C97.31 6.13 96.88 5.7 96.88 5.17C96.88 4.64 97.31 4.21 97.84 4.21C98.37 4.21 98.8 4.64 98.8 5.17C98.8 5.7 98.37 6.13 97.84 6.13ZM97.84 3.04C97.31 3.04 96.88 2.61 96.88 2.08C96.88 1.55 97.31 1.12 97.84 1.12C98.37 1.12 98.8 1.55 98.8 2.08C98.8 2.61 98.37 3.04 97.84 3.04ZM101.86 6.13C101.33 6.13 100.9 5.7 100.9 5.17C100.9 4.64 101.33 4.21 101.86 4.21C102.39 4.21 102.82 4.64 102.82 5.17C102.82 5.7 102.39 6.13 101.86 6.13ZM101.86 3.04C101.33 3.04 100.9 2.61 100.9 2.08C100.9 1.55 101.33 1.12 101.86 1.12C102.39 1.12 102.82 1.55 102.82 2.08C102.82 2.61 102.39 3.04 101.86 3.04ZM65.76 14.14C65.76 12.26 66.75 10.62 68.24 9.68V20.1C67.61 19.87 66.93 19.74 66.22 19.74C64.86 19.74 63.61 20.2 62.6 20.96C62.77 20.39 63 19.87 63.27 19.38V9.26H64.83V17.51C65.12 17.28 65.43 17.09 65.75 16.94V14.15L65.76 14.14ZM72.24 44.03H89.34V47.55H72.24V44.03ZM82.46 66.03L80.79 56.38L79.12 66.03V76.35C77.16 74.22 74.37 72.87 71.26 72.87C70.6 72.87 69.95 72.94 69.32 73.05V66.02L69.64 62.96C72.02 61.72 73.66 59.23 73.66 56.36C73.66 54.79 73.16 53.27 72.24 52V49.53H89.34V52C88.42 53.27 87.92 54.79 87.92 56.36C87.92 59.23 89.55 61.72 91.94 62.96L92.26 66.02V73.05C91.63 72.93 90.99 72.87 90.32 72.87C87.21 72.87 84.41 74.22 82.45 76.35V66.03H82.46ZM95.36 19.75C94.65 19.75 93.97 19.88 93.34 20.11V9.68C94.82 10.61 95.82 12.25 95.82 14.14V16.93C96.14 17.08 96.45 17.28 96.74 17.5V9.26H98.3V19.39C98.57 19.87 98.8 20.4 98.97 20.97C97.96 20.21 96.71 19.75 95.35 19.75H95.36ZM66.22 21.75C68.44 21.75 70.24 23.55 70.24 25.77V50.14C69.08 49.39 67.7 48.95 66.22 48.95C64.74 48.95 63.36 49.39 62.2 50.14V25.77C62.2 23.55 64 21.75 66.22 21.75ZM66.22 61.82C63.22 61.82 60.78 59.39 60.78 56.38C60.78 53.37 63.21 50.94 66.22 50.94C69.23 50.94 71.66 53.37 71.66 56.38C71.66 59.39 69.23 61.82 66.22 61.82ZM91.34 25.77C91.34 23.55 93.14 21.75 95.36 21.75C97.58 21.75 99.38 23.55 99.38 25.77V50.14C98.22 49.39 96.84 48.95 95.36 48.95C93.88 48.95 92.5 49.39 91.34 50.14V25.77ZM100.79 56.38C100.79 59.38 98.36 61.82 95.35 61.82C92.34 61.82 89.91 59.39 89.91 56.38C89.91 53.37 92.34 50.94 95.35 50.94C98.36 50.94 100.79 53.37 100.79 56.38Z" fill="#8D8D8D"/>
<path d="M83.5091 86C52.5629 86 23.8441 92.5825 0 103.833C3.10375 107.954 6.53613 111.801 10.2059 115.43C11.21 114.974 12.2507 114.536 13.3644 114.19C23.7893 110.835 33.9952 113.588 36.1678 120.317C37.3911 124.146 35.7296 128.413 32.1877 132.023C41.0425 137.019 50.7007 140.757 60.9065 143C66.1281 136.399 78.3605 133.391 91.5058 136.217C97.5125 137.512 102.844 139.864 107.061 142.781C112.885 141.432 118.527 139.608 123.949 137.329C116.08 132.351 111.589 125.368 113.013 118.785C115.167 108.847 129.956 103.596 146.059 107.06C151.226 108.173 155.845 110.087 159.734 112.458C162.308 109.723 164.736 106.86 167 103.851C143.174 92.5825 114.455 86 83.5091 86ZM51.0841 134.703C46.5015 135.998 42.0102 134.321 41.0425 130.929C40.0749 127.537 43.0143 123.745 47.5969 122.45C52.1795 121.155 56.6708 122.833 57.6385 126.225C58.6061 129.616 55.6667 133.409 51.0841 134.703ZM76.261 119.314C65.3065 119.314 56.4335 113.588 56.4335 106.513C56.4335 99.4386 65.3065 93.7131 76.261 93.7131C87.2154 93.7131 96.0884 99.4386 96.0884 106.513C96.0884 113.588 87.2154 119.314 76.261 119.314ZM105.838 102.958C102.606 102.958 99.9955 100.879 99.9955 98.3263C99.9955 95.7735 102.606 93.6948 105.838 93.6948C109.069 93.6948 111.68 95.7735 111.68 98.3263C111.68 100.879 109.069 102.958 105.838 102.958Z" fill="#8D8D8D"/>
</svg>
