<svg width="40" height="70" viewBox="0 0 40 70" fill="none" xmlns="http://www.w3.org/2000/svg">
<path d="M12.7585 21.5211H27.0919C27.1087 20.0634 27.7537 18.7482 28.7674 17.8351V3.7865H11.0914V17.8435C12.1051 18.7566 12.7501 20.0634 12.7669 21.5294L12.7585 21.5211ZM19.9294 5.17712C24.0594 5.17712 27.4019 8.528 27.4019 12.6496C27.4019 16.7712 24.051 20.1221 19.9294 20.1221C15.8078 20.1221 12.4569 16.7712 12.4569 12.6496C12.4569 8.528 15.8078 5.17712 19.9294 5.17712ZM19.2173 70H4.65773C4.65773 65.9789 7.91647 62.7202 11.9375 62.7202C15.9586 62.7202 19.2173 65.9789 19.2173 70ZM27.0919 23.1965H12.7669V24.5955H18.0529V27.3013H12.7669V29.203H18.0529V33.8104H12.7669V35.2094H27.0919V23.1965ZM21.5546 27.8291C21.5546 28.0888 21.3451 28.2982 21.0854 28.2982H20.1975C19.9378 28.2982 19.7283 28.0888 19.7283 27.8291V26.1704C19.7283 25.9107 19.9378 25.7013 20.1975 25.7013H21.0854C21.3451 25.7013 21.5546 25.9107 21.5546 26.1704V27.8291ZM25.2657 27.8291C25.2657 28.0888 25.0562 28.2982 24.7966 28.2982H23.9086C23.6489 28.2982 23.4394 28.0888 23.4394 27.8291V26.1704C23.4394 25.9107 23.6489 25.7013 23.9086 25.7013H24.7966C25.0562 25.7013 25.2657 25.9107 25.2657 26.1704V27.8291ZM19.9294 18.4466C23.1295 18.4466 25.7264 15.8413 25.7264 12.6496C25.7264 9.45788 23.1211 6.85256 19.9294 6.85256C16.7377 6.85256 14.1324 9.45788 14.1324 12.6496C14.1324 15.8413 16.7377 18.4466 19.9294 18.4466ZM20.0886 8.42748C20.499 8.42748 20.8341 8.76257 20.8341 9.17305C20.8341 9.58353 20.499 9.91862 20.0886 9.91862C19.6781 9.91862 19.343 9.58353 19.343 9.17305C19.343 8.76257 19.6781 8.42748 20.0886 8.42748ZM17.6005 10.1867C18.7063 10.1867 19.6027 11.0831 19.6027 12.1888C19.6027 13.2946 18.7063 14.191 17.6005 14.191C16.4947 14.191 15.5984 13.2946 15.5984 12.1888C15.5984 11.0831 16.4947 10.1867 17.6005 10.1867ZM7.91647 5.2944V0.795835C7.91647 0.36022 7.56462 0 7.12063 0H0.795835C0.351843 0 0 0.351843 0 0.795835V5.2944C0 5.73001 0.351843 6.09023 0.795835 6.09023H7.12901C7.56462 6.09023 7.92485 5.73839 7.92485 5.2944H7.91647ZM2.5383 4.61585C1.66707 4.61585 0.971757 3.91216 0.971757 3.04931C0.971757 2.18645 1.67544 1.48277 2.5383 1.48277C3.40115 1.48277 4.11321 2.18645 4.11321 3.04931C4.11321 3.91216 3.40953 4.61585 2.5383 4.61585ZM6.08186 4.98444C5.62111 4.98444 5.25251 4.61585 5.25251 4.1551C5.25251 3.69435 5.62111 3.32575 6.08186 3.32575C6.5426 3.32575 6.9112 3.69435 6.9112 4.1551C6.9112 4.61585 6.5426 4.98444 6.08186 4.98444ZM6.08186 2.76448C5.62111 2.76448 5.25251 2.39588 5.25251 1.93514C5.25251 1.47439 5.62111 1.10579 6.08186 1.10579C6.5426 1.10579 6.9112 1.47439 6.9112 1.93514C6.9112 2.39588 6.5426 2.76448 6.08186 2.76448ZM35.1927 70H20.6415C20.6415 65.9789 23.9002 62.7202 27.9213 62.7202C31.9423 62.7202 35.2011 65.9789 35.2011 70H35.1927ZM39.063 0H32.7298C32.2942 0 31.9339 0.351843 31.9339 0.795835V5.2944C31.9339 5.73001 32.2858 6.09023 32.7298 6.09023H39.063C39.4986 6.09023 39.8588 5.73839 39.8588 5.2944V0.795835C39.8588 0.36022 39.5069 0 39.063 0ZM34.2125 5.13523C33.7686 5.13523 33.4083 4.77501 33.4083 4.33102C33.4083 3.88703 33.7686 3.52681 34.2125 3.52681C34.6565 3.52681 35.0168 3.88703 35.0168 4.33102C35.0168 4.77501 34.6565 5.13523 34.2125 5.13523ZM34.2125 2.54667C33.7686 2.54667 33.4083 2.18645 33.4083 1.74246C33.4083 1.29847 33.7686 0.938248 34.2125 0.938248C34.6565 0.938248 35.0168 1.29847 35.0168 1.74246C35.0168 2.18645 34.6565 2.54667 34.2125 2.54667ZM37.5802 5.13523C37.1362 5.13523 36.776 4.77501 36.776 4.33102C36.776 3.88703 37.1362 3.52681 37.5802 3.52681C38.0242 3.52681 38.3844 3.88703 38.3844 4.33102C38.3844 4.77501 38.0242 5.13523 37.5802 5.13523ZM37.5802 2.54667C37.1362 2.54667 36.776 2.18645 36.776 1.74246C36.776 1.29847 37.1362 0.938248 37.5802 0.938248C38.0242 0.938248 38.3844 1.29847 38.3844 1.74246C38.3844 2.18645 38.0242 2.54667 37.5802 2.54667ZM7.33844 11.8454C7.33844 10.2705 8.16778 8.8966 9.41599 8.10914V16.8382C8.88822 16.6455 8.31857 16.5366 7.72379 16.5366C6.58449 16.5366 5.53734 16.922 4.69124 17.5586C4.83365 17.0811 5.02633 16.6455 5.25251 16.235V7.7573H6.55936V14.6685C6.8023 14.4758 7.06199 14.3167 7.33006 14.191V11.8538L7.33844 11.8454ZM12.7669 36.8849H27.0919V39.8337H12.7669V36.8849ZM21.3284 55.3147L19.9294 47.2307L18.5304 55.3147V63.96C16.8885 62.1757 14.5512 61.0448 11.9459 61.0448C11.393 61.0448 10.8485 61.1034 10.3207 61.1956V55.3064L10.5888 52.7429C12.5826 51.7042 13.9564 49.6182 13.9564 47.214C13.9564 45.8988 13.5376 44.6254 12.7669 43.5615V41.4923H27.0919V43.5615C26.3212 44.6254 25.9023 45.8988 25.9023 47.214C25.9023 49.6182 27.2678 51.7042 29.27 52.7429L29.5381 55.3064V61.1956C29.0103 61.095 28.4742 61.0448 27.9129 61.0448C25.3076 61.0448 22.9619 62.1757 21.32 63.96V55.3147H21.3284ZM32.135 16.545C31.5402 16.545 30.9706 16.6539 30.4428 16.8466V8.10914C31.6826 8.88822 32.5203 10.2621 32.5203 11.8454V14.1826C32.7884 14.3083 33.0481 14.4758 33.2911 14.6601V7.7573H34.5979V16.2434C34.8241 16.6455 35.0168 17.0895 35.1592 17.567C34.3131 16.9303 33.2659 16.545 32.1266 16.545H32.135ZM7.72379 18.2204C9.58353 18.2204 11.0914 19.7283 11.0914 21.5881V42.0033C10.1197 41.3751 8.96362 41.0065 7.72379 41.0065C6.48396 41.0065 5.32791 41.3751 4.35615 42.0033V21.5881C4.35615 19.7283 5.86405 18.2204 7.72379 18.2204ZM7.72379 51.7879C5.21063 51.7879 3.16659 49.7523 3.16659 47.2307C3.16659 44.7092 5.20225 42.6735 7.72379 42.6735C10.2453 42.6735 12.281 44.7092 12.281 47.2307C12.281 49.7523 10.2453 51.7879 7.72379 51.7879ZM28.7674 21.5881C28.7674 19.7283 30.2753 18.2204 32.135 18.2204C33.9947 18.2204 35.5026 19.7283 35.5026 21.5881V42.0033C34.5309 41.3751 33.3748 41.0065 32.135 41.0065C30.8952 41.0065 29.7391 41.3751 28.7674 42.0033V21.5881ZM36.6838 47.2307C36.6838 49.7439 34.6482 51.7879 32.1266 51.7879C29.6051 51.7879 27.5694 49.7523 27.5694 47.2307C27.5694 44.7092 29.6051 42.6735 32.1266 42.6735C34.6482 42.6735 36.6838 44.7092 36.6838 47.2307Z" fill="#1F1F1F"/>
</svg>
