<svg xmlns="http://www.w3.org/2000/svg" 
    xmlns:xlink="http://www.w3.org/1999/xlink" 
    viewBox="-500 20 1440 740">
    <defs><style>.cls-1{fill:none;}.cls-2{isolation:isolate;}.cls-3{clip-path:url(#clip-path);}.cls-4,.cls-6{fill:#fff;}.cls-4{opacity:0.4;}.cls-5{mix-blend-mode:overlay;}</style><clipPath id="clip-path" transform="translate(-411.53 67.55)"><rect class="cls-1" y="1" width="1440" height="600"/></clipPath></defs><g class="cls-2"><g id="Layer_1" data-name="Layer 1"><g class="cls-3"><path class="cls-4" d="M940.37,111.59h0a54.84,54.84,0,0,0-12.87-24l-.21-.23c-.5-.54-1-1-1.56-1.58-.37-.36-.71-.74-1.09-1.09l-.07-.07a55.81,55.81,0,0,0-9-6.84l-.52-.32c-1-.62-2.11-1.21-3.2-1.76l-.09,0A54.18,54.18,0,0,0,901,71.63l-.75-.19c-1.19-.3-2.39-.57-3.61-.78a55.27,55.27,0,1,0,43.71,40.93ZM855.29,146a7.35,7.35,0,1,1,7.35-7.35A7.36,7.36,0,0,1,855.29,146Zm3.94-25.69a11.88,11.88,0,1,1,11.87-11.88A11.87,11.87,0,0,1,859.23,120.34Zm15.43-28.95a5.94,5.94,0,1,1,5.94,5.94A5.94,5.94,0,0,1,874.66,91.39ZM885,169.28a7.5,7.5,0,1,1,7.49-7.5A7.5,7.5,0,0,1,885,169.28Zm7.49-22.8a4.6,4.6,0,1,1,4.6-4.6A4.6,4.6,0,0,1,892.47,146.48ZM895,97.33a4.6,4.6,0,1,1,4.6-4.6A4.6,4.6,0,0,1,895,97.33ZM917.1,152.6a6.2,6.2,0,1,1,6.2-6.2A6.21,6.21,0,0,1,917.1,152.6Z" transform="translate(-411.53 67.55)"/><g class="cls-5"><circle class="cls-6" cx="324.02" cy="355.53" r="2.55"/><path class="cls-6" d="M740.82,377.86a2.56,2.56,0,1,0,2.56,2.55A2.55,2.55,0,0,0,740.82,377.86Z" transform="translate(-411.53 67.55)"/><path class="cls-6" d="M724.33,441.58a2.56,2.56,0,1,0,2.55,2.55A2.56,2.56,0,0,0,724.33,441.58Z" transform="translate(-411.53 67.55)"/><path class="cls-6" d="M664.47,548.88a2.56,2.56,0,1,0,2.55,2.55A2.55,2.55,0,0,0,664.47,548.88Z" transform="translate(-411.53 67.55)"/><path class="cls-6" d="M618.32,597.11a2.56,2.56,0,1,0,2.56,2.55A2.55,2.55,0,0,0,618.32,597.11Z" transform="translate(-411.53 67.55)"/><path class="cls-6" d="M702,635.67a2.56,2.56,0,1,0,2.56,2.56A2.56,2.56,0,0,0,702,635.67Z" transform="translate(-411.53 67.55)"/><path class="cls-6" d="M839.12,623.23a2.56,2.56,0,1,0,2.56,2.56A2.56,2.56,0,0,0,839.12,623.23Z" transform="translate(-411.53 67.55)"/><circle class="cls-6" cx="495.64" cy="562.96" r="2.55"/><path class="cls-6" d="M981.61,460a2.56,2.56,0,1,0,2.56,2.56A2.56,2.56,0,0,0,981.61,460Z" transform="translate(-411.53 67.55)"/><circle class="cls-6" cx="660.07" cy="639.94" r="2.55"/><circle class="cls-6" cx="723.45" cy="668.79" r="2.55"/><circle class="cls-6" cx="819.61" cy="677.41" r="2.55"/><path class="cls-6" d="M1330.27,566.05a2.56,2.56,0,1,0,2.55,2.56A2.56,2.56,0,0,0,1330.27,566.05Z" transform="translate(-411.53 67.55)"/><path class="cls-6" d="M1437.45,613.4A2.56,2.56,0,1,0,1440,616,2.56,2.56,0,0,0,1437.45,613.4Z" transform="translate(-411.53 67.55)"/><path class="cls-6" d="M1430.18,628.31a2.56,2.56,0,1,0,2.55,2.55A2.55,2.55,0,0,0,1430.18,628.31Z" transform="translate(-411.53 67.55)"/><path class="cls-6" d="M1332.51,605a2.56,2.56,0,1,0,2.56,2.56A2.56,2.56,0,0,0,1332.51,605Z" transform="translate(-411.53 67.55)"/><path class="cls-6" d="M1162.17,536.69a2.56,2.56,0,1,0,2.56,2.55A2.55,2.55,0,0,0,1162.17,536.69Z" transform="translate(-411.53 67.55)"/><path class="cls-6" d="M1067.81,550.49a2.56,2.56,0,1,0,2.55,2.55A2.56,2.56,0,0,0,1067.81,550.49Z" transform="translate(-411.53 67.55)"/><path class="cls-6" d="M928.68,635.42a2.56,2.56,0,1,0,2.56,2.55A2.55,2.55,0,0,0,928.68,635.42Z" transform="translate(-411.53 67.55)"/><path class="cls-6" d="M824.94,663.73a2.56,2.56,0,1,0,2.55,2.56A2.56,2.56,0,0,0,824.94,663.73Z" transform="translate(-411.53 67.55)"/><path class="cls-6" d="M700.1,595a2.56,2.56,0,1,0,2.56,2.56A2.56,2.56,0,0,0,700.1,595Z" transform="translate(-411.53 67.55)"/><path class="cls-6" d="M585.85,549.16a2.56,2.56,0,1,0,2.56,2.55A2.55,2.55,0,0,0,585.85,549.16Z" transform="translate(-411.53 67.55)"/><path class="cls-6" d="M475.73,625.43a2.56,2.56,0,1,0,2.55,2.55A2.56,2.56,0,0,0,475.73,625.43Z" transform="translate(-411.53 67.55)"/><circle class="cls-6" cx="23.87" cy="735.84" r="2.55"/><circle class="cls-6" cx="23.32" cy="569.96" r="2.55"/><path class="cls-6" d="M434.16,320.42a2.56,2.56,0,1,0,2.56,2.56A2.56,2.56,0,0,0,434.16,320.42Z" transform="translate(-411.53 67.55)"/><path class="cls-6" d="M433.49,268.43A2.56,2.56,0,1,0,436,271,2.56,2.56,0,0,0,433.49,268.43Z" transform="translate(-411.53 67.55)"/><path class="cls-6" d="M469.49,124.14a2.55,2.55,0,1,0,2.56,2.55A2.55,2.55,0,0,0,469.49,124.14Z" transform="translate(-411.53 67.55)"/><path class="cls-6" d="M538.42,208.12a2.56,2.56,0,1,0,2.55,2.55A2.56,2.56,0,0,0,538.42,208.12Z" transform="translate(-411.53 67.55)"/><path class="cls-6" d="M596.25,206a2.56,2.56,0,1,0,2.55,2.56A2.56,2.56,0,0,0,596.25,206Z" transform="translate(-411.53 67.55)"/><path class="cls-6" d="M608.71,133.65a2.56,2.56,0,1,0,2.56,2.56A2.56,2.56,0,0,0,608.71,133.65Z" transform="translate(-411.53 67.55)"/><circle class="cls-6" cx="756.92" cy="76.04" r="2.55" transform="matrix(0.1, -0.99, 0.99, 0.1, 193.32, 888.97)"/><circle class="cls-6" cx="465.89" cy="219.77" r="2.55"/><circle class="cls-6" cx="641.2" cy="177.41" r="2.55"/><path class="cls-6" d="M1257.38-67.55a2.56,2.56,0,0,0-2.56,2.56,2.56,2.56,0,0,0,2.56,2.55,2.55,2.55,0,0,0,2.55-2.55A2.55,2.55,0,0,0,1257.38-67.55Z" transform="translate(-411.53 67.55)"/><circle class="cls-6" cx="996.44" cy="95.08" r="2.55"/><circle class="cls-6" cx="962.31" cy="121.24" r="2.55"/><path class="cls-6" d="M1245.23,18.48a2.56,2.56,0,1,0,2.56,2.56A2.56,2.56,0,0,0,1245.23,18.48Z" transform="translate(-411.53 67.55)"/><circle class="cls-6" cx="735.76" cy="99.39" r="2.55"/><circle class="cls-6" cx="700.21" cy="113.18" r="2.55"/><circle class="cls-6" cx="690.25" cy="158.94" r="2.55"/><circle class="cls-6" cx="738.17" cy="178.22" r="2.55"/><path class="cls-6" d="M505.61,32.45A2.56,2.56,0,1,0,508.16,35,2.56,2.56,0,0,0,505.61,32.45Z" transform="translate(-411.53 67.55)"/><circle class="cls-6" cx="183.68" cy="46.95" r="2.55"/><path class="cls-6" d="M683.06,7.84a2.56,2.56,0,1,0,2.55,2.56A2.55,2.55,0,0,0,683.06,7.84Z" transform="translate(-411.53 67.55)"/><circle class="cls-6" cx="302.39" cy="157.88" r="2.55"/><path class="cls-6" d="M1015.26-52.29a2.56,2.56,0,0,0-2.56,2.55,2.56,2.56,0,0,0,2.56,2.56,2.56,2.56,0,0,0,2.55-2.56A2.55,2.55,0,0,0,1015.26-52.29Z" transform="translate(-411.53 67.55)"/><path class="cls-6" d="M955.47-51.16a2.56,2.56,0,0,0-2.56,2.55A2.56,2.56,0,0,0,955.47-46,2.55,2.55,0,0,0,958-48.61,2.55,2.55,0,0,0,955.47-51.16Z" transform="translate(-411.53 67.55)"/><circle class="cls-6" cx="459.14" cy="30.06" r="2.55"/><path class="cls-6" d="M447-3.21a2.56,2.56,0,0,0-2.55,2.56A2.55,2.55,0,0,0,447,1.9a2.56,2.56,0,0,0,2.56-2.55A2.56,2.56,0,0,0,447-3.21Z" transform="translate(-411.53 67.55)"/><path class="cls-6" d="M414.09,12a2.56,2.56,0,1,0,2.55,2.56A2.56,2.56,0,0,0,414.09,12Z" transform="translate(-411.53 67.55)"/><path class="cls-6" d="M813.62,433.1a2.55,2.55,0,1,0,2.56,2.55A2.55,2.55,0,0,0,813.62,433.1Z" transform="translate(-411.53 67.55)"/><circle class="cls-6" cx="757.44" cy="199.32" r="2.55" transform="translate(-430.15 372.58) rotate(-22.5)"/><path class="cls-6" d="M846,246.68a2.56,2.56,0,1,0,2.56,2.56A2.56,2.56,0,0,0,846,246.68Z" transform="translate(-411.53 67.55)"/></g></g></g></g></svg>