<?xml version="1.0" encoding="UTF-8"?>
<svg id="_이어_1" 
xmlns="http://www.w3.org/2000/svg" 
xmlns:xlink="http://www.w3.org/1999/xlink" 
viewBox="0 0 180 49.5">
<defs>
<style>.cls-1{fill:#fff;}.cls-2{fill:#ae97e3;}.cls-3{fill:#77c3e7;}.cls-4{fill:url(#_제_그라디언트_17);}</style>
<linearGradient id="_제_그라디언트_17" x1="72.39" y1="24.75" x2="121.91" y2="24.75" gradientTransform="matrix(1, 0, 0, 1, 0, 0)" gradientUnits="userSpaceOnUse">
<stop offset="0" stop-color="#ae97e3"/><stop offset="1" stop-color="#77c3e7"/>
</linearGradient>
</defs>
<g>
<g>
<path class="cls-1" d="M18.21,20.85c.42,0,.63,.21,.63,.63v2.95c0,.42-.21,.63-.63,.63H8.86c-.75,0-1.37,.06-1.86,.19-.49,.13-.89,.34-1.18,.63s-.5,.69-.62,1.2c-.12,.5-.18,1.12-.18,1.84v10.44c0,.52-.26,.77-.77,.77H.81c-.54,0-.81-.26-.81-.77v-11.39c0-1.27,.14-2.35,.42-3.25s.74-1.64,1.39-2.21c.64-.57,1.5-1,2.57-1.27,1.07-.27,2.4-.4,3.99-.4h9.85Z"/>
<path class="cls-1" d="M39.55,20.85c1.2,0,2.19,.1,2.97,.3,.79,.2,1.41,.53,1.86,.98s.78,1.05,.97,1.79c.19,.74,.28,1.63,.28,2.69v3.34c0,.75-.16,1.27-.49,1.56-.33,.29-.83,.44-1.51,.44H25.88v.84c0,1.1,.26,1.9,.79,2.39s1.55,.74,3.08,.74h14.66c.42,0,.63,.21,.63,.63v2.95c0,.42-.21,.63-.63,.63h-15.15c-1.59,0-2.92-.13-3.99-.39-1.07-.26-1.92-.67-2.57-1.25s-1.11-1.31-1.39-2.21c-.28-.9-.42-1.99-.42-3.25v-5.06c0-1.27,.14-2.35,.42-3.25s.74-1.64,1.39-2.21c.64-.57,1.5-1,2.57-1.27,1.07-.27,2.4-.4,3.99-.4h10.3Zm-13.68,7.98h14.24c.4,0,.6-.2,.6-.6v-1.48c0-.73-.15-1.24-.46-1.55s-.87-.46-1.69-.46h-8.83c-1.52,0-2.55,.24-3.08,.72-.53,.48-.79,1.28-.79,2.41v.95Z"/>
<path class="cls-1" d="M67.75,20.85c1.57,0,2.89,.14,3.97,.4,1.08,.27,1.94,.69,2.58,1.27,.64,.57,1.11,1.31,1.39,2.21s.42,1.99,.42,3.25v11.39c0,.52-.26,.77-.77,.77h-3.45c-.52,0-.77-.26-.77-.77v-10.19c0-.73-.05-1.34-.14-1.84-.09-.5-.28-.9-.54-1.2-.27-.29-.64-.5-1.11-.63-.47-.13-1.08-.19-1.83-.19h-9.35c-.75,0-1.37,.06-1.86,.19s-.89,.34-1.18,.63-.5,.69-.62,1.2c-.12,.5-.18,1.12-.18,1.84v10.19c0,.52-.26,.77-.77,.77h-3.45c-.54,0-.81-.26-.81-.77v-11.39c0-1.27,.14-2.35,.42-3.25,.28-.9,.74-1.64,1.39-2.21,.64-.57,1.5-1,2.57-1.27,1.07-.27,2.4-.4,3.99-.4h10.09Z"/>
</g>
<path class="cls-1" d="M144.17,20.85c1.2,0,2.19,.1,2.97,.3,.78,.2,1.41,.53,1.86,.98s.78,1.05,.97,1.79c.19,.74,.28,1.63,.28,2.69v3.34c0,.75-.16,1.27-.49,1.56s-.83,.44-1.51,.44h-17.76v.84c0,1.1,.26,1.9,.79,2.39s1.55,.74,3.08,.74h14.66c.42,0,.63,.21,.63,.63v2.95c0,.42-.21,.63-.63,.63h-15.15c-1.59,0-2.92-.13-3.99-.39-1.07-.26-1.92-.67-2.57-1.25-.65-.57-1.11-1.31-1.39-2.21-.28-.9-.42-1.99-.42-3.25v-5.06c0-1.27,.14-2.35,.42-3.25,.28-.9,.74-1.64,1.39-2.21,.64-.57,1.5-1,2.57-1.27,1.07-.27,2.4-.4,3.99-.4h10.3Zm-13.68,7.98h14.24c.4,0,.6-.2,.6-.6v-1.48c0-.73-.15-1.24-.46-1.55-.3-.31-.87-.46-1.69-.46h-8.83c-1.52,0-2.55,.24-3.08,.72-.53,.48-.79,1.28-.79,2.41v.95Z"/>
<path class="cls-1" d="M156.37,20.85c.4,0,.68,.16,.84,.49l8.26,14.52c.09,.14,.22,.21,.39,.21h.14c.16,0,.29-.07,.39-.21l8.3-14.52c.09-.16,.2-.29,.32-.37,.12-.08,.29-.12,.53-.12h3.9c.26,0,.43,.09,.51,.26s.06,.38-.05,.61l-9.63,16.84c-.33,.59-.7,1-1.12,1.23-.42,.23-1.03,.35-1.83,.35h-2.88c-.77,0-1.37-.12-1.79-.35-.42-.23-.8-.64-1.13-1.23l-9.63-16.84c-.12-.23-.13-.44-.05-.61s.25-.26,.51-.26h4.04Z"/>
</g>
<g>
<path class="cls-4" d="M121.75,46.57c.27-1.08,.15-2.05-.07-3.01-.35-1.44-1.03-2.96-1.97-4.66-.94-1.69-2.15-3.55-3.6-5.55l-.35,1.22c-.57,1.24-1.26,2.43-2.08,3.55,1.58,2.29,2.17,3.73,2.79,5.2,.19,.43,.32,.82,.41,1.14h0c-.88-.25-2.22-.85-3.79-1.77-.9-.52-1.87-1.14-2.91-1.86,.3-.27,.6-.53,.88-.82,.77-.77,1.45-1.6,2.07-2.46,.82-1.13,1.52-2.32,2.08-3.55,3.48-7.61,2.11-16.89-4.15-23.15-6.53-6.52-16.33-7.76-24.1-3.72-.91,.47-1.77,1.03-2.62,1.65-.85,.62-1.68,1.3-2.46,2.07-.28,.28-.55,.58-.82,.88-.15-.22-.32-.45-.46-.67-1.51-2.27-2.55-4.23-3.01-5.55-.06-.17-.11-.33-.15-.48,.07,.02,.14,.04,.23,.07,.8,.26,1.93,.76,3.22,1.5,1.04,.59,1.08,.62,2.33,1.48,.84-.61,1.71-1.18,2.62-1.65l2.31-.95c-2.95-2.11-5.56-3.68-7.83-4.61-1.14-.46-2.19-.78-3.29-.86-.55-.04-1.12-.01-1.73,.15-.6,.16-1.23,.49-1.73,.99-.44,.44-.76,.99-.93,1.52-.32,1.01-.26,1.93-.1,2.83,.31,1.56,1.01,3.16,2.01,5,1.51,2.73,3.73,5.92,6.53,9.4,2.8,3.47,6.16,7.22,9.94,10.99,6.14,6.13,12.18,11.18,17.14,14.47,2.49,1.64,4.68,2.85,6.63,3.55,.98,.34,1.91,.57,2.9,.58,.5,0,1.02-.05,1.55-.23,.53-.17,1.08-.49,1.52-.93,.52-.51,.85-1.16,1-1.77Zm-27.3-19.12c-4.06-4.05-7.6-8.07-10.42-11.66,.4-.51,.82-1,1.29-1.47,3.08-3.08,7.1-4.61,11.13-4.61,4.04,0,8.05,1.53,11.13,4.61,3.08,3.08,4.61,7.09,4.61,11.13,0,4.04-1.53,8.05-4.61,11.13-.47,.47-.97,.9-1.48,1.29-.5-.39-1.01-.79-1.52-1.21-3.19-2.6-6.65-5.72-10.14-9.21Z"/>
<circle class="cls-3" cx="90.66" cy="39.33" r="1.46"/>
<circle class="cls-2" cx="83.21" cy="34.4" r="3.91"/></g></svg>