<svg width="146" height="40" viewBox="0 0 146 40" fill="none" xmlns="http://www.w3.org/2000/svg">
<path d="M14.7164 16.8548C15.0558 16.8548 15.2255 17.0245 15.2255 17.3639V19.7479C15.2255 20.0873 15.0558 20.2571 14.7164 20.2571H7.16018C6.55407 20.2571 6.05302 20.3055 5.65703 20.4106C5.26104 20.5157 4.93778 20.6854 4.70341 20.9197C4.46905 21.1541 4.29934 21.4774 4.20236 21.8895C4.10539 22.2936 4.0569 22.7946 4.0569 23.3765V31.8136C4.0569 32.2338 3.84678 32.4358 3.43462 32.4358H0.654599C0.2182 32.4358 0 32.2257 0 31.8136V22.6088C0 21.5824 0.113141 20.7096 0.339422 19.9823C0.565703 19.255 0.93745 18.6569 1.46275 18.1963C1.97996 17.7356 2.67497 17.3881 3.53968 17.1699C4.4044 16.9517 5.47924 16.8467 6.76419 16.8467H14.7244L14.7164 16.8548Z" fill="#1F1F1F"/>
<path d="M31.9619 16.8548C32.9316 16.8548 33.7317 16.9356 34.3621 17.0972C35.0005 17.2588 35.5015 17.5255 35.8652 17.8892C36.2289 18.2529 36.4956 18.7377 36.6491 19.3358C36.8027 19.9338 36.8754 20.6531 36.8754 21.5097V24.2089C36.8754 24.815 36.7461 25.2352 36.4794 25.4696C36.2127 25.704 35.8086 25.8252 35.2591 25.8252H20.9145V26.504C20.9145 27.393 21.1246 28.0395 21.5529 28.4355C21.9812 28.8315 22.8056 29.0335 24.042 29.0335H35.8895C36.2289 29.0335 36.3986 29.2032 36.3986 29.5427V31.9267C36.3986 32.2661 36.2289 32.4358 35.8895 32.4358H23.646C22.3611 32.4358 21.2862 32.3308 20.4215 32.1207C19.5568 31.9105 18.8699 31.5792 18.3446 31.1105C17.8193 30.6417 17.4475 30.0518 17.2213 29.3245C16.995 28.5971 16.8818 27.7163 16.8818 26.698V22.6088C16.8818 21.5824 16.995 20.7096 17.2213 19.9823C17.4475 19.255 17.8193 18.6569 18.3446 18.1963C18.8618 17.7356 19.5568 17.3881 20.4215 17.1699C21.2862 16.9517 22.3611 16.8467 23.646 16.8467H31.9699L31.9619 16.8548ZM20.9064 23.3038H32.4144C32.7377 23.3038 32.8993 23.1421 32.8993 22.8189V21.6228C32.8993 21.0329 32.7781 20.6207 32.5276 20.3702C32.277 20.1197 31.8245 19.9985 31.1618 19.9985H24.0259C22.7975 19.9985 21.9651 20.1924 21.5368 20.5803C21.1084 20.9682 20.8983 21.6147 20.8983 22.528V23.2957L20.9064 23.3038Z" fill="#1F1F1F"/>
<path d="M54.7526 16.8545C56.0214 16.8545 57.0882 16.9676 57.961 17.1778C58.8338 17.396 59.5288 17.7354 60.046 18.2041C60.5632 18.6647 60.9431 19.2628 61.1693 19.9901C61.3956 20.7174 61.5088 21.5983 61.5088 22.6166V31.8214C61.5088 32.2416 61.2986 32.4436 60.8865 32.4436H58.0984C57.6781 32.4436 57.4761 32.2335 57.4761 31.8214V23.5864C57.4761 22.9964 57.4357 22.5034 57.363 22.0994C57.2902 21.6953 57.1367 21.372 56.9266 21.1296C56.7084 20.8952 56.4093 20.7255 56.0295 20.6205C55.6497 20.5154 55.1567 20.4669 54.5506 20.4669H46.9944C46.3883 20.4669 45.8873 20.5154 45.4913 20.6205C45.0953 20.7255 44.772 20.8952 44.5377 21.1296C44.3033 21.364 44.1336 21.6872 44.0366 22.0994C43.9396 22.5034 43.8912 23.0045 43.8912 23.5864V31.8214C43.8912 32.2416 43.681 32.4436 43.2689 32.4436H40.4808C40.0444 32.4436 39.8262 32.2335 39.8262 31.8214V22.6166C39.8262 21.5902 39.9393 20.7174 40.1656 19.9901C40.3919 19.2628 40.7636 18.6647 41.2889 18.2041C41.8061 17.7435 42.5011 17.396 43.3659 17.1778C44.2306 16.9596 45.3054 16.8545 46.5904 16.8545H54.7446H54.7526Z" fill="#1F1F1F"/>
<path d="M116.511 16.8548C117.481 16.8548 118.281 16.9356 118.911 17.0972C119.542 17.2588 120.051 17.5255 120.414 17.8892C120.778 18.2529 121.045 18.7377 121.198 19.3358C121.352 19.9338 121.424 20.6531 121.424 21.5097V24.2089C121.424 24.815 121.295 25.2352 121.028 25.4696C120.762 25.704 120.358 25.8252 119.808 25.8252H105.456V26.504C105.456 27.393 105.666 28.0395 106.094 28.4355C106.522 28.8315 107.347 29.0335 108.583 29.0335H120.43C120.77 29.0335 120.94 29.2032 120.94 29.5427V31.9267C120.94 32.2661 120.77 32.4358 120.43 32.4358H108.187C106.902 32.4358 105.827 32.3308 104.963 32.1207C104.098 31.9105 103.411 31.5792 102.886 31.1105C102.36 30.6498 101.989 30.0518 101.762 29.3245C101.536 28.5971 101.423 27.7163 101.423 26.698V22.6088C101.423 21.5824 101.536 20.7096 101.762 19.9823C101.989 19.255 102.36 18.6569 102.886 18.1963C103.403 17.7356 104.098 17.3881 104.963 17.1699C105.827 16.9517 106.902 16.8467 108.187 16.8467H116.511V16.8548ZM105.456 23.3038H116.964C117.287 23.3038 117.448 23.1421 117.448 22.8189V21.6228C117.448 21.0329 117.327 20.6207 117.077 20.3702C116.834 20.1197 116.374 19.9985 115.711 19.9985H108.575C107.347 19.9985 106.514 20.1924 106.086 20.5803C105.658 20.9682 105.447 21.6147 105.447 22.528V23.2957L105.456 23.3038Z" fill="#1F1F1F"/>
<path d="M126.371 16.8545C126.694 16.8545 126.92 16.9838 127.05 17.2505L133.725 28.9848C133.798 29.0979 133.903 29.1545 134.04 29.1545H134.153C134.282 29.1545 134.387 29.0979 134.468 28.9848L141.176 17.2505C141.249 17.1212 141.338 17.0161 141.435 16.9515C141.531 16.8868 141.669 16.8545 141.863 16.8545H145.015C145.225 16.8545 145.362 16.9272 145.427 17.0646C145.491 17.202 145.475 17.3717 145.386 17.5576L137.604 31.1668C137.337 31.6436 137.038 31.9749 136.699 32.1608C136.359 32.3467 135.866 32.4436 135.22 32.4436H132.892C132.27 32.4436 131.785 32.3467 131.446 32.1608C131.106 31.9749 130.799 31.6436 130.533 31.1668L122.75 17.5576C122.653 17.3717 122.645 17.202 122.71 17.0646C122.774 16.9272 122.912 16.8545 123.122 16.8545H126.387H126.371Z" fill="#1F1F1F"/>
<path d="M98.3908 37.6402C98.609 36.7674 98.512 35.9835 98.3343 35.2077C98.0514 34.044 97.5019 32.8156 96.7422 31.4417C95.9825 30.076 95.0047 28.5728 93.8329 26.9565L93.55 27.9424C93.0894 28.9445 92.5318 29.9062 91.8691 30.8114C93.146 32.662 93.6228 33.8258 94.1238 35.0137C94.2774 35.3612 94.3824 35.6764 94.4551 35.935C93.744 35.733 92.6611 35.2481 91.3923 34.5046C90.6649 34.0844 89.881 33.5833 89.0406 33.0014C89.283 32.7832 89.5254 32.5731 89.7517 32.3388C90.374 31.7165 90.9235 31.0457 91.4246 30.3507C92.0873 29.4375 92.653 28.4758 93.1055 27.4818C95.9179 21.3318 94.8107 13.8322 89.7517 8.7732C84.4745 3.50409 76.5547 2.50198 70.2754 5.7669C69.54 6.14673 68.845 6.59929 68.158 7.10034C67.4711 7.60139 66.8004 8.15093 66.17 8.7732C65.9437 8.99948 65.7255 9.24193 65.5073 9.48437C65.3861 9.30658 65.2487 9.12071 65.1356 8.94291C63.9153 7.10842 63.0748 5.52445 62.7031 4.4577C62.6546 4.32031 62.6142 4.19101 62.5818 4.06979C62.6384 4.08595 62.695 4.10211 62.7677 4.12636C63.4142 4.33648 64.3274 4.74055 65.3699 5.33858C66.2104 5.81539 66.2427 5.83963 67.2529 6.53464C67.9318 6.04167 68.6349 5.58102 69.3703 5.20119L71.2371 4.43345C68.8531 2.72826 66.7438 1.45947 64.9093 0.707897C63.988 0.33615 63.1395 0.0775427 62.2505 0.012891C61.806 -0.0194349 61.3454 0.00480949 60.8524 0.134113C60.3675 0.263416 59.8584 0.530105 59.4543 0.934178C59.0987 1.28976 58.8401 1.73424 58.7027 2.16256C58.4441 2.97879 58.4926 3.72229 58.6219 4.44962C58.8724 5.71033 59.4381 7.00336 60.2463 8.49035C61.4666 10.6966 63.2607 13.2746 65.5235 16.0869C67.7863 18.8912 70.5017 21.9218 73.5565 24.9685C78.5185 29.9224 83.3997 34.0036 87.4081 36.6624C89.4204 37.9877 91.1902 38.9656 92.7661 39.5313C93.5581 39.806 94.3097 39.9919 95.1097 40C95.5138 40 95.9341 39.9596 96.3624 39.8141C96.7907 39.6767 97.2352 39.4181 97.5908 39.0625C98.011 38.6504 98.2777 38.1251 98.3989 37.6321L98.3908 37.6402ZM76.3284 22.1884C73.0473 18.9154 70.1865 15.6667 67.9075 12.7654C68.2308 12.3533 68.5702 11.9573 68.95 11.5775C71.4391 9.08838 74.6879 7.85192 77.9447 7.85192C81.2096 7.85192 84.4503 9.08838 86.9394 11.5775C89.4285 14.0666 90.6649 17.3072 90.6649 20.5721C90.6649 23.8371 89.4285 27.0777 86.9394 29.5668C86.5596 29.9467 86.1555 30.2942 85.7433 30.6093C85.3393 30.2942 84.9271 29.9709 84.5149 29.6315C81.937 27.5303 79.1408 25.0089 76.3203 22.1884H76.3284Z" fill="url(#paint0_linear_0_1)"/>
<path d="M73.2649 32.9692C73.9165 32.9692 74.4448 32.4409 74.4448 31.7893C74.4448 31.1376 73.9165 30.6094 73.2649 30.6094C72.6132 30.6094 72.085 31.1376 72.085 31.7893C72.085 32.4409 72.6132 32.9692 73.2649 32.9692Z" fill="#77C3E7"/>
<path d="M67.2448 30.9652C68.99 30.9652 70.4047 29.5505 70.4047 27.8054C70.4047 26.0602 68.99 24.6455 67.2448 24.6455C65.4997 24.6455 64.085 26.0602 64.085 27.8054C64.085 29.5505 65.4997 30.9652 67.2448 30.9652Z" fill="#AE97E3"/>
<defs>
<linearGradient id="paint0_linear_0_1" x1="58.5007" y1="20.0064" x2="98.5201" y2="20.0064" gradientUnits="userSpaceOnUse">
<stop stop-color="#AE97E3"/>
<stop offset="1" stop-color="#77C3E7"/>
</linearGradient>
</defs>
</svg>
