<svg width="106" height="72" viewBox="0 0 106 72" fill="none" xmlns="http://www.w3.org/2000/svg">
<path d="M44.9998 0C45.4298 0 45.6498 0.22 45.6498 0.65V3.67C45.6498 4.1 45.4298 4.32 44.9998 4.32H35.4198C34.6498 4.32 34.0198 4.39 33.5098 4.52C33.0098 4.65 32.5998 4.87 32.2998 5.17C31.9998 5.47 31.7898 5.88 31.6698 6.39C31.5498 6.91 31.4898 7.54 31.4898 8.28V18.97C31.4898 19.5 31.2298 19.76 30.6998 19.76H27.1698C26.6198 19.76 26.3398 19.5 26.3398 18.97V7.31C26.3398 6.01 26.4798 4.9 26.7698 3.98C27.0598 3.06 27.5298 2.3 28.1898 1.71C28.8498 1.12 29.7298 0.69 30.8198 0.41C31.9098 0.13 33.2698 0 34.9098 0H44.9898L44.9998 0Z" fill="#EAEAEA"/>
<path d="M67.7196 0C68.9396 0 69.9596 0.1 70.7596 0.31C71.5596 0.51 72.1996 0.85 72.6696 1.32C73.1396 1.79 73.4696 2.4 73.6596 3.16C73.8496 3.92 73.9496 4.83 73.9496 5.91V9.33C73.9496 10.1 73.7796 10.63 73.4496 10.93C73.1096 11.23 72.5996 11.38 71.8996 11.38H53.7196V12.24C53.7196 13.37 53.9896 14.18 54.5296 14.69C55.0696 15.2 56.1196 15.45 57.6796 15.45H72.6896C73.1196 15.45 73.3396 15.67 73.3396 16.1V19.12C73.3396 19.55 73.1196 19.77 72.6896 19.77H57.1696C55.5396 19.77 54.1796 19.64 53.0796 19.37C51.9896 19.11 51.1096 18.68 50.4496 18.09C49.7896 17.5 49.3196 16.75 49.0296 15.82C48.7396 14.9 48.5996 13.79 48.5996 12.49V7.31C48.5996 6.01 48.7396 4.9 49.0296 3.98C49.3196 3.06 49.7896 2.3 50.4496 1.71C51.1096 1.12 51.9896 0.69 53.0796 0.41C54.1696 0.13 55.5296 0 57.1696 0H67.7196V0ZM53.7196 8.17H68.2996C68.7096 8.17 68.9096 7.97 68.9096 7.56V6.05C68.9096 5.31 68.7496 4.78 68.4396 4.47C68.1296 4.16 67.5496 4 66.7096 4H57.6696C56.1096 4 55.0596 4.25 54.5196 4.74C53.9796 5.23 53.7096 6.05 53.7096 7.21V8.18L53.7196 8.17Z" fill="#EAEAEA"/>
<path d="M95.8502 0C97.4602 0 98.8102 0.14 99.9202 0.41C101.02 0.69 101.91 1.12 102.57 1.71C103.23 2.3 103.7 3.05 103.99 3.98C104.28 4.91 104.42 6.01 104.42 7.31V18.97C104.42 19.5 104.16 19.76 103.63 19.76H100.1C99.5702 19.76 99.3102 19.5 99.3102 18.97V8.53C99.3102 7.79 99.2602 7.16 99.1702 6.64C99.0702 6.12 98.8902 5.72 98.6102 5.42C98.3302 5.12 97.9602 4.9 97.4802 4.77C97.0002 4.64 96.3802 4.57 95.6102 4.57H86.0302C85.2602 4.57 84.6302 4.64 84.1202 4.77C83.6102 4.9 83.2102 5.12 82.9102 5.42C82.6102 5.72 82.4002 6.13 82.2802 6.64C82.1602 7.16 82.1002 7.79 82.1002 8.53V18.97C82.1002 19.5 81.8402 19.76 81.3102 19.76H77.7802C77.2302 19.76 76.9502 19.5 76.9502 18.97V7.31C76.9502 6.01 77.0902 4.9 77.3802 3.98C77.6702 3.06 78.1402 2.3 78.8002 1.71C79.4602 1.12 80.3402 0.69 81.4302 0.41C82.5202 0.13 83.8802 0 85.5202 0H95.8502V0Z" fill="#EAEAEA"/>
<path d="M67.7196 28.8101C68.9396 28.8101 69.9596 28.9101 70.7596 29.1201C71.5596 29.3201 72.1996 29.6601 72.6696 30.1301C73.1396 30.6001 73.4696 31.2101 73.6596 31.9701C73.8496 32.7301 73.9496 33.6401 73.9496 34.7201V38.1401C73.9496 38.9101 73.7796 39.4401 73.4496 39.7401C73.1196 40.0401 72.5996 40.1901 71.8996 40.1901H53.7196V41.0501C53.7196 42.1801 53.9896 42.9901 54.5296 43.5001C55.0696 44.0101 56.1196 44.2601 57.6796 44.2601H72.6896C73.1196 44.2601 73.3396 44.4801 73.3396 44.9101V47.9301C73.3396 48.3601 73.1196 48.5801 72.6896 48.5801H57.1696C55.5396 48.5801 54.1796 48.4501 53.0796 48.1801C51.9896 47.9201 51.1096 47.4901 50.4496 46.9001C49.7896 46.3101 49.3196 45.5601 49.0296 44.6301C48.7396 43.7101 48.5996 42.6001 48.5996 41.3001V36.1201C48.5996 34.8201 48.7396 33.7101 49.0296 32.7901C49.3196 31.8701 49.7896 31.1101 50.4496 30.5201C51.1096 29.9301 51.9896 29.5001 53.0796 29.2201C54.1696 28.9401 55.5296 28.8101 57.1696 28.8101H67.7196ZM53.7196 36.9801H68.2996C68.7096 36.9801 68.9096 36.7801 68.9096 36.3701V34.8601C68.9096 34.1201 68.7496 33.5901 68.4396 33.2801C68.1296 32.9701 67.5496 32.8101 66.7096 32.8101H57.6696C56.1096 32.8101 55.0596 33.0601 54.5196 33.5501C53.9796 34.0401 53.7096 34.8601 53.7096 36.0201V36.9901L53.7196 36.9801Z" fill="#EAEAEA"/>
<path d="M80.9498 28.8098C81.3598 28.8098 81.6498 28.9798 81.8098 29.3098L90.2698 44.1798C90.3698 44.3198 90.4998 44.3998 90.6698 44.3998H90.8098C90.9798 44.3998 91.1098 44.3298 91.2098 44.1798L99.7098 29.3098C99.8098 29.1398 99.9098 29.0198 100.03 28.9298C100.15 28.8498 100.33 28.7998 100.57 28.7998H104.57C104.83 28.7998 105.01 28.8898 105.09 29.0698C105.17 29.2498 105.16 29.4598 105.04 29.6998L95.1798 46.9398C94.8398 47.5398 94.4598 47.9598 94.0298 48.1998C93.5998 48.4398 92.9698 48.5598 92.1598 48.5598H89.2098C88.4198 48.5598 87.8098 48.4398 87.3698 48.1998C86.9398 47.9598 86.5498 47.5398 86.2198 46.9398L76.3598 29.6998C76.2398 29.4598 76.2198 29.2498 76.3098 29.0698C76.3998 28.8898 76.5698 28.7998 76.8298 28.7998H80.9698L80.9498 28.8098Z" fill="#EAEAEA"/>
<path d="M50.5395 68.1201C50.8195 67.0101 50.6995 66.0201 50.4695 65.0301C50.1095 63.5501 49.4195 62.0001 48.4495 60.2601C47.4895 58.5301 46.2495 56.6201 44.7695 54.5801L44.4095 55.8301C43.8295 57.1001 43.1195 58.3101 42.2795 59.4701C43.8895 61.8101 44.4995 63.2901 45.1295 64.8001C45.3195 65.2401 45.4595 65.6401 45.5495 65.9701C44.6495 65.7201 43.2795 65.1001 41.6695 64.1601C40.7495 63.6301 39.7495 62.9901 38.6895 62.2601C38.9995 61.9901 39.2995 61.7101 39.5995 61.4201C40.3895 60.6301 41.0795 59.7801 41.7195 58.9001C42.5595 57.7401 43.2695 56.5301 43.8495 55.2601C47.4095 47.4701 46.0095 37.9601 39.5995 31.5401C32.9195 24.8601 22.8795 23.5901 14.9195 27.7301C13.9895 28.2101 13.0995 28.7901 12.2395 29.4201C11.3595 30.0601 10.5195 30.7501 9.72952 31.5401C9.43952 31.8301 9.15952 32.1301 8.88952 32.4401C8.73952 32.2101 8.55952 31.9801 8.41952 31.7501C6.86952 29.4201 5.80952 27.4101 5.32952 26.0601C5.26952 25.8801 5.21952 25.7201 5.16952 25.5701C5.24952 25.5901 5.31952 25.6101 5.39952 25.6401C6.21952 25.9001 7.36952 26.4201 8.69952 27.1801C9.75952 27.7801 9.79952 27.8101 11.0795 28.7001C11.9395 28.0701 12.8295 27.4901 13.7595 27.0101L16.1195 26.0401C13.0995 23.8801 10.4195 22.2701 8.10952 21.3201C6.93952 20.8501 5.86952 20.5201 4.73952 20.4401C4.17952 20.4001 3.58952 20.4301 2.96952 20.6001C2.35952 20.7701 1.70952 21.1001 1.19952 21.6201C0.739521 22.0701 0.429521 22.6301 0.249521 23.1801C-0.080479 24.2201 -0.020479 25.1601 0.149521 26.0801C0.459521 27.6801 1.17952 29.3201 2.20952 31.2001C3.74952 34.0001 6.02952 37.2701 8.89952 40.8201C11.7595 44.3701 15.2095 48.2101 19.0695 52.0701C25.3495 58.3501 31.5495 63.5301 36.6095 66.8901C39.1595 68.5701 41.3995 69.8101 43.3995 70.5201C44.4095 70.8701 45.3595 71.1101 46.3695 71.1201C46.8795 71.1201 47.4095 71.0601 47.9595 70.8801C48.5095 70.7001 49.0695 70.3801 49.5195 69.9301C50.0495 69.4101 50.3895 68.7401 50.5495 68.1201H50.5395ZM22.5895 48.5301C18.4395 44.3801 14.8095 40.2701 11.9195 36.5901C12.3295 36.0701 12.7595 35.5601 13.2395 35.0801C16.3895 31.9301 20.5095 30.3601 24.6395 30.3601C28.7695 30.3601 32.8895 31.9301 36.0395 35.0801C39.1895 38.2301 40.7595 42.3501 40.7595 46.4801C40.7595 50.6101 39.1895 54.7301 36.0395 57.8801C35.5595 58.3601 35.0495 58.8001 34.5295 59.2001C34.0195 58.8001 33.4995 58.3901 32.9695 57.9601C29.6995 55.3001 26.1595 52.1001 22.5895 48.5301Z" fill="url(#paint0_linear_0_1)"/>
<path d="M18.71 62.21C19.5384 62.21 20.21 61.5384 20.21 60.71C20.21 59.8815 19.5384 59.21 18.71 59.21C17.8815 59.21 17.21 59.8815 17.21 60.71C17.21 61.5384 17.8815 62.21 18.71 62.21Z" fill="#77C3E7"/>
<path d="M11.0791 59.6602C13.2882 59.6602 15.0791 57.8693 15.0791 55.6602C15.0791 53.451 13.2882 51.6602 11.0791 51.6602C8.86996 51.6602 7.0791 53.451 7.0791 55.6602C7.0791 57.8693 8.86996 59.6602 11.0791 59.6602Z" fill="#AE97E3"/>
<defs>
<linearGradient id="paint0_linear_0_1" x1="-0.000478971" y1="45.7801" x2="50.6995" y2="45.7801" gradientUnits="userSpaceOnUse">
<stop stop-color="#AE97E3"/>
<stop offset="1" stop-color="#77C3E7"/>
</linearGradient>
</defs>
</svg>
