<svg width="25" height="18" viewBox="0 0 25 18" fill="none" xmlns="http://www.w3.org/2000/svg">
<path d="M3.9998 17V17.5H4.9998V17H3.9998ZM11.9998 17V17.5H12.9998V17H11.9998ZM4.9998 17V16.1998H3.9998V17H4.9998ZM11.9998 16.1995V17H12.9998V16.1995H11.9998ZM8.4998 12.7C10.4329 12.7 11.9998 14.2665 11.9998 16.1995H12.9998C12.9998 13.7141 10.985 11.7 8.4998 11.7V12.7ZM4.9998 16.1998C4.9998 14.2668 6.56678 12.7 8.4998 12.7V11.7C6.01455 11.7 3.9998 13.7145 3.9998 16.1998H4.9998ZM8.4998 3.7C6.89818 3.7 5.5998 4.99837 5.5998 6.6H6.5998C6.5998 5.55066 7.45046 4.7 8.4998 4.7V3.7ZM11.3998 6.6C11.3998 4.99837 10.1014 3.7 8.4998 3.7V4.7C9.54915 4.7 10.3998 5.55066 10.3998 6.6H11.3998ZM8.4998 9.5C10.1014 9.5 11.3998 8.20163 11.3998 6.6H10.3998C10.3998 7.64934 9.54915 8.5 8.4998 8.5V9.5ZM8.4998 8.5C7.45046 8.5 6.5998 7.64934 6.5998 6.6H5.5998C5.5998 8.20163 6.89818 9.5 8.4998 9.5V8.5ZM2.8998 1.5H22.0998V0.5H2.8998V1.5ZM23.1998 2.6V15.4H24.1998V2.6H23.1998ZM22.0998 16.5H2.89981V17.5H22.0998V16.5ZM1.7998 15.4V2.6H0.799805V15.4H1.7998ZM2.89981 16.5C2.29229 16.5 1.7998 16.0075 1.7998 15.4H0.799805C0.799805 16.5598 1.74001 17.5 2.89981 17.5V16.5ZM23.1998 15.4C23.1998 16.0075 22.7073 16.5 22.0998 16.5V17.5C23.2596 17.5 24.1998 16.5598 24.1998 15.4H23.1998ZM22.0998 1.5C22.7073 1.5 23.1998 1.99249 23.1998 2.6H24.1998C24.1998 1.4402 23.2596 0.5 22.0998 0.5V1.5ZM2.8998 0.5C1.74001 0.5 0.799805 1.4402 0.799805 2.6H1.7998C1.7998 1.99249 2.29229 1.5 2.8998 1.5V0.5ZM14.8998 6.3H19.6998V5.3H14.8998V6.3ZM14.8998 11.1H19.6998V10.1H14.8998V11.1Z" fill="white"/>
</svg>
