<svg width="20" height="20" viewBox="0 0 22 24" fill="none" xmlns="http://www.w3.org/2000/svg">
<path d="M6.1999 11.4925H5.6999V12.4925H6.1999V11.4925ZM15.7999 12.4925H16.2999V11.4925H15.7999V12.4925ZM6.20045 16.2894L5.70045 16.2888L5.69936 17.2888L6.19936 17.2894L6.20045 16.2894ZM15.7994 17.2998L16.2994 17.3003L16.3004 16.3003L15.8004 16.2998L15.7994 17.2998ZM6.20023 6.69561L5.70023 6.69528L5.69957 7.69528L6.19957 7.69561L6.20023 6.69561ZM12.5996 7.6998L13.0996 7.70013L13.1002 6.70013L12.6002 6.6998L12.5996 7.6998ZM15.7999 0.799805L16.1535 0.446251L16.007 0.299805H15.7999V0.799805ZM20.5999 5.5998H21.0999V5.3927L20.9535 5.24625L20.5999 5.5998ZM6.1999 12.4925H15.7999V11.4925H6.1999V12.4925ZM6.19936 17.2894L15.7994 17.2998L15.8004 16.2998L6.20045 16.2894L6.19936 17.2894ZM6.19957 7.69561L12.5996 7.6998L12.6002 6.6998L6.20023 6.69561L6.19957 7.69561ZM18.9999 22.6998H2.9999V23.6998H18.9999V22.6998ZM1.8999 21.5998V2.39981H0.899902V21.5998H1.8999ZM2.9999 1.2998H15.7999V0.299805H2.9999V1.2998ZM20.0999 5.5998V21.5998H21.0999V5.5998H20.0999ZM15.4463 1.15336L20.2463 5.95336L20.9535 5.24625L16.1535 0.446251L15.4463 1.15336ZM2.9999 22.6998C2.39239 22.6998 1.8999 22.2073 1.8999 21.5998H0.899902C0.899902 22.7596 1.8401 23.6998 2.9999 23.6998V22.6998ZM18.9999 23.6998C20.1597 23.6998 21.0999 22.7596 21.0999 21.5998H20.0999C20.0999 22.2073 19.6074 22.6998 18.9999 22.6998V23.6998ZM1.8999 2.39981C1.8999 1.79229 2.39239 1.2998 2.9999 1.2998V0.299805C1.8401 0.299805 0.899902 1.24001 0.899902 2.39981H1.8999Z" fill="white"/>
</svg>
