<svg width="16" height="17" viewBox="0 0 16 17" fill="none" xmlns="http://www.w3.org/2000/svg">
<path d="M0.533203 10.6334L0.17965 10.2799L0.0332031 10.4263V10.6334H0.533203ZM10.1332 1.03345L10.4868 0.679894C10.393 0.586126 10.2658 0.533447 10.1332 0.533447C10.0006 0.533447 9.87342 0.586126 9.77965 0.679894L10.1332 1.03345ZM15.4665 6.36678L15.8201 6.72033C16.0154 6.52507 16.0154 6.20849 15.8201 6.01323L15.4665 6.36678ZM5.86654 15.9668V16.4668H6.07364L6.22009 16.3203L5.86654 15.9668ZM0.533203 15.9668H0.0332031C0.0332031 16.2429 0.257061 16.4668 0.533203 16.4668L0.533203 15.9668ZM0.886757 10.987L10.4868 1.387L9.77965 0.679894L0.17965 10.2799L0.886757 10.987ZM9.77965 1.387L15.113 6.72033L15.8201 6.01323L10.4868 0.679894L9.77965 1.387ZM15.113 6.01323L5.51298 15.6132L6.22009 16.3203L15.8201 6.72033L15.113 6.01323ZM5.86654 15.4668H0.533203V16.4668H5.86654V15.4668ZM1.0332 15.9668V10.6334H0.0332031V15.9668H1.0332ZM6.57965 4.587L11.913 9.92033L12.6201 9.21323L7.28676 3.87989L6.57965 4.587ZM8.5332 16.4668H15.9999V15.4668H8.5332V16.4668Z" fill="black"/>
</svg>
