<svg width="144" height="144" viewBox="0 0 144 144" fill="none" xmlns="http://www.w3.org/2000/svg">
<path d="M40.9008 101.119C39.1177 98.9148 37.35 96.9078 35.7828 94.7507C32.1518 89.7551 29.6807 84.1936 28.3295 78.1382C28.1814 77.466 27.8914 77.1972 27.2189 77.0784C23.5386 76.4219 21.231 73.7709 21.0521 69.9851C20.978 68.4657 20.9904 66.937 21.0428 65.4146C21.1847 61.2599 23.6805 58.5964 28.0519 57.9743C31.0566 44.9162 38.115 34.6905 49.4708 27.6628C57.3097 22.8141 65.8983 20.6946 75.0699 21.0353C95.5356 21.7981 114.203 37.2446 118.176 57.9743C120.101 58.1275 121.838 58.7746 123.22 60.2189C124.537 61.5975 125.259 63.2388 125.293 65.1614C125.321 66.762 125.324 68.3657 125.293 69.9694C125.228 73.5583 122.764 76.4938 119.253 77.044C118.334 77.1878 118.016 77.5473 117.803 78.4476C115.85 86.6789 111.948 93.8441 106.166 99.9589C105.876 100.265 105.599 100.581 105.111 101.119C105.827 101.119 106.302 101.119 106.777 101.119C109.051 101.119 111.328 101.075 113.601 101.15C114.178 101.169 115.039 101.422 115.227 101.825C115.415 102.235 115.088 103.098 114.718 103.535C107.036 112.623 97.51 118.891 85.9753 121.436C64.4823 126.178 46.2532 120.113 31.4669 103.563C31.3898 103.476 31.2726 103.398 31.2448 103.298C31.1091 102.804 30.7759 102.2 30.9425 101.831C31.1029 101.472 31.7754 101.166 32.232 101.153C35.0794 101.094 37.9299 101.122 40.8977 101.122L40.9008 101.119ZM73.1449 111.792C97.3372 111.735 116.816 91.9559 116.751 67.5091C116.686 43.0968 97.0935 23.2893 73.0523 23.3331C48.8816 23.3768 29.4216 43.2531 29.4771 67.8374C29.5296 92.1497 49.1006 111.848 73.1449 111.792ZM34.5982 103.466C55.6161 127.138 92.6635 125.575 111.516 103.463C108.924 103.463 106.429 103.501 103.936 103.445C102.955 103.423 102.205 103.713 101.419 104.326C91.0408 112.398 79.3333 115.58 66.3919 113.748C58.1889 112.589 50.8313 109.269 44.3436 104.014C44.032 103.76 43.6094 103.498 43.2361 103.491C40.4257 103.448 37.6153 103.466 34.5982 103.466ZM27.3331 74.6243V60.5034C25.3463 60.9035 23.6835 62.3322 23.5046 64.3204C23.3133 66.4837 23.3072 68.6908 23.4984 70.8541C23.6805 72.9456 25.6487 74.6149 27.3331 74.6274V74.6243ZM119.015 74.6525C121.036 74.4618 122.853 72.5798 122.961 70.2977C123.044 68.5095 123.047 66.7088 122.961 64.9207C122.85 62.5885 120.882 60.6003 119.018 60.6065V74.6525H119.015Z" fill="#D9D9D9"/>
<path d="M75.076 41.6016C79.9009 41.6453 86.7742 42.108 93.3791 44.4308C99.5028 46.5847 104.479 50.1642 107.28 56.3196C109.112 60.3462 109.751 64.629 109.461 69.0026C108.465 83.9926 101.298 94.9499 87.8632 101.268C66.7126 111.212 41.3295 97.5383 37.3252 74.292C36.3688 68.74 36.3719 63.2441 38.2723 57.8796C40.7433 50.9082 45.9137 46.8254 52.5834 44.4339C58.013 42.4863 64.5871 41.6016 75.076 41.6016ZM73.1047 102.221C74.7181 102.087 76.3439 102.043 77.9388 101.802C94.6779 99.2577 106.922 85.118 107.184 67.9803C107.274 62.15 106.018 56.7135 101.878 52.3369C98.6236 48.8981 94.4959 47.0224 90.035 45.8438C82.8316 43.9431 75.4832 43.7305 68.1039 44.0681C63.1988 44.2901 58.3523 44.9153 53.6786 46.5378C47.5272 48.673 42.6622 52.29 40.3916 58.7455C38.9108 62.9534 38.7257 67.3175 39.2594 71.7067C41.3819 89.1289 55.8658 102.14 73.1016 102.224L73.1047 102.221Z" fill="#D9D9D9"/>
<path d="M100.695 67.7965C100.497 69.4565 100.297 71.1197 100.103 72.7797C100.004 73.6269 99.6151 74.2521 98.6989 74.077C97.7857 73.902 97.7734 73.1673 97.8104 72.3389C97.9307 69.666 98.1744 66.9681 97.9616 64.314C97.6561 60.5125 95.5368 57.7521 92.1063 56.2484C89.9715 55.3106 87.6701 54.7572 85.4427 54.0445C85.0787 53.9288 84.5697 53.9944 84.3445 53.7631C83.9928 53.4005 83.6041 52.8252 83.6596 52.397C83.7028 52.0625 84.4494 51.5154 84.7949 51.5748C89.1478 52.3469 93.3865 53.463 96.7522 56.6267C99.3714 59.0901 100.26 62.3195 100.522 65.7895C100.571 66.4492 100.528 67.115 100.528 67.7778L100.695 67.7934V67.7965Z" fill="#D9D9D9"/>
<circle cx="72" cy="72" r="71.5" stroke="black"/>
<circle cx="72" cy="72" r="67.5" stroke="black"/>
<path d="M80.75 73.25H73.25V80.75H70.75V73.25H63.25V70.75H70.75V63.25H73.25V70.75H80.75V73.25Z" fill="#323232"/>
</svg>
