<svg width="384" height="387" viewBox="0 0 384 387" fill="none" xmlns="http://www.w3.org/2000/svg">
<path d="M0.35 5C0.35 2.43187 2.43188 0.35 5 0.35H379C381.568 0.35 383.65 2.43187 383.65 5V245.936C383.65 248.132 382.088 250.077 380.023 251.014C375.829 252.917 369.65 257.218 369.65 266C369.65 274.782 375.829 279.083 380.023 280.986C382.088 281.923 383.65 283.868 383.65 286.064V382C383.65 384.568 381.568 386.65 379 386.65H4.99999C2.43187 386.65 0.35 384.568 0.35 382V287.034C0.35 284.463 2.50881 282.284 5.03321 281.338C7.09568 280.564 9.43013 279.195 11.2481 276.774C13.0683 274.35 14.35 270.899 14.35 266C14.35 261.101 13.0683 257.65 11.2481 255.226C9.43013 252.805 7.09568 251.436 5.03321 250.662C2.50881 249.716 0.35 247.537 0.35 244.966V5Z" fill="white" stroke="#303032" stroke-width="0.7"/>
</svg>
