<svg width="384" height="426" viewBox="0 0 384 426" fill="none" xmlns="http://www.w3.org/2000/svg">
<path d="M0.35 5C0.35 2.43187 2.43188 0.35 5 0.35H379C381.568 0.35 383.65 2.43188 383.65 5V274.601C383.65 276.793 382.095 278.735 380.035 279.673C375.842 281.585 369.65 285.901 369.65 294.692C369.65 303.482 375.842 307.799 380.035 309.71C382.095 310.649 383.65 312.591 383.65 314.783V421C383.65 423.568 381.568 425.65 379 425.65H4.99999C2.43187 425.65 0.35 423.568 0.35 421V315.75C0.35 313.183 2.50032 311.008 5.01839 310.059C7.08196 309.282 9.42006 307.909 11.2415 305.483C13.065 303.054 14.35 299.597 14.35 294.692C14.35 289.786 13.065 286.329 11.2415 283.901C9.42006 281.475 7.08196 280.101 5.01838 279.324C2.50032 278.376 0.35 276.2 0.35 273.634V5Z" fill="white" stroke="#303032" stroke-width="0.7"/>
</svg>
