<svg id="Layer_1" data-name="Layer 1" xmlns="http://www.w3.org/2000/svg" viewBox="0 0 412.31 412.36"><defs><style>.cls-1{fill:none;stroke:#fff;stroke-miterlimit:10;opacity:0.8;}.cls-2{fill:#fff;opacity:0.6;}</style></defs><path class="cls-1" d="M147.74,34.48l-.9-2.35c3.13-1.21,6.3-2.34,9.42-3.37l.79,2.38C154,32.16,150.83,33.28,147.74,34.48Zm-18.08,8-1.12-2.25c-3,1.49-5.93,3.07-8.83,4.71L121,47.13C123.81,45.51,126.75,43.94,129.66,42.48Zm22.23,375.57c3.09,1.1,6.3,2.15,9.53,3.13l.73-2.41c-3.19-1-6.37-2-9.42-3.09Zm58.86,9.06-.12,2.51c3.27.16,6.63.24,10,.24h.82v-2.52h-.83C217.31,427.35,214,427.27,210.75,427.11ZM22.78,177.8l-2.45-.58c-.76,3.23-1.44,6.53-2,9.8l2.47.45C21.35,184.24,22,181,22.78,177.8Zm-4.62,29.27-2.51-.21c-.27,3.3-.47,6.66-.59,10l2.51.09C17.69,213.65,17.88,210.33,18.16,207.07ZM215.3,21l-.07-2.52c-3.33.09-6.7.26-10,.51l.18,2.5C208.68,21.28,212,21.11,215.3,21Zm55.09,400.16.62,2.44c3.2-.81,6.45-1.72,9.65-2.69l-.74-2.41C276.76,419.5,273.56,420.39,270.39,421.19ZM185.8,24l-.43-2.48c-3.26.57-6.56,1.22-9.82,2l.55,2.46C179.32,25.15,182.58,24.51,185.8,24Zm55.4,402.36.26,2.51c3.35-.35,6.69-.77,9.93-1.25l-.37-2.49C247.81,425.56,244.52,426,241.2,426.31ZM56.41,347.89c2,2.66,4.1,5.3,6.22,7.84l1.93-1.61c-2.1-2.51-4.16-5.12-6.15-7.74Zm-41.09-111c.2,3.3.49,6.65.86,10l2.49-.27c-.36-3.28-.64-6.59-.84-9.85ZM99,390c2.67,2,5.43,3.9,8.22,5.74l1.38-2.09c-2.74-1.82-5.47-3.73-8.11-5.67ZM42.4,121.54c-1.65,2.86-3.27,5.82-4.81,8.8l2.24,1.15c1.51-3,3.11-5.87,4.74-8.69ZM76.17,370.47c2.39,2.35,4.84,4.65,7.3,6.86l1.68-1.88c-2.43-2.17-4.85-4.45-7.21-6.77Zm169-350.56c-3.27-.4-6.63-.72-10-.95l-.18,2.5c3.29.24,6.6.55,9.85.94ZM40.12,322.71c1.59,2.9,3.28,5.81,5,8.65l2.14-1.31c-1.71-2.81-3.38-5.68-5-8.54ZM19.33,266.6c.68,3.24,1.46,6.52,2.31,9.74l2.43-.63c-.84-3.19-1.61-6.43-2.28-9.63ZM124.41,405.94c3,1.57,6,3.08,9,4.49l1.08-2.28c-3-1.39-5.95-2.88-8.87-4.43ZM27.66,295.43c1.14,3.07,2.39,6.19,3.7,9.28l2.31-1c-1.29-3-2.53-6.13-3.65-9.16Zm4-145.94-2.33-.93c-1.22,3.05-2.38,6.22-3.47,9.42l2.37.82C29.3,155.64,30.46,152.5,31.65,149.49ZM180.84,426c3.22.64,6.54,1.21,9.87,1.7l.36-2.49c-3.29-.48-6.56-1-9.74-1.67ZM418.21,166.75c-.94-3.2-2-6.41-3-9.54l-2.38.82c1.07,3.09,2.08,6.26,3,9.43ZM403.83,312l2.27,1.09c1.45-3,2.84-6.1,4.13-9.14l-2.32-1C406.64,306,405.27,309.05,403.83,312Zm-54.65,69.38,1.59,1.95c2.55-2.08,5.1-4.27,7.6-6.53L356.68,375C354.21,377.19,351.69,379.36,349.18,381.41Zm65.53-97,2.4.74c1-3.16,1.91-6.4,2.74-9.63l-2.44-.63C416.6,278.11,415.68,281.31,414.71,284.44ZM325,398.47l1.3,2.16c2.81-1.69,5.65-3.49,8.45-5.36l-1.4-2.09C330.54,395,327.73,396.81,325,398.47Zm82.77-259.84c-1.4-3-2.88-6.07-4.39-9l-2.23,1.16c1.49,2.87,2.95,5.86,4.34,8.87Zm-14.46-26.26c-1.79-2.76-3.69-5.54-5.66-8.26l-2,1.47c1.95,2.69,3.83,5.43,5.59,8.15ZM375.12,88.45c-2.24-2.54-4.53-5-6.79-7.35l-1.8,1.75c2.23,2.3,4.49,4.75,6.71,7.26Zm13.93,249.28,2.08,1.41c1.85-2.73,3.67-5.56,5.42-8.43l-2.15-1.31C392.68,332.24,390.88,335,389.05,337.73Zm35.4-141.63c-.46-3.31-1-6.63-1.61-9.88l-2.47.46c.6,3.21,1.13,6.5,1.58,9.76ZM370.7,361l1.85,1.69c2.26-2.47,4.48-5,6.58-7.55l-1.94-1.61C375.12,356.06,372.93,358.58,370.7,361ZM274.65,25.64c-3.22-.88-6.49-1.68-9.72-2.4l-.54,2.46c3.18.7,6.41,1.5,9.6,2.36ZM426.19,216l-2.51.1c.1,2.66.16,5.33.16,8V226l2.51,0v-1.9Q426.35,220.07,426.19,216ZM298.52,411.84l1,2.31c3-1.24,6.09-2.61,9.13-4.06l-1.08-2.27C304.53,409.25,301.49,410.6,298.52,411.84ZM421.41,255.56l2.48.4c.51-3.27.95-6.62,1.31-9.93l-2.51-.27C422.34,249,421.91,252.34,421.41,255.56ZM329.51,49.68c-2.8-1.76-5.7-3.48-8.62-5.11l-1.23,2.19c2.89,1.61,5.75,3.31,8.51,5.05ZM303,35.64c-3.07-1.34-6.19-2.62-9.29-3.8l-.9,2.35c3.07,1.16,6.15,2.43,9.17,3.76Zm50.75,31.77c-2.48-2.11-5.1-4.23-7.79-6.3l-1.53,2c2.66,2.05,5.24,4.14,7.69,6.23ZM79.27,165.83c1.28-3.1,2.67-6.17,4.13-9.12l-2.25-1.11c-1.49,3-2.9,6.12-4.21,9.26ZM93.4,139.39c1.84-2.74,3.8-5.48,5.82-8.13l-2-1.53c-2.06,2.7-4,5.47-5.92,8.27Zm274.29,34.35c-1.08-3.14-2.29-6.33-3.61-9.48l-2.32,1c1.3,3.1,2.5,6.24,3.55,9.32Zm2.86,20.11c.67,3.3,1.22,6.62,1.65,9.85l2.49-.33c-.43-3.29-1-6.66-1.67-10ZM289,84.58c-3.05-1.5-6.17-2.91-9.27-4.19l-1,2.33c3.05,1.26,6.12,2.64,9.13,4.12Zm-88.68-12L200,70.07c-3.31.44-6.69,1-10,1.67l.49,2.46C193.78,73.55,197.1,73,200.36,72.56Zm29.94-1,.15-2.51c-3.28-.2-6.58-.3-9.81-.3h-.34v2.51h.34C223.82,71.22,227.06,71.32,230.3,71.52Zm117.24,67.37c1.84,2.74,3.64,5.59,5.31,8.46l2.17-1.27c-1.7-2.91-3.52-5.81-5.4-8.6ZM119.68,109.37,118,107.48c-2.54,2.23-5,4.57-7.41,7l1.78,1.78C114.74,113.87,117.2,111.56,119.68,109.37ZM260.51,73.89c-3.27-.87-6.6-1.64-9.91-2.28l-.48,2.46c3.25.64,6.53,1.39,9.74,2.24ZM68,214.33l-2.51-.16c-.21,3.34-.31,6.69-.31,10v.17l2.51-.17C67.71,220.91,67.81,217.61,68,214.33ZM171.2,79.43l-.81-2.38c-3.15,1.07-6.35,2.28-9.49,3.6l1,2.31C165,81.67,168.1,80.49,171.2,79.43ZM307.45,353l-1.4-2.08c-2.78,1.88-5.63,3.66-8.46,5.32l1.27,2.17C301.74,356.77,304.63,355,307.45,353Zm-66.19,22.65.33,2.5c3.36-.46,6.74-1,10-1.7l-.5-2.46C247.88,374.69,244.56,375.25,241.26,375.69Zm29.14-6.91.82,2.37c3.21-1.11,6.4-2.32,9.48-3.62l-1-2.32C276.69,366.48,273.56,367.69,270.4,368.78Zm-79.57,5.39c-3.21-.64-6.49-1.4-9.74-2.27l-.65,2.43c3.31.88,6.64,1.65,9.9,2.3Zm-38.9-10.6c3,1.51,6.16,2.92,9.26,4.21l1-2.32c-3.06-1.27-6.13-2.66-9.12-4.14Zm69.39,16v-2.52h-.68c-3.34,0-6.7-.11-10-.32l-.17,2.51c3.35.22,6.77.33,10.16.33ZM305.26,96.82c2.74,1.82,5.48,3.78,8.14,5.81l1.52-2c-2.7-2.07-5.48-4.06-8.27-5.91ZM358,291.3l2.26,1.11c1.49-3.05,2.9-6.17,4.18-9.28l-2.33-1C360.88,285.23,359.5,288.3,358,291.3Zm-10,17.33c-1.85,2.78-3.8,5.53-5.81,8.15l2,1.53c2.05-2.67,4-5.46,5.91-8.28Zm-18.94,23.22c-2.33,2.34-4.77,4.66-7.28,6.87l1.67,1.88c2.54-2.25,5-4.59,7.39-7Zm-.67-216c2.36,2.34,4.67,4.79,6.86,7.27l1.89-1.65c-2.24-2.53-4.58-5-7-7.4ZM66.54,244.59c.44,3.35,1,6.72,1.66,10l2.46-.49c-.65-3.25-1.2-6.57-1.63-9.86Zm37.32,82c2.22,2.53,4.56,5,7,7.41l1.78-1.77c-2.36-2.36-4.65-4.81-6.85-7.3ZM134.11,95.08l1.41,2.08c2.73-1.83,5.58-3.62,8.46-5.3l-1.26-2.17C139.79,91.39,136.9,93.21,134.11,95.08Zm-8,252.37c2.68,2.06,5.46,4.05,8.26,5.93l1.4-2.09c-2.76-1.84-5.49-3.81-8.13-5.83Zm-46.7-64.68c-1.27-3.06-2.46-6.2-3.53-9.34l-2.37.81c1.08,3.19,2.29,6.39,3.59,9.49ZM68.13,194l2.46.48c.64-3.22,1.4-6.5,2.25-9.74l-2.42-.64C69.54,187.41,68.77,190.74,68.13,194Zm18,107.9c1.7,2.92,3.51,5.82,5.39,8.62l2.08-1.41c-1.85-2.74-3.63-5.6-5.29-8.46Zm32.34-87.31-2.51-.24c-.29,3.25-.45,6.54-.44,9.87l.68.07,1.83-.16C118,221,118.12,217.78,118.42,214.61Zm183,73,2,1.55c2.06-2.61,4-5.35,5.81-8.15L307,279.63C305.28,282.36,303.38,285,301.37,287.58Zm5.44-119.26c1.78,2.74,3.44,5.58,4.92,8.43l2.23-1.16c-1.52-2.92-3.21-5.83-5-8.64Zm-19.21-22c2.46,2.12,4.84,4.38,7.08,6.71l1.82-1.73c-2.3-2.4-4.75-4.72-7.26-6.88Zm-14.68-13.45c-2.91-1.67-5.91-3.2-8.9-4.56l-1,2.29c2.92,1.33,5.85,2.82,8.69,4.45ZM316,262.29l2.34.93c1.23-3.09,2.33-6.27,3.26-9.45l-2.42-.7C318.27,256.17,317.2,259.27,316,262.29Zm7.31-38.14c0,3.26-.15,6.54-.46,9.76l2.51.24c.31-3.3.47-6.66.47-10v-.42H323.3Zm.55-20.31c-.64-3.25-1.44-6.52-2.39-9.72l-2.4.72c.92,3.11,1.71,6.3,2.33,9.48Zm-88.5,121.93c-.56.08-1.14.09-1.71.16a18.27,18.27,0,0,0-36.1-1.76c-.33-.08-.66-.11-1-.19l-.59,2.44c.44.11.89.16,1.33.26,0,.38-.12.75-.12,1.14a18.3,18.3,0,0,0,36.6.62c.64-.08,1.31-.09,1.94-.19Zm-88.9-30.66-1.82,1.74c2.3,2.4,4.74,4.72,7.25,6.89l1.64-1.9C151.07,299.72,148.69,297.46,146.45,295.11ZM132,167.5l2.11,1.35c1.75-2.72,3.65-5.4,5.66-8l-2-1.55C135.75,162,133.8,164.71,132,167.5Zm36.16,147.83c2.91,1.67,5.9,3.21,8.9,4.57l1-2.28c-2.93-1.33-5.85-2.84-8.68-4.47Zm-15-168.59c2.43-2.12,5-4.16,7.65-6.06l-1.46-2c-2.71,2-5.35,4-7.84,6.21Zm-31.15,48.7c.88-3.07,2-6.17,3.16-9.23l-2.34-.93c-1.23,3.13-2.33,6.31-3.24,9.46ZM280.24,307.76l1.47,2c2.71-1.95,5.36-4,7.85-6.2l-1.65-1.89C285.48,303.82,282.89,305.86,280.24,307.76Zm-148-26.59,2.11-1.37c-1.77-2.74-3.43-5.58-4.91-8.44l-2.23,1.16C128.74,275.45,130.43,278.36,132.25,281.17Zm-14.87-36.91c.64,3.29,1.44,6.56,2.37,9.72l2.41-.72c-.91-3.08-1.69-6.27-2.31-9.48Zm60.34-113.4c2.95-1.36,6-2.59,9.05-3.66l-.82-2.37c-3.14,1.09-6.26,2.35-9.28,3.75Zm67.38-9c-3.25-.77-6.56-1.39-9.83-1.85l-.35,2.5c3.19.44,6.43,1,9.6,1.8Zm-39.38.73c3.22-.46,6.49-.78,9.72-.94l-.13-2.52c-3.31.17-6.66.5-9.95,1Zm48.59,198.61.82,2.37c3.12-1.07,6.24-2.33,9.29-3.72l-1.05-2.29C260.4,318.89,257.35,320.12,254.31,321.17ZM74.09,111.36a29.3,29.3,0,0,0,22.53-48c2.5-1.94,5.06-3.83,7.62-5.62l-1.45-2.06c-2.64,1.85-5.29,3.81-7.86,5.81A29.3,29.3,0,1,0,54.16,103.5c-.3.41-.63.81-.92,1.22l2,1.46c.24-.35.53-.7.78-1A29.13,29.13,0,0,0,74.09,111.36Zm295,105a25.46,25.46,0,1,0,25.45,25.46A25.46,25.46,0,0,0,369.11,216.32ZM220.64,173.45a50.71,50.71,0,1,0,50.71,50.71A50.7,50.7,0,0,0,220.64,173.45Z" transform="translate(-14.54 -18)"/><path class="cls-2" d="M237.65,204.54h0c.08.08.16.11.15.26Zm14.23,4.31c.11-.45.67-.74.63-1.11a1.55,1.55,0,0,1-1.54.57C251.12,208.75,251.81,208.31,251.88,208.85Zm-.36,10.5c-.24-.24-.24-.87-.45-1.1-.08,1.53,1.83,2.26,1.89,3.86.35-.17,1.4,1.91,1.65,2.36.16.29.42,1.22.66,1.39l1.48,1.11c.15-1.1-.58-2-1.11-2.87-.23-.37-.69-.35-.9-.69s0-.71-.19-1.11a13.55,13.55,0,0,0-2.29-2.76C252.06,219.29,251.85,219.69,251.52,219.35Zm8.87-8.47c-.24-.58-.62-.11-1.05.07,0-.3-2.44-2.76-.43-2.52-.05-1.18-.32-1.13-1.36-.68a1.61,1.61,0,0,0-.86,1.28c0,.29.43.19.43.73s.2.63.61,1,1.07.75,1.07,1.41c-.73-.34-1,.61-.48,1s1.23,1,1.74.59a7.26,7.26,0,0,1,.25-1.07c-.07-.22-.67-.28-.74-.5C259.21,210.93,260.41,211.82,260.39,210.88Zm-12-.21c.42,2,1.88.33,3.2.36.45.27,3.21,1,2.37-.09-.62-.8-1.93-.68-2.16-1.73-.66,0-.58.86-1.32.57a.77.77,0,0,1-.22-1.23c-.49-.46-1.33.21-1.16.74S248.24,210.07,248.37,210.67Zm-46.65-2.37.52-.36Zm70.06,16.76a51.17,51.17,0,1,1-92.95-30.55.56.56,0,0,0,.19.31c.7.57.59-1.33.68-1.47,0,1,.05,2.05.07,3.07a8.23,8.23,0,0,0,0,.86c.07.48.47.62.52,1.05.1.7-.57,1.58.06,2.15s1.5,1.26,1,2.29a1.62,1.62,0,0,1-.46-.31c1.28-.05-.56-2.62-1.41-2,.67.57.53,1.39,1.22,1.91-.54,0-2,4.23-2.27,4.86-.7,1.59-.06,3.38.17,5.07,0,.28.38.34.62.46s.18.94.24,1.25c.17.81.53,1.72.79,2.55.13.4-.33.2-.3.59.05.74.49.49.77,1.07.15.3-.19.88.07,1.13l1.17,1.11a27.9,27.9,0,0,0-.71-3.86,3.7,3.7,0,0,1-.16-1.81c0-.25.27-.07.33.07.14.31,0,.74-.07,1.07-.15,1,1.53,3.12,2,4a2.81,2.81,0,0,1,.33,1.63c0,.84.39,1.1.94,1.76s2.3,2.54,3.18,2,1-.13,1.82.52c.37.29.86.67,1.26.92s1.05.34,1.31.64.15,1.13.41,1.37a4.75,4.75,0,0,0,3,1.55c-.13-.89.71-1.15,1.15-.43a3,3,0,0,1-.06,2.15c-.43,1-.53,1.45-1.47,2-.48.29-.29,1.45.14,1.67-1.07,1-.47,1.62.19,2.82s1.35,3.45,2.52,4.21c1,.66,2.81,1.17,2.87,2.47l.27,6.21c.09,1.94.17,3.89.26,5.83,0,.66,0,.62.6,1s.25,1.64.22,2.3-1.28.56-.32,1.28c.71.52.87.7.24,1.51s2.23,2.91,2.79,3.22c-.06-.84.37-1.18.85-1.73-.94-.63-.16-1.25.23-2,.18-.36.31-.76.46-1.13s-.74-.52-.82-.79c-.22-.77.8-1.71.55-2.6-.2-.68.26-.59.89-.82.25-.09,0-.92-.08-1.18,1,.12,1.34-.31,1.77-1.06.58-1,.26-1-.49-1.92.45.13,1,.48,1.3.13a12.78,12.78,0,0,0,1.42-1.43,5.94,5.94,0,0,0,1.14-3.41c0-.92,1.49-1.87,2.41-1.87,1.41,0,1.72-1.5,1.79-2.72a14.82,14.82,0,0,0,.11-1.88c-.06-.88-.57-.52.21-1.24.42-.38,1.36-.94,1.6-1.46a6.6,6.6,0,0,0,.08-2.09c.05-1.16-5.74-2.58-6.66-2.86l-1.53-.15a2.65,2.65,0,0,0,.31-1.79c-.06-.77-.27-.6-.88-1a2.83,2.83,0,0,0-1.55-.64c-.54-.06-.45.43-1-.06a23.84,23.84,0,0,1-2.77-2.54c-.18-.22-1.23.2-1.63.09a2.52,2.52,0,0,1-1.66-1.06c-.45.46-.9.79-.85,1.5-1-.16,0-1.28.25-1.67-.9-.35-1.9,1-2.51,1.49s-.46.5-1.06.25c-.8-.33-.53-.1-1.25,0s-1.22.26-1.66-.64a11.49,11.49,0,0,1,.53-2.22c-.34-.41-.55-.91-1.1-.89s-1.32.24-1.65-.29c.32-.53,2.4-3.53.67-3.13-1.28.29-1.5.16-1.92,1.39-.19.55-2,.17-2.1-.26a5.49,5.49,0,0,1,.56-4.78,5.2,5.2,0,0,1,1.86-1.41c.27,0,.86.4,1.1.52a4.63,4.63,0,0,0,1.3.14c-.27-1.12,1.32-.65,2-.64,1,0,.25,1.75.26,2.1,0,.78.73,1.89,1.36.91.34-.54.63-.69.33-1.25a2.86,2.86,0,0,1-.33-1.16c0-1,.84-1.53,1.52-2.12s2.09-.77,2-1.3c-.19-1.34.44-1.61,1.36-2.6.57-.63,1.5-.56,2.32-.69-.27-1-.43-1,.48-1.55a6.81,6.81,0,0,1,1.74-.84c-1.14.7,0,1.91.68.91.34-.5.64-.38,1.24-.41.32,0,.66-1,.82-1.32-.85-.25-1.71,1.36-1.8-.43,0-.48.49-.94.16-1.34s-1.27,0-1.76.14c1.21-.94,1.67-.83,3.14-.5.76.17.8-.11,1.35-.69.35-.37,1.34-.41,1.83-.53,1-.25-1.39-2.86-1.52-3-.51-.62-.42-2.55-.55-3.36-.37.25-1.39,1.24-1.82,1.22-1.08-.06-.09-1.09-.17-1.57-.14-.95-2.56-2.68-3.08-1.65-.42.81-.84,1.62-1.25,2.44-.25.48.09,1.2-.17,1.7-.1.19-.25.72-.43.83s-1-.15-1.14.05c-.39.41.11,1.58-.31,2.14-1.29,1.7-.16-2.31-.49-2.46-1.54-.67-2.79-1.21-3.44-2.85-.25-.64-1.34-.19-.62-1.15a8.87,8.87,0,0,1,1.41-1.75,4.83,4.83,0,0,1,2-1.15c.65-.15,1.52-.66,1-1.46.4-.09,1.24-.45,1.6-.28.9.44.93.37,1.82-.12.37-.2.42-1.5.51-1.92s-.85-1-1.09-1.25a6.82,6.82,0,0,1,2,.7c.81.4.89,1.72,2,1.34-.19,1-1.37,3.91-2.7,2.23-.92,1.23-.19,2.11,1.17,1.25.17.43.37,1.53.74,1.78s1.77,1.27,1.88,1.13,1.39-1.48,1.25-1.71c-.36-.58-1.42-1.55-.56-2.07l.82,1.37c.34-.3,1.59-1.05,1.67-1.46.21-1.05-.94-.59-1.37-.46-.5-1.36-.75-1.6,0-2.83.13-.22-.87-1.06-1-1.25-.45-.48-.56-.4-1.09.09-.44-.94-.36-1.54-1.42-1.4s-.92-.78-1.15-1.83l-1.33.93c-.42.29.22,1.23-.62,1-.1-.9.63-1.6,1.1-2.3-.85-.08-1.82-.17-2.39.6-.29.41-.62,2.72-.14,2.75a10.83,10.83,0,0,1,1.12.1c-.38.59-.89,2.13-1.73,1.7.17-.28.76-.93.44-1.12-.48-.29-.72-.26-1.08.27,0-1.43.47-3.92-1.55-2.9-1,.48,0,1.06,0,1.69,0,.94-.6,1-1,1.76,0-.45.27-.8.49-1.19s0-.73-.15-1.23l-.88.54c-.29.18,0,.68-.14.93-.48.67-.94.33-1.59,0a15.3,15.3,0,0,1-1.39-1.25c-1.08.28-.92.42-1,1.52-.46-.07-.32-.35-.34-.8,0-.3-.93-.32-1.19-.37-1.11-.23-1-.22-.44-1.17a6.12,6.12,0,0,1-1.66-1.33c-.52-.62-.89-1.42-1.82-1.25.13.46-.34.95-.38.6s-.07-.54-.1-.81c.46-.37.91-.74,1.38-1.09a5.16,5.16,0,0,0,.28,1.08,4.2,4.2,0,0,0,1.18-.32c.28-.2.33-.78.67-.9a8.78,8.78,0,0,1,2.81-.6c-.49-.54-.91-1.52-1.56-1-.34.25-.35-.06-.45-.26a51.14,51.14,0,0,1,66.36,9.49c-.29,0-.56-.07-.82-.12-.54-.1-.19.48-.53.72a6.68,6.68,0,0,1-1.5.54c-.22.08-.25-.49-.41-.4l-1.47.81c-.23.13-.91.34-.92.63,0,.51.05.88-.62.78.7-1.24-.54-1.83-1.57-1.25.29.56.91,1.34.9,2-.24-.16-.46-.06-.68-.3-.41.44-1.12.83-.53,1.39l-1.55,0c.17.22.71.66.53.93s-1.06-.19-1.19-.36.09-1.06-.26-1.19-.74-.16-.85-.54c.7.15,4.34,1.13,3.31-.73-.61-1.11-2.89-1.63-4.05-1.34a2,2,0,0,1-.23-.62c.63-.33-.23-.61-.74-.65s-1.48-.07-1.5.65a.7.7,0,0,0-.73-.37c-.54,0-.43.33-.59.73l-.18-.36-1.52,1.22.24.27c-.73.21-1.24,1.72-1.49,2.38-.1.25-.82.4-.2.72s-.3.45-.62,0a12.47,12.47,0,0,1-1,1.35c-.36.37-.56-.09-.74.5a1.92,1.92,0,0,0-.17,1c.08.65.06,1.63.56,2.13s1.56-.47,1.88-1c0,.88.33,1.08.85,1.86.15.24.06,1,.26,1.14.59.37.61-.51.93-.62.71-.24.66-.19.65-1s.13-.65.53-1.25c.83-1.25-1.12-1.2-.33-2.54.26-.43.5-.32.79-.72.16-.23.42-1.2.52-1.26,1.06-.74,1.53-.28.66.67-.52.57-1.5,1.86-.53,2.58.69.52.72.73,1.48.36a3.88,3.88,0,0,1,1.47-.41c0,.43-.05.31.32.62-.53.35-1.25-.11-1.75.2-1.25.77.11.84-.12,1.92h-.32c0-.83-1.06-.57-1.3.09-.15.4.7,1.65-.4,1.64.07-.13.13-.25.19-.38a3.65,3.65,0,0,0-1,.21c-.32.11-.85.69-1.09.71s-.53-.61-1-.41-.61.24-.88-.14.9-1.85,0-2.26-1.18,1.26-1,1.79c.37,1,.19.83-.51,1.17a2.4,2.4,0,0,0-.82.58l0-.05,0,.06c-.19.23-.33.48-.69.9-.18.2-1.12,1.27-1.42,1.29s-.6-.52-.79.09c-.14.44-.85.26-1.27.27-.1,1.12,2.46,1.16,1.65,2.59-.51.89-.69.71-1.72.71-.4,0-1.63-.31-1.79,0-.27.56-.1.92-.14,1.49,0,.38-.42,1.49-.39,1.67.1.56.08.82.44,1.09.08.06,1.63.24,1.82.26a2.07,2.07,0,0,0,2.42-2c0-.49.95-.85,1.22-1.24s.24-1.56,1-.85c.62.57.94-.43,1.28-.48.8-.1,1,.39,1.47,1s.87.5,1.53,1,.55,1,.63,1.77a1.14,1.14,0,0,0,.72-1.35c1.39,0-.89-1.2-1.23-1.53s-2-2-.7-1.94c-.42,1,.52.41.65.85.17.59,1.11,1.26,1.65,1a.84.84,0,0,1,.5.75c0,.4,0,.88.43,1-.09.54.65.68,1.09.87-1.19-.08-.35,1.17.5,1.2-.12-.69.57-1,.17-1.44-.12-.13-1.05-1.45-.37-.9.25.2.82-.35,1.32-.34a2.12,2.12,0,0,0,1-.31c-.09.81-1.12,0-1.48.87a9.19,9.19,0,0,0,.27,1.37c.88-.41.22.42.63.76s1.83.24,1.8-.44c.88.35,1.37.63,2.21.06-.15.68-.09,2.79-1.09,2.79-.29,0-.48-.25-.77-.25s-.63.41-1.08.44a9.51,9.51,0,0,1-2.32-.41c-.46-.17-.16-.52-.76-.52a1.31,1.31,0,0,0-1.2.42c-.19.15.57,1.54-.44,1.08-.85-.39-1.37-1.09-2.18-1.32-.37-.11-.75-.2-1.1-.32-.66-.23-.34-.16-.34-.7a5.66,5.66,0,0,0-.1-1.49c-.42-.28-.55-.11-1,.08s-.62-.08-1.16-.1a15,15,0,0,0-2.87.54c-.39.07-.57.46-.92.59a6.12,6.12,0,0,1-1.6,0c-.82,0-1,.9-1.8,1.3s-.42,1.84-1.16,2.28a4.08,4.08,0,0,0-1.79,1.72,11.68,11.68,0,0,1-1.61,2.54s0,.06,0,.1c.89.48.42,2.07.36,2.86a2.11,2.11,0,0,0,.08,1.2,7.26,7.26,0,0,0,.35,1,7.15,7.15,0,0,0,1.46,2c.79.77,2,1.27,2.68,2.06.53-.36,1.17-.94,1.93-.78a2.25,2.25,0,0,0,2.15-.21c.44-.21,1.56-.77,2-.29s.63.82,1.23,1c.44.1.71-.54,1.15,0-1.78-.12.87,1.61,0,0,.39.39.24,1.24,0,1.71s-.66.82-.32,1.2.94.93,1.32,1.44a6.72,6.72,0,0,1,1.14,3.44c0,.6-.25.74-.66,1.18s-.27.72-.31,1.21a3.33,3.33,0,0,0,.56,2.55c.64,1,.08,1.37.46,2.32s.8,2,1.15,3c.13.37.82.77.85,1,0,.46-.66.35-.39,1s.29.61.88.84.57-.46,1.11-.46a12.82,12.82,0,0,0,2.69-.29c.78-.14,1.9-1.78,2.45-2.33.19-.19.61-.46.61-.74a4.35,4.35,0,0,1,0-1.19c.21-.35.94-.37,1.17-.71a3.08,3.08,0,0,0,.21-1.4c0-1.51.31-1.56,1.49-2.54.49-.4,1.74-.7,1.67-1.57a6.94,6.94,0,0,0-.22-2.13c-.43-.83-1-1.73-.66-2.71.58-1.58,2-2.74,3.23-4,1.4-1.51,2.64-2.66,2.73-4.85,0-.87-4.79,1.95-4.07-.54.55.46,2.48-.74,3.1-1l1.54-.63c.12-.05,0-.48.07-.53.25-.12.68.1.92,0a8,8,0,0,0,2-3.07c0-1.16-2.43-.84-1.73-2.38a1.18,1.18,0,0,0-1,.55c-.44.65-.52.59-1.31.63,0-.36.24-.87-.07-1.09-.48-.35-.74.39-.68.79a8.42,8.42,0,0,1-1.25-1.74c-.13-.37-.25-1.42.56-1,.39.18.37.35.38.74s.5.46.76.62c.68.4,1.37,1,2.07.36.44-.39.72.53,1.29.61a11.2,11.2,0,0,0,2.28.15c.41,0,1.21-.38,1.58-.07.66.57,1.09,1.26,2,1a1.68,1.68,0,0,1-.58.44c.45.84,1.39,1.61,1.86.3.28-.79.09,1.54.13,1.62C271.35,224.16,271.57,224.61,271.78,225.06Zm-20.68-9.18.82-.78c-.4-.49-.84,0-1.36,0S250.56,216,251.1,215.88Zm-4.55-.56c.38.44.79.35,1.36.33C248.62,214.88,246.73,214.89,246.55,215.32Zm-3.87-.25c-.1-.38-.67,0-.54.48C242.68,215.76,242.81,215.59,242.68,215.07Zm-1.38-1c.12.25,1.07.57,1.35.62,0-.51.18-1-.37-1.21C241.88,213.55,241,213.44,241.3,214.07Zm-1.17-2.81a2.58,2.58,0,0,0-.13-.6C238.78,211.46,240.23,212.37,240.13,211.26Zm-.77,2c.7.31,1.31-.83.84-1.26C239.32,211.21,239.33,213,239.36,213.3Zm-1.83-.45c-1.38-1.08-.8,1.39,0,0Zm7.77-12.32c-.18-.26-.7-.47-.84,0S245.14,200.85,245.3,200.53Zm-1.94,1.26a.71.71,0,0,0,.29-1.15C243.07,200.89,243,201.29,243.36,201.79Zm-2.52,1.37c.61-1.85-2.07.53,0,0Zm14.6-13.31c.31,0,.83.93,1.17.28.42-.82-.33-.6-.54-1.33-.28-1-.3-.9-1.31-1,.14.49.16,1-.46,1C254.16,189.66,254.76,189.84,255.44,189.85ZM242.83,185c-1,.4.22,1.27.84.61S243.33,184.18,242.83,185Zm-2.33.19a3.13,3.13,0,0,1,.38-.66l.16.12a1.48,1.48,0,0,0,.07,1.9,13.78,13.78,0,0,1,1.17-1.76c.35-.42.56-.43.13-.8l-.34-.27a1,1,0,0,0,.36,0c.59.79,1.24.66,1.94.07.92-.79-.25-1.66-.74-1-.34-.44-.67-.31-.8.24-.64-1.27-1.37-.1-1.14.47l-.17-.11c-.2,0-2,.56-2,.47C239.34,184.47,239.55,185.41,240.5,185.18ZM204.32,194c-.64-.63-1.28-1.26-1.93-1.88l-.85,1.08-.06,1.29A1.93,1.93,0,0,1,203,194C203.92,194.15,203.29,194.81,204.32,194Zm-5.62,27a1.36,1.36,0,0,0,.4.88C199.7,221.48,199.34,220.85,198.7,221Zm-1-1.82c.46.23.38.45.86.6-.78.31.12,1.06.63,1.15,0-.51-.24-.66-.44-1.07s.35-.67-.24-.91A.52.52,0,0,0,197.66,219.16Zm-.3,1.4a5.73,5.73,0,0,1,.79,1.06.67.67,0,0,0,.09-1l-.38.21c.42-.41,0-.87-.47-.94A2.86,2.86,0,0,0,197.36,220.56Zm.78,3.47c-.34-.41-1.38-.57-1.33.14C197.25,224.58,197.87,224.66,198.14,224Zm.76-.85a3,3,0,0,0,.44-.44c-1-.47-1.92-1.07-2.86-1.63a1.69,1.69,0,0,0-1.27,0c-.08,0-1.59.75-.86.76,1.07,0,1.83-.32,2.73.49.27.25.19.94.39,1A1.45,1.45,0,0,0,198.9,223.18Zm.31.19c.29.11.34.33.47.41-.24-.05-.52.11-.76.07a2.35,2.35,0,0,0,.1.54c.4.2,1.22-.37,1.48.35a1.11,1.11,0,0,1,1.43-.36C202.4,223.45,199.81,222.33,199.21,223.37Zm3.06.71.31.36a3.19,3.19,0,0,0,.82.12C203.68,223.74,202.75,223.56,202.27,224.08Zm2.29.57a.6.6,0,0,0,.17.82,2.1,2.1,0,0,0,.42-.36,4.09,4.09,0,0,0-.45-.64l-.1.12a2,2,0,0,0-.29-.29c-.45.07-.53.3-.26.67A1.55,1.55,0,0,0,204.56,224.65Zm.48,3.64c-.48.23-.22.67.26.94C205.65,228.81,205.77,227.67,205,228.29Zm.31-1.35.43-.23a3.14,3.14,0,0,0-.51-.52l.38-.12a1.79,1.79,0,0,0-.37-.64c-.41.22-.29,1.17-.07,1.46-.4.27-.29.23-.12.64-1.26,0,.61,1.07.13.08.16-.05.29-.2.45-.25C205.54,227.25,205.49,227,205.35,226.94Zm6.9-21c-1.76.22.14-.75-.69-1.63-.37.35-2,1.49-2.05,2,0,.86,1.91,1.17,2.47,1.37C212.78,208,212.64,205.93,212.25,206Zm-33.41-7.81c-.48.19-.19.89.18,1.17.56-.38-.07-1.23.57-1.87C179.2,196.15,178.13,197.54,178.84,198.17Zm10.9,35.77c0,.2-.64,1.5,0,1.26S190.44,234.28,189.74,233.94Zm12.37,24.64a2.17,2.17,0,0,0-.39-.35C201,258.9,201.83,260.38,202.11,258.58Zm6.16,8a3.41,3.41,0,0,1-1.8-.59c-.21-.31-.48-.61-.72-.91-.31.66-.61,1.33-.91,2C206.28,267.24,207,267.43,208.27,266.59Zm1-1.52.85-.9a4.65,4.65,0,0,0-.75-.08,2.82,2.82,0,0,0-.62.42A2,2,0,0,0,209.24,265.07Zm1.73-.73a2.68,2.68,0,0,0-.74-.5,2.77,2.77,0,0,0-.19.62c-.35.16-.51.41-.4.75C210.19,265,210.68,264.9,211,264.34Zm18.24-45.46-.81.46a2.28,2.28,0,0,0,.38.38C228.92,219.44,229.06,219.16,229.21,218.88Zm3.6-16.49.43,0a4.29,4.29,0,0,1,0,.62c-.31-.48-.67-.06-1-.15.17,0-1,.9-1,.72,0,.08.13.84.13.85s-.68.28-.69.44a.7.7,0,0,0,1,.62c.55-.21,1.39-.27,1.48-.89.05-.3,0-1.11.33-1.24.72-.35.82.8.54.83-.51.06-.66.92-1,1.41.26,0,.53.09.79.07l-1.28.75c.68.63,1.32.08,2-.24s1.3.38,1.76-.56l-.27-.16c1.15-.53-.3-1.1-.45-1.45s-.39-.86-.61-1.28,0-.8,0-1,.21-.5-.19-.5c-.11,0-.52.07-.6-.07s.72-.75,0-.87S232.94,202,232.81,202.39Zm-29.06-24c.05.9.3.67,1.17.67.44.49-.48.37-.89.42,1.08,1.47,1.62,1.38,3.24.67-.49-.73-1-1.46-1.45-2.19-.07-.11-.38-.74-.51-.77-.38-.08-.73.53-.68.82C204.26,177.68,203.71,177.81,203.75,178.34Zm-1.28.74c.4.24.49.58.16.91a2.74,2.74,0,0,0,.25.71c.49-.28,1.16-.4,1-1.06S203,178.91,202.47,179.08Zm-2.11.4c.77-.31,1,0,1.57.51,1.16.14-.13-1.43-.37-1.71C200.88,177.51,200.25,178.93,200.36,179.48Zm-2.21-.46c.71.35.79.49,1.47.1s-.83-.61-1-.64l1.21-.08c0-.58-.53-.76-1-.57C198.1,178.09,198.47,178.4,198.15,179Zm.07,7.61c-.19-.59-.64-.14-.63-.94,0-1.09.33-1.87-.66-2.5l-.59.79c-1.13-1-1.64-1.76-3.18-1a1.37,1.37,0,0,0-.86,1.64c0,.36,1.2.5,1.54.61a1.7,1.7,0,0,1-.24.53l-1.14-.7c-.69,1.31.4.55.35,1.47s.3.82,1.22,1.08c.57,0,1.4.16,1.65-.43.2.23.68,1,1,1.08a.84.84,0,0,0,1-1c.14.15.38.21.52.36A3.58,3.58,0,0,0,198.22,186.63Zm.7-5.88c-.15.1-.38.09-.53.19a1.2,1.2,0,0,1,.31-1.19c-1.24-.24-1,1.22-1.52,1.18a13.77,13.77,0,0,0-.9-1.19c-.56-.44-1.05,0-1.68.3-.2.83.85.89,1.46,1.12-.38.29-.29.66,0,1,.82-.37,1.83-1,2.23.23C198.9,181.82,199.31,181.62,198.92,180.75Zm2.18,3.35c-.47-.57-1.58-.75-1.66.21-.38-.32-.7-.18-.87.28a3.09,3.09,0,0,1,.62,1.92c.34-.2,1.24-.52,1.42-.85C200.94,185.05,200.29,184.58,201.1,184.1Zm.83-2.35c-.75-.95-1.41-.45-2.18.26l1.07.05a2.67,2.67,0,0,1-.24.61C201,183.92,202.16,182.05,201.93,181.75Zm2.1,2.92c-1.43-.48-3.26-1.14-2.74,1.08.39.12.76,0,.87-.35C202.71,186.16,203.58,185.05,204,184.67Zm4.07-.36c-.28-.23-.8-.85-1.14-.92s-.92.25-1.36.21c-1.69-.16-.61-.82-1.31-1.82-.32-.46-2.06-1.38-1.93-.28.1.81,1.21.75.65,1.61-.61-.24-1.28-.8-1.44.17.59.21,1.2.7,1.45-.15-.18,1.18,2,1.33,2.78,1.6C207,185.12,207.11,185.16,208.1,184.31Zm.64,2.63c-.47-.5-1.41-1.91-2.05-.78C206.94,187,208,186.85,208.74,186.94Zm5.8-6.92-1.08-.3c.75-.36,1.95.37,2.44-.62l-4.33-1.54c-.82-.29-1.34.67-1.85.24s-1.78-1.38-1.63-.06c-.57-.73-.9-.48-1.68-.23,0,.83.85.75,1.48.89-.65,1.52,1.82.83,2.38.69.07.45-1,1.15-1.34.9a1.75,1.75,0,0,0-1.79-.48l.82,1.16c-.64.17-.5-.63-1.24-.12-.42.28.35,1.21.91,1-.06,1.18-.93-.35-1.22-.41s-.65,0-.65.29-.62.32-.92.39c.28.85,1.32,1,2.09,1.07a2.08,2.08,0,0,1,1.08.53c.27.2.84-.3,1.12-.45-.17-.12-.27-.34-.45-.44.46.1,1.27-.56,1.87-.66s-.79-1.12-.31-1C212,181.16,212.89,180.67,214.54,180Zm1.72,11.74c.35-.62.1-1.4-.62-1.09S215.69,191.87,216.26,191.76Zm4.59,21.2a5.24,5.24,0,0,0,.73.41C221.88,212.7,221.24,212.26,220.85,213Zm1.93,0,.41-.1c-.32-.44-.71-.64-1.09-.16.31.17.3.3.63.28a.67.67,0,0,0,.08,1C223.4,213.78,223.16,213.36,222.78,213Zm1.54,13c-.21-.49-.57-.49-.93-.1A.56.56,0,0,0,224.32,226Zm.34-11.88c-.44-.29-.84-.39-1,.16C224,214.64,224.34,214.44,224.66,214.11Zm.06,13a2.14,2.14,0,0,0-.39-.67,2.07,2.07,0,0,0-.5.3C224,227.26,224.31,227.5,224.72,227.15Zm.57-.69c-.24-.47-.58-.65-.9-.19C224.52,226.8,224.89,226.8,225.29,226.46Zm.31-32.74c.84,0,1-.27,1.55-.88.39-.4,1.25-.38,1.55-.77.48-.62,0-1.1-.4-1.47-.62-.54-1-.39-1.28-1.23-.26-.68,1-.41,1.29-.27.92.49.84.53,1.54-.24a8.62,8.62,0,0,0-.78-.44l1.45-2a.89.89,0,0,0-.89-1.33c0-.82,2.6-2.35,3.24-2.92a2.52,2.52,0,0,0-3.74.16l.46-1c-.78-.19-1.1-.43-1.41.47-.49-.73-1.36-.37-2.09-.29.29-1,2.51-.58,3.33-.61-1-1.31-1.37-1.27-3-1.58-.58-.11-2.81-.54-2.38.57-.55-.18-1.2-.14-1-.84-.64.13-1.33.07-1.41.9l.86.3c-.56.57-.69.56-1.16,0a1.45,1.45,0,0,0-.71-.42h0l-.11,0-.59-.16c0,.56-.06.8-.57.8-.71,0-.4-.74-.89-.82-.71-.11-2.75-.58-2.61.76-.9-.12-1.83-.28-1.77.84,0,.79-1.31.61-1.72.14-.81,1.31.08,1.57,1.34,1.41,0,1-1.57-.22-1.94.7a8.31,8.31,0,0,1,.51,1.2c.59.77.44.47,1.31.35a1.87,1.87,0,0,1,2.13,1.35c.58,1.56.66,1.73-.05,3.22.55-.09,1.58-.44,1.48.49l-1.21.06c.4.41.73.92,1.36.91-1.11,1.49-2,2.39-1.39,4.29.09.29-.27.55-.17.84a6.67,6.67,0,0,0,.42,1.31c.34.59.89,1.22,1.58.81-.11.87.33,1.23,1.1,1.18.38,0,.44-1.51.62-1.85.09-.18.19-.34.29-.5l.12-.15.21-.26.15-.15a1.34,1.34,0,0,1,.21-.2l.16-.14a9.74,9.74,0,0,1,2.44-1.2l1.14-1.42C224.4,193.38,225.16,193.72,225.6,193.72Zm2.78-4.33c-.46-.14-1,.17-.49.61l1.06.53C229,189.71,229.17,189.62,228.38,189.39Zm-1.54,7.79c.64.06,1.19.51,1.82.43s1.6-1,1.61-1.56-.08-.6-.54-1c-.62-.53-.3.2-.75.17s-.28-.33-.63-.29-.7.4-1,.69c1-2-2.78.32-.94.23C225.85,196.73,227.08,196.31,226.84,197.18Zm.75,18.75a2.94,2.94,0,0,0-.35.44c.18.42.5.45.84.13A2.06,2.06,0,0,0,227.59,215.93Zm-.53,3.74c.06-.15.13-.29.19-.44a.66.66,0,0,0,.84.48c0-.61-.31-.78-.83-.49,0-.09.07-.17.11-.26a.55.55,0,0,0-.87.22A1.76,1.76,0,0,0,227.06,219.67Zm11.48,14.23c.13,1.19,1.15-.58,0,0Zm.38-.67c.2,1.43,1.26-.61,0,0Zm18.54,6.66c.09.55,1.31,1.68,1.31.4-.19.07-.42,0-.6.09.1-.15.1-.38.2-.53Zm3.05.21c-.62.08-1,1.48-1.33,2s-1.78-.14-1.73.94c0,.51.05,1,.07,1.55,0,.36-.58.58-.7.91-.19.54.08,2,.75,2.23a1.15,1.15,0,0,0,1.45-1.39c-.12-.59,1-1.89,1.29-2.4.18-.32.42-.46.16-.74-.54-.59.43-.57.44-.58C261.26,241.92,260.78,240.82,260.51,240.1Zm2.5-3.78a.7.7,0,0,0,.91.55l-.36-.94A2.73,2.73,0,0,0,263,236.32Zm-.2-8.89c-.37-.65-1-.22-1.55-.2C261.78,228.18,262.05,227.66,262.81,227.43Zm-.22,10.48a3.45,3.45,0,0,0-.65-.36C261.48,238.08,262.24,238.65,262.59,237.91Zm.74,7.89a.78.78,0,0,0-1-.37C262.07,246.23,262.88,246.16,263.33,245.8Zm.18-8.16.48.09C264.42,236.42,262.88,237.05,263.51,237.64Zm.92,7.55a1.75,1.75,0,0,0-.57-.44,2.81,2.81,0,0,0-.38.49,3.63,3.63,0,0,0,.09.65Z" transform="translate(-14.54 -18)"/></svg>