<svg width="114" height="114" viewBox="0 0 114 114" fill="none" xmlns="http://www.w3.org/2000/svg">
    <path d="M36.7768 4.41924L36.5313 3.76454C37.4043 3.42355 38.2774 3.10983 39.1504 2.8234L39.3687 3.4781C38.5093 3.76454 37.6499 4.06461 36.7905 4.4056L36.7768 4.41924ZM31.7705 6.6425L31.4567 6.01508C30.6383 6.42426 29.8198 6.86073 29.015 7.32448L29.356 7.92462C30.1472 7.47452 30.9657 7.03805 31.7705 6.62886V6.6425ZM37.9363 110.726C38.7957 111.027 39.6824 111.327 40.5827 111.599L40.7874 110.931C39.9007 110.658 39.0276 110.372 38.1819 110.072L37.95 110.726H37.9363ZM54.2513 113.236L54.2104 113.932C55.1243 113.973 56.0519 114 56.9932 114H57.2251V113.304H56.9932C56.0656 113.304 55.1516 113.291 54.2513 113.236ZM2.14168 44.1515L1.45961 43.9878C1.255 44.888 1.06402 45.8019 0.886682 46.7021L1.56874 46.8248C1.73244 45.9246 1.92342 45.0244 2.12804 44.1378L2.14168 44.1515ZM0.859399 52.267L0.163695 52.2125C0.0818475 53.1263 0.0272825 54.0538 0 54.9813L0.695704 55.0086C0.722987 54.0948 0.777552 53.1809 0.859399 52.267V52.267ZM55.5063 0.695621V0C54.565 0.0272793 53.6238 0.0681981 52.7098 0.136396L52.7644 0.832017C53.6647 0.763819 54.5923 0.7229 55.5063 0.695621ZM70.7709 111.599L70.9482 112.268C71.8349 112.05 72.7352 111.79 73.6219 111.518L73.4173 110.849C72.5442 111.122 71.6575 111.368 70.7709 111.586V111.599ZM47.3215 1.50036L47.1988 0.818378C46.2984 0.968414 45.3845 1.15937 44.4705 1.36396L44.6206 2.04594C45.5072 1.84135 46.4212 1.66403 47.3079 1.514L47.3215 1.50036ZM62.6816 113.018L62.7498 113.714C63.6774 113.618 64.605 113.495 65.5053 113.373L65.3962 112.691C64.5095 112.827 63.5955 112.936 62.6816 113.032V113.018ZM11.4587 91.29C12.0179 92.0266 12.5909 92.7631 13.1775 93.4587L13.7095 93.0086C13.1229 92.313 12.55 91.5901 12.0043 90.8672L11.445 91.29H11.4587ZM0.0682063 60.519C0.122771 61.4329 0.204619 62.3604 0.300108 63.2879L0.995812 63.206C0.900323 62.2922 0.818476 61.3783 0.76391 60.4781L0.0682063 60.519V60.519ZM23.2583 102.952C23.995 103.497 24.7589 104.029 25.5364 104.548L25.9184 103.975C25.1545 103.47 24.4042 102.938 23.6676 102.406L23.2583 102.966V102.952ZM7.5709 28.5614C7.1071 29.3525 6.67058 30.1709 6.23406 31.0029L6.84791 31.3166C7.27079 30.4982 7.70731 29.6935 8.15747 28.9024L7.55726 28.5477L7.5709 28.5614ZM16.9288 97.5506C17.5836 98.2053 18.2656 98.8464 18.9477 99.4465L19.4115 98.9282C18.7431 98.3281 18.061 97.7006 17.4199 97.0459L16.9288 97.537V97.5506ZM63.7865 0.38191C62.8726 0.272793 61.945 0.190955 61.031 0.122757L60.9764 0.818378C61.8904 0.886576 62.8044 0.968414 63.7047 1.07753L63.7865 0.38191ZM6.9434 84.3065C7.37992 85.1113 7.85737 85.916 8.33481 86.7071L8.92138 86.3388C8.44394 85.5614 7.98014 84.7703 7.54362 83.9655L6.92976 84.3065H6.9434ZM1.18679 68.7574C1.37777 69.6576 1.59603 70.5578 1.82793 71.458L2.49635 71.2807C2.26445 70.3941 2.04619 69.4939 1.86885 68.6073L1.18679 68.7574V68.7574ZM30.3109 107.371C31.1294 107.808 31.9615 108.23 32.7936 108.612L33.0937 107.985C32.2752 107.603 31.4431 107.18 30.6383 106.757L30.3109 107.371ZM3.49216 76.7502C3.80591 77.5958 4.14694 78.4688 4.51526 79.3281L5.1564 79.0553C4.80172 78.2096 4.46069 77.3503 4.14694 76.5183L3.49216 76.7638V76.7502ZM4.5971 36.3087L3.95597 36.0495C3.61493 36.8952 3.30118 37.7681 2.98744 38.6547L3.64222 38.8866C3.94232 38.0136 4.25607 37.1407 4.5971 36.3087ZM45.9438 112.936C46.8304 113.113 47.758 113.277 48.6856 113.4L48.7811 112.718C47.8672 112.581 46.9669 112.431 46.0802 112.254L45.9438 112.936ZM111.749 41.0826C111.49 40.196 111.204 39.3094 110.903 38.4365L110.249 38.6683C110.549 39.5276 110.822 40.4006 111.081 41.2872L111.749 41.0962V41.0826ZM107.766 81.3467L108.393 81.6468C108.803 80.8148 109.185 79.9555 109.539 79.1098L108.898 78.837C108.543 79.6691 108.162 80.5147 107.766 81.3467ZM92.6241 100.579L93.0607 101.111C93.77 100.538 94.4794 99.9239 95.1614 99.2965L94.6976 98.7782C94.0156 99.392 93.3199 99.9921 92.6241 100.565V100.579ZM110.781 73.7085L111.449 73.9131C111.722 73.0402 111.981 72.14 112.213 71.2398L111.545 71.0625C111.313 71.949 111.067 72.8356 110.794 73.6949L110.781 73.7085ZM85.899 105.312L86.2537 105.912C87.0312 105.448 87.8224 104.943 88.6 104.425L88.218 103.852C87.4541 104.37 86.6766 104.861 85.899 105.325V105.312ZM108.844 33.2943C108.462 32.4487 108.052 31.6167 107.63 30.8119L107.016 31.1393C107.425 31.9304 107.834 32.7624 108.216 33.5944L108.844 33.308V33.2943ZM104.833 26.0108C104.342 25.2469 103.81 24.4695 103.264 23.7193L102.705 24.1285C103.251 24.8787 103.769 25.6289 104.246 26.3927L104.833 26.0108ZM99.7995 19.3819C99.172 18.6726 98.5444 17.9907 97.917 17.3496L97.4122 17.827C98.0261 18.4681 98.6536 19.15 99.2674 19.8457L99.7858 19.3819H99.7995ZM103.66 88.4666L104.233 88.8622C104.751 88.112 105.256 87.3209 105.733 86.5298L105.133 86.1615C104.656 86.9526 104.151 87.7164 103.646 88.4666H103.66ZM113.468 49.2118C113.345 48.2979 113.195 47.3704 113.018 46.4702L112.336 46.593C112.499 47.4795 112.65 48.3934 112.772 49.2936L113.468 49.1981V49.2118ZM98.5717 94.9182L99.0901 95.3956C99.7176 94.7136 100.331 94.0043 100.918 93.295L100.386 92.8449C99.8131 93.5406 99.1992 94.2362 98.5854 94.9182H98.5717ZM71.9576 1.97775C71.0573 1.73223 70.157 1.514 69.2567 1.3094L69.1066 1.99139C69.9933 2.18234 70.88 2.40057 71.7667 2.64609L71.944 1.97775H71.9576ZM113.959 54.7495L113.263 54.7767C113.291 55.5133 113.304 56.2498 113.304 57V57.5183H114V57C114 56.2498 114 55.4996 113.959 54.7495V54.7495ZM78.5736 109.022L78.8465 109.663C79.6786 109.322 80.538 108.94 81.3837 108.531L81.0836 107.903C80.2515 108.299 79.4058 108.667 78.5873 109.022H78.5736ZM112.636 65.7157L113.318 65.8248C113.454 64.9246 113.577 63.9971 113.686 63.0696L112.991 63.0014C112.895 63.9153 112.772 64.8291 112.636 65.7157V65.7157ZM87.154 8.63388C86.3764 8.14286 85.5716 7.66547 84.7668 7.21536L84.4257 7.81551C85.2306 8.26561 86.0218 8.72936 86.7857 9.22039L87.154 8.63388V8.63388ZM79.8014 4.74659C78.9556 4.37832 78.0826 4.02369 77.2232 3.69634L76.9776 4.35104C77.8234 4.67839 78.6828 5.01938 79.5149 5.38765L79.8014 4.74659V4.74659ZM93.8655 13.5578C93.1834 12.9713 92.4468 12.3848 91.7102 11.8119L91.2873 12.3575C92.0239 12.9304 92.7469 13.5032 93.4153 14.0761L93.8655 13.5441V13.5578ZM17.8018 40.8234C18.1565 39.9641 18.5385 39.1184 18.9477 38.3001L18.3202 37.9864C17.911 38.8184 17.5154 39.6777 17.1607 40.5506L17.8018 40.8234V40.8234ZM21.7169 33.4989C22.2216 32.7351 22.7673 31.9849 23.3266 31.2484L22.7809 30.8256C22.208 31.5757 21.6623 32.3396 21.144 33.117L21.7169 33.4989V33.4989ZM97.7396 43.0194C97.4395 42.1464 97.1121 41.2599 96.7438 40.3869L96.1027 40.6597C96.4573 41.519 96.7984 42.392 97.0848 43.2513L97.7396 43.0194V43.0194ZM98.5308 48.598C98.7218 49.5118 98.8718 50.4393 98.981 51.3259L99.6767 51.2304C99.5539 50.3166 99.4039 49.3891 99.2129 48.448L98.5308 48.5843V48.598ZM75.9409 18.318C75.0951 17.8952 74.2357 17.5133 73.3763 17.1587L73.1035 17.7997C73.9493 18.1543 74.795 18.5363 75.6271 18.9454L75.9409 18.318V18.318ZM51.3593 14.9899L51.2639 14.2943C50.3499 14.4171 49.4086 14.5671 48.481 14.7581L48.6174 15.4401C49.5314 15.2627 50.4454 15.0991 51.3457 14.9899H51.3593ZM59.6532 14.7035L59.6941 14.0079C58.7802 13.9533 57.8662 13.9261 56.9795 13.9261H56.884V14.6217H56.9795C57.8662 14.6217 58.7665 14.649 59.6532 14.7035ZM92.1467 33.3762C92.6651 34.14 93.1562 34.9311 93.62 35.7222L94.2202 35.3676C93.7427 34.5628 93.238 33.7581 92.7196 32.9806L92.1467 33.3762V33.3762ZM28.9877 25.1924L28.5239 24.6741C27.8282 25.2879 27.1325 25.9426 26.4777 26.5973L26.9688 27.0883C27.6235 26.4336 28.292 25.7925 28.9877 25.1924ZM68.0153 15.3582C67.115 15.1127 66.1874 14.9081 65.2734 14.7308L65.137 15.4128C66.0373 15.5901 66.9513 15.7947 67.838 16.0402L68.0153 15.3719V15.3582ZM14.678 54.2721L13.9823 54.2312C13.9277 55.1586 13.9004 56.0861 13.9004 57V57.0409L14.5961 57C14.5961 56.0998 14.6234 55.1859 14.678 54.2721ZM43.2837 16.8859L43.0518 16.2312C42.1788 16.5312 41.2921 16.8586 40.419 17.2268L40.6919 17.8679C41.5513 17.5133 42.4243 17.1859 43.2837 16.8859V16.8859ZM81.0564 92.7222L80.6608 92.1493C79.8969 92.6676 79.1057 93.1723 78.3145 93.6224L78.6691 94.2225C79.474 93.7588 80.2652 93.2541 81.0564 92.7222ZM62.7089 98.9964L62.8044 99.692C63.732 99.5693 64.6732 99.4056 65.5872 99.2283L65.4508 98.5463C64.5504 98.7236 63.6365 98.8873 62.7225 99.01L62.7089 98.9964ZM70.7845 97.0732L71.0164 97.7279C71.9031 97.4142 72.7898 97.0869 73.6492 96.7186L73.3763 96.0775C72.5306 96.4322 71.6712 96.7595 70.7845 97.0596V97.0732ZM48.7266 98.5736C47.8399 98.3963 46.9259 98.1917 46.0256 97.9462L45.8483 98.6145C46.7622 98.86 47.6898 99.0782 48.5902 99.2556L48.7266 98.5736ZM37.95 95.6411C38.7957 96.0639 39.6551 96.4458 40.5145 96.8004L40.7874 96.1594C39.9416 95.8047 39.0958 95.4228 38.2637 95.0136L37.95 95.6411V95.6411ZM57.1842 100.088V99.392H56.9932C56.0656 99.392 55.138 99.3647 54.224 99.3101L54.1831 100.006C55.1107 100.06 56.0519 100.101 56.9932 100.101H57.1842V100.088ZM80.4425 21.7006C81.2064 22.2053 81.9567 22.7509 82.6933 23.3101L83.1162 22.7645C82.3659 22.1917 81.602 21.6461 80.8245 21.1278L80.4425 21.7006V21.7006ZM95.0659 75.6045L95.6934 75.9182C96.1027 75.0725 96.4983 74.2132 96.8529 73.3403L96.2118 73.0675C95.8571 73.9131 95.4752 74.7724 95.0659 75.6045V75.6045ZM92.3104 80.4056C91.792 81.1694 91.26 81.9332 90.7007 82.6561L91.26 83.079C91.8193 82.3424 92.3786 81.565 92.897 80.7875L92.324 80.4056H92.3104ZM87.0585 86.8435C86.4174 87.4982 85.7353 88.1393 85.0396 88.7394L85.5034 89.2577C86.2128 88.6303 86.8948 87.9892 87.5496 87.3209L87.0585 86.8299V86.8435ZM86.8812 26.9655C87.536 27.6202 88.1771 28.2886 88.7773 28.9842L89.2957 28.5205C88.6818 27.8248 88.027 27.1292 87.3586 26.4745L86.8675 26.9655H86.8812ZM14.2688 62.6604C14.3915 63.5879 14.5416 64.5291 14.7326 65.4429L15.4146 65.3065C15.2373 64.4063 15.0872 63.4788 14.9645 62.5786L14.2688 62.6741V62.6604ZM24.6088 85.3977C25.2227 86.0933 25.8775 86.7889 26.5322 87.4573L27.0233 86.9663C26.3686 86.3116 25.7411 85.6296 25.1272 84.9476L24.6088 85.4113V85.3977ZM32.9982 21.2233L33.3938 21.7961C34.1577 21.2915 34.9489 20.7868 35.7401 20.323L35.3854 19.7229C34.5806 20.2003 33.7758 20.705 32.9982 21.2233V21.2233ZM30.7747 91.1673C31.5113 91.7401 32.2889 92.2857 33.0664 92.804L33.462 92.2312C32.6981 91.7129 31.9342 91.1809 31.2112 90.6217L30.7883 91.1673H30.7747ZM17.8291 73.2448C17.4745 72.3991 17.1471 71.5262 16.847 70.6533L16.1922 70.8851C16.4923 71.7717 16.8333 72.6583 17.188 73.5176L17.8291 73.2448ZM14.7053 48.6525L15.3873 48.7889C15.5647 47.9024 15.7693 46.9885 16.0148 46.0883L15.3464 45.911C15.1009 46.8248 14.8826 47.7523 14.7053 48.6525ZM19.6843 78.5506C20.1481 79.3553 20.6529 80.1601 21.1712 80.9375L21.7442 80.542C21.2258 79.7782 20.7347 78.9871 20.2846 78.196L19.6843 78.5506ZM28.6466 54.3539L27.9509 54.2857C27.8691 55.1859 27.8282 56.0998 27.8282 57.0136H28.0191L28.5239 56.9864C28.5239 56.1134 28.5648 55.2132 28.6466 54.3403V54.3539ZM79.3648 74.5815L79.9105 75.0179C80.4834 74.295 81.0154 73.5312 81.5202 72.7538L80.9336 72.3719C80.4425 73.122 79.9241 73.8722 79.3648 74.5815ZM80.8654 41.5327C81.3565 42.2965 81.8203 43.0739 82.2295 43.865L82.8434 43.5377C82.4205 42.7329 81.9567 41.9282 81.452 41.1371L80.8654 41.519V41.5327ZM75.5453 35.4357C76.2274 36.0223 76.8821 36.6497 77.5096 37.2907L78.0144 36.8134C77.3732 36.145 76.7048 35.5039 75.9954 34.9038L75.5453 35.4357ZM71.4802 31.7121C70.6754 31.2484 69.8432 30.8256 69.0111 30.4436L68.7247 31.0711C69.5295 31.4393 70.348 31.8485 71.1392 32.2986L71.4802 31.6985V31.7121ZM83.4163 67.5843L84.0574 67.8435C84.3985 66.9842 84.6986 66.1113 84.9578 65.2247L84.2893 65.0337C84.0438 65.893 83.7437 66.7523 83.4027 67.5843H83.4163ZM85.4488 57.0136C85.4488 57.9139 85.4079 58.8277 85.3261 59.7143L86.0218 59.7825C86.1036 58.8686 86.1582 57.9411 86.1582 57.0136V56.8909H85.4625V57.0136H85.4488ZM85.5989 51.3805C85.4216 50.4803 85.2033 49.58 84.9305 48.6935L84.2621 48.8981C84.5212 49.7574 84.7395 50.6439 84.9032 51.5305L85.5853 51.3941L85.5989 51.3805ZM61.0719 85.1795C60.9219 85.2067 60.7582 85.2067 60.5945 85.2204C60.3353 82.6698 58.1936 80.6648 55.5608 80.6648C53.1054 80.6648 51.0456 82.4106 50.5818 84.7294C50.4863 84.7021 50.3908 84.7021 50.309 84.6748L50.1453 85.3568C50.268 85.3841 50.3908 85.3977 50.5136 85.425C50.5136 85.5341 50.4863 85.6296 50.4863 85.7387C50.4863 88.5485 52.7644 90.8126 55.5608 90.8126C58.3573 90.8126 60.5263 88.6303 60.6218 85.9024C60.7991 85.8751 60.9901 85.8751 61.1538 85.8478L61.0583 85.1658L61.0719 85.1795ZM36.4358 76.682L35.9311 77.1594C36.5722 77.8277 37.2406 78.4688 37.9363 79.0689L38.3865 78.537C37.7044 77.9505 37.0497 77.323 36.4222 76.6683L36.4358 76.682ZM32.4389 41.3144L33.0255 41.6963C33.5166 40.9462 34.0349 40.196 34.5942 39.4867L34.0486 39.0502C33.4756 39.7731 32.9436 40.537 32.4526 41.3144H32.4389ZM42.4652 82.2879C43.2701 82.7516 44.1022 83.1744 44.9343 83.5563L45.2208 82.9289C44.4159 82.5607 43.5975 82.1378 42.8199 81.6877L42.4652 82.2879ZM38.3183 35.5585C38.9867 34.972 39.7097 34.4128 40.4463 33.8808L40.0371 33.3216C39.2868 33.8672 38.5502 34.4401 37.8681 35.0402L38.3319 35.5721L38.3183 35.5585ZM29.6834 49.0617C29.9289 48.2161 30.229 47.3568 30.5564 46.4975L29.9153 46.2383C29.5742 47.1113 29.2741 47.9842 29.015 48.8571L29.6834 49.0481V49.0617ZM73.54 80.1874L73.9493 80.7466C74.6995 80.2146 75.4362 79.6281 76.1319 79.028L75.6681 78.496C74.9996 79.0826 74.2767 79.6418 73.54 80.1737V80.1874ZM32.5208 72.822L33.1073 72.4401C32.6162 71.6762 32.1524 70.8988 31.7432 70.094L31.1294 70.4214C31.5522 71.2398 32.016 72.0445 32.5208 72.822ZM28.4011 62.5922C28.5784 63.5061 28.7967 64.4063 29.0559 65.2929L29.7243 65.0883C29.4651 64.229 29.2605 63.3561 29.0832 62.4559L28.4011 62.5922ZM45.1253 31.1665C45.9438 30.7846 46.7895 30.4436 47.6353 30.1572L47.4034 29.5025C46.5303 29.8026 45.6709 30.1572 44.8252 30.5391L45.1116 31.1665H45.1253ZM63.8002 28.6705C62.8998 28.4523 61.9859 28.2886 61.0719 28.1522L60.9764 28.8478C61.8631 28.9706 62.7498 29.1342 63.6365 29.3525L63.8002 28.6705V28.6705ZM52.8872 28.8751C53.7738 28.7523 54.6878 28.6569 55.5881 28.6159L55.5472 27.9203C54.6332 27.9612 53.7056 28.0567 52.7917 28.1931L52.8872 28.8751V28.8751ZM66.3511 83.911L66.583 84.5657C67.4424 84.2656 68.3154 83.9246 69.1612 83.5291L68.8747 82.9016C68.0562 83.2836 67.2105 83.6246 66.3647 83.911H66.3511ZM16.3695 25.738C20.8575 25.738 24.4997 22.0962 24.4997 17.6088C24.4997 15.631 23.7904 13.8169 22.6172 12.4121C23.3129 11.8801 24.0223 11.3482 24.7316 10.8571L24.336 10.2843C23.5994 10.8026 22.8764 11.3345 22.1534 11.8938C20.6801 10.407 18.634 9.47954 16.3832 9.47954C11.8952 9.47954 8.25296 13.1213 8.25296 17.6088C8.25296 19.9548 9.26241 22.0689 10.8584 23.5556C10.7766 23.6648 10.6811 23.7739 10.5993 23.8966L11.1722 24.3058C11.2404 24.2103 11.3222 24.1149 11.3905 24.0194C12.7682 25.0969 14.5007 25.7516 16.3832 25.7516L16.3695 25.738ZM98.1489 54.8313C94.2475 54.8313 91.0963 57.9957 91.0963 61.883C91.0963 65.7703 94.2611 68.9347 98.1489 68.9347C102.037 68.9347 105.201 65.7703 105.201 61.883C105.201 57.9957 102.037 54.8313 98.1489 54.8313ZM56.9932 42.9512C49.2313 42.9512 42.9427 49.2391 42.9427 57C42.9427 64.7609 49.2313 71.0488 56.9932 71.0488C64.7551 71.0488 71.0437 64.7609 71.0437 57C71.0437 49.2391 64.7551 42.9512 56.9932 42.9512V42.9512Z" fill="#8D8D8D"/>
</svg>
