<?xml version="1.0" encoding="utf-8"?>
<!-- Generator: Adobe Illustrator 24.1.1, SVG Export Plug-In . SVG Version: 6.00 Build 0)  -->
<svg version="1.1" id="Layer_1" xmlns="http://www.w3.org/2000/svg" xmlns:xlink="http://www.w3.org/1999/xlink" x="0px" y="0px"
	 viewBox="0 0 841.89 595.28" style="enable-background:new 0 0 841.89 595.28;" xml:space="preserve">
<style type="text/css">
	.st0{opacity:0.8;fill:none;stroke:#FFFFFF;stroke-miterlimit:10;}
	.st1{opacity:0.6;fill:#FFFFFF;}
	.st2{opacity:0.4;fill:#FFFFFF;}
	.st3{fill:#FFFFFF;}
	.st4{fill:none;}
</style>
<g>
	<path class="st0" d="M600.81,292.57l-0.9-2.35c3.13-1.21,6.3-2.34,9.43-3.37l0.79,2.39C607.03,290.26,603.9,291.38,600.81,292.57z
		 M582.73,300.57l-1.13-2.25c-2.95,1.49-5.92,3.07-8.82,4.71l1.24,2.19C576.88,303.61,579.82,302.04,582.73,300.57z M604.95,676.14
		c3.09,1.1,6.3,2.16,9.54,3.13l0.73-2.41c-3.2-0.96-6.37-2-9.42-3.09L604.95,676.14z M663.82,685.21l-0.13,2.51
		c3.27,0.16,6.64,0.24,10.02,0.24c0.01,0,0.01,0,0.01,0l0.81,0v-2.51l-0.83,0C670.38,685.45,667.05,685.37,663.82,685.21z
		 M475.85,435.9l-2.44-0.58c-0.76,3.24-1.45,6.53-2.05,9.8l2.47,0.45C474.42,442.34,475.1,439.09,475.85,435.9z M471.22,465.16
		l-2.5-0.21c-0.27,3.3-0.48,6.66-0.59,9.99l2.51,0.09C470.76,471.75,470.95,468.43,471.22,465.16z M668.37,279.12l-0.07-2.51
		c-3.34,0.09-6.7,0.26-10,0.51l0.19,2.5C661.75,279.38,665.07,279.21,668.37,279.12z M723.46,679.29l0.62,2.44
		c3.2-0.81,6.45-1.71,9.65-2.69l-0.74-2.41C729.83,677.6,726.63,678.49,723.46,679.29z M638.87,282.04l-0.43-2.47
		c-3.26,0.56-6.56,1.22-9.82,1.95l0.55,2.45C632.38,283.25,635.65,282.6,638.87,282.04z M694.27,684.41l0.26,2.5
		c3.35-0.34,6.69-0.77,9.93-1.25l-0.37-2.48C700.88,683.66,697.58,684.07,694.27,684.41z M509.48,605.99c2,2.66,4.1,5.29,6.22,7.84
		l1.93-1.61c-2.1-2.51-4.17-5.12-6.15-7.74L509.48,605.99z M468.38,494.96c0.2,3.3,0.49,6.66,0.86,9.97l2.49-0.27
		c-0.36-3.27-0.64-6.59-0.84-9.85L468.38,494.96z M552.07,648.05c2.67,1.97,5.43,3.9,8.22,5.74l1.38-2.09
		c-2.74-1.82-5.47-3.73-8.11-5.67L552.07,648.05z M495.46,379.64c-1.65,2.85-3.27,5.82-4.81,8.8l2.24,1.15
		c1.52-2.95,3.11-5.87,4.75-8.69L495.46,379.64z M529.24,628.56c2.39,2.35,4.84,4.66,7.3,6.86l1.68-1.88
		c-2.42-2.17-4.85-4.45-7.21-6.77L529.24,628.56z M698.27,278c-3.28-0.39-6.63-0.71-9.96-0.95l-0.18,2.5
		c3.29,0.24,6.6,0.55,9.85,0.94L698.27,278z M493.19,580.81c1.59,2.9,3.28,5.81,5.02,8.65l2.14-1.32c-1.71-2.8-3.38-5.68-4.96-8.54
		L493.19,580.81z M472.4,524.7c0.68,3.24,1.46,6.52,2.3,9.74l2.43-0.64c-0.84-3.19-1.61-6.43-2.28-9.63L472.4,524.7z M577.47,664.03
		c2.95,1.57,5.97,3.08,8.97,4.49l1.07-2.28c-2.97-1.39-5.95-2.88-8.86-4.43L577.47,664.03z M480.73,553.53
		c1.14,3.07,2.39,6.2,3.7,9.28l2.31-0.98c-1.29-3.05-2.53-6.13-3.65-9.17L480.73,553.53z M484.72,407.59l-2.34-0.93
		c-1.21,3.05-2.38,6.22-3.47,9.42l2.38,0.81C482.37,413.73,483.52,410.6,484.72,407.59z M633.91,684.09
		c3.22,0.64,6.54,1.21,9.87,1.69l0.36-2.48c-3.29-0.48-6.57-1.05-9.74-1.67L633.91,684.09z M871.27,424.85
		c-0.94-3.2-1.96-6.41-3.04-9.54l-2.38,0.82c1.07,3.09,2.08,6.26,3,9.42L871.27,424.85z M856.9,570.13l2.27,1.09
		c1.45-3.02,2.84-6.1,4.13-9.14l-2.32-0.98C859.71,564.11,858.34,567.14,856.9,570.13z M802.25,639.51l1.59,1.94
		c2.54-2.08,5.1-4.27,7.59-6.53l-1.69-1.87C807.28,635.29,804.76,637.46,802.25,639.51z M867.78,542.54l2.4,0.75
		c0.99-3.17,1.91-6.41,2.74-9.63l-2.44-0.63C869.66,536.21,868.75,539.41,867.78,542.54z M778.02,656.57l1.3,2.16
		c2.81-1.69,5.65-3.49,8.45-5.36l-1.39-2.09C783.61,653.12,780.8,654.9,778.02,656.57z M860.78,396.72
		c-1.4-3.05-2.88-6.07-4.39-8.98l-2.23,1.16c1.49,2.88,2.95,5.86,4.34,8.87L860.78,396.72z M846.33,370.47
		c-1.79-2.75-3.69-5.54-5.65-8.26l-2.04,1.47c1.94,2.69,3.82,5.43,5.58,8.15L846.33,370.47z M828.19,346.55
		c-2.24-2.55-4.53-5.02-6.79-7.35l-1.81,1.75c2.23,2.31,4.49,4.75,6.71,7.27L828.19,346.55z M842.12,595.83l2.08,1.4
		c1.85-2.72,3.67-5.56,5.41-8.43l-2.15-1.31C845.74,590.33,843.95,593.13,842.12,595.83z M877.51,454.2
		c-0.46-3.3-0.99-6.63-1.6-9.88l-2.47,0.46c0.6,3.22,1.13,6.5,1.58,9.76L877.51,454.2z M823.77,619.11l1.86,1.7
		c2.26-2.47,4.47-5.02,6.57-7.56l-1.93-1.6C828.18,614.16,826,616.67,823.77,619.11z M727.72,283.74c-3.22-0.88-6.5-1.68-9.72-2.4
		l-0.54,2.45c3.18,0.7,6.41,1.5,9.6,2.37L727.72,283.74z M879.26,474.13l-2.51,0.1c0.1,2.66,0.16,5.33,0.16,8.02l-0.01,1.88
		l2.51,0.02l0.01-1.89C879.42,479.53,879.36,476.82,879.26,474.13z M751.59,669.94l0.96,2.32c3.01-1.25,6.09-2.62,9.13-4.06
		l-1.08-2.27C757.6,667.35,754.56,668.7,751.59,669.94z M874.47,513.66l2.48,0.39c0.51-3.27,0.95-6.61,1.3-9.93l-2.5-0.27
		C875.41,507.14,874.98,510.44,874.47,513.66z M782.58,307.78c-2.8-1.76-5.7-3.48-8.62-5.11l-1.23,2.19
		c2.89,1.62,5.75,3.31,8.51,5.05L782.58,307.78z M756.04,293.74c-3.06-1.34-6.19-2.62-9.29-3.8l-0.89,2.35
		c3.06,1.17,6.15,2.44,9.17,3.76L756.04,293.74z M806.8,325.51c-2.47-2.11-5.09-4.23-7.78-6.3l-1.53,1.99
		c2.66,2.05,5.24,4.14,7.69,6.22L806.8,325.51z M532.34,423.92c1.28-3.1,2.67-6.17,4.13-9.12l-2.25-1.11c-1.49,3-2.9,6.12-4.21,9.27
		L532.34,423.92z M546.47,397.49c1.84-2.74,3.79-5.48,5.82-8.13l-1.99-1.53c-2.06,2.7-4.06,5.48-5.92,8.27L546.47,397.49z
		 M820.76,431.84c-1.08-3.14-2.29-6.33-3.61-9.48l-2.32,0.97c1.3,3.1,2.49,6.24,3.55,9.33L820.76,431.84z M823.62,451.94
		c0.67,3.3,1.22,6.62,1.65,9.85l2.49-0.32c-0.44-3.29-1-6.67-1.68-10.03L823.62,451.94z M742.11,342.68
		c-3.06-1.5-6.17-2.91-9.27-4.19l-0.96,2.33c3.05,1.26,6.12,2.64,9.13,4.12L742.11,342.68z M653.42,330.66l-0.32-2.49
		c-3.31,0.44-6.69,1-10.03,1.67l0.49,2.46C646.85,331.64,650.17,331.09,653.42,330.66z M683.36,329.62l0.16-2.51
		c-3.28-0.2-6.59-0.3-9.81-0.3h-0.34v2.51h0.34C676.88,329.32,680.13,329.42,683.36,329.62z M800.61,396.98
		c1.85,2.74,3.64,5.59,5.31,8.46l2.17-1.27c-1.7-2.92-3.52-5.81-5.4-8.6L800.61,396.98z M572.75,367.47l-1.66-1.89
		c-2.53,2.22-5.02,4.57-7.4,6.96l1.78,1.78C567.81,371.96,570.26,369.66,572.75,367.47z M713.58,331.99
		c-3.27-0.87-6.6-1.64-9.91-2.28l-0.48,2.46c3.24,0.64,6.52,1.39,9.74,2.24L713.58,331.99z M521.09,472.43l-2.5-0.16
		c-0.21,3.33-0.32,6.69-0.32,9.98v0.17l2.51-0.17C520.78,479.01,520.88,475.71,521.09,472.43z M624.27,337.52l-0.81-2.38
		c-3.15,1.08-6.35,2.28-9.49,3.6l0.97,2.32C618.03,339.77,621.17,338.58,624.27,337.52z M760.52,611.14l-1.4-2.08
		c-2.78,1.88-5.63,3.67-8.46,5.32l1.27,2.17C754.81,614.87,757.7,613.05,760.52,611.14z M694.33,633.79l0.33,2.49
		c3.36-0.46,6.73-1.03,10.02-1.69l-0.5-2.46C700.95,632.79,697.63,633.34,694.33,633.79z M723.46,626.88l0.82,2.38
		c3.21-1.11,6.4-2.33,9.48-3.62l-0.97-2.32C729.76,624.58,726.63,625.79,723.46,626.88z M643.9,632.26
		c-3.21-0.64-6.48-1.4-9.74-2.26l-0.65,2.42c3.31,0.88,6.64,1.65,9.9,2.3L643.9,632.26z M605,621.67c3.04,1.5,6.16,2.92,9.26,4.21
		l0.96-2.32c-3.05-1.27-6.12-2.67-9.12-4.14L605,621.67z M674.39,637.69v-2.51h-0.68c-3.34,0-6.7-0.11-9.99-0.32l-0.17,2.5
		c3.35,0.22,6.76,0.33,10.16,0.33H674.39z M758.33,354.92c2.74,1.83,5.48,3.78,8.14,5.81l1.52-1.99c-2.7-2.07-5.48-4.05-8.27-5.91
		L758.33,354.92z M811.1,549.39l2.26,1.11c1.49-3.05,2.9-6.17,4.18-9.28l-2.33-0.96C813.95,543.33,812.56,546.4,811.1,549.39z
		 M801.13,566.73c-1.85,2.78-3.8,5.52-5.81,8.14l1.99,1.53c2.04-2.67,4.03-5.46,5.91-8.28L801.13,566.73z M782.18,589.95
		c-2.32,2.34-4.77,4.65-7.27,6.86l1.67,1.88c2.54-2.25,5.03-4.59,7.39-6.98L782.18,589.95z M781.52,373.89
		c2.36,2.35,4.66,4.8,6.86,7.28l1.89-1.66c-2.23-2.53-4.57-5.02-6.97-7.4L781.52,373.89z M519.6,502.69c0.44,3.35,1,6.72,1.66,10.03
		l2.46-0.49c-0.65-3.25-1.2-6.57-1.63-9.86L519.6,502.69z M556.93,584.74c2.22,2.53,4.56,5.03,6.95,7.41l1.78-1.78
		c-2.35-2.35-4.65-4.81-6.84-7.29L556.93,584.74z M587.18,353.18l1.4,2.08c2.73-1.84,5.59-3.62,8.47-5.3l-1.27-2.17
		C592.86,349.49,589.96,351.31,587.18,353.18z M579.15,605.55c2.68,2.06,5.46,4.05,8.26,5.93l1.4-2.09
		c-2.76-1.85-5.49-3.81-8.13-5.83L579.15,605.55z M532.45,540.87c-1.27-3.06-2.46-6.2-3.53-9.34l-2.38,0.82
		c1.09,3.19,2.29,6.39,3.59,9.49L532.45,540.87z M521.2,452.12l2.46,0.48c0.64-3.22,1.39-6.5,2.25-9.74l-2.42-0.65
		C522.61,445.51,521.84,448.84,521.2,452.12z M539.15,560.02c1.69,2.92,3.51,5.82,5.39,8.61l2.08-1.4c-1.85-2.75-3.63-5.6-5.29-8.47
		L539.15,560.02z M571.49,472.71l-2.5-0.24c-0.3,3.25-0.45,6.53-0.45,9.87l0.68,0.07l1.83-0.16
		C571.04,479.08,571.19,475.87,571.49,472.71z M754.44,545.68l1.97,1.55c2.06-2.61,4.01-5.35,5.81-8.15l-2.11-1.35
		C758.35,540.45,756.45,543.13,754.44,545.68z M759.88,426.42c1.78,2.74,3.44,5.58,4.92,8.43l2.23-1.16
		c-1.52-2.93-3.21-5.83-5.04-8.64L759.88,426.42z M740.66,404.42c2.46,2.12,4.84,4.37,7.09,6.71l1.82-1.74
		c-2.3-2.4-4.75-4.71-7.27-6.88L740.66,404.42z M725.99,390.97c-2.91-1.67-5.91-3.2-8.9-4.56l-1.04,2.29
		c2.93,1.33,5.85,2.82,8.69,4.45L725.99,390.97z M769.06,520.39l2.34,0.93c1.23-3.09,2.33-6.27,3.26-9.45l-2.41-0.71
		C771.33,514.27,770.26,517.37,769.06,520.39z M776.37,482.25c0,3.26-0.16,6.54-0.46,9.76l2.5,0.24c0.31-3.29,0.47-6.66,0.47-9.99
		v-0.43h-2.51V482.25z M776.92,461.93c-0.64-3.25-1.44-6.52-2.39-9.71l-2.41,0.72c0.92,3.12,1.71,6.31,2.33,9.48L776.92,461.93z
		 M688.42,583.87c-0.56,0.08-1.15,0.09-1.71,0.16c-0.96-9.22-8.66-16.44-18.14-16.44c-8.87,0-16.27,6.3-17.96,14.67
		c-0.33-0.07-0.66-0.11-0.99-0.19l-0.59,2.44c0.44,0.1,0.89,0.15,1.33,0.25c-0.02,0.39-0.12,0.76-0.12,1.15
		c0,10.12,8.21,18.33,18.33,18.33c9.91,0,17.94-7.88,18.27-17.71c0.64-0.08,1.31-0.09,1.94-0.19L688.42,583.87z M599.52,553.21
		l-1.82,1.74c2.3,2.4,4.74,4.72,7.25,6.89l1.64-1.9C604.14,557.82,601.76,555.55,599.52,553.21z M585.08,425.6l2.11,1.36
		c1.75-2.72,3.65-5.4,5.66-7.96l-1.98-1.55C588.81,420.06,586.87,422.8,585.08,425.6z M621.24,573.43c2.91,1.67,5.9,3.21,8.89,4.58
		l1.04-2.29c-2.93-1.33-5.85-2.83-8.68-4.47L621.24,573.43z M606.27,404.84c2.43-2.12,5.01-4.16,7.65-6.06l-1.46-2.04
		c-2.71,1.95-5.35,4.04-7.84,6.21L606.27,404.84z M575.11,453.54c0.89-3.07,1.96-6.17,3.17-9.23l-2.34-0.92
		c-1.24,3.13-2.33,6.31-3.24,9.46L575.11,453.54z M733.31,565.85l1.46,2.04c2.71-1.94,5.36-4.03,7.85-6.19l-1.65-1.9
		C738.54,561.92,735.96,563.95,733.31,565.85z M585.31,539.27l2.11-1.36c-1.77-2.74-3.42-5.58-4.9-8.44l-2.23,1.16
		C581.81,533.55,583.5,536.46,585.31,539.27z M570.45,502.36c0.64,3.29,1.44,6.56,2.37,9.72l2.41-0.72
		c-0.91-3.08-1.69-6.27-2.32-9.48L570.45,502.36z M630.79,388.95c2.95-1.36,5.99-2.59,9.05-3.65l-0.82-2.38
		c-3.14,1.1-6.26,2.36-9.28,3.75L630.79,388.95z M698.16,379.93c-3.25-0.77-6.55-1.39-9.83-1.85l-0.34,2.49
		c3.19,0.44,6.42,1.05,9.59,1.8L698.16,379.93z M658.79,380.66c3.22-0.47,6.49-0.79,9.72-0.95l-0.13-2.51
		c-3.31,0.17-6.66,0.5-9.96,0.98L658.79,380.66z M707.38,579.26l0.83,2.38c3.11-1.07,6.23-2.33,9.28-3.73l-1.05-2.29
		C713.46,576.99,710.42,578.21,707.38,579.26z M527.16,369.46c16.19,0,29.32-13.12,29.32-29.31c0-7.13-2.55-13.66-6.78-18.74
		c2.5-1.93,5.05-3.83,7.62-5.62l-1.44-2.06c-2.64,1.86-5.29,3.81-7.87,5.81c-5.31-5.37-12.68-8.7-20.84-8.7
		c-16.19,0-29.31,13.12-29.31,29.31c0,8.48,3.62,16.1,9.38,21.45c-0.29,0.41-0.62,0.81-0.91,1.22l2.04,1.46
		c0.25-0.35,0.53-0.69,0.78-1.04C514.11,367.12,520.36,369.46,527.16,369.46z M822.18,474.42c-14.06,0-25.45,11.4-25.45,25.45
		c0,14.06,11.39,25.45,25.45,25.45c14.06,0,25.45-11.39,25.45-25.45C847.63,485.82,836.24,474.42,822.18,474.42z M673.71,431.55
		c-28,0-50.7,22.7-50.7,50.7c0,28,22.7,50.7,50.7,50.7c28,0,50.7-22.7,50.7-50.7C724.41,454.25,701.71,431.55,673.71,431.55z"/>
	<path class="st1" d="M690.14,461.83C690.15,461.83,690.15,461.83,690.14,461.83c0.09,0.08,0.17,0.1,0.16,0.26
		C690.25,462.01,690.2,461.92,690.14,461.83z M704.46,466.17c0.12-0.45,0.68-0.74,0.63-1.12c-0.45,0.49-0.88,0.68-1.54,0.57
		C703.7,466.07,704.4,465.63,704.46,466.17z M704.1,476.74c-0.24-0.24-0.24-0.88-0.44-1.11c-0.08,1.54,1.84,2.28,1.9,3.89
		c0.35-0.18,1.41,1.92,1.66,2.37c0.16,0.3,0.43,1.23,0.67,1.41c0.5,0.37,1,0.74,1.49,1.11c0.15-1.1-0.59-2.01-1.13-2.89
		c-0.23-0.37-0.69-0.35-0.9-0.69c-0.25-0.4-0.04-0.72-0.2-1.12c-0.39-0.96-1.63-1.97-2.3-2.78
		C704.64,476.68,704.43,477.08,704.1,476.74z M713.02,468.22c-0.24-0.59-0.62-0.12-1.05,0.06c0.04-0.3-2.46-2.77-0.43-2.53
		c-0.05-1.19-0.32-1.14-1.37-0.69c-0.48,0.2-0.81,0.79-0.86,1.29c-0.03,0.29,0.44,0.19,0.44,0.73c0,0.56,0.2,0.64,0.61,1.04
		c0.42,0.41,1.08,0.76,1.07,1.41c-0.73-0.34-0.97,0.62-0.48,0.97c0.37,0.27,1.24,1.02,1.76,0.59c-0.03,0.03,0.23-1.14,0.25-1.08
		c-0.07-0.22-0.67-0.28-0.74-0.51C711.84,468.27,713.05,469.16,713.02,468.22z M700.93,468c0.43,2,1.9,0.33,3.23,0.37
		c0.45,0.27,3.23,1.02,2.38-0.09c-0.62-0.81-1.93-0.68-2.17-1.74c-0.66,0-0.58,0.87-1.33,0.58c-0.47-0.18-0.6-0.93-0.22-1.23
		c-0.49-0.47-1.34,0.21-1.17,0.74C701.83,467.16,700.8,467.4,700.93,468z M653.99,465.62c0.17-0.11,0.4-0.28,0.52-0.36
		C654.34,465.38,654.16,465.5,653.99,465.62z M724.49,482.49c-0.55,27.97-23.38,50.47-51.48,50.47c-28.44,0-51.5-23.06-51.5-51.5
		c0-11.07,3.5-21.32,9.45-29.71c0.03,0.12,0.09,0.23,0.19,0.32c0.7,0.57,0.59-1.34,0.68-1.48c0.03,1.03,0.05,2.06,0.08,3.09
		c0.01,0.33-0.02,0.53,0.02,0.86c0.06,0.49,0.46,0.62,0.52,1.06c0.1,0.71-0.58,1.59,0.06,2.17c0.69,0.63,1.51,1.26,1.02,2.31
		c-0.15-0.07-0.35-0.2-0.46-0.32c1.29-0.05-0.57-2.63-1.42-1.96c0.67,0.58,0.53,1.41,1.23,1.93c-0.54,0.01-2,4.25-2.28,4.89
		c-0.71,1.59-0.06,3.4,0.17,5.1c0.04,0.28,0.38,0.34,0.62,0.46c0.3,0.15,0.19,0.95,0.25,1.26c0.16,0.81,0.53,1.73,0.79,2.56
		c0.13,0.41-0.33,0.2-0.3,0.59c0.05,0.75,0.49,0.5,0.78,1.08c0.15,0.3-0.19,0.89,0.07,1.14c0.39,0.37,0.78,0.74,1.17,1.12
		c-0.2-1.31-0.33-2.61-0.71-3.88c-0.22-0.72-0.24-1.07-0.16-1.82c0.03-0.25,0.27-0.07,0.33,0.07c0.14,0.32-0.02,0.75-0.07,1.08
		c-0.14,0.96,1.55,3.14,1.99,4c0.33,0.63,0.34,0.9,0.34,1.64c0,0.85,0.39,1.11,0.95,1.77c0.5,0.6,2.31,2.56,3.2,2.03
		c0.94-0.55,1-0.13,1.83,0.53c0.37,0.29,0.86,0.68,1.27,0.92c0.36,0.22,1.05,0.35,1.32,0.65c0.32,0.37,0.15,1.14,0.41,1.38
		c1.04,0.97,1.59,1.31,3,1.56c-0.13-0.9,0.72-1.15,1.16-0.43c0.32,0.53,0.16,1.61-0.06,2.16c-0.43,1.06-0.52,1.45-1.48,2.05
		c-0.47,0.29-0.29,1.46,0.15,1.68c-1.08,1-0.47,1.64,0.19,2.84c0.66,1.21,1.35,3.47,2.54,4.24c1.02,0.66,2.83,1.18,2.88,2.48
		c0.09,2.08,0.18,4.17,0.28,6.25c0.09,1.96,0.17,3.91,0.26,5.87c0.03,0.66-0.01,0.62,0.61,0.97c0.63,0.36,0.25,1.65,0.22,2.32
		c-0.02,0.54-1.29,0.56-0.32,1.28c0.71,0.53,0.87,0.71,0.24,1.53c-0.61,0.79,2.24,2.92,2.8,3.24c-0.05-0.85,0.38-1.19,0.86-1.75
		c-0.94-0.63-0.16-1.26,0.23-2.02c0.19-0.36,0.31-0.77,0.46-1.14c0.13-0.31-0.74-0.52-0.82-0.79c-0.22-0.77,0.8-1.72,0.55-2.61
		c-0.2-0.69,0.27-0.6,0.9-0.82c0.26-0.09-0.04-0.93-0.08-1.19c0.96,0.12,1.35-0.32,1.78-1.07c0.58-1.01,0.26-1.03-0.49-1.93
		c0.45,0.13,0.96,0.48,1.31,0.13c0.46-0.46,1.04-0.91,1.43-1.43c0.74-1.01,1.11-2.19,1.14-3.44c0.02-0.93,1.51-1.88,2.43-1.88
		c1.42,0,1.74-1.51,1.81-2.74c0.03-0.61,0.15-1.27,0.11-1.88c-0.06-0.88-0.58-0.53,0.21-1.25c0.43-0.39,1.36-0.95,1.61-1.47
		c0.24-0.5,0.06-1.55,0.08-2.11c0.04-1.17-5.78-2.6-6.7-2.88c-0.51-0.05-1.03-0.1-1.54-0.15c0.35-0.73,0.38-0.98,0.32-1.79
		c-0.07-0.78-0.28-0.61-0.89-0.99c-0.71-0.45-0.8-0.56-1.56-0.64c-0.54-0.06-0.45,0.43-0.99-0.06c-0.99-0.9-1.95-1.53-2.79-2.56
		c-0.18-0.22-1.24,0.2-1.65,0.09c-0.89-0.24-1.08-0.37-1.67-1.06c-0.45,0.46-0.9,0.79-0.85,1.51c-1.04-0.15-0.03-1.29,0.25-1.68
		c-0.91-0.35-1.92,0.99-2.53,1.5c-0.5,0.41-0.46,0.5-1.07,0.25c-0.8-0.33-0.53-0.1-1.26,0c-0.81,0.11-1.23,0.26-1.67-0.65
		c-0.1-0.2,0.51-2.22,0.53-2.23c-0.35-0.41-0.55-0.92-1.1-0.9c-0.61,0.02-1.33,0.25-1.66-0.29c0.32-0.54,2.42-3.55,0.67-3.15
		c-1.28,0.29-1.51,0.16-1.94,1.4c-0.19,0.55-1.97,0.17-2.1-0.27c-0.58-1.86-0.34-3.12,0.56-4.81c0.19-0.35,1.5-1.38,1.88-1.42
		c0.27-0.03,0.86,0.4,1.11,0.52c0.36,0.17,0.91,0.11,1.3,0.14c-0.27-1.12,1.33-0.65,2.02-0.64c0.99,0.02,0.25,1.76,0.26,2.11
		c0.02,0.78,0.73,1.89,1.37,0.91c0.35-0.54,0.64-0.69,0.33-1.26c-0.16-0.3-0.34-0.83-0.33-1.17c0.03-1.02,0.84-1.54,1.53-2.13
		c0.54-0.46,2.1-0.78,2.03-1.31c-0.18-1.34,0.44-1.62,1.37-2.62c0.58-0.63,1.51-0.56,2.34-0.69c-0.27-1.03-0.44-1.03,0.48-1.55
		c0.57-0.32,1.11-0.7,1.75-0.85c-1.15,0.7-0.01,1.92,0.68,0.91c0.34-0.5,0.64-0.38,1.25-0.41c0.33-0.02,0.67-1.04,0.82-1.33
		c-0.85-0.25-1.72,1.36-1.81-0.44c-0.02-0.48,0.49-0.94,0.16-1.34c-0.32-0.39-1.28,0.02-1.77,0.14c1.21-0.94,1.68-0.84,3.15-0.5
		c0.77,0.17,0.81-0.11,1.36-0.69c0.35-0.37,1.36-0.41,1.85-0.54c0.97-0.24-1.41-2.87-1.53-3.02c-0.52-0.63-0.43-2.56-0.56-3.39
		c-0.38,0.25-1.4,1.25-1.83,1.23c-1.08-0.05-0.1-1.1-0.17-1.58c-0.15-0.95-2.57-2.7-3.1-1.66c-0.42,0.82-0.84,1.64-1.26,2.45
		c-0.25,0.49,0.09,1.22-0.16,1.71c-0.1,0.2-0.26,0.72-0.44,0.84c-0.24,0.16-0.96-0.16-1.15,0.05c-0.39,0.41,0.12,1.59-0.31,2.15
		c-1.3,1.72-0.16-2.32-0.49-2.47c-1.54-0.67-2.8-1.22-3.45-2.87c-0.26-0.65-1.35-0.19-0.62-1.16c0.44-0.59,0.84-1.31,1.42-1.76
		c0.69-0.54,1.14-0.96,1.98-1.16c0.65-0.15,1.52-0.67,1.05-1.47c0.4-0.09,1.24-0.45,1.61-0.27c0.9,0.43,0.93,0.37,1.82-0.12
		c0.38-0.21,0.43-1.51,0.52-1.93c0.06-0.29-0.85-1.01-1.1-1.26c0.68,0.11,1.24,0.31,2.04,0.71c0.81,0.4,0.89,1.73,2.03,1.35
		c-0.19,0.98-1.38,3.93-2.71,2.24c-0.93,1.24-0.19,2.13,1.18,1.26c0.17,0.43,0.36,1.54,0.74,1.79c0.24,0.15,1.77,1.28,1.89,1.14
		c0.2-0.25,1.4-1.49,1.26-1.72c-0.36-0.58-1.42-1.56-0.56-2.08c0.27,0.46,0.55,0.92,0.82,1.38c0.34-0.3,1.6-1.06,1.68-1.47
		c0.21-1.06-0.95-0.6-1.38-0.46c-0.5-1.37-0.76-1.61-0.01-2.85c0.13-0.22-0.87-1.07-1.05-1.25c-0.45-0.48-0.57-0.4-1.1,0.08
		c-0.43-0.95-0.36-1.55-1.43-1.4c-1.18,0.16-0.93-0.79-1.15-1.84c-0.45,0.31-0.9,0.62-1.34,0.93c-0.43,0.29,0.22,1.25-0.62,1.05
		c-0.1-0.91,0.64-1.61,1.11-2.31c-0.86-0.08-1.83-0.18-2.4,0.6c-0.3,0.4-0.63,2.74-0.14,2.76c0.43,0.02,0.8,0.05,1.13,0.1
		c-0.38,0.6-0.89,2.15-1.74,1.71c0.17-0.29,0.76-0.93,0.44-1.13c-0.48-0.29-0.72-0.27-1.09,0.27c-0.04-1.44,0.48-3.95-1.56-2.92
		c-0.97,0.49,0.01,1.07-0.02,1.7c-0.04,0.95-0.6,1-1.04,1.77c-0.05-0.45,0.27-0.8,0.5-1.19c0.27-0.47,0.04-0.73-0.15-1.24
		c-0.29,0.18-0.59,0.36-0.88,0.54c-0.3,0.18,0.03,0.69-0.15,0.94c-0.48,0.67-0.94,0.34-1.59,0.03c-0.32-0.15-1.37-1.27-1.4-1.26
		c-1.09,0.29-0.92,0.42-1.04,1.54c-0.46-0.08-0.32-0.36-0.34-0.8c-0.02-0.31-0.94-0.33-1.2-0.38c-1.11-0.22-1.03-0.22-0.44-1.17
		c-0.69-0.42-1.15-0.73-1.67-1.33c-0.53-0.62-0.9-1.44-1.84-1.26c0.14,0.46-0.34,0.95-0.38,0.61c-0.03-0.27-0.06-0.55-0.1-0.82
		c0.46-0.37,0.92-0.74,1.39-1.09c0.01,0.25,0.12,0.56,0.28,1.09c0.33-0.09,0.92-0.12,1.19-0.32c0.28-0.21,0.34-0.79,0.68-0.91
		c1.02-0.38,1.75-0.53,2.83-0.6c-0.49-0.54-0.92-1.52-1.58-1.02c-0.34,0.25-0.34-0.06-0.45-0.26c8.04-5.18,17.6-8.21,27.87-8.21
		c15.53,0,29.45,6.89,38.89,17.76c-0.28-0.04-0.56-0.07-0.83-0.12c-0.54-0.1-0.19,0.48-0.53,0.72c-0.39,0.28-1.06,0.38-1.51,0.55
		c-0.23,0.08-0.25-0.5-0.41-0.41c-0.49,0.27-0.99,0.55-1.48,0.82c-0.23,0.13-0.91,0.34-0.93,0.64c-0.03,0.51,0.05,0.88-0.62,0.78
		c0.7-1.25-0.55-1.85-1.58-1.26c0.29,0.56,0.92,1.35,0.91,1.99c-0.25-0.16-0.46-0.06-0.69-0.3c-0.41,0.44-1.13,0.83-0.53,1.4
		c-0.52-0.02-1.04-0.03-1.56-0.05c0.17,0.22,0.71,0.67,0.53,0.94c-0.19,0.29-1.07-0.2-1.2-0.37c-0.2-0.26,0.08-1.06-0.27-1.19
		c-0.42-0.16-0.74-0.17-0.86-0.54c0.71,0.14,4.37,1.13,3.34-0.74c-0.62-1.12-2.91-1.64-4.08-1.35c-0.1-0.14-0.22-0.47-0.23-0.62
		c0.64-0.34-0.23-0.62-0.75-0.66c-0.61-0.05-1.49-0.07-1.51,0.66c-0.18-0.3-0.38-0.39-0.74-0.37c-0.54,0.03-0.43,0.33-0.59,0.74
		c-0.06-0.12-0.12-0.24-0.18-0.36c-0.51,0.41-1.02,0.82-1.53,1.23c0.08,0.09,0.16,0.18,0.24,0.27c-0.73,0.21-1.25,1.73-1.5,2.39
		c-0.1,0.25-0.83,0.4-0.2,0.72c0.49,0.25-0.31,0.46-0.63,0c-0.33,0.44-0.72,1.05-1.03,1.36c-0.36,0.36-0.56-0.09-0.75,0.5
		c-0.12,0.37-0.22,0.6-0.17,0.97c0.08,0.65,0.07,1.64,0.56,2.14c0.64,0.65,1.58-0.47,1.9-1c0.02,0.89,0.34,1.09,0.85,1.88
		c0.16,0.24,0.07,1.02,0.27,1.14c0.59,0.37,0.61-0.5,0.94-0.62c0.71-0.25,0.67-0.2,0.65-0.95c-0.02-0.8,0.13-0.66,0.53-1.26
		c0.84-1.26-1.13-1.21-0.33-2.55c0.26-0.44,0.51-0.32,0.79-0.73c0.16-0.23,0.43-1.21,0.52-1.27c1.07-0.75,1.55-0.28,0.67,0.68
		c-0.53,0.57-1.51,1.87-0.54,2.6c0.69,0.52,0.72,0.73,1.49,0.36c0.51-0.24,0.9-0.37,1.48-0.41c0.03,0.43-0.05,0.31,0.33,0.62
		c-0.54,0.35-1.26-0.11-1.76,0.2c-1.26,0.77,0.11,0.84-0.12,1.94c-0.11,0-0.22,0.01-0.33,0.01c0.02-0.84-1.06-0.58-1.31,0.08
		c-0.15,0.41,0.71,1.67-0.4,1.65c0.06-0.13,0.12-0.25,0.19-0.38c-0.35,0.01-0.65,0.1-0.99,0.21c-0.33,0.11-0.85,0.7-1.1,0.72
		c-0.31,0.03-0.54-0.62-1.01-0.42c-0.37,0.16-0.61,0.24-0.89-0.14c-0.38-0.52,0.91-1.86-0.01-2.27c-0.81-0.36-1.19,1.26-0.98,1.8
		c0.38,0.98,0.19,0.84-0.51,1.18c-0.45,0.22-0.66,0.39-0.83,0.58c-0.02-0.02-0.03-0.03-0.05-0.05c0.01,0.02,0.03,0.04,0.04,0.06
		c-0.2,0.23-0.33,0.49-0.7,0.9c-0.18,0.2-1.12,1.28-1.43,1.3c-0.35,0.02-0.6-0.53-0.8,0.09c-0.14,0.44-0.85,0.26-1.28,0.27
		c-0.1,1.13,2.48,1.16,1.66,2.6c-0.51,0.9-0.69,0.72-1.72,0.72c-0.4,0-1.65-0.32-1.81,0.02c-0.26,0.56-0.09,0.92-0.13,1.5
		c-0.03,0.38-0.43,1.49-0.39,1.67c0.1,0.57,0.08,0.83,0.44,1.1c0.08,0.06,1.64,0.24,1.83,0.26c1.36,0.09,2.41-0.7,2.43-2.03
		c0.01-0.49,0.96-0.85,1.23-1.24c0.19-0.27,0.24-1.58,1.02-0.85c0.61,0.57,0.94-0.44,1.28-0.48c0.8-0.11,0.98,0.39,1.48,0.97
		c0.59,0.68,0.88,0.51,1.54,0.98c0.65,0.46,0.56,1.05,0.64,1.78c0.57-0.18,0.84-0.81,0.72-1.36c1.39,0-0.9-1.2-1.24-1.54
		c-0.32-0.31-2.02-1.97-0.71-1.95c-0.42,0.98,0.53,0.41,0.66,0.86c0.17,0.59,1.12,1.27,1.66,1c0.28,0.18,0.5,0.37,0.5,0.76
		c0,0.4,0.03,0.88,0.43,0.95c-0.09,0.55,0.66,0.69,1.11,0.87c-1.2-0.08-0.35,1.18,0.5,1.21c-0.13-0.69,0.57-0.96,0.16-1.45
		c-0.11-0.13-1.05-1.46-0.36-0.91c0.25,0.2,0.82-0.35,1.33-0.34c0.33,0,0.71-0.12,1.04-0.31c-0.09,0.81-1.13,0.01-1.49,0.87
		c-0.03,0.07,0.22,1.28,0.27,1.38c0.89-0.41,0.22,0.42,0.64,0.77c0.46,0.38,1.84,0.24,1.81-0.44c0.88,0.36,1.38,0.64,2.22,0.06
		c-0.15,0.69-0.09,2.81-1.1,2.81c-0.29,0-0.48-0.25-0.77-0.25c-0.4,0-0.63,0.41-1.09,0.44c-0.45,0.03-1.87-0.23-2.33-0.41
		c-0.46-0.17-0.16-0.53-0.77-0.53c-0.64,0-0.73,0.01-1.21,0.42c-0.19,0.16,0.58,1.55-0.44,1.09c-0.86-0.39-1.37-1.09-2.2-1.33
		c-0.37-0.11-0.75-0.19-1.1-0.32c-0.66-0.23-0.35-0.17-0.35-0.71c0-0.24,0.02-1.43-0.1-1.5c-0.43-0.28-0.56-0.11-1.05,0.09
		c-0.55,0.22-0.62-0.09-1.17-0.1c-0.91-0.02-1.99,0.37-2.89,0.54c-0.39,0.07-0.57,0.46-0.92,0.59c-0.42,0.15-1.16,0-1.61,0
		c-0.83,0-0.98,0.91-1.82,1.31c-0.68,0.32-0.42,1.86-1.16,2.3c-0.95,0.57-1.25,0.8-1.81,1.73c-0.47,0.78-0.96,1.98-1.62,2.55
		c0.05,0.03,0.05,0.07,0.01,0.11c0.9,0.48,0.43,2.08,0.37,2.87c-0.05,0.65-0.12,0.62,0.07,1.21c0.06,0.17,0.21,0.71,0.36,1.01
		c0.37,0.74,0.85,1.4,1.47,2c0.79,0.77,1.99,1.27,2.7,2.07c0.53-0.36,1.17-0.95,1.94-0.78c1.13,0.24,1.13,0.27,2.17-0.22
		c0.44-0.21,1.56-0.77,1.99-0.29c0.41,0.46,0.63,0.82,1.24,0.97c0.44,0.1,0.71-0.54,1.15,0.03c-1.79-0.12,0.88,1.62,0.03,0.02
		c0.4,0.39,0.24,1.25,0,1.72c-0.21,0.42-0.66,0.83-0.32,1.21c0.43,0.48,0.94,0.94,1.33,1.46c0.58,0.8,1.17,2.35,1.15,3.46
		c-0.01,0.61-0.25,0.74-0.67,1.19c-0.33,0.36-0.27,0.72-0.31,1.21c-0.09,1.04-0.05,1.67,0.56,2.57c0.65,0.96,0.09,1.38,0.47,2.33
		c0.4,1.01,0.8,2,1.16,3.02c0.13,0.37,0.82,0.77,0.85,1.04c0.05,0.46-0.66,0.35-0.39,0.95c0.26,0.59,0.29,0.62,0.89,0.84
		c0.62,0.24,0.57-0.46,1.11-0.46c1.06,0.01,1.75-0.13,2.71-0.3c0.78-0.14,1.91-1.79,2.46-2.35c0.19-0.19,0.62-0.46,0.61-0.74
		c0-0.25-0.13-1.02-0.02-1.19c0.21-0.35,0.95-0.37,1.18-0.71c0.21-0.31,0.2-1.03,0.2-1.41c0-1.52,0.31-1.57,1.5-2.55
		c0.49-0.4,1.75-0.71,1.68-1.58c-0.05-0.64,0.04-1.63-0.23-2.15c-0.43-0.83-1.02-1.74-0.66-2.72c0.58-1.59,2.05-2.76,3.25-4.04
		c1.41-1.51,2.65-2.68,2.75-4.88c0.04-0.87-4.82,1.97-4.09-0.54c0.55,0.46,2.49-0.74,3.11-1c0.52-0.21,1.03-0.42,1.55-0.63
		c0.13-0.05-0.02-0.49,0.07-0.54c0.25-0.12,0.68,0.1,0.93-0.03c0.48-0.26,1.97-2.54,1.97-3.09c0-1.16-2.44-0.84-1.73-2.39
		c-0.47,0.06-0.76,0.17-1.01,0.55c-0.44,0.66-0.51,0.6-1.31,0.64c0.04-0.36,0.24-0.87-0.07-1.1c-0.49-0.35-0.75,0.39-0.69,0.8
		c-0.37-0.52-1.05-1.15-1.26-1.75c-0.13-0.37-0.25-1.43,0.57-1.04c0.39,0.18,0.36,0.35,0.38,0.75c0.01,0.33,0.5,0.47,0.77,0.62
		c0.68,0.41,1.38,1,2.09,0.36c0.44-0.4,0.72,0.53,1.3,0.61c0.84,0.12,1.5,0.2,2.29,0.15c0.41-0.03,1.21-0.38,1.58-0.06
		c0.67,0.57,1.1,1.26,2,0.97c-0.13,0.12-0.29,0.34-0.58,0.44c0.45,0.85,1.4,1.63,1.87,0.31c0.29-0.8,0.09,1.55,0.13,1.63
		C724.05,481.58,724.27,482.03,724.49,482.49z M703.68,473.25c0.28-0.26,0.55-0.52,0.82-0.78c-0.4-0.49-0.85,0-1.37,0.03
		C702.63,472.53,703.13,473.32,703.68,473.25z M699.1,472.68c0.39,0.45,0.8,0.36,1.37,0.34
		C701.19,472.24,699.28,472.25,699.1,472.68z M695.2,472.44c-0.1-0.39-0.67,0-0.54,0.48C695.21,473.13,695.34,472.96,695.2,472.44z
		 M693.82,471.42c0.12,0.25,1.08,0.57,1.36,0.62c-0.01-0.51,0.17-1.01-0.37-1.21C694.4,470.9,693.52,470.8,693.82,471.42z
		 M692.64,468.6c0-0.2-0.09-0.41-0.13-0.61C691.28,468.8,692.74,469.72,692.64,468.6z M691.87,470.65c0.7,0.31,1.32-0.83,0.85-1.27
		C691.82,468.54,691.84,470.3,691.87,470.65z M690.02,470.19C688.64,469.11,689.22,471.6,690.02,470.19L690.02,470.19z
		 M697.85,457.8c-0.18-0.26-0.71-0.47-0.84,0C696.87,458.26,697.68,458.12,697.85,457.8z M695.89,459.06
		c0.5-0.26,0.62-0.69,0.29-1.15C695.6,458.16,695.5,458.57,695.89,459.06z M693.36,460.45
		C693.97,458.59,691.27,460.98,693.36,460.45L693.36,460.45z M708.05,447.05c0.31,0,0.83,0.93,1.17,0.28
		c0.43-0.82-0.33-0.61-0.54-1.33c-0.28-0.98-0.3-0.9-1.32-1.01c0.14,0.5,0.16,1-0.46,1.01
		C706.76,446.86,707.36,447.05,708.05,447.05z M695.36,442.16c-0.97,0.41,0.22,1.28,0.85,0.62
		C696.86,442.09,695.86,441.35,695.36,442.16z M693.01,442.35c0.06-0.22,0.27-0.46,0.38-0.66c0.05,0.04,0.11,0.08,0.16,0.12
		c-0.39,0.67-0.46,1.31,0.07,1.91c0.37-0.62,0.72-1.21,1.17-1.76c0.36-0.43,0.56-0.44,0.13-0.81c-0.04-0.03-0.18-0.15-0.35-0.27
		c0.1,0.01,0.22,0,0.36-0.05c0.6,0.8,1.25,0.67,1.95,0.07c0.93-0.79-0.25-1.67-0.74-1c-0.34-0.44-0.68-0.31-0.81,0.24
		c-0.65-1.28-1.38-0.1-1.14,0.47c-0.09-0.06-0.16-0.1-0.18-0.1c-0.2-0.02-2.03,0.56-2.01,0.47
		C691.85,441.64,692.06,442.59,693.01,442.35z M656.61,451.21c-0.65-0.63-1.29-1.26-1.94-1.9c-0.29,0.36-0.58,0.73-0.86,1.09
		c-0.02,0.43-0.04,0.86-0.06,1.29c0.52-0.31,0.9-0.63,1.54-0.5C656.21,451.38,655.57,452.04,656.61,451.21z M650.95,478.38
		c0.03,0.34,0.17,0.64,0.41,0.89C651.95,478.88,651.6,478.25,650.95,478.38z M649.9,476.55c0.47,0.22,0.38,0.45,0.87,0.6
		c-0.79,0.31,0.12,1.06,0.63,1.15c0.06-0.51-0.24-0.66-0.44-1.07c-0.17-0.35,0.36-0.67-0.24-0.91
		C650.37,476.11,650.1,476.2,649.9,476.55z M649.61,477.95c0.36,0.33,0.49,0.65,0.79,1.07c0.33-0.27,0.33-0.63,0.09-0.98
		c-0.13,0.07-0.25,0.14-0.38,0.21c0.42-0.42,0.02-0.87-0.48-0.94C649.62,477.51,649.56,477.76,649.61,477.95z M650.39,481.45
		c-0.35-0.42-1.39-0.57-1.34,0.13C649.49,482.01,650.11,482.08,650.39,481.45z M651.15,480.6c0.17-0.1,0.31-0.31,0.45-0.45
		c-1-0.47-1.93-1.08-2.88-1.64c-0.35-0.2-0.91-0.13-1.27-0.01c-0.09,0.03-1.6,0.76-0.87,0.77c1.08,0.02,1.84-0.33,2.75,0.49
		c0.27,0.25,0.19,0.95,0.39,1C650.31,480.91,650.6,480.95,651.15,480.6z M651.46,480.79c0.29,0.11,0.34,0.33,0.47,0.41
		c-0.24-0.05-0.52,0.11-0.76,0.07c0.03,0.17,0.03,0.39,0.1,0.55c0.4,0.2,1.23-0.37,1.48,0.36c0.31-0.51,0.91-0.58,1.44-0.36
		C654.68,480.86,652.07,479.74,651.46,480.79z M654.54,481.5c0.1,0.12,0.21,0.24,0.31,0.37c0.24,0.09,0.57,0.08,0.82,0.12
		C655.96,481.15,655.03,480.98,654.54,481.5z M656.85,482.08c-0.16,0.29-0.13,0.59,0.17,0.82c0.13-0.11,0.33-0.22,0.42-0.37
		c-0.1-0.23-0.31-0.44-0.45-0.65c-0.04,0.04-0.07,0.08-0.1,0.13c-0.09-0.1-0.19-0.22-0.29-0.3c-0.46,0.07-0.53,0.3-0.26,0.68
		C656.48,482.35,656.72,482.2,656.85,482.08z M657.33,485.74c-0.48,0.22-0.22,0.67,0.26,0.94
		C657.95,486.26,658.06,485.11,657.33,485.74z M657.64,484.37c0.14-0.08,0.29-0.15,0.43-0.23c-0.16-0.16-0.32-0.4-0.52-0.52
		c0.13-0.04,0.26-0.08,0.39-0.11c-0.05-0.2-0.23-0.5-0.37-0.65c-0.42,0.23-0.29,1.18-0.07,1.47c-0.4,0.28-0.29,0.24-0.12,0.65
		c-1.27-0.02,0.61,1.08,0.13,0.08c0.16-0.05,0.29-0.2,0.45-0.25C657.83,484.69,657.78,484.48,657.64,484.37z M664.59,463.29
		c-1.77,0.22,0.14-0.76-0.7-1.64c-0.37,0.36-2.03,1.5-2.06,1.97c-0.06,0.87,1.92,1.18,2.48,1.38
		C665.12,465.29,664.97,463.24,664.59,463.29z M630.97,455.42c-0.48,0.2-0.19,0.9,0.18,1.18c0.57-0.38-0.07-1.24,0.57-1.88
		C631.33,453.39,630.25,454.79,630.97,455.42z M641.94,491.42c0,0.2-0.64,1.51-0.02,1.27C642.61,492.41,642.64,491.76,641.94,491.42
		z M654.38,516.21c-0.09-0.13-0.27-0.24-0.39-0.35C653.28,516.54,654.1,518.02,654.38,516.21z M660.58,524.28
		c-0.63-0.13-1.32-0.14-1.81-0.6c-0.21-0.31-0.48-0.62-0.73-0.92c-0.3,0.67-0.61,1.34-0.91,2.01
		C658.58,524.92,659.31,525.11,660.58,524.28z M661.56,522.75c0.29-0.3,0.57-0.6,0.86-0.91c-0.24-0.03-0.52-0.1-0.76-0.08
		c-0.22,0.07-0.43,0.29-0.62,0.42C661.12,522.35,661.4,522.64,661.56,522.75z M663.3,522.01c-0.17-0.17-0.52-0.42-0.74-0.51
		c-0.06,0.2-0.18,0.42-0.19,0.62c-0.35,0.16-0.51,0.41-0.4,0.76C662.51,522.68,663,522.58,663.3,522.01z M681.65,476.26
		c-0.27,0.16-0.54,0.31-0.81,0.47c0.12,0.12,0.23,0.29,0.38,0.38C681.36,476.83,681.51,476.55,681.65,476.26z M685.27,459.68
		c0.14-0.01,0.29-0.02,0.43-0.04c0.02,0.2-0.02,0.42-0.03,0.63c-0.31-0.48-0.68-0.07-1.04-0.15c0.17,0.04-1,0.9-0.99,0.73
		c0,0.07,0.13,0.84,0.13,0.85c-0.06,0.16-0.68,0.28-0.69,0.44c-0.02,0.53,0.52,0.81,1.02,0.62c0.55-0.21,1.4-0.27,1.49-0.89
		c0.05-0.3,0.04-1.12,0.33-1.26c0.73-0.34,0.83,0.81,0.54,0.84c-0.51,0.06-0.66,0.92-0.99,1.41c0.26-0.01,0.53,0.1,0.8,0.08
		c-0.43,0.25-0.86,0.5-1.3,0.75c0.69,0.63,1.33,0.08,2.03-0.24c0.67-0.31,1.31,0.38,1.78-0.56c-0.09-0.05-0.18-0.1-0.27-0.16
		c1.15-0.54-0.3-1.11-0.45-1.46c-0.19-0.44-0.39-0.86-0.61-1.29c-0.19-0.36,0.02-0.8-0.05-1c-0.09-0.28,0.2-0.51-0.2-0.51
		c-0.11,0-0.52,0.07-0.61-0.07c-0.08-0.13,0.73-0.76-0.04-0.88C685.72,457.4,685.4,459.24,685.27,459.68z M656.03,435.48
		c0.06,0.91,0.3,0.67,1.18,0.67c0.44,0.49-0.48,0.37-0.89,0.42c1.09,1.48,1.63,1.39,3.25,0.67c-0.49-0.73-0.97-1.47-1.46-2.2
		c-0.07-0.1-0.38-0.74-0.51-0.77c-0.39-0.08-0.73,0.53-0.69,0.82C656.54,434.81,656,434.94,656.03,435.48z M654.75,436.22
		c0.4,0.24,0.49,0.58,0.16,0.91c0.02,0.23,0.17,0.49,0.25,0.71c0.49-0.28,1.17-0.4,1.05-1.06
		C656.07,436.07,655.27,436.04,654.75,436.22z M652.63,436.61c0.77-0.3,1.02,0.03,1.58,0.52c1.16,0.14-0.13-1.44-0.38-1.72
		C653.15,434.64,652.51,436.06,652.63,436.61z M650.39,436.16c0.72,0.34,0.8,0.49,1.48,0.1c0.68-0.39-0.83-0.62-0.99-0.65
		c0.41-0.03,0.81-0.05,1.22-0.08c0.03-0.58-0.53-0.76-1.04-0.58C650.35,435.22,650.72,435.53,650.39,436.16z M650.47,443.81
		c-0.19-0.59-0.64-0.14-0.63-0.94c0.02-1.1,0.33-1.88-0.67-2.52c-0.2,0.26-0.39,0.53-0.59,0.79c-1.14-0.98-1.65-1.77-3.2-0.97
		c-0.82,0.42-0.94,0.84-0.86,1.65c0.03,0.36,1.2,0.51,1.54,0.61c-0.02,0.16-0.15,0.41-0.24,0.54c-0.38-0.24-0.76-0.47-1.14-0.71
		c-0.7,1.32,0.39,0.56,0.35,1.49c-0.05,0.99,0.3,0.82,1.23,1.08c0.57-0.03,1.41,0.17,1.66-0.43c0.2,0.23,0.68,1.02,0.96,1.08
		c0.58,0.13,1.04-0.45,0.96-0.96c0.14,0.15,0.38,0.21,0.52,0.36C650.39,444.61,650.55,444.09,650.47,443.81z M651.17,437.9
		c-0.15,0.1-0.38,0.09-0.53,0.19c-0.13-0.43-0.01-0.87,0.31-1.2c-1.25-0.24-0.99,1.24-1.52,1.19c-0.02,0-0.68-1.01-0.91-1.19
		c-0.56-0.45-1.06,0.03-1.69,0.3c-0.2,0.83,0.86,0.89,1.46,1.13c-0.38,0.29-0.28,0.66,0.01,1.03c0.83-0.37,1.85-0.97,2.25,0.23
		C651.15,438.97,651.57,438.77,651.17,437.9z M653.37,441.27c-0.48-0.57-1.6-0.76-1.68,0.21c-0.38-0.32-0.7-0.17-0.87,0.29
		c0.47,0.75,0.59,1.05,0.63,1.93c0.33-0.2,1.24-0.53,1.42-0.86C653.21,442.22,652.55,441.75,653.37,441.27z M654.2,438.9
		c-0.75-0.96-1.42-0.45-2.19,0.26c0.36,0.01,0.71,0.03,1.07,0.04c-0.07,0.19-0.12,0.45-0.24,0.61
		C653.21,441.09,654.43,439.21,654.2,438.9z M656.32,441.84c-1.44-0.48-3.28-1.14-2.76,1.09c0.39,0.12,0.76,0.04,0.88-0.36
		C654.99,443.34,655.86,442.22,656.32,441.84z M660.41,441.48c-0.28-0.23-0.8-0.86-1.15-0.93c-0.38-0.07-0.92,0.25-1.37,0.21
		c-1.69-0.16-0.61-0.83-1.31-1.83c-0.32-0.46-2.08-1.39-1.94-0.28c0.1,0.81,1.21,0.75,0.65,1.61c-0.61-0.24-1.29-0.8-1.45,0.17
		c0.59,0.22,1.21,0.7,1.45-0.15c-0.17,1.19,1.97,1.34,2.8,1.61C659.3,442.3,659.42,442.34,660.41,441.48z M661.06,444.12
		c-0.48-0.5-1.42-1.92-2.06-0.78C659.24,444.21,660.34,444.04,661.06,444.12z M666.89,437.17c-0.36-0.1-0.72-0.2-1.08-0.3
		c0.76-0.37,1.96,0.37,2.45-0.62c-1.45-0.52-2.9-1.03-4.35-1.55c-0.83-0.3-1.35,0.67-1.87,0.24c-0.43-0.36-1.79-1.39-1.64-0.06
		c-0.57-0.74-0.91-0.49-1.69-0.23c0.04,0.83,0.85,0.76,1.49,0.89c-0.65,1.53,1.83,0.84,2.4,0.7c0.07,0.45-1.02,1.16-1.34,0.91
		c-0.74-0.58-0.87-0.58-1.81-0.49c0.28,0.39,0.55,0.78,0.83,1.17c-0.64,0.17-0.5-0.63-1.24-0.12c-0.42,0.29,0.35,1.22,0.92,1.04
		c-0.06,1.19-0.94-0.34-1.24-0.41c-0.26-0.06-0.65,0.03-0.65,0.29c0,0.35-0.62,0.33-0.93,0.4c0.28,0.85,1.34,0.99,2.11,1.07
		c0.47,0.05,0.69,0.26,1.08,0.53c0.28,0.2,0.85-0.3,1.13-0.45c-0.17-0.12-0.28-0.35-0.46-0.45c0.47,0.1,1.28-0.56,1.88-0.66
		c0.62-0.1-0.79-1.12-0.31-1.04C664.3,438.31,665.23,437.81,666.89,437.17z M668.62,448.98c0.35-0.62,0.1-1.41-0.63-1.1
		C667.31,448.17,668.04,449.09,668.62,448.98z M673.24,470.31c0.2,0.17,0.5,0.28,0.73,0.41
		C674.28,470.04,673.63,469.61,673.24,470.31z M675.19,470.34c0.14-0.03,0.27-0.07,0.41-0.1c-0.32-0.44-0.71-0.64-1.1-0.17
		c0.31,0.17,0.3,0.31,0.64,0.28c-0.26,0.36-0.27,0.75,0.08,1.02C675.81,471.13,675.56,470.71,675.19,470.34z M676.73,483.42
		c-0.21-0.5-0.58-0.49-0.94-0.11C676.05,483.69,676.4,483.73,676.73,483.42z M677.07,471.46c-0.44-0.29-0.84-0.38-0.96,0.16
		C676.4,472,676.75,471.8,677.07,471.46z M677.13,484.58c-0.06-0.19-0.25-0.53-0.39-0.67c-0.16,0.09-0.39,0.17-0.51,0.3
		C676.41,484.69,676.72,484.94,677.13,484.58z M677.71,483.89c-0.24-0.46-0.59-0.65-0.9-0.19
		C676.94,484.24,677.3,484.24,677.71,483.89z M678.02,450.95c0.85,0,0.96-0.27,1.56-0.88c0.4-0.4,1.26-0.38,1.56-0.78
		c0.48-0.63,0.01-1.1-0.41-1.48c-0.62-0.55-0.97-0.39-1.29-1.24c-0.26-0.68,1.04-0.41,1.3-0.27c0.92,0.49,0.84,0.54,1.55-0.24
		c-0.27-0.12-0.51-0.35-0.79-0.44c0.49-0.66,0.98-1.32,1.46-1.98c0.41-0.55-0.17-1.52-0.89-1.34c0.04-0.82,2.61-2.37,3.26-2.93
		c-1.06-1.15-2.67-0.93-3.76,0.15c0.15-0.34,0.31-0.68,0.46-1.02c-0.79-0.2-1.11-0.43-1.42,0.47c-0.49-0.73-1.37-0.38-2.1-0.3
		c0.29-0.99,2.52-0.58,3.35-0.61c-0.99-1.32-1.38-1.29-3.02-1.6c-0.59-0.11-2.83-0.55-2.4,0.58c-0.55-0.18-1.2-0.15-0.98-0.85
		c-0.65,0.14-1.34,0.08-1.42,0.91c0.29,0.1,0.58,0.2,0.87,0.3c-0.57,0.58-0.7,0.56-1.17,0.03c-0.2-0.23-0.45-0.34-0.72-0.42v0
		c-0.03-0.01-0.07-0.02-0.11-0.03c-0.19-0.05-0.39-0.1-0.59-0.16c0.01,0.56-0.06,0.81-0.57,0.81c-0.71,0-0.41-0.75-0.9-0.82
		c-0.72-0.11-2.77-0.59-2.62,0.76c-0.91-0.12-1.85-0.29-1.79,0.84c0.04,0.8-1.31,0.61-1.73,0.14c-0.81,1.32,0.09,1.58,1.35,1.42
		c0.01,1.05-1.58-0.23-1.95,0.7c0.04-0.1,0.47,1.15,0.51,1.21c0.59,0.77,0.44,0.47,1.32,0.35c1-0.14,1.77,0.34,2.14,1.36
		c0.58,1.56,0.66,1.74-0.06,3.23c0.56-0.09,1.59-0.44,1.49,0.5c-0.41,0.02-0.81,0.04-1.22,0.06c0.41,0.41,0.74,0.93,1.38,0.92
		c-1.13,1.5-2.01,2.4-1.4,4.31c0.09,0.29-0.27,0.55-0.17,0.85c0.13,0.41,0.21,0.95,0.42,1.32c0.35,0.59,0.89,1.23,1.59,0.82
		c-0.11,0.87,0.33,1.24,1.1,1.18c0.38-0.03,0.45-1.52,0.62-1.86c0.09-0.18,0.19-0.34,0.3-0.49c0.04-0.05,0.08-0.1,0.11-0.15
		c0.07-0.09,0.14-0.18,0.21-0.26c0.05-0.05,0.1-0.11,0.15-0.16c0.07-0.07,0.14-0.13,0.21-0.2c0.05-0.05,0.11-0.1,0.16-0.14
		c0.69-0.54,1.52-0.84,2.45-1.21c0.38-0.48,0.77-0.95,1.15-1.43C676.81,450.61,677.58,450.95,678.02,450.95z M680.82,446.59
		c-0.47-0.14-1.03,0.18-0.49,0.62c0.35,0.18,0.71,0.35,1.06,0.53C681.45,446.91,681.61,446.82,680.82,446.59z M679.27,454.43
		c0.64,0.06,1.2,0.51,1.83,0.43c0.61-0.08,1.61-0.96,1.63-1.57c0.01-0.6-0.09-0.6-0.55-0.99c-0.62-0.53-0.3,0.21-0.75,0.18
		c-0.31-0.02-0.28-0.33-0.64-0.3c-0.4,0.04-0.7,0.41-0.97,0.7c1.01-2.02-2.79,0.33-0.94,0.24
		C678.27,453.98,679.51,453.55,679.27,454.43z M680.02,473.3c-0.11,0.14-0.27,0.28-0.35,0.44c0.18,0.43,0.5,0.46,0.84,0.14
		C680.43,473.7,680.18,473.41,680.02,473.3z M679.49,477.06c0.06-0.15,0.13-0.29,0.19-0.44c0.13,0.4,0.44,0.59,0.84,0.48
		c0.02-0.61-0.31-0.79-0.84-0.49c0.04-0.09,0.08-0.18,0.12-0.27c-0.35-0.24-0.68-0.15-0.88,0.23
		C679.04,476.73,679.31,476.98,679.49,477.06z M691.04,491.38C691.17,492.58,692.2,490.79,691.04,491.38L691.04,491.38z
		 M691.42,490.7C691.63,492.14,692.69,490.09,691.42,490.7L691.42,490.7z M710.08,497.41c0.09,0.55,1.31,1.69,1.32,0.4
		c-0.19,0.07-0.42,0.02-0.6,0.09c0.1-0.15,0.1-0.38,0.2-0.53C710.69,497.38,710.38,497.39,710.08,497.41z M713.15,497.62
		c-0.63,0.08-1.04,1.48-1.34,2.02c-0.26,0.46-1.79-0.14-1.74,0.94c0.02,0.52,0.05,1.04,0.07,1.56c0.02,0.36-0.59,0.59-0.7,0.92
		c-0.2,0.55,0.07,2.02,0.76,2.25c0.98,0.33,1.61-0.64,1.46-1.4c-0.12-0.59,1-1.91,1.3-2.42c0.19-0.32,0.42-0.46,0.16-0.75
		c-0.54-0.59,0.43-0.57,0.44-0.58C713.9,499.45,713.42,498.34,713.15,497.62z M715.67,493.82c0.12,0.45,0.46,0.68,0.92,0.55
		c-0.12-0.32-0.24-0.63-0.37-0.95C716.05,493.54,715.8,493.65,715.67,493.82z M715.46,484.87c-0.37-0.66-0.97-0.22-1.56-0.2
		C714.42,485.63,714.7,485.1,715.46,484.87z M715.24,495.41c-0.2-0.11-0.43-0.3-0.66-0.35
		C714.12,495.58,714.88,496.16,715.24,495.41z M715.99,503.36c-0.21-0.37-0.58-0.51-0.98-0.37
		C714.72,503.79,715.53,503.71,715.99,503.36z M716.16,495.15c0.16,0.03,0.33,0.06,0.49,0.09
		C717.08,493.92,715.53,494.55,716.16,495.15z M717.09,502.74c-0.11-0.15-0.4-0.37-0.57-0.44c-0.12,0.15-0.3,0.32-0.38,0.49
		c-0.02,0.21,0.06,0.44,0.09,0.65C716.52,503.21,716.8,502.98,717.09,502.74z"/>
</g>
<path class="st2" d="M809.92,66.45C809.92,66.45,809.92,66.45,809.92,66.45c-2.25-9.1-6.75-17.29-12.87-23.96
	c-0.07-0.08-0.14-0.16-0.21-0.23c-0.5-0.54-1.04-1.06-1.56-1.58c-0.36-0.36-0.71-0.74-1.08-1.09c-0.03-0.02-0.05-0.05-0.08-0.07
	c-2.75-2.58-5.77-4.87-9-6.84c-0.18-0.11-0.35-0.22-0.53-0.32c-1.05-0.62-2.11-1.22-3.2-1.77c-0.03-0.01-0.06-0.03-0.08-0.04
	c-3.39-1.71-6.98-3.07-10.73-4.06c-0.25-0.06-0.49-0.13-0.74-0.19c-1.19-0.3-2.39-0.56-3.61-0.78c-3.15-0.56-6.37-0.9-9.68-0.9
	c-30.4,0-55.04,24.64-55.04,55.04c0,15.14,6.12,28.84,16,38.79c9.97,10.03,23.78,16.25,39.04,16.25c30.4,0,55.04-24.64,55.04-55.04
	C811.58,75.1,810.97,70.69,809.92,66.45z M724.85,100.9c-4.06,0-7.35-3.29-7.35-7.35c0-4.06,3.29-7.35,7.35-7.35
	c4.06,0,7.35,3.29,7.35,7.35C732.2,97.61,728.91,100.9,724.85,100.9z M728.79,75.2c-6.56,0-11.87-5.32-11.87-11.87
	s5.32-11.87,11.87-11.87s11.87,5.32,11.87,11.87S735.34,75.2,728.79,75.2z M744.21,46.26c0-3.28,2.66-5.94,5.94-5.94
	c3.28,0,5.94,2.66,5.94,5.94c0,3.28-2.66,5.94-5.94,5.94C746.87,52.2,744.21,49.54,744.21,46.26z M754.53,124.14
	c-4.14,0-7.5-3.36-7.5-7.5s3.36-7.5,7.5-7.5c4.14,0,7.5,3.36,7.5,7.5S758.67,124.14,754.53,124.14z M762.03,101.34
	c-2.54,0-4.6-2.06-4.6-4.6c0-2.54,2.06-4.6,4.6-4.6c2.54,0,4.6,2.06,4.6,4.6C766.63,99.28,764.57,101.34,762.03,101.34z
	 M764.54,52.2c-2.54,0-4.6-2.06-4.6-4.6s2.06-4.6,4.6-4.6c2.54,0,4.6,2.06,4.6,4.6S767.08,52.2,764.54,52.2z M786.65,107.46
	c-3.42,0-6.2-2.77-6.2-6.2s2.77-6.2,6.2-6.2c3.42,0,6.2,2.77,6.2,6.2S790.08,107.46,786.65,107.46z"/>
<g>
	<g>
		<g>
			<circle class="st3" cx="605.11" cy="242.85" r="2.55"/>
		</g>
	</g>
	<g>
		<g>
			<path class="st3" d="M610.38,332.73c-1.41,0-2.55,1.14-2.55,2.55c0,1.41,1.14,2.55,2.55,2.55c1.41,0,2.55-1.14,2.55-2.55
				C612.93,333.87,611.79,332.73,610.38,332.73z"/>
		</g>
	</g>
	<g>
		<g>
			<path class="st3" d="M593.88,396.44c-1.41,0-2.55,1.14-2.55,2.55c0,1.41,1.14,2.55,2.55,2.55c1.41,0,2.55-1.14,2.55-2.55
				C596.44,397.59,595.29,396.44,593.88,396.44z"/>
		</g>
	</g>
	<g>
		<g>
			<path class="st3" d="M534.03,503.74c-1.41,0-2.55,1.14-2.55,2.55c0,1.41,1.14,2.55,2.55,2.55c1.41,0,2.55-1.14,2.55-2.55
				C536.58,504.89,535.44,503.74,534.03,503.74z"/>
		</g>
	</g>
	<g>
		<g>
			<path class="st3" d="M487.88,551.97c-1.41,0-2.55,1.14-2.55,2.55c0,1.41,1.14,2.55,2.55,2.55c1.41,0,2.55-1.14,2.55-2.55
				C490.43,553.12,489.29,551.97,487.88,551.97z"/>
		</g>
	</g>
	<g>
		<g>
			<path class="st3" d="M571.6,590.54c-1.41,0-2.55,1.14-2.55,2.55s1.14,2.55,2.55,2.55c1.41,0,2.55-1.14,2.55-2.55
				S573.01,590.54,571.6,590.54z"/>
		</g>
	</g>
	<g>
		<g>
			<path class="st3" d="M708.68,578.1c-1.41,0-2.55,1.14-2.55,2.55c0,1.41,1.14,2.55,2.55,2.55c1.41,0,2.55-1.14,2.55-2.55
				C711.23,579.24,710.09,578.1,708.68,578.1z"/>
		</g>
	</g>
	<g>
		<g>
			<circle class="st3" cx="776.73" cy="450.28" r="2.55"/>
		</g>
	</g>
	<g>
		<g>
			<path class="st3" d="M851.17,414.83c-1.41,0-2.55,1.14-2.55,2.55c0,1.41,1.14,2.55,2.55,2.55c1.41,0,2.55-1.14,2.55-2.55
				C853.72,415.97,852.58,414.83,851.17,414.83z"/>
		</g>
	</g>
	<g>
		<g>
			<circle class="st3" cx="941.16" cy="527.26" r="2.55"/>
		</g>
	</g>
	<g>
		<g>
			<circle class="st3" cx="1004.54" cy="556.11" r="2.55"/>
		</g>
	</g>
	<g>
		<g>
			<circle class="st3" cx="1100.7" cy="564.73" r="2.55"/>
		</g>
	</g>
	<g>
		<g>
			<path class="st3" d="M1199.82,520.92c-1.41,0-2.55,1.14-2.55,2.55c0,1.41,1.14,2.55,2.55,2.55c1.41,0,2.55-1.14,2.55-2.55
				C1202.38,522.07,1201.23,520.92,1199.82,520.92z"/>
		</g>
	</g>
	<g>
		<g>
			<path class="st3" d="M1307,568.27c-1.41,0-2.55,1.14-2.55,2.55c0,1.41,1.14,2.55,2.55,2.55c1.41,0,2.55-1.14,2.55-2.55
				C1309.56,569.41,1308.41,568.27,1307,568.27z"/>
		</g>
	</g>
	<g>
		<g>
			<path class="st3" d="M1299.74,583.18c-1.41,0-2.55,1.14-2.55,2.55c0,1.41,1.14,2.55,2.55,2.55c1.41,0,2.55-1.14,2.55-2.55
				C1302.29,584.32,1301.15,583.18,1299.74,583.18z"/>
		</g>
	</g>
	<g>
		<g>
			<path class="st3" d="M1202.07,559.86c-1.41,0-2.55,1.14-2.55,2.55c0,1.41,1.14,2.55,2.55,2.55c1.41,0,2.55-1.14,2.55-2.55
				C1204.62,561,1203.48,559.86,1202.07,559.86z"/>
		</g>
	</g>
	<g>
		<g>
			<path class="st3" d="M1031.73,491.56c-1.41,0-2.55,1.14-2.55,2.55c0,1.41,1.14,2.55,2.55,2.55s2.55-1.14,2.55-2.55
				C1034.28,492.7,1033.14,491.56,1031.73,491.56z"/>
		</g>
	</g>
	<g>
		<g>
			<path class="st3" d="M937.36,505.36c-1.41,0-2.55,1.14-2.55,2.55c0,1.41,1.14,2.55,2.55,2.55c1.41,0,2.55-1.14,2.55-2.55
				C939.92,506.5,938.77,505.36,937.36,505.36z"/>
		</g>
	</g>
	<g>
		<g>
			<path class="st3" d="M798.24,590.28c-1.41,0-2.55,1.14-2.55,2.55c0,1.41,1.14,2.55,2.55,2.55c1.41,0,2.55-1.14,2.55-2.55
				C800.79,591.43,799.65,590.28,798.24,590.28z"/>
		</g>
	</g>
	<g>
		<g>
			<path class="st3" d="M694.49,618.6c-1.41,0-2.55,1.14-2.55,2.55c0,1.41,1.14,2.55,2.55,2.55c1.41,0,2.55-1.14,2.55-2.55
				C697.05,619.74,695.9,618.6,694.49,618.6z"/>
		</g>
	</g>
	<g>
		<g>
			<path class="st3" d="M569.66,549.89c-1.41,0-2.55,1.14-2.55,2.55c0,1.41,1.14,2.55,2.55,2.55c1.41,0,2.55-1.14,2.55-2.55
				C572.21,551.03,571.07,549.89,569.66,549.89z"/>
		</g>
	</g>
	<g>
		<g>
			<path class="st3" d="M455.41,504.02c-1.41,0-2.55,1.14-2.55,2.55c0,1.41,1.14,2.55,2.55,2.55c1.41,0,2.55-1.14,2.55-2.55
				C457.96,505.17,456.82,504.02,455.41,504.02z"/>
		</g>
	</g>
	<g>
		<g>
			<path class="st3" d="M345.28,580.29c-1.41,0-2.55,1.14-2.55,2.55c0,1.41,1.14,2.55,2.55,2.55c1.41,0,2.55-1.14,2.55-2.55
				C347.84,581.44,346.69,580.29,345.28,580.29z"/>
		</g>
	</g>
	<g>
		<g>
			<circle class="st3" cx="304.96" cy="623.16" r="2.55"/>
		</g>
	</g>
	<g>
		<g>
			<circle class="st3" cx="304.41" cy="457.27" r="2.55"/>
		</g>
	</g>
	<g>
		<g>
			<path class="st3" d="M303.72,275.29c-1.41,0-2.55,1.14-2.55,2.55c0,1.41,1.14,2.55,2.55,2.55c1.41,0,2.55-1.14,2.55-2.55
				C306.27,276.43,305.13,275.29,303.72,275.29z"/>
		</g>
	</g>
	<g>
		<g>
			<path class="st3" d="M303.04,223.3c-1.41,0-2.55,1.14-2.55,2.55c0,1.41,1.14,2.55,2.55,2.55s2.55-1.14,2.55-2.55
				C305.6,224.44,304.45,223.3,303.04,223.3z"/>
		</g>
	</g>
	<g>
		<g>
			<path class="st3" d="M339.05,79c-1.41,0-2.55,1.14-2.55,2.55c0,1.41,1.14,2.55,2.55,2.55c1.41,0,2.55-1.14,2.55-2.55
				C341.6,80.15,340.46,79,339.05,79z"/>
		</g>
	</g>
	<g>
		<g>
			<path class="st3" d="M407.97,162.98c-1.41,0-2.55,1.14-2.55,2.55c0,1.41,1.14,2.55,2.55,2.55c1.41,0,2.55-1.14,2.55-2.55
				C410.53,164.13,409.38,162.98,407.97,162.98z"/>
		</g>
	</g>
	<g>
		<g>
			<path class="st3" d="M465.81,160.85c-1.41,0-2.55,1.14-2.55,2.55c0,1.41,1.14,2.55,2.55,2.55c1.41,0,2.55-1.14,2.55-2.55
				C468.36,161.99,467.22,160.85,465.81,160.85z"/>
		</g>
	</g>
	<g>
		<g>
			<path class="st3" d="M478.27,88.52c-1.41,0-2.55,1.14-2.55,2.55c0,1.41,1.14,2.55,2.55,2.55c1.41,0,2.55-1.14,2.55-2.55
				C480.82,89.67,479.68,88.52,478.27,88.52z"/>
		</g>
	</g>
	<g>
		<g>
			
				<ellipse transform="matrix(0.101 -0.9949 0.9949 0.101 532.4781 651.0616)" class="st3" cx="626.48" cy="30.91" rx="2.55" ry="2.55"/>
		</g>
	</g>
	<g>
		<g>
			<circle class="st3" cx="746.98" cy="107.09" r="2.55"/>
		</g>
	</g>
	<g>
		<g>
			<circle class="st3" cx="922.29" cy="64.73" r="2.55"/>
		</g>
	</g>
	<g>
		<g>
			<path class="st3" d="M1126.93-112.68c-1.41,0-2.55,1.14-2.55,2.55c0,1.41,1.14,2.55,2.55,2.55c1.41,0,2.55-1.14,2.55-2.55
				C1129.49-111.54,1128.34-112.68,1126.93-112.68z"/>
		</g>
	</g>
	<g>
		<g>
			<circle class="st3" cx="1277.53" cy="-17.6" r="2.55"/>
		</g>
	</g>
	<g>
		<g>
			<circle class="st3" cx="1243.4" cy="8.56" r="2.55"/>
		</g>
	</g>
	<g>
		<g>
			<path class="st3" d="M1114.79-26.65c-1.41,0-2.55,1.14-2.55,2.55c0,1.41,1.14,2.55,2.55,2.55c1.41,0,2.55-1.14,2.55-2.55
				C1117.34-25.51,1116.2-26.65,1114.79-26.65z"/>
		</g>
	</g>
	<g>
		<g>
			<circle class="st3" cx="1016.85" cy="-13.3" r="2.55"/>
		</g>
	</g>
	<g>
		<g>
			<circle class="st3" cx="981.3" cy="0.5" r="2.55"/>
		</g>
	</g>
	<g>
		<g>
			<circle class="st3" cx="971.34" cy="46.26" r="2.55"/>
		</g>
	</g>
	<g>
		<g>
			<circle class="st3" cx="1019.26" cy="65.54" r="2.55"/>
		</g>
	</g>
	<g>
		<g>
			<path class="st3" d="M375.16-12.68c-1.41,0-2.55,1.14-2.55,2.55c0,1.41,1.14,2.55,2.55,2.55c1.41,0,2.55-1.14,2.55-2.55
				C377.72-11.54,376.57-12.68,375.16-12.68z"/>
		</g>
	</g>
	<g>
		<g>
			<circle class="st3" cx="464.77" cy="-65.73" r="2.55"/>
		</g>
	</g>
	<g>
		<g>
			<path class="st3" d="M552.62-37.29c-1.41,0-2.55,1.14-2.55,2.55c0,1.41,1.14,2.55,2.55,2.55c1.41,0,2.55-1.14,2.55-2.55
				C555.17-36.15,554.03-37.29,552.62-37.29z"/>
		</g>
	</g>
	<g>
		<g>
			<circle class="st3" cx="583.48" cy="45.19" r="2.55"/>
		</g>
	</g>
	<g>
		<g>
			<path class="st3" d="M884.81-97.43c-1.41,0-2.55,1.14-2.55,2.55c0,1.41,1.14,2.55,2.55,2.55c1.41,0,2.55-1.14,2.55-2.55
				C887.37-96.28,886.22-97.43,884.81-97.43z"/>
		</g>
	</g>
	<g>
		<g>
			<path class="st3" d="M825.02-96.29c-1.41,0-2.55,1.14-2.55,2.55c0,1.41,1.14,2.55,2.55,2.55c1.41,0,2.55-1.14,2.55-2.55
				C827.58-95.15,826.43-96.29,825.02-96.29z"/>
		</g>
	</g>
	<g>
		<g>
			<circle class="st3" cx="740.23" cy="-82.62" r="2.55"/>
		</g>
	</g>
	<g>
		<g>
			<path class="st3" d="M316.59-48.34c-1.41,0-2.55,1.14-2.55,2.55c0,1.41,1.14,2.55,2.55,2.55c1.41,0,2.55-1.14,2.55-2.55
				C319.14-47.2,318-48.34,316.59-48.34z"/>
		</g>
	</g>
	<g>
		<g>
			<path class="st3" d="M283.64-33.16c-1.41,0-2.55,1.14-2.55,2.55s1.14,2.55,2.55,2.55c1.41,0,2.55-1.14,2.55-2.55
				S285.06-33.16,283.64-33.16z"/>
		</g>
	</g>
	<g>
		<g>
			<path class="st3" d="M683.18,387.96c-1.41,0-2.55,1.14-2.55,2.55c0,1.41,1.14,2.55,2.55,2.55c1.41,0,2.55-1.14,2.55-2.55
				C685.73,389.11,684.59,387.96,683.18,387.96z"/>
		</g>
	</g>
	<g>
		<g>
			
				<ellipse transform="matrix(0.9239 -0.3827 0.3827 0.9239 -11.2783 251.677)" class="st3" cx="626.99" cy="154.19" rx="2.55" ry="2.55"/>
		</g>
	</g>
	<g>
		<g>
			<path class="st3" d="M715.55,201.55c-1.41,0-2.55,1.14-2.55,2.55s1.14,2.55,2.55,2.55c1.41,0,2.55-1.14,2.55-2.55
				S716.96,201.55,715.55,201.55z"/>
		</g>
	</g>
</g>
<rect x="-130.44" y="-44.13" class="st4" width="1440" height="600"/>
</svg>
