<?xml version="1.0" encoding="utf-8"?>
<!-- Generator: Adobe Illustrator 24.1.1, SVG Export Plug-In . SVG Version: 6.00 Build 0)  -->
<svg version="1.1" id="Layer_1" xmlns="http://www.w3.org/2000/svg" xmlns:xlink="http://www.w3.org/1999/xlink" x="0px" y="0px"
	 viewBox="0 0 841.89 595.28" style="enable-background:new 0 0 841.89 595.28;" xml:space="preserve">
<style type="text/css">
	.st0{fill:url(#SVGID_1_);}
	.st1{fill:#FFFFFF;}
</style>
<g>
	<linearGradient id="SVGID_1_" gradientUnits="userSpaceOnUse" x1="477.101" y1="297.6378" x2="903.6517" y2="297.6378">
		<stop  offset="1.138505e-03" style="stop-color:#AA96C8"/>
		<stop  offset="1" style="stop-color:#78C3E8"/>
	</linearGradient>
	<path class="st0" d="M732.91-25.04h-25.3h-50.64h-10.38h-25.71c-9.04,5.9-15.03,16.09-15.03,27.7c0,18.27,14.81,33.07,33.07,33.07
		c4.32-0.34,8.54-1.34,12.42-3.09c3.86-1.76,7.42-4.17,10.4-7.16c3-2.98,5.41-6.53,7.17-10.4c1.75-3.88,2.75-8.1,3.09-12.42
		c0.03,1.08,0.05,2.17,0.05,3.26c-0.08,1.09-0.2,2.17-0.3,3.27c-0.19,1.08-0.46,2.14-0.69,3.22c-0.3,1.06-0.67,2.09-1.01,3.15
		c-1.55,4.14-4.05,7.91-7.17,11.06c-3.15,3.12-6.93,5.62-11.06,7.17c-1.05,0.34-2.09,0.71-3.15,1.01c-0.43,0.09-0.86,0.19-1.29,0.29
		c-0.76,2.69-1.19,5.52-1.19,8.45c0,14.9,10.56,27.29,24.6,30.22c0.76-0.93,1.56-1.83,2.4-2.68c3.45-3.42,7.58-6.16,12.11-7.87
		c1.15-0.37,2.29-0.79,3.44-1.11c1.18-0.25,2.35-0.56,3.53-0.76c1.2-0.12,2.39-0.26,3.58-0.35c1.2-0.01,2.39,0.01,3.58,0.03
		c-4.75,0.34-9.39,1.43-13.65,3.34c-4.26,1.92-8.17,4.57-11.44,7.87c-3.3,3.28-5.95,7.19-7.86,11.45
		c-1.91,4.27-2.99,8.91-3.34,13.65c0,12.8,6.63,24.03,16.64,30.49c0.05-0.05,0.09-0.1,0.13-0.14c3.3-3.19,7.21-5.72,11.45-7.39
		c4.26-1.62,8.81-2.43,13.32-2.26c-9.02,0.31-17.74,4.14-23.9,10.52c-3.06,3.2-5.56,6.92-7.22,11.01
		c-1.67,4.08-2.51,8.49-2.49,12.89c-0.01,4.4,0.83,8.81,2.49,12.89c1.65,4.09,4.17,7.81,7.22,11.01
		c6.16,6.38,14.88,10.21,23.9,10.52c-4.51,0.18-9.07-0.63-13.32-2.26c-4.24-1.67-8.16-4.2-11.45-7.39c-1.82-1.76-3.4-3.74-4.78-5.86
		c-22.14,1.31-39.69,19.66-39.69,42.12c0,8.04,2.27,15.54,6.18,21.94c1.82-0.62,3.73-0.97,5.65-0.97c4.72,0,9.42,1.98,12.61,5.41
		c1.6,1.7,2.85,3.71,3.66,5.87c0.76,2.17,1.13,4.48,0.95,6.74c-0.32-4.5-2.3-8.75-5.48-11.73c-3.17-2.98-7.42-4.7-11.73-4.67
		c-4.31-0.03-8.56,1.7-11.73,4.67c-1.45,1.36-2.64,3-3.55,4.79c-1.69-0.78-3.57-1.23-5.56-1.23c-6.6,0-12.07,4.82-13.12,11.12
		h-42.74v19.43h53c2.99,0,5.41,2.42,5.41,5.41c0,2.99-2.42,5.41-5.41,5.41h-67.98v12.22v11.72h67.98c2.99,0,5.41,2.42,5.41,5.41
		c0,2.99-2.42,5.41-5.41,5.41h-53v19.43h42.74c1.05,6.31,6.51,11.12,13.12,11.12c1.99,0,3.87-0.45,5.56-1.23
		c0.91,1.8,2.09,3.43,3.55,4.79c3.17,2.98,7.42,4.7,11.73,4.67c4.31,0.03,8.56-1.69,11.73-4.67c3.18-2.98,5.15-7.23,5.48-11.73
		c0.18,2.26-0.19,4.56-0.95,6.74c-0.81,2.16-2.06,4.17-3.66,5.87c-3.19,3.43-7.89,5.41-12.61,5.41c-1.92,0-3.84-0.34-5.65-0.97
		c-3.9,6.4-6.18,13.9-6.18,21.94c0,22.46,17.55,40.81,39.69,42.12c1.37-2.12,2.96-4.1,4.78-5.86c3.3-3.19,7.21-5.72,11.45-7.39
		c4.26-1.62,8.81-2.43,13.32-2.26c-9.02,0.31-17.74,4.14-23.9,10.52c-3.05,3.2-5.57,6.92-7.22,11.01
		c-1.67,4.08-2.51,8.49-2.49,12.89c-0.02,4.4,0.82,8.81,2.49,12.89c1.65,4.09,4.16,7.81,7.22,11.01
		c6.16,6.38,14.89,10.21,23.9,10.52c-4.51,0.17-9.07-0.63-13.32-2.26c-4.24-1.67-8.16-4.2-11.45-7.39c-0.05-0.05-0.09-0.1-0.13-0.14
		c-10,6.46-16.64,17.7-16.64,30.49c0.34,4.75,1.43,9.39,3.34,13.65c1.92,4.26,4.57,8.17,7.86,11.45c3.28,3.3,7.19,5.95,11.44,7.87
		c4.27,1.91,8.91,2.99,13.65,3.34c-1.19,0.03-2.38,0.04-3.58,0.03c-1.19-0.09-2.38-0.23-3.58-0.35c-1.18-0.21-2.35-0.51-3.53-0.76
		c-1.16-0.33-2.29-0.74-3.44-1.11c-4.53-1.71-8.66-4.45-12.11-7.87c-0.84-0.85-1.65-1.75-2.4-2.68
		c-14.04,2.92-24.6,15.31-24.6,30.22c0,2.93,0.43,5.76,1.19,8.45c0.43,0.1,0.86,0.2,1.29,0.29c1.06,0.3,2.09,0.67,3.15,1.01
		c4.14,1.55,7.92,4.05,11.06,7.17c3.12,3.15,5.62,6.93,7.17,11.06c0.34,1.05,0.71,2.09,1.01,3.15c0.23,1.08,0.5,2.14,0.69,3.22
		c0.1,1.09,0.23,2.18,0.3,3.27c0,1.09-0.02,2.18-0.05,3.26c-0.34-4.32-1.34-8.54-3.09-12.42c-1.76-3.86-4.17-7.42-7.17-10.4
		c-2.98-3-6.53-5.41-10.4-7.16c-3.88-1.75-8.09-2.75-12.42-3.09c-18.27,0-33.07,14.81-33.07,33.07c0,11.6,5.99,21.79,15.03,27.7
		h25.71h10.38h50.64h25.3l117.48-0.85V-25.04H732.91z M653.06,268.65L653.06,268.65c-0.45,0.16-0.91,0.31-1.38,0.43
		C652.14,268.96,652.61,268.81,653.06,268.65z M648.77,269.6c-0.5,0.04-1,0.07-1.51,0.07l0,0
		C647.77,269.67,648.28,269.65,648.77,269.6z M638.44,267.21c-0.6-0.36-1.18-0.74-1.72-1.17l0,0
		C637.27,266.47,637.85,266.85,638.44,267.21z M613.11,257.61c0-0.37,0.02-0.74,0.05-1.11
		C613.13,256.86,613.11,257.23,613.11,257.61c0,7.35,5.96,13.31,13.31,13.31l0,0C619.07,270.92,613.11,264.96,613.11,257.61z
		 M613.11,337.67c0,0.37,0.02,0.74,0.05,1.11C613.13,338.41,613.11,338.04,613.11,337.67c0-7.35,5.96-13.31,13.31-13.31l0,0
		C619.07,324.36,613.11,330.32,613.11,337.67z M636.72,329.23c0.55-0.43,1.13-0.81,1.72-1.17
		C637.85,328.43,637.27,328.81,636.72,329.23L636.72,329.23z M647.26,325.6L647.26,325.6c0.35,0,0.69,0.01,1.04,0.03
		C647.96,325.61,647.61,325.6,647.26,325.6z M654.11,327.03c0.3,0.13,0.59,0.27,0.89,0.42v0
		C654.71,327.3,654.41,327.16,654.11,327.03z"/>
	<g>
		<path class="st1" d="M689.95,339.81c-2.44-0.28-4.95-0.06-7.34,0.63c-4.79,1.37-8.94,4.83-11.24,9.28
			c-2.31,4.45-2.74,9.83-1.1,14.54c0.81,2.35,2.08,4.53,3.71,6.36c1.66,1.81,3.66,3.31,5.87,4.29c-4.17-2.46-7.3-6.44-8.61-10.96
			c-1.32-4.51-0.86-9.48,1.31-13.61c2.13-4.16,5.92-7.39,10.37-8.92c4.45-1.54,9.51-1.27,13.92,0.72
			C694.76,340.9,692.39,340.13,689.95,339.81z"/>
		<path class="st1" d="M721.1,576.27c-3.17-1.33-6.63-2.01-10.11-2.02c-6.97-0.03-13.9,2.99-18.73,8.07
			c-4.84,5.07-7.53,12.14-7.16,19.09c0.17,3.47,1.02,6.89,2.5,10c1.53,3.08,3.62,5.87,6.21,8.06c-4.64-4.93-7.29-11.5-7.28-18.09
			c-0.01-6.58,2.55-13.07,7.08-17.77c4.48-4.75,10.84-7.62,17.41-7.92c6.58-0.33,13.27,2.01,18.41,6.4
			C727.14,579.61,724.25,577.65,721.1,576.27z"/>
		<path class="st1" d="M682.97-14.44c-0.63,3.38-0.57,6.91,0.16,10.3c1.44,6.82,5.86,12.95,11.85,16.6
			c5.98,3.66,13.45,4.79,20.17,2.96c3.35-0.9,6.52-2.46,9.24-4.56c2.69-2.14,4.97-4.78,6.56-7.77c-3.84,5.58-9.7,9.56-16.14,10.94
			c-6.43,1.4-13.31,0.27-18.87-3.16c-5.59-3.37-9.74-8.98-11.43-15.34c-1.71-6.36-0.84-13.39,2.36-19.35
			C684.95-21.04,683.65-17.81,682.97-14.44z"/>
		<path class="st1" d="M643.58,277.38c-2.33,0.78-4.51,2.04-6.38,3.68c-3.76,3.27-6.06,8.16-6.26,13.17
			c-0.21,5.01,1.67,10.07,5.15,13.64c1.73,1.78,3.8,3.22,6.06,4.19c2.27,0.94,4.71,1.45,7.14,1.4c-4.82-0.46-9.34-2.74-12.44-6.29
			c-3.1-3.53-4.79-8.23-4.57-12.89c0.17-4.67,2.24-9.2,5.62-12.47c3.38-3.28,8.08-5.17,12.92-5.24
			C648.4,276.32,645.93,276.63,643.58,277.38z"/>
		<path class="st1" d="M734.85,434.76c-2.67,0.89-5.16,2.34-7.3,4.2c-4.3,3.73-6.93,9.33-7.16,15.05
			c-0.21,4.84,1.32,9.71,4.19,13.57c-1.75,1-3.41,2.17-4.94,3.5c-6,5.21-9.66,13.01-9.98,21c-0.34,7.98,2.67,16.06,8.21,21.75
			c2.17,2.24,4.68,4.12,7.4,5.58c-0.49,0.36-0.97,0.73-1.42,1.12c-4.16,3.61-6.7,9.03-6.93,14.57c-0.24,5.54,1.85,11.14,5.7,15.09
			c1.91,1.97,4.2,3.56,6.7,4.64c2.51,1.04,5.21,1.6,7.89,1.55c-5.33-0.51-10.33-3.04-13.76-6.96c-3.43-3.91-5.3-9.1-5.06-14.26
			c0.19-5.16,2.47-10.18,6.22-13.79c0.53-0.52,1.1-0.99,1.69-1.45c0.41,0.2,0.8,0.42,1.22,0.6c3.62,1.49,7.51,2.31,11.38,2.24
			c-4.1-0.39-8.05-1.63-11.6-3.54l-0.94-0.53c-2.74-1.6-5.22-3.58-7.29-5.95c-4.95-5.63-7.64-13.12-7.29-20.56
			c0.27-7.44,3.57-14.68,8.97-19.88c1.42-1.38,3-2.59,4.68-3.65c0.28,0.32,0.54,0.66,0.84,0.96c1.97,2.04,4.34,3.68,6.92,4.79
			c2.6,1.07,5.39,1.66,8.15,1.6c-5.51-0.53-10.67-3.14-14.22-7.19c-0.22-0.25-0.42-0.53-0.63-0.79l-0.78-1.02
			c-2.63-3.76-4.03-8.35-3.81-12.92c0.19-5.33,2.56-10.52,6.43-14.25c3.86-3.74,9.23-5.91,14.76-5.99
			C740.36,433.56,737.53,433.91,734.85,434.76z"/>
		<path class="st1" d="M744.23,40.25c-2.68,1.04-5.16,2.62-7.25,4.63c-4.21,4.01-6.64,9.84-6.6,15.69c0.02,4.9,1.77,9.76,4.83,13.55
			c-1.92,1.19-3.73,2.56-5.36,4.13c-6.14,5.84-9.66,14.33-9.62,22.86c0.03,8.52,3.62,16.98,9.81,22.77c3.07,2.9,6.7,5.18,10.62,6.66
			c3.93,1.41,8.12,2.1,12.23,1.83c-8.22-0.41-16.08-3.94-21.62-9.72c-5.55-5.76-8.78-13.6-8.76-21.55
			c-0.08-7.94,3.09-15.81,8.59-21.62c1.52-1.61,3.23-3.03,5.06-4.28l1.07-0.69c4.58-2.86,9.9-4.61,15.41-4.93
			c-4.12-0.23-8.3,0.48-12.22,1.93c-1.4,0.54-2.74,1.22-4.05,1.96c-2.81-3.7-4.42-8.27-4.41-12.9c-0.05-5.45,2.12-10.86,5.9-14.84
			c3.77-4,9.15-6.47,14.79-6.8C749.79,38.76,746.92,39.26,744.23,40.25z"/>
		<path class="st1" d="M694.58,282.8c-1.88-0.73-3.62-1.84-5.09-3.25c-2.96-2.81-4.65-6.9-4.63-11.01c0.01-3.44,1.24-6.84,3.39-9.5
			c-1.35-0.83-2.61-1.8-3.76-2.9c-4.3-4.1-6.78-10.05-6.75-16.03c0.02-5.98,2.54-11.91,6.88-15.97c2.16-2.03,4.7-3.63,7.45-4.67
			c2.76-0.99,5.69-1.47,8.58-1.28c-5.77,0.29-11.28,2.76-15.17,6.82c-3.89,4.04-6.16,9.54-6.15,15.11
			c-0.05,5.57,2.17,11.09,6.02,15.16c1.06,1.13,2.26,2.13,3.55,3l0.75,0.48c3.21,2.01,6.94,3.23,10.81,3.46
			c-2.89,0.16-5.82-0.34-8.57-1.35c-0.98-0.38-1.92-0.86-2.84-1.37c-1.97,2.59-3.1,5.8-3.1,9.05c-0.04,3.83,1.49,7.61,4.14,10.41
			c2.64,2.81,6.42,4.53,10.37,4.77C698.48,283.84,696.47,283.49,694.58,282.8z"/>
	</g>
</g>
</svg>
