<svg width="109" height="120" viewBox="0 0 109 120" fill="none" xmlns="http://www.w3.org/2000/svg">
<path d="M10.7723 51.3727L11.4833 47.2131L8.46139 44.2623L12.6328 43.6579L14.5052 39.8775L16.3776 43.6579L20.5491 44.2623L17.5272 47.2131L18.2382 51.3727L14.5052 49.4055L10.7723 51.3727ZM63.1167 7.28817L65.9727 8.79321L65.4276 5.60537L67.7385 3.35374L64.5388 2.89157L63.1049 0L61.6709 2.89157L58.4713 3.35374L60.7821 5.60537L60.237 8.79321L63.093 7.28817H63.1167ZM84.9457 69.5991L87.8017 71.1041L87.2566 67.9163L89.5675 65.6646L86.3678 65.2024L84.9338 62.3109L83.4999 65.2024L80.3002 65.6646L82.6111 67.9163L82.066 71.1041L84.922 69.5991H84.9457ZM89.0105 19.5773V46.8457H49.9625V19.5773H89.0105ZM62.856 26.901C62.856 25.0997 61.3984 23.6303 59.5852 23.6303C57.7721 23.6303 56.3144 25.0879 56.3144 26.901C56.3144 28.7142 57.7721 30.1718 59.5852 30.1718C61.3984 30.1718 62.856 28.7142 62.856 26.901ZM75.9984 27.8372C75.9984 24.8627 73.5927 22.457 70.6182 22.457C67.6437 22.457 65.238 24.8627 65.238 27.8372C65.238 30.8118 67.6437 33.2175 70.6182 33.2175C73.5927 33.2175 75.9984 30.8118 75.9984 27.8372ZM44.3571 64.3492C45.0563 64.3492 45.7318 64.3966 46.4073 64.4796V17.5035C46.4073 16.3658 45.4829 15.4533 44.3571 15.4533C43.2313 15.4533 42.3069 16.3776 42.3069 17.5035V64.4677C42.9824 64.3966 43.6698 64.3492 44.3571 64.3492ZM54.205 80.5965C56.35 80.5965 58.4831 80.6557 60.6044 80.7505C59.443 72.8106 52.617 66.7193 44.3571 66.7193C35.3032 66.7193 27.9558 74.0431 27.9202 83.097C36.4171 81.4616 45.2459 80.6083 54.205 80.6083V80.5965ZM6.62453 102.082C4.24254 99.7353 2.01462 97.223 0 94.5447C15.477 87.2447 34.1181 82.9548 54.205 82.9548C74.2919 82.9548 92.933 87.2329 108.41 94.5447C106.941 96.5001 105.364 98.3607 103.693 100.138C101.169 98.5977 98.171 97.3533 94.8173 96.6305C84.365 94.3788 74.7541 97.7918 73.3676 104.25C72.4432 108.529 75.3585 113.067 80.4661 116.303C76.9583 117.784 73.2965 118.969 69.5042 119.846C66.7667 117.938 63.3182 116.421 59.4075 115.58C50.875 113.743 42.935 115.698 39.5457 119.988C32.9093 118.531 26.6522 116.101 20.9046 112.854C23.2036 110.508 24.2939 107.735 23.4881 105.246C22.0778 100.873 15.4533 99.0954 8.68655 101.264C7.96366 101.489 7.28817 101.774 6.63638 102.07L6.62453 102.082ZM64.9062 90.9777C64.9062 92.6368 66.6008 93.9877 68.6984 93.9877C70.796 93.9877 72.4906 92.6368 72.4906 90.9777C72.4906 89.3186 70.796 87.9676 68.6984 87.9676C66.6008 87.9676 64.9062 89.3186 64.9062 90.9777ZM36.6186 96.2868C36.6186 100.885 42.378 104.606 49.4884 104.606C56.5989 104.606 62.3583 100.885 62.3583 96.2868C62.3583 91.6887 56.5989 87.9676 49.4884 87.9676C42.378 87.9676 36.6186 91.6887 36.6186 96.2868ZM26.6403 112.155C27.2684 114.359 30.1837 115.449 33.1582 114.608C36.1327 113.767 38.0288 111.29 37.4126 109.097C36.7845 106.893 33.8692 105.803 30.8947 106.644C27.9202 107.486 26.0241 109.962 26.6403 112.155Z" fill="url(#paint0_linear_198_3559)"/>
<defs>
<linearGradient id="paint0_linear_198_3559" x1="0" y1="0" x2="104.855" y2="44.5823" gradientUnits="userSpaceOnUse">
<stop stop-color="#AE97E3"/>
<stop offset="1" stop-color="#77C3E7"/>
</linearGradient>
</defs>
</svg>
