<?xml version="1.0" encoding="utf-8"?>
<!-- Generator: Adobe Illustrator 24.1.1, SVG Export Plug-In . SVG Version: 6.00 Build 0)  -->
<svg version="1.1" id="Layer_1" xmlns="http://www.w3.org/2000/svg" xmlns:xlink="http://www.w3.org/1999/xlink" x="0px" y="0px"
	 viewBox="0 0 841.89 595.28" style="enable-background:new 0 0 841.89 595.28;" xml:space="preserve">
<style type="text/css">
	.st0{fill:none;stroke:#FFFFFF;stroke-linejoin:round;stroke-miterlimit:10;}
</style>
<path class="st0" d="M535.01,321.11l12.71-5.49l0.23,14.31l0.23,14.32l-12.87-5.09l-0.14-9.02L535.01,321.11z M351.99,324.01
	l-4.66,0.07c-8.79,0.14-15.86,4.29-15.78,9.27c0.08,4.98,7.27,8.91,16.06,8.77l4.66-0.07l-0.14-9.02L351.99,324.01z M327.23,326.92
	c-28.6-4.62-48.25-14.35-48.43-25.96l0.01,0l-0.01-0.01c-0.18-11.61,19.15-21.95,47.58-27.48c2.11,3.13,5.7,5.59,10.25,7.02
	l0.62,39.07C332.75,321.15,329.24,323.72,327.23,326.92z M302.74,307.76c2.57-0.04,4.62-2.16,4.58-4.73
	c-0.04-2.57-2.16-4.62-4.73-4.58c-2.57,0.04-4.62,2.16-4.58,4.73C298.05,305.75,300.17,307.8,302.74,307.76z M321.3,316.92
	c3.96-0.06,7.11-3.32,7.05-7.28c-0.06-3.96-3.32-7.11-7.28-7.05c-3.96,0.06-7.11,3.32-7.05,7.28
	C314.08,313.83,317.34,316.98,321.3,316.92z M351.23,275.61l-0.14-9.02l-0.14-9.02l-4.66,0.07c-8.79,0.14-15.86,4.29-15.78,9.27
	c0.08,4.98,7.27,8.91,16.06,8.77L351.23,275.61z M538.1,296.86l0.23,14.62c3.03-0.05,5.44-3.36,5.38-7.4
	c-0.06-4.03-2.56-7.25-5.58-7.22c3.02-0.07,5.41-3.37,5.35-7.4c-0.06-4.04-2.58-7.27-5.61-7.23L538.1,296.86L538.1,296.86z
	 M517.2,311.82l14.91-0.24l-0.46-29.24l-14.91,0.24L517.2,311.82z M534.1,263.69l0.14,9.02l12.87,5.09l-0.23-14.32l-0.23-14.31
	l-12.71,5.49L534.1,263.69z M554.3,338.86l8.01-0.13l-0.14-9.02l-0.14-9.02l-8.01,0.13l0.14,9.02L554.3,338.86z M553.25,272.42
	l8.01-0.13l-0.14-9.02l-0.14-9.02l-8.01,0.13l0.14,9.02L553.25,272.42z M357.54,281.73l-6.21,0.1l-4.66,0.07
	c-1.3,0.02-2.56-0.05-3.8-0.16l0.15,9.43c3.69-4.54,10.31-7.95,18.56-9.5L357.54,281.73z M358.11,317.69l3.92-0.06
	c-8.25-1.3-14.92-4.51-18.74-8.91l0.15,9.43c1.23-0.15,2.49-0.26,3.79-0.28l4.66-0.07L358.11,317.69z M378.56,311.95l-7.34,0.12
	c-13.84,0.22-25.15-5.23-25.26-12.16l0.02,0l-0.02-0.01c-0.11-6.93,11.02-12.73,24.86-12.95l7.34-0.12L378.56,311.95z
	 M372.76,295.16l-0.06-3.94l-4.58,0.07l0.06,3.94L372.76,295.16z M368.32,303.86l0.06,3.94l4.58-0.07l-0.06-3.94L368.32,303.86z
	 M372.86,301.45l-0.06-3.94l-4.58,0.07l0.06,3.94L372.86,301.45z M479.78,296.56l-0.93-58.97c-11.98,6.76-17,39.58-75.75,40.51
	c-7.55,0.12-14.23,1.93-18.78,4.65l0.52,33.1c4.63,2.58,11.36,4.17,18.92,4.05c58.76-0.93,64.81,31.72,77,38.09l-0.93-58.98
	L479.78,296.56z M486.27,313.99l0.73,46.39c3.84,1.24,7.09,2.01,7.09,2.01l13.04-39.27C498.69,322.92,491.35,319.22,486.27,313.99z
	 M506.32,271.6l-14.28-38.84c0,0-3.22,0.87-7.02,2.23l0.73,46.4C490.67,276,497.88,272.05,506.32,271.6z M385.92,275.06
	c4.97-1.98,10.86-3.09,17.08-3.19c26.9-0.43,41.38-7.66,50.73-15.94l-96.57,1.53l0.29,18.05L385.92,275.06z M528.03,272.82
	l-0.29-18.05l-20.87,0.33l6.01,16.35l0.63,1.6L528.03,272.82z M508.19,316.93l2.89-0.05l-0.62-39.19l-2.89,0.05
	c-12.57,0.2-22.6,10.86-22.46,19.95l0.02,0.01l-0.02,0C485.25,306.79,495.61,317.13,508.19,316.93z M508.21,339.59l20.87-0.33
	l-0.29-18.05l-14.56,0.23l-0.54,1.62L508.21,339.59z M386.69,323.46l-28.48,0.45l0.29,18.05l96.57-1.53
	c-9.61-7.98-24.31-14.75-51.21-14.33C397.63,326.2,391.71,325.28,386.69,323.46z"/>
</svg>
