<svg width="69" height="72" viewBox="0 0 69 72" fill="none" xmlns="http://www.w3.org/2000/svg">
<path d="M43.4077 43.3696H28.0877V39.3896H29.7177V33.3297H31.0077C30.6777 34.2997 30.6177 35.3696 30.9577 36.4096C31.6077 38.4296 33.4777 39.7796 35.5877 39.7796C36.0977 39.7796 36.5977 39.6996 37.0877 39.5396C38.8477 38.9697 40.4977 37.6697 41.7677 35.9296V39.3797H43.3977V43.3596L43.4077 43.3696ZM63.2877 33.6196L64.4477 30.9597C64.7777 30.2197 64.4377 29.3497 63.6877 29.0297L61.3477 34.3797C62.0877 34.7097 62.9577 34.3696 63.2777 33.6196H63.2877ZM52.5277 22.1197L48.7077 30.8597C49.9177 31.3897 51.3377 30.8397 51.8677 29.6197L53.7677 25.2697C54.2977 24.0597 53.7477 22.6397 52.5277 22.1097V22.1197ZM32.8677 35.7996C32.3777 34.2896 33.2077 32.6796 34.7077 32.1896C34.8977 32.1096 35.7577 31.4797 36.2777 29.9597C36.4577 29.4396 36.6177 28.7097 36.6377 27.7797L42.1377 30.1897C41.9877 30.9697 41.7877 31.6396 41.5877 32.1696C40.5777 34.8596 38.6277 36.9697 36.4877 37.6596C36.1977 37.7596 35.8977 37.7996 35.5977 37.7996C34.3877 37.7996 33.2577 37.0297 32.8677 35.8097V35.7996ZM34.3277 34.9396C34.3277 35.7296 34.9677 36.3596 35.7477 36.3596C36.5277 36.3596 37.1677 35.7196 37.1677 34.9396C37.1677 34.1596 36.5277 33.5196 35.7477 33.5196C34.9677 33.5196 34.3277 34.1596 34.3277 34.9396ZM35.6977 24.3597L38.9277 16.9797C39.8277 14.9197 38.8877 12.5197 36.8277 11.6097L30.3277 26.4497C32.3877 27.3497 34.7877 26.4097 35.6977 24.3497V24.3597ZM7.83769 67.2197C5.32769 67.2197 3.29769 69.2496 3.29769 71.7597H12.3777C12.3777 69.2496 10.3477 67.2197 7.83769 67.2197ZM35.7477 67.2197C33.2377 67.2197 31.2077 69.2496 31.2077 71.7597H40.2877C40.2877 69.2496 38.2577 67.2197 35.7477 67.2197ZM63.6877 67.2197C61.1777 67.2197 59.1477 69.2496 59.1477 71.7597H68.2277C68.2277 69.2496 66.1977 67.2197 63.6877 67.2197ZM62.5877 65.3196L45.1277 45.3696H42.8377L60.8077 65.8997C61.3677 65.6297 61.9577 65.4296 62.5877 65.3196ZM35.7477 65.2197C36.0377 65.2197 36.3277 65.2496 36.6077 65.2796V45.3696H34.8877V65.2796C35.1677 65.2396 35.4577 65.2197 35.7477 65.2197ZM8.90769 65.3196C9.53769 65.4296 10.1377 65.6197 10.6977 65.8896L28.6577 45.3696H26.3677L8.90769 65.3196ZM37.1777 25.8197L46.8677 30.0597L50.6977 21.3097L41.0177 17.0697C40.9477 17.3097 40.8677 17.5397 40.7677 17.7697L37.5377 25.1497C37.4377 25.3797 37.3177 25.5997 37.1877 25.8097L37.1777 25.8197ZM28.4977 25.6497L34.9977 10.8097L12.9077 1.13965L6.41769 15.9897L28.4977 25.6497ZM4.57769 15.1897L11.0777 0.339651C9.0877 -0.530349 6.78769 0.329651 5.81769 2.24965V2.22965L3.63769 1.27965C3.12769 1.05965 1.95769 2.61965 1.01769 4.76965C0.0776946 6.91965 -0.272305 8.83965 0.227695 9.06965L2.39769 10.0297H2.41769C1.66769 12.0397 2.58769 14.3097 4.58769 15.1897H4.57769ZM61.8577 28.2197L55.7577 25.5497C55.7077 25.7297 55.6577 25.8997 55.5877 26.0697L53.6877 30.4097C53.6077 30.5797 53.5177 30.7397 53.4277 30.8997L59.5177 33.5696L61.8577 28.2097V28.2197ZM53.0177 16.4497L62.8777 20.7697C63.6177 21.0897 64.3977 20.9497 64.6177 20.4397L65.4077 18.6397C65.6277 18.1397 65.2077 17.4597 64.4577 17.1397L54.5977 12.8197C53.8577 12.4897 53.0777 12.6397 52.8577 13.1397L52.0677 14.9397C51.8477 15.4397 52.2677 16.1197 53.0177 16.4397V16.4497ZM58.7977 21.1597L57.4977 24.1297L59.0177 24.7897L60.3177 21.8197L58.7977 21.1597Z" fill="#1F1F1F"/>
</svg>
